<svg xmlns="http://www.w3.org/2000/svg" xmlns:xlink="http://www.w3.org/1999/xlink" width="1024" zoomAndPan="magnify" viewBox="0 0 768 767.999994" height="1024" preserveAspectRatio="xMidYMid meet" version="1.0"><defs><clipPath id="04b1fb7c4e"><path d="M 62.605469 97.789062 L 522 97.789062 L 522 371 L 62.605469 371 Z M 62.605469 97.789062 " clip-rule="nonzero"/></clipPath><clipPath id="0b7a91dbb8"><path d="M 316 209 L 705.355469 209 L 705.355469 441 L 316 441 Z M 316 209 " clip-rule="nonzero"/></clipPath><clipPath id="75b56ef6bf"><path d="M 175 477 L 503 477 L 503 670.039062 L 175 670.039062 Z M 175 477 " clip-rule="nonzero"/></clipPath></defs><g clip-path="url(#04b1fb7c4e)"><path fill="#26477a" d="M 461.691406 251.6875 L 459.929688 251.6875 C 462.128906 244.589844 463.210938 237.324219 463.179688 229.894531 C 463.179688 228.148438 463.117188 226.40625 462.992188 224.664062 C 462.867188 222.921875 462.683594 221.1875 462.4375 219.460938 C 462.191406 217.734375 461.882812 216.015625 461.515625 214.308594 C 461.148438 212.601562 460.71875 210.914062 460.230469 209.234375 C 459.742188 207.558594 459.195312 205.902344 458.59375 204.265625 C 457.988281 202.628906 457.324219 201.015625 456.605469 199.425781 C 455.886719 197.832031 455.113281 196.269531 454.285156 194.734375 C 453.453125 193.199219 452.570312 191.695312 451.636719 190.21875 C 450.699219 188.746094 449.710938 187.308594 448.675781 185.90625 C 447.636719 184.5 446.550781 183.136719 445.417969 181.808594 C 444.28125 180.484375 443.101562 179.199219 441.878906 177.953125 C 440.652344 176.710938 439.382812 175.511719 438.074219 174.359375 C 436.765625 173.207031 435.414062 172.097656 434.027344 171.042969 C 432.640625 169.984375 431.214844 168.976562 429.757812 168.015625 C 428.296875 167.058594 426.804688 166.15625 425.28125 165.304688 C 423.757812 164.449219 422.207031 163.652344 420.625 162.910156 C 419.046875 162.167969 417.441406 161.484375 415.8125 160.855469 C 414.1875 160.226562 412.539062 159.65625 410.867188 159.144531 C 409.199219 158.628906 407.515625 158.179688 405.816406 157.785156 C 404.113281 157.390625 402.402344 157.058594 400.675781 156.789062 C 398.953125 156.515625 397.222656 156.304688 395.480469 156.15625 C 393.742188 156.003906 392 155.917969 390.253906 155.890625 C 388.511719 155.863281 386.765625 155.902344 385.023438 155.996094 C 383.28125 156.09375 381.542969 156.253906 379.8125 156.472656 C 378.078125 156.691406 376.359375 156.972656 374.644531 157.316406 C 372.933594 157.65625 371.238281 158.058594 369.554688 158.519531 C 367.871094 158.984375 366.207031 159.503906 364.558594 160.082031 C 362.914062 160.664062 361.289062 161.300781 359.6875 161.992188 C 358.085938 162.6875 356.511719 163.4375 354.960938 164.242188 C 353.414062 165.050781 351.894531 165.910156 350.40625 166.824219 C 348.921875 167.734375 347.464844 168.699219 346.046875 169.714844 C 344.628906 170.730469 343.246094 171.796875 341.902344 172.910156 C 341.585938 171.488281 341.234375 170.074219 340.851562 168.667969 C 340.46875 167.257812 340.054688 165.863281 339.609375 164.472656 C 339.164062 163.085938 338.6875 161.707031 338.179688 160.34375 C 337.667969 158.976562 337.128906 157.621094 336.558594 156.28125 C 335.988281 154.941406 335.386719 153.613281 334.757812 152.296875 C 334.125 150.984375 333.464844 149.683594 332.773438 148.398438 C 332.085938 147.117188 331.363281 145.847656 330.617188 144.597656 C 329.867188 143.347656 329.09375 142.113281 328.289062 140.898438 C 327.484375 139.679688 326.652344 138.484375 325.792969 137.308594 C 324.933594 136.128906 324.046875 134.972656 323.136719 133.835938 C 322.222656 132.695312 321.285156 131.582031 320.324219 130.488281 C 319.359375 129.390625 318.371094 128.320312 317.359375 127.269531 C 316.347656 126.222656 315.3125 125.195312 314.253906 124.191406 C 313.195312 123.191406 312.117188 122.214844 311.011719 121.261719 C 309.910156 120.308594 308.785156 119.378906 307.640625 118.476562 C 306.492188 117.578125 305.328125 116.703125 304.140625 115.851562 C 302.957031 115.003906 301.753906 114.183594 300.53125 113.390625 C 299.304688 112.597656 298.066406 111.832031 296.808594 111.09375 C 295.550781 110.359375 294.277344 109.648438 292.984375 108.972656 C 291.695312 108.292969 290.390625 107.644531 289.070312 107.023438 C 287.75 106.40625 286.417969 105.816406 285.070312 105.257812 C 283.722656 104.699219 282.367188 104.171875 280.996094 103.675781 C 279.625 103.179688 278.242188 102.714844 276.851562 102.28125 C 275.457031 101.847656 274.058594 101.449219 272.648438 101.078125 C 271.238281 100.710938 269.820312 100.371094 268.394531 100.066406 C 266.96875 99.761719 265.535156 99.492188 264.097656 99.253906 C 262.660156 99.011719 261.21875 98.808594 259.769531 98.632812 C 258.320312 98.460938 256.871094 98.320312 255.417969 98.210938 C 253.964844 98.105469 252.507812 98.03125 251.050781 97.992188 C 249.59375 97.949219 248.136719 97.941406 246.679688 97.96875 C 245.222656 97.992188 243.765625 98.054688 242.308594 98.144531 C 240.855469 98.238281 239.402344 98.363281 237.953125 98.519531 C 236.503906 98.679688 235.058594 98.871094 233.617188 99.09375 C 232.179688 99.320312 230.742188 99.578125 229.316406 99.867188 C 227.886719 100.15625 226.464844 100.480469 225.050781 100.832031 C 223.636719 101.1875 222.230469 101.574219 220.835938 101.996094 C 219.4375 102.414062 218.054688 102.863281 216.675781 103.347656 C 215.300781 103.828125 213.9375 104.339844 212.585938 104.886719 C 211.234375 105.429688 209.894531 106.003906 208.566406 106.609375 C 207.242188 107.214844 205.929688 107.851562 204.632812 108.515625 C 203.335938 109.183594 202.054688 109.878906 200.789062 110.601562 C 199.523438 111.324219 198.273438 112.078125 197.042969 112.859375 C 195.8125 113.640625 194.601562 114.449219 193.40625 115.285156 C 192.210938 116.121094 191.039062 116.984375 189.882812 117.871094 C 188.726562 118.761719 187.59375 119.679688 186.480469 120.621094 C 185.367188 121.5625 184.277344 122.527344 183.207031 123.519531 C 182.140625 124.511719 181.09375 125.523438 180.070312 126.5625 C 179.046875 127.601562 178.050781 128.664062 177.074219 129.75 C 176.101562 130.835938 175.152344 131.941406 174.230469 133.070312 C 173.304688 134.195312 172.40625 135.34375 171.535156 136.511719 C 170.664062 137.683594 169.820312 138.871094 169.003906 140.078125 C 168.1875 141.285156 167.398438 142.511719 166.636719 143.753906 C 165.875 144.996094 165.144531 146.257812 164.441406 147.535156 C 163.738281 148.8125 163.0625 150.101562 162.417969 151.410156 C 161.773438 152.71875 161.160156 154.039062 160.574219 155.375 C 159.988281 156.710938 159.4375 158.058594 158.914062 159.421875 C 158.390625 160.78125 157.898438 162.152344 157.441406 163.535156 C 156.980469 164.921875 156.550781 166.3125 156.15625 167.714844 C 155.757812 169.117188 155.394531 170.53125 155.0625 171.949219 C 154.730469 173.371094 154.429688 174.796875 154.164062 176.230469 C 153.894531 177.660156 153.660156 179.101562 153.460938 180.542969 C 153.257812 181.988281 153.089844 183.4375 152.953125 184.886719 C 152.820312 186.339844 152.71875 187.792969 152.648438 189.25 C 152.578125 190.707031 152.542969 192.164062 152.539062 193.621094 C 152.578125 199.765625 153.164062 205.855469 154.300781 211.894531 C 150.347656 211.34375 146.378906 211.074219 142.390625 211.082031 C 140.203125 211.085938 138.015625 211.183594 135.835938 211.371094 C 133.65625 211.558594 131.488281 211.832031 129.332031 212.199219 C 127.175781 212.5625 125.035156 213.015625 122.914062 213.554688 C 120.796875 214.097656 118.699219 214.722656 116.632812 215.433594 C 114.5625 216.148438 112.527344 216.945312 110.523438 217.824219 C 108.519531 218.703125 106.558594 219.664062 104.632812 220.707031 C 102.707031 221.746094 100.832031 222.867188 99 224.0625 C 97.164062 225.257812 95.386719 226.527344 93.65625 227.867188 C 91.929688 229.210938 90.261719 230.621094 88.648438 232.101562 C 87.035156 233.582031 85.488281 235.125 84 236.730469 C 82.515625 238.335938 81.101562 240 79.75 241.722656 C 78.402344 243.449219 77.128906 245.222656 75.925781 247.050781 C 74.722656 248.878906 73.597656 250.753906 72.550781 252.671875 C 71.5 254.59375 70.53125 256.554688 69.644531 258.554688 C 68.757812 260.554688 67.953125 262.585938 67.234375 264.652344 C 66.515625 266.71875 65.878906 268.8125 65.332031 270.929688 C 64.785156 273.046875 64.324219 275.183594 63.949219 277.339844 C 63.578125 279.496094 63.292969 281.664062 63.101562 283.84375 C 62.90625 286.023438 62.800781 288.207031 62.785156 290.394531 C 62.769531 292.582031 62.847656 294.765625 63.011719 296.949219 C 63.175781 299.128906 63.429688 301.300781 63.773438 303.464844 C 64.113281 305.625 64.546875 307.765625 65.066406 309.890625 C 65.585938 312.019531 66.191406 314.117188 66.882812 316.195312 C 67.574219 318.269531 68.351562 320.3125 69.210938 322.324219 C 70.070312 324.335938 71.011719 326.3125 72.03125 328.246094 C 73.054688 330.179688 74.15625 332.070312 75.332031 333.914062 C 76.511719 335.757812 77.761719 337.550781 79.085938 339.292969 C 80.410156 341.03125 81.804688 342.71875 83.265625 344.34375 C 84.730469 345.96875 86.257812 347.535156 87.851562 349.035156 C 89.441406 350.535156 91.09375 351.96875 92.800781 353.335938 C 94.511719 354.703125 96.273438 355.996094 98.089844 357.214844 C 99.90625 358.4375 101.769531 359.578125 103.679688 360.648438 C 108.539062 363.914062 113.773438 366.402344 119.375 368.109375 C 124.980469 369.816406 130.710938 370.667969 136.570312 370.664062 L 461.691406 370.664062 C 463.640625 370.660156 465.585938 370.558594 467.523438 370.363281 C 469.464844 370.167969 471.390625 369.878906 473.300781 369.496094 C 475.210938 369.113281 477.097656 368.636719 478.964844 368.070312 C 480.828125 367.5 482.660156 366.84375 484.460938 366.09375 C 486.261719 365.347656 488.019531 364.511719 489.738281 363.589844 C 491.457031 362.671875 493.125 361.667969 494.746094 360.585938 C 496.367188 359.5 497.929688 358.339844 499.4375 357.105469 C 500.941406 355.867188 502.386719 354.558594 503.761719 353.179688 C 505.140625 351.800781 506.449219 350.359375 507.6875 348.851562 C 508.921875 347.347656 510.085938 345.785156 511.167969 344.164062 C 512.253906 342.542969 513.253906 340.875 514.175781 339.15625 C 515.09375 337.4375 515.929688 335.679688 516.675781 333.878906 C 517.425781 332.078125 518.082031 330.246094 518.652344 328.378906 C 519.21875 326.515625 519.695312 324.628906 520.078125 322.71875 C 520.464844 320.804688 520.753906 318.878906 520.949219 316.941406 C 521.140625 315 521.242188 313.058594 521.246094 311.109375 C 521.238281 309.160156 521.132812 307.21875 520.933594 305.285156 C 520.738281 303.347656 520.445312 301.425781 520.058594 299.515625 C 519.671875 297.609375 519.191406 295.726562 518.621094 293.863281 C 518.050781 292.003906 517.386719 290.175781 516.636719 288.378906 C 515.886719 286.582031 515.050781 284.828125 514.132812 283.113281 C 513.210938 281.398438 512.207031 279.734375 511.121094 278.117188 C 510.035156 276.5 508.875 274.941406 507.640625 273.4375 C 506.402344 271.9375 505.09375 270.496094 503.714844 269.121094 C 502.339844 267.746094 500.894531 266.441406 499.390625 265.210938 C 497.886719 263.976562 496.324219 262.816406 494.703125 261.738281 C 493.085938 260.65625 491.417969 259.65625 489.703125 258.738281 C 487.984375 257.820312 486.226562 256.988281 484.429688 256.242188 C 482.632812 255.496094 480.800781 254.839844 478.941406 254.273438 C 477.078125 253.707031 475.191406 253.234375 473.285156 252.851562 C 471.375 252.46875 469.453125 252.179688 467.515625 251.984375 C 465.578125 251.789062 463.636719 251.691406 461.691406 251.6875 Z M 461.691406 251.6875 " fill-opacity="1" fill-rule="nonzero"/></g><path fill="#6c88b5" d="M 460.878906 431.03125 L 459.523438 431.03125 C 461.21875 425.472656 462.078125 419.789062 462.097656 413.976562 C 462.09375 411.246094 461.898438 408.53125 461.511719 405.828125 C 461.125 403.125 460.550781 400.464844 459.785156 397.84375 C 459.023438 395.222656 458.078125 392.667969 456.949219 390.179688 C 455.824219 387.691406 454.527344 385.296875 453.0625 382.992188 C 451.597656 380.691406 449.976562 378.503906 448.199219 376.429688 C 446.425781 374.355469 444.511719 372.417969 442.460938 370.613281 C 440.410156 368.8125 438.242188 367.160156 435.957031 365.667969 C 433.675781 364.171875 431.296875 362.84375 428.824219 361.6875 C 426.351562 360.527344 423.808594 359.550781 421.199219 358.75 C 418.585938 357.953125 415.933594 357.34375 413.234375 356.921875 C 410.539062 356.496094 407.824219 356.269531 405.09375 356.230469 C 402.363281 356.191406 399.644531 356.347656 396.9375 356.695312 C 394.230469 357.042969 391.558594 357.582031 388.929688 358.308594 C 386.296875 359.03125 383.730469 359.941406 381.226562 361.03125 C 378.722656 362.121094 376.308594 363.382812 373.984375 364.8125 C 371.660156 366.246094 369.449219 367.835938 367.347656 369.582031 C 366.875 367.339844 366.296875 365.125 365.617188 362.9375 C 364.941406 360.75 364.164062 358.597656 363.285156 356.480469 C 362.410156 354.363281 361.4375 352.292969 360.371094 350.265625 C 359.304688 348.238281 358.148438 346.265625 356.898438 344.34375 C 355.652344 342.421875 354.316406 340.5625 352.898438 338.765625 C 351.476562 336.96875 349.980469 335.238281 348.402344 333.578125 C 346.820312 331.917969 345.171875 330.335938 343.445312 328.824219 C 341.722656 327.316406 339.933594 325.890625 338.078125 324.546875 C 336.222656 323.203125 334.308594 321.949219 332.335938 320.78125 C 330.367188 319.613281 328.347656 318.539062 326.277344 317.558594 C 324.207031 316.574219 322.097656 315.691406 319.945312 314.902344 C 317.796875 314.117188 315.613281 313.429688 313.398438 312.839844 C 311.183594 312.253906 308.945312 311.769531 306.6875 311.390625 C 304.429688 311.007812 302.15625 310.730469 299.875 310.558594 C 297.589844 310.386719 295.300781 310.320312 293.011719 310.359375 C 290.722656 310.394531 288.4375 310.539062 286.160156 310.785156 C 283.882812 311.035156 281.621094 311.386719 279.378906 311.84375 C 277.132812 312.300781 274.914062 312.859375 272.71875 313.519531 C 270.527344 314.179688 268.367188 314.9375 266.242188 315.796875 C 264.121094 316.65625 262.039062 317.609375 260.003906 318.660156 C 257.96875 319.710938 255.984375 320.851562 254.054688 322.082031 C 252.125 323.316406 250.253906 324.632812 248.445312 326.039062 C 246.632812 327.445312 244.890625 328.929688 243.21875 330.492188 C 241.546875 332.058594 239.949219 333.695312 238.425781 335.40625 C 236.902344 337.121094 235.464844 338.898438 234.105469 340.742188 C 232.746094 342.585938 231.472656 344.488281 230.289062 346.449219 C 229.105469 348.410156 228.015625 350.421875 227.015625 352.484375 C 226.015625 354.542969 225.113281 356.648438 224.308594 358.792969 C 223.503906 360.9375 222.796875 363.113281 222.195312 365.324219 C 221.589844 367.53125 221.085938 369.765625 220.6875 372.019531 C 220.285156 374.277344 219.992188 376.546875 219.800781 378.828125 C 219.609375 381.109375 219.523438 383.398438 219.542969 385.6875 C 219.582031 390.507812 220.035156 395.292969 220.894531 400.035156 C 217.804688 399.484375 214.691406 399.214844 211.554688 399.222656 C 209.839844 399.21875 208.128906 399.285156 206.421875 399.421875 C 204.714844 399.558594 203.011719 399.765625 201.320312 400.042969 C 199.628906 400.320312 197.953125 400.667969 196.289062 401.082031 C 194.628906 401.496094 192.984375 401.980469 191.363281 402.53125 C 189.738281 403.082031 188.140625 403.699219 186.570312 404.382812 C 185 405.066406 183.457031 405.816406 181.949219 406.625 C 180.4375 407.4375 178.964844 408.308594 177.523438 409.238281 C 176.085938 410.171875 174.6875 411.160156 173.332031 412.210938 C 171.976562 413.257812 170.664062 414.359375 169.398438 415.515625 C 168.132812 416.671875 166.917969 417.875 165.753906 419.132812 C 164.585938 420.390625 163.476562 421.691406 162.417969 423.039062 C 161.359375 424.386719 160.355469 425.777344 159.414062 427.207031 C 158.46875 428.640625 157.585938 430.105469 156.765625 431.609375 C 155.941406 433.113281 155.183594 434.648438 154.488281 436.214844 C 153.792969 437.78125 153.160156 439.375 152.597656 440.992188 C 152.035156 442.609375 151.539062 444.25 151.109375 445.910156 C 150.679688 447.570312 150.320312 449.242188 150.03125 450.933594 C 149.738281 452.621094 149.519531 454.320312 149.367188 456.027344 C 149.21875 457.734375 149.136719 459.445312 149.128906 461.160156 C 149.121094 462.871094 149.183594 464.582031 149.3125 466.292969 C 149.445312 468 149.648438 469.703125 149.921875 471.394531 C 150.195312 473.085938 150.535156 474.765625 150.949219 476.429688 C 151.359375 478.089844 151.839844 479.734375 152.386719 481.359375 C 152.933594 482.984375 153.546875 484.582031 154.222656 486.15625 C 154.902344 487.730469 155.648438 489.273438 156.453125 490.785156 C 157.257812 492.296875 158.128906 493.773438 159.054688 495.214844 C 159.984375 496.65625 160.96875 498.054688 162.015625 499.414062 C 163.058594 500.773438 164.15625 502.089844 165.308594 503.355469 C 166.460938 504.625 167.664062 505.84375 168.917969 507.011719 C 170.171875 508.183594 171.472656 509.296875 172.816406 510.359375 C 174.160156 511.421875 175.546875 512.425781 176.976562 513.375 C 178.40625 514.320312 179.871094 515.207031 181.371094 516.035156 C 185.164062 518.609375 189.253906 520.566406 193.636719 521.902344 C 198.019531 523.242188 202.503906 523.902344 207.089844 523.886719 L 460.878906 523.886719 C 462.402344 523.886719 463.917969 523.808594 465.433594 523.660156 C 466.949219 523.511719 468.453125 523.289062 469.945312 522.992188 C 471.4375 522.695312 472.914062 522.328125 474.371094 521.886719 C 475.828125 521.445312 477.257812 520.933594 478.664062 520.355469 C 480.074219 519.773438 481.449219 519.125 482.789062 518.40625 C 484.132812 517.691406 485.4375 516.910156 486.703125 516.066406 C 487.972656 515.222656 489.195312 514.316406 490.371094 513.351562 C 491.550781 512.390625 492.675781 511.371094 493.753906 510.296875 C 494.832031 509.21875 495.855469 508.09375 496.824219 506.921875 C 497.789062 505.746094 498.699219 504.527344 499.546875 503.261719 C 500.394531 501.996094 501.179688 500.695312 501.898438 499.355469 C 502.617188 498.011719 503.273438 496.640625 503.855469 495.234375 C 504.441406 493.832031 504.957031 492.398438 505.402344 490.945312 C 505.847656 489.488281 506.222656 488.015625 506.523438 486.523438 C 506.824219 485.03125 507.050781 483.527344 507.203125 482.011719 C 507.355469 480.5 507.4375 478.980469 507.441406 477.457031 C 507.4375 475.9375 507.355469 474.417969 507.203125 472.902344 C 507.050781 471.390625 506.824219 469.886719 506.523438 468.394531 C 506.222656 466.902344 505.847656 465.425781 505.402344 463.972656 C 504.957031 462.515625 504.441406 461.085938 503.855469 459.679688 C 503.273438 458.277344 502.617188 456.902344 501.898438 455.5625 C 501.179688 454.222656 500.394531 452.917969 499.546875 451.65625 C 498.699219 450.390625 497.789062 449.171875 496.824219 447.996094 C 495.855469 446.820312 494.832031 445.695312 493.753906 444.621094 C 492.675781 443.546875 491.550781 442.527344 490.371094 441.5625 C 489.195312 440.597656 487.972656 439.695312 486.703125 438.851562 C 485.4375 438.007812 484.132812 437.226562 482.789062 436.507812 C 481.449219 435.792969 480.074219 435.144531 478.664062 434.5625 C 477.257812 433.980469 475.828125 433.46875 474.371094 433.027344 C 472.914062 432.589844 471.4375 432.21875 469.945312 431.921875 C 468.453125 431.625 466.949219 431.402344 465.433594 431.253906 C 463.917969 431.105469 462.402344 431.03125 460.878906 431.03125 Z M 460.878906 431.03125 " fill-opacity="1" fill-rule="nonzero"/><path fill="#26477a" d="M 464.53125 438.207031 L 463.179688 438.207031 C 464.820312 432.683594 465.632812 427.046875 465.617188 421.285156 C 465.613281 418.558594 465.421875 415.847656 465.035156 413.144531 C 464.652344 410.445312 464.078125 407.789062 463.316406 405.167969 C 462.554688 402.550781 461.613281 400 460.492188 397.511719 C 459.367188 395.027344 458.074219 392.632812 456.613281 390.332031 C 455.152344 388.03125 453.535156 385.839844 451.765625 383.769531 C 449.992188 381.695312 448.085938 379.757812 446.039062 377.953125 C 443.992188 376.148438 441.832031 374.5 439.550781 373 C 437.273438 371.503906 434.898438 370.175781 432.433594 369.015625 C 429.964844 367.851562 427.429688 366.871094 424.820312 366.070312 C 422.214844 365.265625 419.566406 364.652344 416.871094 364.226562 C 414.179688 363.796875 411.46875 363.5625 408.742188 363.519531 C 406.015625 363.476562 403.300781 363.625 400.59375 363.964844 C 397.886719 364.304688 395.21875 364.835938 392.589844 365.554688 C 389.957031 366.273438 387.390625 367.171875 384.890625 368.253906 C 382.386719 369.335938 379.972656 370.589844 377.644531 372.011719 C 375.320312 373.4375 373.105469 375.015625 371.003906 376.753906 C 370.496094 374.542969 369.890625 372.359375 369.183594 370.203125 C 368.480469 368.046875 367.675781 365.925781 366.777344 363.84375 C 365.878906 361.757812 364.890625 359.722656 363.804688 357.726562 C 362.722656 355.734375 361.550781 353.792969 360.289062 351.90625 C 359.027344 350.019531 357.6875 348.195312 356.261719 346.429688 C 354.832031 344.664062 353.332031 342.96875 351.75 341.339844 C 350.167969 339.714844 348.519531 338.160156 346.796875 336.683594 C 345.074219 335.203125 343.289062 333.808594 341.441406 332.492188 C 339.59375 331.175781 337.6875 329.949219 335.726562 328.804688 C 333.765625 327.664062 331.757812 326.613281 329.703125 325.652344 C 327.648438 324.691406 325.550781 323.828125 323.417969 323.058594 C 321.28125 322.289062 319.117188 321.621094 316.921875 321.046875 C 314.726562 320.476562 312.507812 320.003906 310.269531 319.632812 C 308.03125 319.261719 305.78125 318.996094 303.519531 318.828125 C 301.257812 318.664062 298.992188 318.601562 296.722656 318.640625 C 294.453125 318.679688 292.191406 318.824219 289.9375 319.070312 C 287.679688 319.316406 285.441406 319.664062 283.214844 320.113281 C 280.992188 320.5625 278.792969 321.109375 276.621094 321.761719 C 274.445312 322.410156 272.304688 323.15625 270.199219 324 C 268.09375 324.84375 266.03125 325.78125 264.007812 326.8125 C 261.988281 327.84375 260.019531 328.96875 258.097656 330.179688 C 256.179688 331.386719 254.320312 332.683594 252.519531 334.0625 C 250.71875 335.445312 248.984375 336.902344 247.316406 338.441406 C 245.648438 339.976562 244.050781 341.589844 242.53125 343.269531 C 241.007812 344.953125 239.566406 346.703125 238.203125 348.515625 C 236.839844 350.332031 235.5625 352.203125 234.371094 354.132812 C 233.175781 356.0625 232.074219 358.042969 231.0625 360.074219 C 230.050781 362.105469 229.128906 364.175781 228.304688 366.289062 C 227.480469 368.402344 226.753906 370.550781 226.125 372.730469 C 225.496094 374.910156 224.96875 377.113281 224.539062 379.34375 C 224.113281 381.570312 223.785156 383.8125 223.5625 386.070312 C 223.335938 388.328125 223.214844 390.59375 223.195312 392.863281 C 223.164062 397.691406 223.613281 402.472656 224.550781 407.210938 C 221.449219 406.78125 218.335938 406.554688 215.210938 406.53125 C 213.5 406.539062 211.796875 406.613281 210.09375 406.761719 C 208.394531 406.90625 206.699219 407.121094 205.015625 407.40625 C 203.332031 407.691406 201.660156 408.046875 200.007812 408.46875 C 198.351562 408.890625 196.714844 409.378906 195.101562 409.9375 C 193.488281 410.492188 191.898438 411.117188 190.332031 411.804688 C 188.769531 412.488281 187.234375 413.238281 185.734375 414.054688 C 184.230469 414.867188 182.765625 415.738281 181.335938 416.671875 C 179.902344 417.605469 178.515625 418.597656 177.164062 419.644531 C 175.816406 420.691406 174.511719 421.792969 173.253906 422.949219 C 171.992188 424.101562 170.785156 425.304688 169.625 426.558594 C 168.464844 427.816406 167.359375 429.113281 166.304688 430.457031 C 165.253906 431.804688 164.253906 433.1875 163.316406 434.617188 C 162.378906 436.042969 161.496094 437.503906 160.679688 439.003906 C 159.859375 440.503906 159.101562 442.035156 158.410156 443.59375 C 157.714844 445.15625 157.085938 446.742188 156.523438 448.355469 C 155.960938 449.96875 155.464844 451.601562 155.035156 453.253906 C 154.605469 454.90625 154.246094 456.574219 153.953125 458.257812 C 153.660156 459.941406 153.4375 461.632812 153.285156 463.335938 C 153.132812 465.035156 153.050781 466.742188 153.035156 468.449219 C 153.023438 470.15625 153.078125 471.863281 153.207031 473.566406 C 153.332031 475.269531 153.53125 476.964844 153.796875 478.652344 C 154.0625 480.339844 154.398438 482.011719 154.800781 483.671875 C 155.203125 485.332031 155.675781 486.972656 156.214844 488.59375 C 156.75 490.214844 157.355469 491.8125 158.023438 493.382812 C 158.695312 494.957031 159.425781 496.496094 160.222656 498.007812 C 161.019531 499.519531 161.875 500.996094 162.792969 502.4375 C 163.710938 503.878906 164.683594 505.277344 165.71875 506.640625 C 166.75 508 167.835938 509.316406 168.976562 510.589844 C 170.117188 511.859375 171.308594 513.082031 172.546875 514.257812 C 173.789062 515.429688 175.074219 516.550781 176.410156 517.621094 C 177.742188 518.6875 179.117188 519.699219 180.53125 520.65625 C 181.949219 521.613281 183.402344 522.507812 184.890625 523.34375 C 188.722656 525.890625 192.839844 527.832031 197.242188 529.167969 C 201.640625 530.503906 206.144531 531.179688 210.742188 531.195312 L 464.53125 531.195312 C 466.054688 531.191406 467.574219 531.109375 469.085938 530.957031 C 470.601562 530.804688 472.105469 530.578125 473.597656 530.277344 C 475.089844 529.976562 476.5625 529.601562 478.019531 529.15625 C 479.476562 528.710938 480.90625 528.195312 482.308594 527.609375 C 483.714844 527.027344 485.089844 526.371094 486.429688 525.652344 C 487.769531 524.933594 489.074219 524.148438 490.335938 523.300781 C 491.601562 522.453125 492.820312 521.542969 493.996094 520.578125 C 495.171875 519.609375 496.296875 518.585938 497.371094 517.507812 C 498.445312 516.429688 499.464844 515.304688 500.429688 514.125 C 501.390625 512.945312 502.296875 511.726562 503.140625 510.457031 C 503.984375 509.191406 504.765625 507.886719 505.480469 506.542969 C 506.199219 505.199219 506.847656 503.824219 507.429688 502.417969 C 508.007812 501.011719 508.519531 499.582031 508.960938 498.125 C 509.402344 496.667969 509.773438 495.191406 510.066406 493.699219 C 510.363281 492.207031 510.585938 490.703125 510.734375 489.1875 C 510.886719 487.671875 510.960938 486.152344 510.960938 484.632812 C 510.957031 483.113281 510.875 481.597656 510.722656 480.085938 C 510.570312 478.574219 510.34375 477.074219 510.046875 475.585938 C 509.746094 474.09375 509.375 472.625 508.929688 471.171875 C 508.488281 469.71875 507.972656 468.289062 507.390625 466.886719 C 506.804688 465.484375 506.15625 464.113281 505.4375 462.773438 C 504.71875 461.433594 503.9375 460.132812 503.09375 458.871094 C 502.25 457.609375 501.34375 456.390625 500.378906 455.214844 C 499.414062 454.042969 498.394531 452.917969 497.320312 451.84375 C 496.246094 450.769531 495.125 449.75 493.949219 448.785156 C 492.773438 447.820312 491.558594 446.917969 490.292969 446.070312 C 489.03125 445.226562 487.730469 444.445312 486.390625 443.726562 C 485.050781 443.007812 483.679688 442.359375 482.277344 441.777344 C 480.875 441.191406 479.449219 440.679688 477.996094 440.234375 C 476.542969 439.792969 475.070312 439.417969 473.582031 439.121094 C 472.089844 438.820312 470.589844 438.59375 469.078125 438.441406 C 467.566406 438.289062 466.050781 438.210938 464.53125 438.207031 Z M 464.53125 438.207031 " fill-opacity="1" fill-rule="nonzero"/><path fill="#6c88b5" d="M 658.496094 508.859375 L 657.414062 508.859375 C 658.671875 504.574219 659.304688 500.199219 659.308594 495.730469 C 659.304688 493.613281 659.15625 491.507812 658.855469 489.410156 C 658.554688 487.3125 658.109375 485.246094 657.515625 483.214844 C 656.925781 481.179688 656.191406 479.199219 655.320312 477.269531 C 654.449219 475.339844 653.445312 473.480469 652.308594 471.691406 C 651.175781 469.902344 649.917969 468.203125 648.542969 466.59375 C 647.167969 464.984375 645.6875 463.476562 644.097656 462.074219 C 642.511719 460.675781 640.832031 459.390625 639.0625 458.230469 C 637.292969 457.066406 635.449219 456.03125 633.535156 455.128906 C 631.617188 454.226562 629.648438 453.460938 627.625 452.835938 C 625.601562 452.210938 623.542969 451.734375 621.453125 451.398438 C 619.359375 451.066406 617.253906 450.878906 615.136719 450.84375 C 613.019531 450.808594 610.910156 450.921875 608.808594 451.183594 C 606.707031 451.445312 604.632812 451.855469 602.589844 452.410156 C 600.546875 452.964844 598.550781 453.660156 596.605469 454.496094 C 594.660156 455.335938 592.785156 456.304688 590.976562 457.40625 C 589.167969 458.511719 587.445312 459.734375 585.8125 461.082031 C 585.429688 459.351562 584.972656 457.640625 584.433594 455.953125 C 583.898438 454.261719 583.285156 452.601562 582.597656 450.96875 C 581.90625 449.335938 581.144531 447.738281 580.308594 446.175781 C 579.476562 444.613281 578.570312 443.09375 577.597656 441.613281 C 576.621094 440.132812 575.582031 438.699219 574.476562 437.316406 C 573.371094 435.929688 572.203125 434.597656 570.976562 433.320312 C 569.75 432.042969 568.464844 430.824219 567.128906 429.664062 C 565.789062 428.503906 564.398438 427.40625 562.960938 426.375 C 561.519531 425.339844 560.035156 424.375 558.507812 423.476562 C 556.980469 422.578125 555.414062 421.753906 553.8125 421 C 552.207031 420.246094 550.574219 419.566406 548.910156 418.960938 C 547.242188 418.355469 545.554688 417.828125 543.839844 417.378906 C 542.125 416.929688 540.394531 416.558594 538.648438 416.269531 C 536.898438 415.976562 535.140625 415.765625 533.375 415.636719 C 531.605469 415.503906 529.835938 415.453125 528.066406 415.484375 C 526.292969 415.519531 524.527344 415.628906 522.765625 415.824219 C 521.003906 416.015625 519.257812 416.289062 517.519531 416.644531 C 515.785156 416.996094 514.066406 417.429688 512.371094 417.9375 C 510.671875 418.449219 509.003906 419.035156 507.359375 419.699219 C 505.71875 420.363281 504.109375 421.097656 502.53125 421.910156 C 500.957031 422.71875 499.421875 423.601562 497.925781 424.550781 C 496.429688 425.503906 494.984375 426.519531 493.582031 427.605469 C 492.179688 428.6875 490.832031 429.835938 489.53125 431.042969 C 488.234375 432.25 486.996094 433.511719 485.816406 434.832031 C 484.632812 436.152344 483.515625 437.527344 482.460938 438.949219 C 481.40625 440.371094 480.417969 441.839844 479.496094 443.355469 C 478.574219 444.867188 477.722656 446.421875 476.945312 448.011719 C 476.164062 449.601562 475.460938 451.226562 474.832031 452.882812 C 474.199219 454.539062 473.644531 456.21875 473.167969 457.925781 C 472.691406 459.632812 472.296875 461.359375 471.976562 463.101562 C 471.65625 464.84375 471.417969 466.597656 471.261719 468.363281 C 471.101562 470.128906 471.027344 471.894531 471.03125 473.667969 C 471.042969 477.402344 471.402344 481.101562 472.113281 484.765625 C 469.738281 484.378906 467.347656 484.199219 464.9375 484.226562 C 463.605469 484.21875 462.277344 484.265625 460.945312 484.367188 C 459.617188 484.464844 458.296875 484.621094 456.980469 484.832031 C 455.664062 485.042969 454.359375 485.308594 453.0625 485.628906 C 451.769531 485.949219 450.492188 486.320312 449.226562 486.742188 C 447.964844 487.167969 446.722656 487.644531 445.496094 488.171875 C 444.273438 488.699219 443.074219 489.277344 441.898438 489.902344 C 440.71875 490.53125 439.570312 491.207031 438.453125 491.925781 C 437.332031 492.648438 436.242188 493.417969 435.1875 494.226562 C 434.128906 495.039062 433.109375 495.894531 432.121094 496.792969 C 431.136719 497.6875 430.1875 498.625 429.277344 499.597656 C 428.371094 500.574219 427.503906 501.585938 426.679688 502.632812 C 425.851562 503.675781 425.070312 504.757812 424.335938 505.867188 C 423.601562 506.980469 422.910156 508.117188 422.269531 509.289062 C 421.628906 510.457031 421.035156 511.648438 420.492188 512.867188 C 419.949219 514.082031 419.460938 515.320312 419.019531 516.578125 C 418.578125 517.835938 418.191406 519.109375 417.855469 520.398438 C 417.519531 521.691406 417.238281 522.992188 417.011719 524.304688 C 416.785156 525.617188 416.613281 526.9375 416.492188 528.265625 C 416.375 529.59375 416.3125 530.925781 416.304688 532.257812 C 416.296875 533.589844 416.34375 534.921875 416.445312 536.25 C 416.546875 537.578125 416.707031 538.902344 416.917969 540.21875 C 417.128906 541.53125 417.394531 542.835938 417.714844 544.132812 C 418.03125 545.425781 418.40625 546.703125 418.832031 547.96875 C 419.257812 549.230469 419.734375 550.472656 420.261719 551.699219 C 420.789062 552.921875 421.367188 554.121094 421.996094 555.296875 C 422.621094 556.472656 423.296875 557.621094 424.019531 558.742188 C 424.742188 559.859375 425.507812 560.949219 426.320312 562.003906 C 427.136719 563.0625 427.988281 564.082031 428.886719 565.070312 C 429.785156 566.054688 430.71875 567 431.695312 567.910156 C 432.671875 568.816406 433.683594 569.683594 434.730469 570.507812 C 435.777344 571.332031 436.855469 572.113281 437.96875 572.847656 C 439.078125 573.585938 440.21875 574.273438 441.386719 574.914062 C 444.339844 576.925781 447.523438 578.449219 450.9375 579.488281 C 454.355469 580.527344 457.847656 581.035156 461.417969 581.003906 L 658.496094 581.003906 C 659.675781 581 660.847656 580.9375 662.019531 580.820312 C 663.191406 580.699219 664.355469 580.523438 665.511719 580.289062 C 666.664062 580.058594 667.804688 579.769531 668.933594 579.425781 C 670.058594 579.078125 671.164062 578.679688 672.253906 578.226562 C 673.339844 577.773438 674.402344 577.269531 675.441406 576.714844 C 676.480469 576.15625 677.488281 575.550781 678.46875 574.894531 C 679.445312 574.238281 680.390625 573.539062 681.300781 572.789062 C 682.210938 572.042969 683.082031 571.253906 683.914062 570.417969 C 684.75 569.585938 685.539062 568.714844 686.285156 567.804688 C 687.035156 566.894531 687.734375 565.949219 688.390625 564.972656 C 689.046875 563.992188 689.652344 562.984375 690.210938 561.945312 C 690.765625 560.90625 691.269531 559.84375 691.722656 558.757812 C 692.175781 557.671875 692.574219 556.5625 692.917969 555.4375 C 693.265625 554.308594 693.554688 553.167969 693.785156 552.015625 C 694.019531 550.859375 694.195312 549.695312 694.316406 548.523438 C 694.433594 547.351562 694.496094 546.179688 694.5 545 C 694.5 543.820312 694.441406 542.640625 694.328125 541.464844 C 694.210938 540.292969 694.039062 539.125 693.808594 537.964844 C 693.578125 536.808594 693.292969 535.664062 692.953125 534.535156 C 692.609375 533.402344 692.214844 532.292969 691.761719 531.203125 C 691.3125 530.109375 690.808594 529.042969 690.253906 528 C 689.699219 526.960938 689.09375 525.945312 688.4375 524.964844 C 687.785156 523.980469 687.082031 523.03125 686.335938 522.117188 C 685.585938 521.203125 684.796875 520.328125 683.964844 519.492188 C 683.128906 518.65625 682.257812 517.863281 681.347656 517.113281 C 680.433594 516.359375 679.488281 515.65625 678.507812 514.996094 C 677.527344 514.339844 676.519531 513.730469 675.480469 513.171875 C 674.4375 512.613281 673.375 512.105469 672.285156 511.648438 C 671.195312 511.195312 670.085938 510.792969 668.957031 510.449219 C 667.828125 510.101562 666.683594 509.8125 665.527344 509.578125 C 664.371094 509.34375 663.203125 509.167969 662.027344 509.046875 C 660.855469 508.925781 659.675781 508.863281 658.496094 508.859375 Z M 658.496094 508.859375 " fill-opacity="1" fill-rule="nonzero"/><path fill="#26477a" d="M 662.152344 512.515625 L 660.933594 512.515625 C 662.304688 508.199219 662.980469 503.777344 662.960938 499.25 C 662.960938 497.78125 662.890625 496.320312 662.746094 494.859375 C 662.601562 493.398438 662.386719 491.949219 662.101562 490.511719 C 661.816406 489.070312 661.460938 487.648438 661.035156 486.246094 C 660.609375 484.839844 660.113281 483.460938 659.550781 482.105469 C 658.992188 480.75 658.363281 479.425781 657.671875 478.128906 C 656.980469 476.835938 656.226562 475.578125 655.410156 474.359375 C 654.597656 473.140625 653.722656 471.960938 652.792969 470.828125 C 651.863281 469.695312 650.878906 468.609375 649.839844 467.570312 C 648.804688 466.53125 647.71875 465.546875 646.582031 464.617188 C 645.449219 463.6875 644.269531 462.8125 643.050781 462 C 641.832031 461.183594 640.574219 460.429688 639.28125 459.738281 C 637.984375 459.046875 636.660156 458.417969 635.304688 457.859375 C 633.949219 457.296875 632.570312 456.804688 631.164062 456.378906 C 629.761719 455.953125 628.339844 455.59375 626.902344 455.308594 C 625.460938 455.023438 624.011719 454.808594 622.550781 454.664062 C 621.089844 454.519531 619.628906 454.449219 618.160156 454.449219 C 615.558594 454.429688 612.980469 454.636719 610.414062 455.074219 C 607.851562 455.507812 605.347656 456.164062 602.898438 457.042969 C 600.453125 457.921875 598.101562 459.003906 595.84375 460.296875 C 593.585938 461.589844 591.460938 463.070312 589.464844 464.734375 C 589.085938 463.003906 588.625 461.292969 588.089844 459.605469 C 587.550781 457.917969 586.941406 456.257812 586.25 454.625 C 585.5625 452.992188 584.800781 451.394531 583.964844 449.832031 C 583.128906 448.269531 582.226562 446.746094 581.25 445.265625 C 580.277344 443.789062 579.234375 442.355469 578.128906 440.96875 C 577.023438 439.585938 575.859375 438.253906 574.632812 436.976562 C 573.402344 435.699219 572.121094 434.480469 570.78125 433.320312 C 569.441406 432.15625 568.054688 431.0625 566.613281 430.027344 C 565.175781 428.996094 563.691406 428.027344 562.164062 427.132812 C 560.636719 426.234375 559.070312 425.40625 557.464844 424.652344 C 555.863281 423.898438 554.230469 423.21875 552.5625 422.617188 C 550.898438 422.011719 549.207031 421.484375 547.492188 421.035156 C 545.78125 420.585938 544.050781 420.214844 542.300781 419.921875 C 540.554688 419.632812 538.796875 419.421875 537.027344 419.289062 C 535.261719 419.160156 533.492188 419.109375 531.722656 419.140625 C 529.949219 419.171875 528.183594 419.285156 526.421875 419.476562 C 524.660156 419.671875 522.910156 419.945312 521.175781 420.296875 C 519.4375 420.652344 517.722656 421.082031 516.023438 421.59375 C 514.328125 422.101562 512.65625 422.691406 511.015625 423.351562 C 509.371094 424.015625 507.761719 424.753906 506.1875 425.5625 C 504.609375 426.375 503.074219 427.253906 501.582031 428.207031 C 500.085938 429.15625 498.636719 430.175781 497.234375 431.257812 C 495.832031 432.34375 494.484375 433.488281 493.1875 434.695312 C 491.890625 435.902344 490.652344 437.167969 489.46875 438.488281 C 488.289062 439.808594 487.171875 441.179688 486.113281 442.605469 C 485.058594 444.027344 484.070312 445.496094 483.148438 447.007812 C 482.226562 448.523438 481.378906 450.074219 480.597656 451.667969 C 479.820312 453.257812 479.113281 454.882812 478.484375 456.539062 C 477.855469 458.195312 477.300781 459.875 476.824219 461.582031 C 476.347656 463.289062 475.949219 465.011719 475.632812 466.757812 C 475.3125 468.5 475.074219 470.253906 474.917969 472.019531 C 474.757812 473.78125 474.679688 475.550781 474.683594 477.324219 C 474.703125 481.054688 475.0625 484.753906 475.765625 488.421875 C 473.347656 488.035156 470.910156 487.855469 468.457031 487.878906 C 467.125 487.875 465.796875 487.925781 464.46875 488.03125 C 463.144531 488.136719 461.824219 488.296875 460.507812 488.507812 C 459.195312 488.722656 457.890625 488.992188 456.597656 489.3125 C 455.308594 489.636719 454.03125 490.011719 452.769531 490.4375 C 451.507812 490.863281 450.269531 491.34375 449.046875 491.875 C 447.824219 492.402344 446.628906 492.984375 445.453125 493.613281 C 444.28125 494.242188 443.136719 494.917969 442.019531 495.640625 C 440.902344 496.363281 439.816406 497.132812 438.761719 497.945312 C 437.707031 498.757812 436.6875 499.613281 435.703125 500.511719 C 434.722656 501.410156 433.777344 502.347656 432.871094 503.324219 C 431.964844 504.296875 431.101562 505.308594 430.277344 506.355469 C 429.457031 507.402344 428.679688 508.484375 427.945312 509.59375 C 427.210938 510.707031 426.527344 511.84375 425.886719 513.011719 C 425.25 514.179688 424.660156 515.375 424.117188 516.589844 C 423.578125 517.808594 423.089844 519.042969 422.652344 520.300781 C 422.210938 521.558594 421.828125 522.832031 421.496094 524.121094 C 421.160156 525.410156 420.882812 526.710938 420.65625 528.023438 C 420.433594 529.335938 420.261719 530.65625 420.144531 531.980469 C 420.027344 533.308594 419.96875 534.636719 419.960938 535.96875 C 419.953125 537.296875 420.003906 538.628906 420.105469 539.957031 C 420.210938 541.28125 420.367188 542.601562 420.578125 543.917969 C 420.792969 545.230469 421.058594 546.535156 421.378906 547.828125 C 421.699219 549.121094 422.074219 550.398438 422.5 551.65625 C 422.925781 552.917969 423.402344 554.160156 423.929688 555.382812 C 424.457031 556.605469 425.035156 557.804688 425.664062 558.976562 C 426.292969 560.152344 426.964844 561.296875 427.6875 562.417969 C 428.410156 563.535156 429.179688 564.621094 429.992188 565.675781 C 430.800781 566.730469 431.65625 567.75 432.554688 568.734375 C 433.449219 569.71875 434.386719 570.664062 435.359375 571.574219 C 436.332031 572.480469 437.34375 573.34375 438.390625 574.167969 C 439.4375 574.992188 440.515625 575.773438 441.625 576.507812 C 442.734375 577.242188 443.875 577.929688 445.042969 578.566406 C 447.984375 580.539062 451.152344 582.046875 454.539062 583.082031 C 457.929688 584.121094 461.394531 584.644531 464.9375 584.660156 L 662.152344 584.660156 C 663.332031 584.65625 664.507812 584.59375 665.683594 584.472656 C 666.859375 584.351562 668.023438 584.175781 669.183594 583.941406 C 670.339844 583.707031 671.480469 583.417969 672.609375 583.070312 C 673.738281 582.726562 674.847656 582.324219 675.9375 581.871094 C 677.027344 581.414062 678.09375 580.90625 679.132812 580.347656 C 680.171875 579.789062 681.183594 579.179688 682.164062 578.523438 C 683.144531 577.863281 684.089844 577.160156 685 576.40625 C 685.910156 575.65625 686.785156 574.863281 687.617188 574.027344 C 688.449219 573.191406 689.242188 572.316406 689.988281 571.402344 C 690.738281 570.488281 691.4375 569.539062 692.09375 568.554688 C 692.746094 567.574219 693.351562 566.558594 693.90625 565.519531 C 694.460938 564.476562 694.964844 563.410156 695.417969 562.316406 C 695.867188 561.226562 696.265625 560.117188 696.605469 558.984375 C 696.949219 557.855469 697.234375 556.710938 697.464844 555.554688 C 697.695312 554.394531 697.867188 553.226562 697.980469 552.054688 C 698.097656 550.878906 698.15625 549.699219 698.15625 548.519531 C 698.152344 547.339844 698.089844 546.167969 697.96875 544.996094 C 697.851562 543.824219 697.671875 542.660156 697.441406 541.503906 C 697.207031 540.351562 696.917969 539.210938 696.574219 538.082031 C 696.230469 536.957031 695.832031 535.847656 695.378906 534.761719 C 694.925781 533.675781 694.421875 532.613281 693.863281 531.574219 C 693.308594 530.535156 692.699219 529.527344 692.046875 528.546875 C 691.390625 527.570312 690.6875 526.625 689.941406 525.714844 C 689.191406 524.804688 688.402344 523.933594 687.570312 523.101562 C 686.738281 522.265625 685.867188 521.476562 684.957031 520.730469 C 684.046875 519.980469 683.101562 519.28125 682.121094 518.625 C 681.144531 517.96875 680.132812 517.363281 679.097656 516.804688 C 678.058594 516.25 676.996094 515.746094 675.90625 515.292969 C 674.820312 514.839844 673.714844 514.441406 672.585938 514.09375 C 671.460938 513.75 670.320312 513.460938 669.164062 513.230469 C 668.011719 512.996094 666.847656 512.820312 665.675781 512.699219 C 664.503906 512.582031 663.328125 512.519531 662.152344 512.515625 Z M 662.152344 512.515625 " fill-opacity="1" fill-rule="nonzero"/><g clip-path="url(#0b7a91dbb8)"><path fill="#6c88b5" d="M 367.214844 340.074219 L 368.703125 340.074219 C 366.894531 334.070312 365.992188 327.933594 365.996094 321.664062 C 365.996094 319.613281 366.09375 317.566406 366.296875 315.523438 C 366.496094 313.480469 366.796875 311.453125 367.199219 309.4375 C 367.597656 307.425781 368.097656 305.4375 368.695312 303.472656 C 369.289062 301.507812 369.980469 299.578125 370.765625 297.683594 C 371.550781 295.785156 372.425781 293.933594 373.394531 292.125 C 374.363281 290.3125 375.417969 288.554688 376.554688 286.847656 C 377.695312 285.140625 378.917969 283.496094 380.21875 281.910156 C 381.523438 280.320312 382.898438 278.804688 384.351562 277.351562 C 385.800781 275.898438 387.320312 274.523438 388.90625 273.222656 C 390.492188 271.917969 392.140625 270.699219 393.847656 269.558594 C 395.554688 268.417969 397.3125 267.363281 399.121094 266.394531 C 400.933594 265.429688 402.785156 264.550781 404.683594 263.765625 C 406.578125 262.980469 408.507812 262.289062 410.472656 261.695312 C 412.4375 261.097656 414.425781 260.601562 416.4375 260.199219 C 418.449219 259.800781 420.480469 259.5 422.519531 259.296875 C 424.5625 259.097656 426.613281 258.996094 428.664062 258.996094 C 432.289062 259 435.890625 259.308594 439.460938 259.929688 C 443.035156 260.550781 446.527344 261.472656 449.941406 262.695312 C 453.355469 263.917969 456.636719 265.425781 459.792969 267.210938 C 462.949219 269 465.925781 271.042969 468.730469 273.34375 C 469.261719 270.929688 469.902344 268.542969 470.652344 266.183594 C 471.402344 263.828125 472.257812 261.507812 473.21875 259.230469 C 474.183594 256.949219 475.246094 254.71875 476.414062 252.539062 C 477.582031 250.355469 478.84375 248.234375 480.203125 246.167969 C 481.566406 244.101562 483.019531 242.101562 484.5625 240.167969 C 486.105469 238.238281 487.734375 236.378906 489.449219 234.59375 C 491.164062 232.8125 492.953125 231.109375 494.824219 229.488281 C 496.695312 227.871094 498.632812 226.339844 500.644531 224.894531 C 502.652344 223.453125 504.726562 222.105469 506.859375 220.855469 C 508.992188 219.601562 511.179688 218.449219 513.417969 217.394531 C 515.65625 216.34375 517.9375 215.394531 520.261719 214.550781 C 522.589844 213.707031 524.949219 212.972656 527.339844 212.34375 C 529.734375 211.71875 532.148438 211.199219 534.589844 210.792969 C 537.03125 210.386719 539.484375 210.09375 541.949219 209.910156 C 544.417969 209.730469 546.886719 209.660156 549.363281 209.707031 C 551.835938 209.75 554.300781 209.90625 556.761719 210.175781 C 559.21875 210.445312 561.660156 210.828125 564.085938 211.320312 C 566.507812 211.816406 568.90625 212.417969 571.273438 213.132812 C 573.644531 213.84375 575.976562 214.664062 578.269531 215.589844 C 580.5625 216.515625 582.808594 217.546875 585.007812 218.675781 C 587.207031 219.808594 589.351562 221.039062 591.4375 222.367188 C 593.527344 223.695312 595.546875 225.117188 597.503906 226.628906 C 599.460938 228.140625 601.347656 229.742188 603.15625 231.425781 C 604.96875 233.113281 606.695312 234.878906 608.347656 236.722656 C 609.996094 238.566406 611.554688 240.480469 613.03125 242.46875 C 614.503906 244.453125 615.882812 246.503906 617.171875 248.617188 C 618.457031 250.730469 619.644531 252.898438 620.730469 255.121094 C 621.820312 257.34375 622.800781 259.609375 623.683594 261.921875 C 624.5625 264.234375 625.335938 266.582031 626 268.964844 C 626.667969 271.34375 627.222656 273.753906 627.667969 276.1875 C 628.113281 278.621094 628.445312 281.070312 628.664062 283.535156 C 628.886719 285.996094 628.992188 288.464844 628.988281 290.941406 C 628.976562 296.128906 628.480469 301.273438 627.5 306.371094 C 630.871094 305.9375 634.253906 305.710938 637.652344 305.695312 C 639.511719 305.6875 641.367188 305.761719 643.21875 305.910156 C 645.070312 306.058594 646.914062 306.285156 648.746094 306.585938 C 650.582031 306.886719 652.398438 307.265625 654.203125 307.714844 C 656.003906 308.167969 657.785156 308.691406 659.546875 309.289062 C 661.304688 309.886719 663.039062 310.558594 664.742188 311.300781 C 666.445312 312.039062 668.117188 312.851562 669.753906 313.730469 C 671.390625 314.609375 672.988281 315.554688 674.546875 316.566406 C 676.109375 317.578125 677.621094 318.648438 679.09375 319.785156 C 680.5625 320.921875 681.984375 322.117188 683.359375 323.371094 C 684.730469 324.625 686.046875 325.933594 687.3125 327.292969 C 688.574219 328.65625 689.78125 330.070312 690.929688 331.53125 C 692.078125 332.992188 693.164062 334.5 694.183594 336.050781 C 695.207031 337.601562 696.167969 339.191406 697.058594 340.824219 C 697.949219 342.453125 698.773438 344.117188 699.527344 345.816406 C 700.28125 347.515625 700.964844 349.242188 701.578125 350.996094 C 702.1875 352.753906 702.726562 354.527344 703.191406 356.328125 C 703.65625 358.128906 704.046875 359.941406 704.363281 361.773438 C 704.679688 363.605469 704.917969 365.449219 705.082031 367.296875 C 705.246094 369.148438 705.332031 371.003906 705.339844 372.863281 C 705.351562 374.722656 705.285156 376.578125 705.140625 378.429688 C 705 380.285156 704.78125 382.128906 704.484375 383.960938 C 704.191406 385.796875 703.820312 387.617188 703.375 389.421875 C 702.929688 391.226562 702.410156 393.007812 701.816406 394.769531 C 701.226562 396.53125 700.5625 398.265625 699.824219 399.972656 C 699.089844 401.679688 698.285156 403.351562 697.410156 404.992188 C 696.539062 406.632812 695.597656 408.234375 694.589844 409.796875 C 693.585938 411.359375 692.515625 412.878906 691.386719 414.351562 C 690.253906 415.828125 689.0625 417.25 687.816406 418.628906 C 686.566406 420.003906 685.261719 421.328125 683.902344 422.59375 C 682.546875 423.863281 681.136719 425.074219 679.679688 426.226562 C 678.222656 427.378906 676.71875 428.46875 675.171875 429.496094 C 673.621094 430.523438 672.035156 431.488281 670.40625 432.386719 C 666.292969 435.171875 661.859375 437.292969 657.105469 438.746094 C 652.355469 440.199219 647.492188 440.921875 642.523438 440.914062 L 367.214844 440.914062 C 365.5625 440.90625 363.914062 440.824219 362.269531 440.65625 C 360.625 440.492188 358.992188 440.246094 357.371094 439.921875 C 355.753906 439.59375 354.152344 439.191406 352.574219 438.707031 C 350.992188 438.226562 349.4375 437.667969 347.914062 437.035156 C 346.386719 436.398438 344.898438 435.691406 343.441406 434.910156 C 341.984375 434.132812 340.570312 433.28125 339.195312 432.363281 C 337.824219 431.445312 336.496094 430.460938 335.21875 429.410156 C 333.945312 428.363281 332.722656 427.253906 331.554688 426.085938 C 330.382812 424.917969 329.277344 423.695312 328.226562 422.417969 C 327.179688 421.140625 326.195312 419.816406 325.277344 418.441406 C 324.355469 417.070312 323.507812 415.65625 322.726562 414.199219 C 321.945312 412.742188 321.238281 411.25 320.605469 409.726562 C 319.972656 408.199219 319.414062 406.644531 318.929688 405.066406 C 318.449219 403.484375 318.042969 401.886719 317.71875 400.265625 C 317.394531 398.644531 317.148438 397.015625 316.980469 395.371094 C 316.816406 393.726562 316.730469 392.078125 316.726562 390.425781 C 316.734375 388.777344 316.824219 387.128906 316.992188 385.488281 C 317.164062 383.847656 317.414062 382.222656 317.742188 380.605469 C 318.070312 378.988281 318.476562 377.390625 318.960938 375.816406 C 319.445312 374.238281 320.007812 372.6875 320.644531 371.167969 C 321.28125 369.644531 321.988281 368.160156 322.769531 366.707031 C 323.550781 365.253906 324.402344 363.84375 325.324219 362.472656 C 326.242188 361.105469 327.226562 359.78125 328.273438 358.507812 C 329.324219 357.234375 330.433594 356.015625 331.601562 354.851562 C 332.769531 353.6875 333.988281 352.582031 335.265625 351.539062 C 336.542969 350.492188 337.867188 349.511719 339.238281 348.59375 C 340.609375 347.679688 342.023438 346.832031 343.476562 346.054688 C 344.933594 345.277344 346.421875 344.570312 347.945312 343.941406 C 349.46875 343.308594 351.019531 342.75 352.597656 342.269531 C 354.175781 341.789062 355.773438 341.386719 357.390625 341.0625 C 359.007812 340.738281 360.636719 340.492188 362.277344 340.328125 C 363.917969 340.164062 365.5625 340.078125 367.214844 340.074219 Z M 367.214844 340.074219 " fill-opacity="1" fill-rule="nonzero"/></g><g clip-path="url(#75b56ef6bf)"><path fill="#6c88b5" d="M 460.472656 586.148438 L 459.117188 586.148438 C 460.769531 581.136719 461.582031 575.992188 461.554688 570.71875 C 461.554688 541.886719 437.867188 518.46875 408.632812 518.46875 C 405.578125 518.453125 402.550781 518.699219 399.539062 519.210938 C 396.53125 519.722656 393.589844 520.492188 390.714844 521.519531 C 387.84375 522.546875 385.078125 523.816406 382.429688 525.324219 C 379.777344 526.835938 377.277344 528.566406 374.929688 530.515625 C 374.5 528.644531 373.992188 526.792969 373.402344 524.960938 C 372.816406 523.132812 372.15625 521.332031 371.417969 519.554688 C 370.679688 517.78125 369.867188 516.042969 368.984375 514.335938 C 368.097656 512.628906 367.144531 510.964844 366.117188 509.339844 C 365.09375 507.714844 364 506.132812 362.839844 504.601562 C 361.683594 503.066406 360.460938 501.585938 359.179688 500.15625 C 357.894531 498.726562 356.554688 497.351562 355.152344 496.035156 C 353.753906 494.71875 352.300781 493.460938 350.796875 492.269531 C 349.289062 491.074219 347.738281 489.945312 346.136719 488.878906 C 344.535156 487.816406 342.894531 486.824219 341.210938 485.898438 C 339.523438 484.972656 337.804688 484.121094 336.046875 483.339844 C 334.292969 482.558594 332.503906 481.855469 330.691406 481.226562 C 328.875 480.597656 327.035156 480.046875 325.171875 479.570312 C 323.308594 479.097656 321.429688 478.703125 319.535156 478.386719 C 317.640625 478.070312 315.734375 477.835938 313.820312 477.679688 C 311.902344 477.527344 309.984375 477.453125 308.0625 477.457031 C 270.300781 477.457031 239.710938 507.777344 239.710938 545.136719 C 239.691406 549.460938 240.097656 553.746094 240.925781 557.996094 C 238.097656 557.601562 235.257812 557.421875 232.398438 557.453125 C 200.996094 557.453125 175.414062 582.628906 175.414062 613.761719 C 175.421875 616.273438 175.597656 618.769531 175.941406 621.257812 C 176.285156 623.746094 176.789062 626.203125 177.460938 628.621094 C 178.132812 631.042969 178.960938 633.40625 179.949219 635.714844 C 180.933594 638.023438 182.070312 640.257812 183.359375 642.414062 C 184.644531 644.574219 186.066406 646.632812 187.628906 648.601562 C 189.191406 650.566406 190.878906 652.421875 192.6875 654.164062 C 194.496094 655.902344 196.414062 657.515625 198.441406 659 C 200.464844 660.484375 202.582031 661.828125 204.789062 663.027344 C 208.261719 665.382812 212.007812 667.171875 216.023438 668.394531 C 220.035156 669.617188 224.140625 670.21875 228.339844 670.203125 L 460.472656 670.203125 C 461.855469 670.207031 463.238281 670.144531 464.617188 670.011719 C 465.996094 669.882812 467.363281 669.683594 468.722656 669.417969 C 470.082031 669.152344 471.425781 668.824219 472.753906 668.425781 C 474.078125 668.027344 475.382812 667.566406 476.664062 667.042969 C 477.945312 666.519531 479.199219 665.933594 480.421875 665.285156 C 481.644531 664.636719 482.835938 663.929688 483.992188 663.167969 C 485.144531 662.402344 486.261719 661.582031 487.335938 660.710938 C 488.410156 659.835938 489.4375 658.914062 490.421875 657.9375 C 491.40625 656.964844 492.339844 655.941406 493.222656 654.878906 C 494.105469 653.8125 494.9375 652.703125 495.710938 651.558594 C 496.488281 650.410156 497.203125 649.226562 497.863281 648.007812 C 498.523438 646.792969 499.121094 645.546875 499.660156 644.269531 C 500.195312 642.992188 500.667969 641.691406 501.078125 640.371094 C 501.488281 639.046875 501.832031 637.707031 502.109375 636.351562 C 502.386719 634.996094 502.601562 633.628906 502.742188 632.25 C 502.886719 630.875 502.964844 629.492188 502.972656 628.109375 C 502.972656 605.097656 483.890625 586.148438 460.472656 586.148438 Z M 460.472656 586.148438 " fill-opacity="1" fill-rule="nonzero"/></g><path fill="#6c88b5" d="M 97.722656 377.566406 L 98.398438 377.566406 C 97.527344 374.652344 97.078125 371.675781 97.046875 368.632812 C 97.046875 367.636719 97.09375 366.644531 97.191406 365.652344 C 97.289062 364.660156 97.4375 363.679688 97.632812 362.703125 C 97.828125 361.726562 98.070312 360.761719 98.359375 359.808594 C 98.648438 358.855469 98.984375 357.917969 99.367188 357 C 99.75 356.078125 100.175781 355.179688 100.644531 354.304688 C 101.117188 353.425781 101.628906 352.574219 102.183594 351.746094 C 102.738281 350.917969 103.332031 350.121094 103.964844 349.351562 C 104.597656 348.585938 105.269531 347.847656 105.972656 347.144531 C 106.679688 346.445312 107.417969 345.777344 108.1875 345.148438 C 108.960938 344.519531 109.761719 343.925781 110.589844 343.375 C 111.421875 342.824219 112.273438 342.316406 113.15625 341.851562 C 114.035156 341.382812 114.933594 340.960938 115.855469 340.582031 C 116.777344 340.203125 117.714844 339.871094 118.667969 339.585938 C 119.621094 339.300781 120.589844 339.0625 121.566406 338.875 C 122.542969 338.683594 123.527344 338.539062 124.519531 338.449219 C 125.511719 338.355469 126.503906 338.308594 127.5 338.3125 C 129.257812 338.304688 131 338.453125 132.734375 338.753906 C 134.464844 339.054688 136.15625 339.507812 137.804688 340.105469 C 139.457031 340.707031 141.042969 341.449219 142.5625 342.328125 C 144.082031 343.210938 145.515625 344.21875 146.855469 345.351562 C 147.101562 344.171875 147.398438 343 147.75 341.847656 C 148.101562 340.691406 148.503906 339.554688 148.960938 338.4375 C 149.417969 337.320312 149.925781 336.226562 150.480469 335.15625 C 151.039062 334.085938 151.644531 333.042969 152.296875 332.027344 C 152.953125 331.015625 153.652344 330.03125 154.394531 329.082031 C 155.140625 328.132812 155.925781 327.21875 156.753906 326.339844 C 157.582031 325.460938 158.449219 324.625 159.355469 323.824219 C 160.261719 323.027344 161.203125 322.273438 162.175781 321.5625 C 163.152344 320.851562 164.160156 320.1875 165.195312 319.570312 C 166.230469 318.949219 167.296875 318.382812 168.382812 317.859375 C 169.472656 317.339844 170.585938 316.871094 171.71875 316.453125 C 172.847656 316.035156 174 315.671875 175.164062 315.359375 C 176.332031 315.050781 177.507812 314.792969 178.699219 314.589844 C 179.890625 314.386719 181.085938 314.238281 182.289062 314.144531 C 183.492188 314.054688 184.699219 314.015625 185.90625 314.035156 C 187.109375 314.054688 188.316406 314.128906 189.515625 314.257812 C 190.714844 314.386719 191.90625 314.570312 193.089844 314.808594 C 194.273438 315.050781 195.441406 315.34375 196.597656 315.691406 C 197.753906 316.039062 198.890625 316.4375 200.011719 316.890625 C 201.128906 317.34375 202.226562 317.847656 203.296875 318.398438 C 204.371094 318.953125 205.414062 319.554688 206.433594 320.203125 C 207.449219 320.855469 208.433594 321.550781 209.386719 322.289062 C 210.339844 323.03125 211.257812 323.8125 212.140625 324.640625 C 213.019531 325.464844 213.859375 326.328125 214.660156 327.230469 C 215.460938 328.132812 216.21875 329.074219 216.933594 330.046875 C 217.648438 331.019531 218.316406 332.023438 218.941406 333.054688 C 219.5625 334.089844 220.132812 335.152344 220.660156 336.238281 C 221.183594 337.324219 221.65625 338.433594 222.078125 339.566406 C 222.5 340.695312 222.867188 341.84375 223.183594 343.011719 C 223.5 344.175781 223.761719 345.351562 223.96875 346.539062 C 224.175781 347.730469 224.328125 348.925781 224.425781 350.128906 C 224.523438 351.332031 224.5625 352.539062 224.550781 353.746094 C 224.554688 356.300781 224.285156 358.828125 223.738281 361.324219 C 225.351562 361.054688 226.976562 360.917969 228.609375 360.917969 C 230.417969 360.910156 232.214844 361.046875 234 361.335938 C 235.785156 361.625 237.535156 362.054688 239.25 362.632812 C 240.960938 363.210938 242.617188 363.925781 244.210938 364.777344 C 245.808594 365.628906 247.320312 366.605469 248.753906 367.707031 C 250.1875 368.808594 251.519531 370.023438 252.753906 371.347656 C 253.984375 372.667969 255.101562 374.085938 256.101562 375.59375 C 257.097656 377.101562 257.964844 378.679688 258.703125 380.332031 C 259.4375 381.984375 260.035156 383.683594 260.488281 385.433594 C 260.945312 387.183594 261.25 388.960938 261.414062 390.761719 C 261.574219 392.5625 261.585938 394.363281 261.445312 396.167969 C 261.308594 397.96875 261.023438 399.75 260.59375 401.503906 C 260.160156 403.261719 259.585938 404.96875 258.871094 406.628906 C 258.15625 408.289062 257.308594 409.882812 256.328125 411.402344 C 255.351562 412.921875 254.253906 414.351562 253.039062 415.691406 C 251.824219 417.03125 250.507812 418.257812 249.085938 419.378906 C 247.667969 420.5 246.167969 421.496094 244.582031 422.367188 C 242.574219 423.695312 240.417969 424.703125 238.113281 425.398438 C 235.808594 426.089844 233.453125 426.433594 231.046875 426.429688 L 97.722656 426.429688 C 96.921875 426.429688 96.125 426.390625 95.328125 426.3125 C 94.535156 426.234375 93.742188 426.117188 92.960938 425.960938 C 92.175781 425.808594 91.398438 425.613281 90.636719 425.382812 C 89.871094 425.152344 89.117188 424.882812 88.378906 424.578125 C 87.640625 424.273438 86.917969 423.933594 86.210938 423.558594 C 85.503906 423.179688 84.820312 422.773438 84.152344 422.328125 C 83.488281 421.886719 82.84375 421.410156 82.226562 420.90625 C 81.605469 420.402344 81.011719 419.867188 80.445312 419.300781 C 79.878906 418.738281 79.339844 418.148438 78.832031 417.53125 C 78.324219 416.914062 77.84375 416.273438 77.398438 415.613281 C 76.953125 414.949219 76.539062 414.265625 76.160156 413.5625 C 75.78125 412.859375 75.4375 412.136719 75.125 411.398438 C 74.816406 410.664062 74.546875 409.910156 74.308594 409.148438 C 74.074219 408.382812 73.875 407.609375 73.71875 406.828125 C 73.558594 406.042969 73.4375 405.253906 73.355469 404.457031 C 73.269531 403.664062 73.226562 402.867188 73.222656 402.066406 C 73.226562 401.265625 73.269531 400.464844 73.351562 399.667969 C 73.4375 398.871094 73.554688 398.082031 73.714844 397.296875 C 73.875 396.511719 74.074219 395.734375 74.308594 394.96875 C 74.542969 394.203125 74.816406 393.449219 75.125 392.710938 C 75.433594 391.972656 75.777344 391.25 76.15625 390.542969 C 76.535156 389.835938 76.949219 389.152344 77.394531 388.488281 C 77.839844 387.820312 78.316406 387.179688 78.824219 386.558594 C 79.335938 385.941406 79.871094 385.347656 80.4375 384.78125 C 81.003906 384.214844 81.597656 383.675781 82.214844 383.167969 C 82.835938 382.660156 83.476562 382.183594 84.144531 381.738281 C 84.808594 381.289062 85.496094 380.878906 86.199219 380.5 C 86.90625 380.121094 87.628906 379.777344 88.367188 379.46875 C 89.105469 379.160156 89.859375 378.886719 90.625 378.652344 C 91.390625 378.417969 92.167969 378.21875 92.953125 378.058594 C 93.738281 377.898438 94.527344 377.777344 95.324219 377.695312 C 96.121094 377.613281 96.921875 377.570312 97.722656 377.566406 Z M 97.722656 377.566406 " fill-opacity="1" fill-rule="nonzero"/></svg>