<svg xmlns="http://www.w3.org/2000/svg" xmlns:xlink="http://www.w3.org/1999/xlink" width="1024" zoomAndPan="magnify" viewBox="0 0 768 767.999994" height="1024" preserveAspectRatio="xMidYMid meet" version="1.0"><defs><clipPath id="bd8f61bca1"><path d="M 521 167.203125 L 527 167.203125 L 527 250 L 521 250 Z M 521 167.203125 " clip-rule="nonzero"/></clipPath><clipPath id="f44507d41d"><path d="M 508 167.203125 L 540 167.203125 L 540 263 L 508 263 Z M 508 167.203125 " clip-rule="nonzero"/></clipPath><clipPath id="146013403c"><path d="M 331.714844 339 L 428 339 L 428 371 L 331.714844 371 Z M 331.714844 339 " clip-rule="nonzero"/></clipPath><clipPath id="6a311fe7e5"><path d="M 405 358 L 747.214844 358 L 747.214844 561.703125 L 405 561.703125 Z M 405 358 " clip-rule="nonzero"/></clipPath><clipPath id="1fab73dc72"><path d="M 20.910156 156.957031 L 523.410156 156.957031 L 523.410156 457 L 20.910156 457 Z M 20.910156 156.957031 " clip-rule="nonzero"/></clipPath><clipPath id="910a2a9ba5"><path d="M 94.667969 303.96875 L 608.417969 303.96875 L 608.417969 610 L 94.667969 610 Z M 94.667969 303.96875 " clip-rule="nonzero"/></clipPath></defs><path fill="#ffb544" d="M 615.480469 352.484375 C 615.476562 353.976562 615.4375 355.464844 615.363281 356.949219 C 615.285156 358.4375 615.171875 359.921875 615.023438 361.40625 C 614.875 362.886719 614.691406 364.363281 614.46875 365.835938 C 614.246094 367.308594 613.988281 368.777344 613.695312 370.238281 C 613.402344 371.699219 613.074219 373.148438 612.710938 374.59375 C 612.34375 376.039062 611.945312 377.472656 611.511719 378.894531 C 611.074219 380.320312 610.605469 381.734375 610.101562 383.136719 C 609.597656 384.535156 609.058594 385.925781 608.488281 387.300781 C 607.914062 388.675781 607.308594 390.035156 606.671875 391.378906 C 606.03125 392.726562 605.359375 394.054688 604.65625 395.367188 C 603.949219 396.679688 603.214844 397.972656 602.445312 399.25 C 601.679688 400.527344 600.878906 401.785156 600.050781 403.019531 C 599.222656 404.257812 598.363281 405.472656 597.472656 406.667969 C 596.585938 407.863281 595.667969 409.035156 594.71875 410.1875 C 593.773438 411.335938 592.800781 412.460938 591.796875 413.5625 C 590.796875 414.667969 589.769531 415.742188 588.714844 416.796875 C 587.660156 417.847656 586.578125 418.871094 585.472656 419.871094 C 584.367188 420.871094 583.238281 421.839844 582.085938 422.785156 C 580.933594 423.726562 579.761719 424.640625 578.5625 425.527344 C 577.363281 426.414062 576.148438 427.269531 574.90625 428.09375 C 573.667969 428.921875 572.410156 429.714844 571.128906 430.480469 C 569.851562 431.246094 568.554688 431.976562 567.242188 432.679688 C 565.925781 433.378906 564.597656 434.046875 563.25 434.683594 C 561.902344 435.316406 560.539062 435.917969 559.164062 436.488281 C 557.789062 437.054688 556.398438 437.589844 554.996094 438.089844 C 553.589844 438.589844 552.175781 439.058594 550.75 439.488281 C 549.324219 439.917969 547.890625 440.316406 546.445312 440.675781 C 545 441.035156 543.546875 441.359375 542.085938 441.652344 C 540.625 441.941406 539.15625 442.191406 537.683594 442.410156 C 536.210938 442.628906 534.734375 442.808594 533.25 442.953125 C 531.769531 443.097656 530.285156 443.207031 528.796875 443.277344 C 527.308594 443.351562 525.820312 443.386719 524.332031 443.386719 C 522.839844 443.382812 521.351562 443.347656 519.863281 443.273438 C 518.378906 443.199219 516.890625 443.089844 515.410156 442.941406 C 513.929688 442.792969 512.449219 442.613281 510.976562 442.390625 C 509.503906 442.171875 508.035156 441.917969 506.578125 441.625 C 505.117188 441.335938 503.664062 441.007812 502.21875 440.644531 C 500.773438 440.28125 499.339844 439.882812 497.914062 439.453125 C 496.488281 439.019531 495.074219 438.550781 493.671875 438.050781 C 492.269531 437.546875 490.882812 437.011719 489.507812 436.441406 C 488.128906 435.871094 486.769531 435.265625 485.421875 434.628906 C 484.078125 433.992188 482.746094 433.320312 481.433594 432.617188 C 480.121094 431.917969 478.824219 431.183594 477.546875 430.417969 C 476.269531 429.648438 475.011719 428.851562 473.773438 428.027344 C 472.535156 427.199219 471.320312 426.339844 470.121094 425.453125 C 468.925781 424.566406 467.753906 423.648438 466.601562 422.703125 C 465.449219 421.757812 464.324219 420.785156 463.21875 419.785156 C 462.117188 418.785156 461.035156 417.757812 459.984375 416.707031 C 458.929688 415.652344 457.902344 414.574219 456.902344 413.472656 C 455.902344 412.367188 454.929688 411.242188 453.984375 410.089844 C 453.039062 408.9375 452.125 407.765625 451.238281 406.566406 C 450.351562 405.371094 449.492188 404.15625 448.664062 402.917969 C 447.835938 401.679688 447.039062 400.421875 446.273438 399.144531 C 445.507812 397.867188 444.773438 396.570312 444.070312 395.257812 C 443.367188 393.941406 442.699219 392.613281 442.0625 391.265625 C 441.425781 389.921875 440.820312 388.558594 440.25 387.183594 C 439.679688 385.808594 439.144531 384.417969 438.640625 383.015625 C 438.140625 381.613281 437.671875 380.203125 437.238281 378.777344 C 436.804688 377.351562 436.40625 375.917969 436.046875 374.472656 C 435.683594 373.027344 435.355469 371.574219 435.0625 370.113281 C 434.773438 368.652344 434.515625 367.1875 434.296875 365.714844 C 434.078125 364.238281 433.894531 362.761719 433.75 361.28125 C 433.601562 359.796875 433.492188 358.3125 433.417969 356.824219 C 433.34375 355.339844 433.304688 353.847656 433.304688 352.359375 C 433.304688 350.871094 433.339844 349.382812 433.410156 347.894531 C 433.484375 346.40625 433.589844 344.921875 433.738281 343.4375 C 433.882812 341.957031 434.0625 340.480469 434.28125 339.003906 C 434.496094 337.53125 434.75 336.066406 435.039062 334.605469 C 435.328125 333.144531 435.652344 331.691406 436.015625 330.246094 C 436.375 328.800781 436.769531 327.363281 437.203125 325.9375 C 437.632812 324.511719 438.097656 323.097656 438.597656 321.695312 C 439.097656 320.292969 439.632812 318.902344 440.203125 317.527344 C 440.769531 316.148438 441.371094 314.789062 442.007812 313.441406 C 442.644531 312.09375 443.3125 310.761719 444.011719 309.449219 C 444.714844 308.132812 445.445312 306.839844 446.210938 305.558594 C 446.972656 304.28125 447.769531 303.023438 448.59375 301.78125 C 449.421875 300.542969 450.277344 299.324219 451.164062 298.128906 C 452.046875 296.929688 452.960938 295.753906 453.90625 294.601562 C 454.847656 293.449219 455.820312 292.320312 456.820312 291.214844 C 457.816406 290.113281 458.84375 289.03125 459.894531 287.976562 C 460.945312 286.921875 462.023438 285.894531 463.125 284.890625 C 464.226562 283.890625 465.355469 282.917969 466.503906 281.96875 C 467.652344 281.023438 468.828125 280.105469 470.023438 279.214844 C 471.214844 278.328125 472.433594 277.46875 473.667969 276.640625 C 474.90625 275.808594 476.164062 275.011719 477.441406 274.242188 C 478.714844 273.476562 480.011719 272.738281 481.324219 272.035156 C 482.636719 271.332031 483.964844 270.660156 485.308594 270.019531 C 486.65625 269.382812 488.015625 268.777344 489.390625 268.203125 C 490.765625 267.628906 492.152344 267.09375 493.554688 266.589844 C 494.957031 266.082031 496.371094 265.613281 497.792969 265.179688 C 499.21875 264.746094 500.652344 264.34375 502.097656 263.980469 C 503.539062 263.617188 504.992188 263.285156 506.453125 262.992188 C 507.914062 262.699219 509.378906 262.441406 510.851562 262.222656 C 512.324219 262 513.804688 261.816406 515.285156 261.664062 C 516.765625 261.515625 518.25 261.402344 519.738281 261.328125 C 521.226562 261.253906 522.714844 261.210938 524.203125 261.210938 C 525.699219 261.203125 527.195312 261.230469 528.691406 261.296875 C 530.183594 261.363281 531.675781 261.464844 533.164062 261.605469 C 534.65625 261.746094 536.140625 261.921875 537.621094 262.136719 C 539.101562 262.347656 540.574219 262.597656 542.042969 262.882812 C 543.511719 263.171875 544.972656 263.492188 546.425781 263.851562 C 547.878906 264.210938 549.320312 264.605469 550.753906 265.03125 C 552.1875 265.460938 553.609375 265.925781 555.019531 266.425781 C 556.429688 266.925781 557.824219 267.460938 559.207031 268.03125 C 560.589844 268.597656 561.960938 269.203125 563.3125 269.839844 C 564.667969 270.476562 566.003906 271.144531 567.324219 271.847656 C 568.644531 272.550781 569.949219 273.285156 571.234375 274.050781 C 572.515625 274.820312 573.78125 275.617188 575.027344 276.445312 C 576.273438 277.277344 577.496094 278.136719 578.699219 279.027344 C 579.902344 279.914062 581.082031 280.835938 582.238281 281.78125 C 583.394531 282.730469 584.527344 283.707031 585.636719 284.710938 C 586.746094 285.714844 587.828125 286.746094 588.886719 287.804688 C 589.945312 288.863281 590.972656 289.945312 591.980469 291.054688 C 592.984375 292.164062 593.960938 293.296875 594.90625 294.453125 C 595.855469 295.609375 596.773438 296.789062 597.664062 297.992188 C 598.554688 299.195312 599.414062 300.417969 600.242188 301.664062 C 601.074219 302.90625 601.871094 304.171875 602.636719 305.457031 C 603.40625 306.742188 604.140625 308.042969 604.84375 309.363281 C 605.546875 310.683594 606.214844 312.023438 606.851562 313.375 C 607.488281 314.730469 608.089844 316.097656 608.660156 317.480469 C 609.230469 318.867188 609.761719 320.261719 610.261719 321.671875 C 610.761719 323.082031 611.226562 324.503906 611.65625 325.9375 C 612.085938 327.371094 612.480469 328.8125 612.839844 330.265625 C 613.195312 331.71875 613.519531 333.175781 613.804688 334.644531 C 614.089844 336.113281 614.339844 337.589844 614.554688 339.070312 C 614.769531 340.550781 614.945312 342.035156 615.085938 343.523438 C 615.222656 345.015625 615.328125 346.503906 615.394531 348 C 615.460938 349.496094 615.488281 350.988281 615.480469 352.484375 Z M 615.480469 352.484375 " fill-opacity="1" fill-rule="nonzero"/><g clip-path="url(#bd8f61bca1)"><path fill="#ffae46" d="M 522.699219 167.675781 L 525.710938 167.675781 C 525.945312 167.675781 526.144531 167.757812 526.308594 167.921875 C 526.472656 168.089844 526.558594 168.289062 526.558594 168.523438 L 526.558594 248.730469 C 526.558594 248.964844 526.472656 249.164062 526.308594 249.332031 C 526.144531 249.496094 525.945312 249.578125 525.710938 249.578125 L 522.699219 249.578125 C 522.464844 249.578125 522.265625 249.496094 522.101562 249.332031 C 521.933594 249.164062 521.851562 248.964844 521.851562 248.730469 L 521.851562 168.523438 C 521.851562 168.289062 521.933594 168.089844 522.101562 167.921875 C 522.265625 167.757812 522.464844 167.675781 522.699219 167.675781 Z M 522.699219 167.675781 " fill-opacity="1" fill-rule="nonzero"/></g><g clip-path="url(#f44507d41d)"><path stroke-linecap="butt" transform="matrix(0.940993, 0, 0, 0.940993, 331.865583, 167.204251)" fill="none" stroke-linejoin="miter" d="M 202.800352 0.501099 L 206.000928 0.501099 C 206.25 0.501099 206.461711 0.588274 206.636062 0.762625 C 206.810412 0.941126 206.901739 1.152837 206.901739 1.40191 L 206.901739 86.63853 C 206.901739 86.887602 206.810412 87.099313 206.636062 87.277815 C 206.461711 87.452166 206.25 87.539341 206.000928 87.539341 L 202.800352 87.539341 C 202.55128 87.539341 202.339568 87.452166 202.165218 87.277815 C 201.986716 87.099313 201.899541 86.887602 201.899541 86.63853 L 201.899541 1.40191 C 201.899541 1.152837 201.986716 0.941126 202.165218 0.762625 C 202.339568 0.588274 202.55128 0.501099 202.800352 0.501099 Z M 202.800352 0.501099 " stroke="#ffae46" stroke-width="1" stroke-opacity="1" stroke-miterlimit="10"/></g><path stroke-linecap="butt" transform="matrix(0.846477, -0.411027, 0.411027, 0.846477, 276.158896, 207.196548)" fill-opacity="1" fill="#ffae46" fill-rule="nonzero" stroke-linejoin="miter" d="M 172.699012 91.498633 L 175.901644 91.498589 C 176.150438 91.499414 176.361261 91.58794 176.534114 91.764167 C 176.712514 91.938473 176.798528 92.150984 176.801437 92.401591 L 176.800115 138.991093 C 176.79929 139.239887 176.710764 139.45071 176.538271 139.625376 C 176.360231 139.801963 176.147721 139.887977 175.900848 139.892699 L 172.700029 139.889009 C 172.451235 139.888183 172.238599 139.803392 172.062012 139.625351 C 171.889159 139.449124 171.801332 139.240348 171.798423 138.989741 L 171.799744 92.400239 C 171.800569 92.151445 171.889095 91.940622 172.063401 91.762221 C 172.239628 91.589369 172.450218 91.497808 172.699012 91.498633 Z M 172.699012 91.498633 " stroke="#ffae46" stroke-width="1" stroke-opacity="1" stroke-miterlimit="10"/><path stroke-linecap="butt" transform="matrix(0.846477, -0.411027, 0.411027, 0.846477, 180.741923, 278.523405)" fill-opacity="1" fill="#ffae46" fill-rule="nonzero" stroke-linejoin="miter" d="M 287.100798 350.102642 L 290.299696 350.100785 C 290.54849 350.10161 290.761126 350.186402 290.937713 350.364443 C 291.110566 350.54067 291.202127 350.751259 291.201302 351.000053 L 291.199981 397.589555 C 291.199155 397.838349 291.110629 398.049172 290.936323 398.227572 C 290.760096 398.400425 290.549507 398.491986 290.300713 398.491161 L 287.098081 398.491205 C 286.849287 398.49038 286.638464 398.401853 286.465611 398.225626 C 286.287211 398.05132 286.201197 397.83881 286.202022 397.590016 L 286.199609 350.998701 C 286.200435 350.749907 286.288961 350.539084 286.461453 350.364418 C 286.639494 350.187831 286.852004 350.101817 287.100798 350.102642 Z M 287.100798 350.102642 " stroke="#ffae46" stroke-width="1" stroke-opacity="1" stroke-miterlimit="10"/><path stroke-linecap="butt" transform="matrix(0.88919, 0.30791, -0.30791, 0.88919, 356.613619, 44.310692)" fill-opacity="1" fill="#ffae46" fill-rule="nonzero" stroke-linejoin="miter" d="M 278.398221 88.900956 L 281.600153 88.899235 C 281.84699 88.901621 282.060643 88.985786 282.235983 89.162294 C 282.411323 89.338801 282.4978 89.550473 282.500695 89.799874 L 282.497992 136.389034 C 282.500887 136.638435 282.41144 136.849523 282.234933 137.024863 C 282.059784 137.204126 281.848112 137.290603 281.601275 137.288217 L 278.399343 137.289939 C 278.152506 137.287553 277.938853 137.203387 277.763513 137.02688 C 277.588173 136.850373 277.501696 136.638701 277.498801 136.3893 L 277.501504 89.80014 C 277.498609 89.550739 277.588056 89.339651 277.764563 89.16431 C 277.941071 88.98897 278.151384 88.89857 278.398221 88.900956 Z M 278.398221 88.900956 " stroke="#ffae46" stroke-width="1" stroke-opacity="1" stroke-miterlimit="10"/><path stroke-linecap="butt" transform="matrix(0.88919, 0.30791, -0.30791, 0.88919, 432.74007, 89.478224)" fill-opacity="1" fill="#ffae46" fill-rule="nonzero" stroke-linejoin="miter" d="M 176.398516 352.6998 L 179.600449 352.698079 C 179.847285 352.700465 180.062296 352.788553 180.237637 352.96506 C 180.411619 353.137645 180.499454 353.35324 180.500991 353.598718 L 180.499645 400.1918 C 180.501182 400.437279 180.413094 400.65229 180.236586 400.82763 C 180.060079 401.00297 179.848407 401.089448 179.599006 401.092343 L 176.399638 401.088783 C 176.150237 401.091678 175.939149 401.002232 175.763808 400.825724 C 175.588468 400.649217 175.498068 400.438903 175.500454 400.192067 L 175.5018 353.598984 C 175.500263 353.353506 175.588351 353.138495 175.764859 352.963154 C 175.941366 352.787814 176.153038 352.701337 176.398516 352.6998 Z M 176.398516 352.6998 " stroke="#ffae46" stroke-width="1" stroke-opacity="1" stroke-miterlimit="10"/><path stroke-linecap="butt" transform="matrix(0.411027, 0.846477, -0.846477, 0.411027, 655.567363, -82.441207)" fill-opacity="1" fill="#ffae46" fill-rule="nonzero" stroke-linejoin="miter" d="M 359.197779 161.100144 L 362.400411 161.1001 C 362.649205 161.100925 362.860028 161.189451 363.038428 161.363757 C 363.211281 161.539984 363.299108 161.748761 363.302017 161.999368 L 363.300694 208.588869 C 363.299868 208.837663 363.211342 209.048486 363.037036 209.226886 C 362.858996 209.403473 362.646485 209.489487 362.401426 209.490475 L 359.198794 209.490519 C 358.95 209.489693 358.739177 209.401167 358.564511 209.228674 C 358.387924 209.050634 358.30191 208.838124 358.299001 208.587517 L 358.300324 161.998015 C 358.299336 161.752956 358.389676 161.538398 358.562169 161.363732 C 358.740209 161.187145 358.952719 161.101132 359.197779 161.100144 Z M 359.197779 161.100144 " stroke="#ffae46" stroke-width="1" stroke-opacity="1" stroke-miterlimit="10"/><path stroke-linecap="butt" transform="matrix(0.411027, 0.846477, -0.846477, 0.411027, 615.198189, 197.316178)" fill-opacity="1" fill="#ffae46" fill-rule="nonzero" stroke-linejoin="miter" d="M 100.601398 275.499835 L 103.800296 275.497978 C 104.04909 275.498803 104.259913 275.587329 104.4365 275.765369 C 104.611166 275.937862 104.700914 276.152186 104.700089 276.40098 L 104.698765 322.990481 C 104.69794 323.239275 104.613148 323.451911 104.436921 323.624764 C 104.258881 323.801351 104.050105 323.889178 103.801311 323.888353 L 100.598679 323.888396 C 100.353619 323.889384 100.137249 323.802779 99.964396 323.626552 C 99.787809 323.448512 99.699982 323.239736 99.700807 322.990942 L 99.698396 276.399627 C 99.699222 276.150834 99.787748 275.94001 99.965788 275.763423 C 100.138281 275.588757 100.352604 275.499009 100.601398 275.499835 Z M 100.601398 275.499835 " stroke="#ffae46" stroke-width="1" stroke-opacity="1" stroke-miterlimit="10"/><path stroke-linecap="butt" transform="matrix(-0.30791, 0.88919, -0.88919, -0.30791, 1024.342344, 171.626731)" fill-opacity="1" fill="#ffae46" fill-rule="nonzero" stroke-linejoin="miter" d="M 361.799046 271.801449 L 365.000978 271.799727 C 365.247815 271.802114 365.461467 271.886279 365.636808 272.062786 C 365.812148 272.239294 365.898625 272.450966 365.90152 272.700367 L 365.898815 319.289527 C 365.90171 319.538928 365.812263 319.750017 365.635756 319.925357 C 365.459249 320.100697 365.248935 320.191097 364.998176 320.190069 L 361.800166 320.190432 C 361.549407 320.189405 361.339677 320.103881 361.164336 319.927373 C 360.988996 319.750866 360.898596 319.540552 360.899624 319.289793 L 360.902329 272.700633 C 360.899434 272.451232 360.988881 272.240143 361.165388 272.064803 C 361.340537 271.88554 361.552209 271.799063 361.799046 271.801449 Z M 361.799046 271.801449 " stroke="#ffae46" stroke-width="1" stroke-opacity="1" stroke-miterlimit="10"/><path stroke-linecap="butt" transform="matrix(-0.310528, 0.884533, -0.884533, -0.310528, 604.113597, 278.646011)" fill-opacity="1" fill="#ffae46" fill-rule="nonzero" stroke-linejoin="miter" d="M 97.998832 169.800266 L 101.199837 169.798216 C 101.447612 169.799555 101.659878 169.888435 101.836633 170.064855 C 102.012008 170.237345 102.099717 170.449443 102.099759 170.70115 L 102.098671 217.292137 C 102.101264 217.538532 102.012384 217.750798 101.835964 217.927553 C 101.659543 218.104309 101.447445 218.192017 101.199669 218.190679 L 98.001216 218.187416 C 97.750889 218.19139 97.538624 218.10251 97.361868 217.926089 C 97.189044 217.748288 97.101336 217.53619 97.098743 217.289795 L 97.099831 170.698807 C 97.101169 170.451032 97.186117 170.240147 97.362538 170.063391 C 97.538959 169.886636 97.751057 169.798927 97.998832 169.800266 Z M 97.998832 169.800266 " stroke="#ffae46" stroke-width="1" stroke-opacity="1" stroke-miterlimit="10"/><path stroke-linecap="butt" transform="matrix(0.940993, 0, 0, 0.940993, 331.865583, 167.204251)" fill-opacity="1" fill="#ffae46" fill-rule="nonzero" stroke-linejoin="miter" d="M 205.299375 316.299602 L 208.499951 316.299602 C 208.749023 316.299602 208.960735 316.386777 209.135085 316.565279 C 209.313587 316.739629 209.400762 316.951341 209.400762 317.200413 L 209.400762 402.441184 C 209.400762 402.690256 209.313587 402.901968 209.135085 403.076318 C 208.960735 403.250669 208.749023 403.341995 208.499951 403.341995 L 205.299375 403.341995 C 205.050303 403.341995 204.838592 403.250669 204.664241 403.076318 C 204.489891 402.901968 204.398564 402.690256 204.398564 402.441184 L 204.398564 317.200413 C 204.398564 316.951341 204.489891 316.739629 204.664241 316.565279 C 204.838592 316.386777 205.050303 316.299602 205.299375 316.299602 Z M 205.299375 316.299602 " stroke="#ffae46" stroke-width="1" stroke-opacity="1" stroke-miterlimit="10"/><path stroke-linecap="butt" transform="matrix(0, 0.940993, -0.940993, 0, 898.249063, -10.737475)" fill-opacity="1" fill="#ffae46" fill-rule="nonzero" stroke-linejoin="miter" d="M 384.500031 198.501157 L 387.700607 198.501157 C 387.949679 198.501157 388.16139 198.588332 388.335741 198.762683 C 388.510091 198.941185 388.601418 199.152896 388.601418 199.401968 L 388.601418 284.638588 C 388.601418 284.88766 388.510091 285.099372 388.335741 285.277873 C 388.16139 285.452224 387.949679 285.539399 387.700607 285.539399 L 384.500031 285.539399 C 384.250959 285.539399 384.039247 285.452224 383.864897 285.277873 C 383.686395 285.099372 383.59922 284.88766 383.59922 284.638588 L 383.59922 199.401968 C 383.59922 199.152896 383.686395 198.941185 383.864897 198.762683 C 384.039247 198.588332 384.250959 198.501157 384.500031 198.501157 Z M 384.500031 198.501157 " stroke="#ffae46" stroke-width="1" stroke-opacity="1" stroke-miterlimit="10"/><path fill="#ffae46" d="M 414.203125 353.425781 L 414.203125 356.4375 C 414.203125 356.671875 414.121094 356.871094 413.953125 357.035156 C 413.789062 357.203125 413.589844 357.285156 413.355469 357.285156 L 333.144531 357.285156 C 332.910156 357.285156 332.710938 357.203125 332.546875 357.035156 C 332.382812 356.871094 332.296875 356.671875 332.296875 356.4375 L 332.296875 353.425781 C 332.296875 353.191406 332.382812 352.992188 332.546875 352.828125 C 332.710938 352.664062 332.910156 352.578125 333.144531 352.578125 L 413.355469 352.578125 C 413.589844 352.578125 413.789062 352.664062 413.953125 352.828125 C 414.121094 352.992188 414.203125 353.191406 414.203125 353.425781 Z M 414.203125 353.425781 " fill-opacity="1" fill-rule="nonzero"/><g clip-path="url(#146013403c)"><path stroke-linecap="butt" transform="matrix(0, 0.940993, -0.940993, 0, 603.341973, 288.780505)" fill="none" stroke-linejoin="miter" d="M 68.699025 200.999288 L 71.899602 200.999288 C 72.148674 200.999288 72.360385 201.086464 72.534736 201.264965 C 72.713237 201.439316 72.800413 201.651027 72.800413 201.900099 L 72.800413 287.140871 C 72.800413 287.389943 72.713237 287.601654 72.534736 287.776005 C 72.360385 287.950355 72.148674 288.041682 71.899602 288.041682 L 68.699025 288.041682 C 68.449953 288.041682 68.238242 287.950355 68.063892 287.776005 C 67.889541 287.601654 67.798215 287.389943 67.798215 287.140871 L 67.798215 201.900099 C 67.798215 201.651027 67.889541 201.439316 68.063892 201.264965 C 68.238242 201.086464 68.449953 200.999288 68.699025 200.999288 Z M 68.699025 200.999288 " stroke="#ffae46" stroke-width="1" stroke-opacity="1" stroke-miterlimit="10"/></g><path stroke-linecap="butt" transform="matrix(-0.665382, 0.665382, -0.665382, -0.665382, 1095.670605, 469.169085)" fill-opacity="1" fill="#ffae46" fill-rule="nonzero" stroke-linejoin="miter" d="M 341.598699 312.998398 L 344.801157 313.001333 C 345.047726 313.001333 345.262006 313.086458 345.438127 313.262579 C 345.614247 313.438699 345.699372 313.652979 345.699372 313.899548 L 345.699372 399.141896 C 345.699372 399.388465 345.611312 399.59981 345.435191 399.77593 C 345.259071 399.952051 345.047726 400.040111 344.801157 400.040111 L 341.601634 400.040111 C 341.349194 400.040111 341.13785 399.952051 340.961729 399.77593 C 340.788544 399.602745 340.697548 399.388465 340.700484 399.138961 L 340.697548 313.899548 C 340.700484 313.650044 340.788544 313.438699 340.964665 313.262579 C 341.140785 313.086458 341.35213 312.998398 341.598699 312.998398 Z M 341.598699 312.998398 " stroke="#ffae46" stroke-width="1" stroke-opacity="1" stroke-miterlimit="10"/><path stroke-linecap="butt" transform="matrix(-0.665382, 0.665382, -0.665382, -0.665382, 586.687486, 262.99776)" fill-opacity="1" fill="#ffae46" fill-rule="nonzero" stroke-linejoin="miter" d="M 116.499549 91.498805 L 119.699072 91.498805 C 119.948576 91.50174 120.159921 91.5898 120.336042 91.765921 C 120.512162 91.942041 120.600222 92.153386 120.600222 92.399955 L 120.600222 177.642303 C 120.600222 177.888872 120.512162 178.100217 120.336042 178.276337 C 120.159921 178.452458 119.948576 178.540518 119.702008 178.540518 L 116.499549 178.537583 C 116.250045 178.540518 116.0387 178.452458 115.862579 178.276337 C 115.686459 178.100217 115.598399 177.888872 115.601334 177.639368 L 115.598399 92.399955 C 115.601334 92.150451 115.689394 91.939106 115.865515 91.762985 C 116.0387 91.5898 116.25298 91.498805 116.499549 91.498805 Z M 116.499549 91.498805 " stroke="#ffae46" stroke-width="1" stroke-opacity="1" stroke-miterlimit="10"/><path stroke-linecap="butt" transform="matrix(-0.665382, -0.665382, 0.665382, -0.665382, 259.032792, 774.426726)" fill-opacity="1" fill="#ffae46" fill-rule="nonzero" stroke-linejoin="miter" d="M 115.798197 312.299453 L 118.997721 312.299453 C 119.25016 312.299453 119.461505 312.387514 119.637625 312.563634 C 119.813746 312.739755 119.901806 312.951099 119.898871 313.200603 L 119.901806 398.440016 C 119.898871 398.68952 119.810811 398.900865 119.63469 399.076986 C 119.461505 399.250171 119.247225 399.341166 119.000656 399.341166 L 115.801133 399.341166 C 115.551629 399.338231 115.340284 399.250171 115.164163 399.07405 C 114.988043 398.89793 114.899983 398.686585 114.899983 398.440016 L 114.899983 313.197668 C 114.899983 312.951099 114.988043 312.739755 115.164163 312.563634 C 115.340284 312.387514 115.551629 312.299453 115.798197 312.299453 Z M 115.798197 312.299453 " stroke="#ffae46" stroke-width="1" stroke-opacity="1" stroke-miterlimit="10"/><path stroke-linecap="butt" transform="matrix(-0.665382, -0.665382, 0.665382, -0.665382, 764.629117, 560.352184)" fill-opacity="1" fill="#ffae46" fill-rule="nonzero" stroke-linejoin="miter" d="M 337.397707 87.20053 L 340.600166 87.197595 C 340.84967 87.20053 341.061014 87.288591 341.237135 87.464711 C 341.413255 87.640832 341.501316 87.852177 341.501316 88.098745 L 341.501316 173.341094 C 341.501316 173.587662 341.413255 173.799007 341.237135 173.975128 C 341.061014 174.151248 340.84967 174.239308 340.600166 174.242244 L 337.400642 174.242244 C 337.151138 174.239308 336.939793 174.151248 336.763673 173.975128 C 336.587552 173.799007 336.499492 173.587662 336.499492 173.341094 L 336.499492 88.098745 C 336.499492 87.852177 336.587552 87.640832 336.763673 87.464711 C 336.939793 87.288591 337.151138 87.20053 337.397707 87.20053 Z M 337.397707 87.20053 " stroke="#ffae46" stroke-width="1" stroke-opacity="1" stroke-miterlimit="10"/><g clip-path="url(#6a311fe7e5)"><path fill="#6c88b5" d="M 449.488281 473.121094 L 450.902344 473.121094 C 450.464844 471.714844 450.089844 470.292969 449.769531 468.855469 C 449.449219 467.417969 449.183594 465.96875 448.980469 464.507812 C 448.773438 463.050781 448.628906 461.585938 448.542969 460.117188 C 448.453125 458.644531 448.425781 457.175781 448.457031 455.703125 C 448.488281 454.230469 448.578125 452.761719 448.726562 451.296875 C 448.875 449.828125 449.078125 448.371094 449.34375 446.925781 C 449.609375 445.476562 449.933594 444.039062 450.3125 442.617188 C 450.691406 441.191406 451.128906 439.789062 451.621094 438.398438 C 452.113281 437.011719 452.660156 435.644531 453.265625 434.300781 C 453.867188 432.957031 454.519531 431.640625 455.230469 430.347656 C 455.9375 429.054688 456.695312 427.792969 457.503906 426.5625 C 458.3125 425.332031 459.167969 424.136719 460.074219 422.972656 C 460.980469 421.8125 461.929688 420.6875 462.921875 419.601562 C 463.917969 418.515625 464.953125 417.472656 466.035156 416.46875 C 467.113281 415.464844 468.230469 414.507812 469.382812 413.59375 C 470.539062 412.679688 471.730469 411.8125 472.953125 410.996094 C 474.179688 410.175781 475.433594 409.410156 476.71875 408.691406 C 478.007812 407.972656 479.320312 407.308594 480.660156 406.695312 C 482 406.085938 483.359375 405.527344 484.746094 405.023438 C 486.128906 404.519531 487.53125 404.074219 488.953125 403.679688 C 490.371094 403.289062 491.804688 402.957031 493.25 402.679688 C 494.699219 402.40625 496.152344 402.1875 497.617188 402.027344 C 499.082031 401.867188 500.550781 401.769531 502.023438 401.726562 C 503.496094 401.683594 504.964844 401.703125 506.4375 401.777344 C 507.910156 401.855469 509.375 401.988281 510.832031 402.183594 C 512.292969 402.375 513.742188 402.628906 515.183594 402.9375 C 516.625 403.246094 518.050781 403.613281 519.460938 404.039062 C 520.871094 404.460938 522.261719 404.941406 523.632812 405.476562 C 525.003906 406.011719 526.355469 406.601562 527.679688 407.246094 C 529.003906 407.890625 530.300781 408.585938 531.570312 409.332031 C 532.839844 410.078125 534.078125 410.875 535.28125 411.722656 C 536.488281 412.570312 537.65625 413.460938 538.789062 414.402344 C 539.042969 413.273438 539.324219 412.152344 539.632812 411.039062 C 539.945312 409.925781 540.277344 408.820312 540.640625 407.71875 C 541.003906 406.621094 541.394531 405.535156 541.808594 404.453125 C 542.222656 403.375 542.664062 402.308594 543.132812 401.25 C 543.601562 400.191406 544.09375 399.144531 544.609375 398.113281 C 545.128906 397.078125 545.671875 396.058594 546.238281 395.050781 C 546.808594 394.042969 547.398438 393.050781 548.015625 392.070312 C 548.632812 391.09375 549.269531 390.128906 549.933594 389.179688 C 550.597656 388.234375 551.28125 387.304688 551.988281 386.386719 C 552.699219 385.472656 553.425781 384.578125 554.179688 383.699219 C 554.929688 382.820312 555.703125 381.960938 556.496094 381.117188 C 557.289062 380.277344 558.101562 379.457031 558.933594 378.652344 C 559.769531 377.851562 560.621094 377.070312 561.492188 376.308594 C 562.363281 375.550781 563.253906 374.808594 564.160156 374.09375 C 565.066406 373.375 565.988281 372.679688 566.929688 372.007812 C 567.871094 371.335938 568.828125 370.6875 569.800781 370.0625 C 570.773438 369.433594 571.761719 368.832031 572.761719 368.253906 C 573.761719 367.675781 574.777344 367.125 575.804688 366.59375 C 576.835938 366.066406 577.875 365.5625 578.929688 365.085938 C 579.980469 364.605469 581.046875 364.152344 582.121094 363.726562 C 583.195312 363.300781 584.28125 362.902344 585.375 362.527344 C 586.46875 362.152344 587.570312 361.804688 588.683594 361.484375 C 589.792969 361.164062 590.910156 360.871094 592.035156 360.605469 C 593.160156 360.339844 594.292969 360.101562 595.429688 359.890625 C 596.566406 359.679688 597.707031 359.496094 598.855469 359.339844 C 600 359.183594 601.148438 359.058594 602.300781 358.957031 C 603.453125 358.859375 604.605469 358.785156 605.761719 358.742188 C 606.917969 358.699219 608.074219 358.683594 609.230469 358.695312 C 610.386719 358.707031 611.542969 358.75 612.695312 358.816406 C 613.851562 358.886719 615.003906 358.984375 616.152344 359.105469 C 617.300781 359.230469 618.449219 359.382812 619.589844 359.5625 C 620.734375 359.746094 621.871094 359.953125 623.003906 360.1875 C 624.132812 360.421875 625.261719 360.6875 626.378906 360.976562 C 627.5 361.265625 628.609375 361.582031 629.714844 361.925781 C 630.820312 362.269531 631.914062 362.640625 633 363.039062 C 634.085938 363.4375 635.160156 363.859375 636.226562 364.308594 C 637.292969 364.757812 638.347656 365.234375 639.386719 365.734375 C 640.429688 366.234375 641.460938 366.761719 642.476562 367.3125 C 643.492188 367.863281 644.496094 368.4375 645.484375 369.039062 C 646.476562 369.636719 647.449219 370.261719 648.40625 370.90625 C 649.367188 371.554688 650.308594 372.222656 651.234375 372.914062 C 652.160156 373.609375 653.070312 374.324219 653.960938 375.058594 C 654.851562 375.796875 655.726562 376.554688 656.578125 377.332031 C 657.433594 378.113281 658.269531 378.910156 659.085938 379.730469 C 659.902344 380.550781 660.695312 381.390625 661.472656 382.25 C 662.246094 383.105469 663 383.984375 663.730469 384.878906 C 664.464844 385.773438 665.175781 386.683594 665.863281 387.613281 C 666.550781 388.542969 667.214844 389.488281 667.859375 390.449219 C 668.5 391.414062 669.117188 392.390625 669.714844 393.382812 C 670.308594 394.371094 670.878906 395.378906 671.425781 396.398438 C 671.96875 397.417969 672.492188 398.449219 672.988281 399.492188 C 673.484375 400.539062 673.953125 401.59375 674.398438 402.664062 C 674.839844 403.730469 675.261719 404.808594 675.652344 405.894531 C 676.042969 406.984375 676.410156 408.082031 676.75 409.1875 C 677.085938 410.292969 677.398438 411.40625 677.683594 412.527344 C 677.96875 413.644531 678.226562 414.773438 678.457031 415.90625 C 678.6875 417.039062 678.886719 418.179688 679.0625 419.320312 C 679.238281 420.464844 679.386719 421.609375 679.503906 422.761719 C 679.621094 423.910156 679.714844 425.0625 679.777344 426.21875 C 679.839844 427.375 679.875 428.527344 679.882812 429.683594 C 679.890625 430.839844 679.867188 431.996094 679.820312 433.152344 C 679.769531 434.308594 679.691406 435.460938 679.585938 436.613281 C 679.480469 437.765625 679.347656 438.914062 679.1875 440.058594 C 679.027344 441.203125 678.835938 442.34375 678.621094 443.480469 C 681.550781 443.023438 684.5 442.800781 687.464844 442.820312 C 689.101562 442.816406 690.734375 442.882812 692.363281 443.015625 C 693.992188 443.148438 695.613281 443.34375 697.226562 443.613281 C 698.839844 443.878906 700.441406 444.207031 702.027344 444.605469 C 703.613281 445.003906 705.179688 445.464844 706.726562 445.992188 C 708.277344 446.519531 709.800781 447.109375 711.296875 447.761719 C 712.796875 448.414062 714.269531 449.128906 715.707031 449.902344 C 717.148438 450.675781 718.554688 451.507812 719.925781 452.398438 C 721.296875 453.285156 722.628906 454.230469 723.925781 455.230469 C 725.21875 456.230469 726.46875 457.28125 727.675781 458.386719 C 728.882812 459.488281 730.042969 460.636719 731.15625 461.835938 C 732.265625 463.035156 733.328125 464.277344 734.339844 465.5625 C 735.347656 466.847656 736.304688 468.175781 737.203125 469.539062 C 738.105469 470.90625 738.945312 472.304688 739.730469 473.738281 C 740.515625 475.171875 741.242188 476.636719 741.90625 478.128906 C 742.570312 479.625 743.171875 481.144531 743.710938 482.6875 C 744.25 484.230469 744.722656 485.792969 745.132812 487.375 C 745.542969 488.960938 745.886719 490.554688 746.167969 492.167969 C 746.445312 493.777344 746.65625 495.398438 746.800781 497.027344 C 746.945312 498.65625 747.023438 500.289062 747.035156 501.921875 C 747.042969 503.558594 746.988281 505.191406 746.863281 506.820312 C 746.738281 508.453125 746.546875 510.074219 746.289062 511.6875 C 746.03125 513.304688 745.707031 514.902344 745.316406 516.492188 C 744.925781 518.078125 744.46875 519.648438 743.949219 521.199219 C 743.429688 522.75 742.847656 524.273438 742.199219 525.777344 C 741.554688 527.28125 740.847656 528.753906 740.082031 530.195312 C 739.316406 531.640625 738.488281 533.050781 737.605469 534.425781 C 736.722656 535.800781 735.785156 537.140625 734.789062 538.4375 C 733.796875 539.734375 732.75 540.992188 731.652344 542.203125 C 730.554688 543.414062 729.410156 544.582031 728.21875 545.699219 C 727.023438 546.816406 725.785156 547.882812 724.503906 548.898438 C 723.222656 549.914062 721.902344 550.875 720.542969 551.78125 C 719.179688 552.6875 717.785156 553.535156 716.355469 554.328125 C 712.722656 556.761719 708.8125 558.613281 704.628906 559.878906 C 700.445312 561.144531 696.167969 561.773438 691.796875 561.761719 L 449.488281 561.761719 C 448.039062 561.757812 446.59375 561.683594 445.148438 561.539062 C 443.703125 561.394531 442.273438 561.179688 440.851562 560.894531 C 439.425781 560.609375 438.023438 560.257812 436.632812 559.832031 C 435.246094 559.410156 433.882812 558.921875 432.542969 558.363281 C 431.203125 557.808594 429.894531 557.1875 428.617188 556.5 C 427.335938 555.816406 426.09375 555.070312 424.886719 554.265625 C 423.683594 553.457031 422.519531 552.59375 421.398438 551.671875 C 420.277344 550.753906 419.203125 549.78125 418.175781 548.753906 C 417.152344 547.726562 416.179688 546.65625 415.257812 545.535156 C 414.335938 544.410156 413.472656 543.25 412.667969 542.042969 C 411.859375 540.835938 411.113281 539.59375 410.429688 538.316406 C 409.746094 537.035156 409.125 535.726562 408.566406 534.386719 C 408.011719 533.046875 407.519531 531.683594 407.097656 530.296875 C 406.675781 528.910156 406.320312 527.503906 406.035156 526.082031 C 405.75 524.660156 405.535156 523.226562 405.390625 521.78125 C 405.246094 520.339844 405.171875 518.890625 405.167969 517.441406 C 405.171875 515.992188 405.246094 514.542969 405.390625 513.101562 C 405.535156 511.65625 405.75 510.222656 406.035156 508.800781 C 406.320312 507.378906 406.675781 505.972656 407.097656 504.585938 C 407.519531 503.199219 408.011719 501.835938 408.566406 500.496094 C 409.125 499.15625 409.746094 497.847656 410.429688 496.566406 C 411.113281 495.289062 411.859375 494.046875 412.667969 492.839844 C 413.472656 491.636719 414.335938 490.472656 415.257812 489.351562 C 416.179688 488.230469 417.152344 487.15625 418.175781 486.128906 C 419.203125 485.105469 420.277344 484.128906 421.398438 483.210938 C 422.519531 482.289062 423.683594 481.425781 424.886719 480.621094 C 426.09375 479.8125 427.335938 479.066406 428.617188 478.382812 C 429.894531 477.695312 431.203125 477.078125 432.542969 476.519531 C 433.882812 475.964844 435.246094 475.472656 436.632812 475.050781 C 438.023438 474.628906 439.425781 474.273438 440.851562 473.988281 C 442.273438 473.703125 443.703125 473.488281 445.148438 473.34375 C 446.59375 473.199219 448.039062 473.125 449.488281 473.121094 Z M 449.488281 473.121094 " fill-opacity="1" fill-rule="nonzero"/></g><g clip-path="url(#1fab73dc72)"><path fill="#6c88b5" d="M 458.433594 325.617188 L 456.402344 325.617188 C 458.824219 317.851562 460.015625 309.898438 459.984375 301.761719 C 459.984375 299.847656 459.917969 297.9375 459.785156 296.027344 C 459.648438 294.121094 459.449219 292.21875 459.179688 290.324219 C 458.914062 288.429688 458.578125 286.546875 458.175781 284.675781 C 457.773438 282.804688 457.308594 280.949219 456.773438 279.113281 C 456.242188 277.277344 455.644531 275.457031 454.980469 273.664062 C 454.320312 271.867188 453.597656 270.097656 452.808594 268.355469 C 452.023438 266.609375 451.175781 264.894531 450.269531 263.210938 C 449.359375 261.527344 448.394531 259.875 447.367188 258.261719 C 446.34375 256.644531 445.261719 255.066406 444.125 253.527344 C 442.992188 251.988281 441.800781 250.492188 440.558594 249.035156 C 439.316406 247.582031 438.023438 246.171875 436.683594 244.808594 C 435.339844 243.445312 433.949219 242.128906 432.515625 240.863281 C 431.082031 239.597656 429.601562 238.382812 428.082031 237.222656 C 426.558594 236.0625 425 234.957031 423.402344 233.90625 C 421.800781 232.855469 420.167969 231.863281 418.496094 230.929688 C 416.828125 229.992188 415.128906 229.121094 413.394531 228.304688 C 411.664062 227.492188 409.90625 226.738281 408.121094 226.046875 C 406.335938 225.359375 404.53125 224.730469 402.699219 224.171875 C 400.871094 223.609375 399.023438 223.109375 397.160156 222.679688 C 395.296875 222.25 393.417969 221.882812 391.53125 221.585938 C 389.640625 221.285156 387.742188 221.054688 385.835938 220.890625 C 383.929688 220.726562 382.019531 220.628906 380.105469 220.601562 C 378.191406 220.570312 376.28125 220.609375 374.371094 220.714844 C 372.460938 220.820312 370.554688 220.996094 368.65625 221.238281 C 366.757812 221.476562 364.871094 221.785156 362.996094 222.160156 C 361.117188 222.535156 359.257812 222.972656 357.414062 223.480469 C 355.566406 223.988281 353.742188 224.558594 351.9375 225.191406 C 350.132812 225.828125 348.351562 226.527344 346.597656 227.289062 C 344.839844 228.050781 343.113281 228.871094 341.417969 229.753906 C 339.71875 230.640625 338.054688 231.582031 336.425781 232.582031 C 334.796875 233.585938 333.203125 234.640625 331.648438 235.757812 C 330.089844 236.871094 328.578125 238.039062 327.101562 239.257812 C 326.765625 237.691406 326.386719 236.132812 325.976562 234.585938 C 325.566406 233.035156 325.121094 231.496094 324.636719 229.964844 C 324.15625 228.4375 323.640625 226.921875 323.089844 225.414062 C 322.535156 223.910156 321.953125 222.417969 321.332031 220.9375 C 320.710938 219.460938 320.058594 217.996094 319.371094 216.546875 C 318.6875 215.097656 317.964844 213.667969 317.214844 212.25 C 316.460938 210.835938 315.675781 209.4375 314.859375 208.058594 C 314.042969 206.679688 313.195312 205.316406 312.316406 203.976562 C 311.441406 202.636719 310.53125 201.316406 309.589844 200.015625 C 308.652344 198.714844 307.683594 197.441406 306.6875 196.183594 C 305.6875 194.929688 304.664062 193.699219 303.609375 192.492188 C 302.554688 191.28125 301.472656 190.097656 300.363281 188.941406 C 299.257812 187.78125 298.121094 186.648438 296.960938 185.542969 C 295.800781 184.4375 294.617188 183.359375 293.40625 182.304688 C 292.199219 181.253906 290.964844 180.230469 289.707031 179.234375 C 288.453125 178.238281 287.171875 177.273438 285.871094 176.335938 C 284.570312 175.398438 283.25 174.492188 281.90625 173.613281 C 280.5625 172.738281 279.203125 171.894531 277.820312 171.078125 C 276.441406 170.265625 275.042969 169.484375 273.625 168.734375 C 272.207031 167.984375 270.773438 167.265625 269.324219 166.582031 C 267.875 165.898438 266.410156 165.246094 264.929688 164.628906 C 263.449219 164.011719 261.957031 163.429688 260.449219 162.878906 C 258.945312 162.332031 257.425781 161.816406 255.894531 161.339844 C 254.367188 160.859375 252.828125 160.414062 251.277344 160.007812 C 249.726562 159.597656 248.167969 159.226562 246.601562 158.886719 C 245.03125 158.550781 243.457031 158.25 241.875 157.984375 C 240.296875 157.71875 238.710938 157.492188 237.117188 157.296875 C 235.527344 157.105469 233.929688 156.949219 232.332031 156.832031 C 230.734375 156.710938 229.132812 156.628906 227.53125 156.582031 C 225.925781 156.535156 224.324219 156.527344 222.722656 156.554688 C 221.117188 156.582031 219.515625 156.648438 217.917969 156.746094 C 216.316406 156.847656 214.71875 156.984375 213.125 157.160156 C 211.53125 157.332031 209.945312 157.542969 208.359375 157.792969 C 206.777344 158.039062 205.199219 158.320312 203.628906 158.640625 C 202.054688 158.960938 200.492188 159.3125 198.9375 159.703125 C 197.382812 160.09375 195.839844 160.523438 194.304688 160.984375 C 192.769531 161.445312 191.242188 161.941406 189.730469 162.472656 C 188.21875 163.003906 186.71875 163.570312 185.230469 164.167969 C 183.746094 164.769531 182.273438 165.402344 180.816406 166.070312 C 179.359375 166.738281 177.917969 167.4375 176.492188 168.171875 C 175.066406 168.90625 173.65625 169.671875 172.265625 170.46875 C 170.875 171.269531 169.503906 172.097656 168.152344 172.957031 C 166.800781 173.820312 165.46875 174.710938 164.15625 175.632812 C 162.84375 176.554688 161.554688 177.507812 160.289062 178.488281 C 159.019531 179.46875 157.773438 180.480469 156.554688 181.515625 C 155.332031 182.554688 154.132812 183.621094 152.960938 184.714844 C 151.789062 185.804688 150.640625 186.925781 149.519531 188.070312 C 148.398438 189.214844 147.300781 190.386719 146.234375 191.582031 C 145.167969 192.777344 144.125 194 143.113281 195.242188 C 142.101562 196.484375 141.121094 197.75 140.164062 199.039062 C 139.210938 200.328125 138.285156 201.636719 137.394531 202.96875 C 136.5 204.296875 135.636719 205.648438 134.804688 207.019531 C 133.972656 208.390625 133.171875 209.777344 132.402344 211.183594 C 131.632812 212.59375 130.898438 214.015625 130.195312 215.457031 C 129.492188 216.898438 128.820312 218.351562 128.183594 219.824219 C 127.546875 221.296875 126.945312 222.78125 126.375 224.28125 C 125.808594 225.78125 125.273438 227.289062 124.773438 228.8125 C 124.277344 230.335938 123.8125 231.871094 123.382812 233.417969 C 122.953125 234.960938 122.558594 236.515625 122.203125 238.078125 C 121.84375 239.640625 121.523438 241.210938 121.234375 242.789062 C 120.949219 244.367188 120.699219 245.949219 120.488281 247.539062 C 120.273438 249.125 120.097656 250.71875 119.957031 252.316406 C 119.816406 253.914062 119.710938 255.511719 119.644531 257.113281 C 119.578125 258.71875 119.546875 260.320312 119.554688 261.921875 C 119.515625 268.667969 120.152344 275.347656 121.464844 281.960938 C 117.109375 281.34375 112.738281 281.023438 108.34375 281.007812 C 105.941406 281.011719 103.546875 281.117188 101.152344 281.320312 C 98.761719 281.519531 96.382812 281.820312 94.015625 282.21875 C 91.648438 282.617188 89.300781 283.113281 86.972656 283.703125 C 84.648438 284.292969 82.347656 284.980469 80.078125 285.757812 C 77.808594 286.539062 75.574219 287.410156 73.375 288.375 C 71.179688 289.339844 69.023438 290.390625 66.910156 291.53125 C 64.800781 292.675781 62.738281 293.898438 60.726562 295.210938 C 58.714844 296.519531 56.761719 297.914062 54.867188 299.382812 C 52.96875 300.855469 51.136719 302.402344 49.367188 304.023438 C 47.597656 305.644531 45.898438 307.339844 44.265625 309.101562 C 42.636719 310.863281 41.082031 312.6875 39.601562 314.578125 C 38.121094 316.46875 36.722656 318.414062 35.402344 320.421875 C 34.082031 322.425781 32.847656 324.480469 31.695312 326.585938 C 30.546875 328.695312 29.484375 330.84375 28.507812 333.039062 C 27.535156 335.234375 26.652344 337.464844 25.863281 339.730469 C 25.070312 341.996094 24.375 344.292969 23.773438 346.613281 C 23.171875 348.9375 22.667969 351.285156 22.257812 353.648438 C 21.851562 356.015625 21.539062 358.390625 21.324219 360.785156 C 21.113281 363.175781 20.996094 365.570312 20.980469 367.96875 C 20.964844 370.371094 21.046875 372.769531 21.230469 375.160156 C 21.410156 377.554688 21.6875 379.9375 22.066406 382.308594 C 22.441406 384.679688 22.917969 387.03125 23.488281 389.359375 C 24.058594 391.691406 24.722656 393.996094 25.480469 396.273438 C 26.242188 398.550781 27.09375 400.792969 28.039062 403 C 28.984375 405.207031 30.015625 407.371094 31.136719 409.492188 C 32.261719 411.613281 33.46875 413.6875 34.761719 415.710938 C 36.054688 417.734375 37.425781 419.699219 38.882812 421.609375 C 40.335938 423.519531 41.867188 425.363281 43.472656 427.148438 C 45.078125 428.933594 46.753906 430.648438 48.503906 432.292969 C 50.25 433.9375 52.0625 435.511719 53.9375 437.007812 C 55.816406 438.503906 57.75 439.921875 59.742188 441.257812 C 61.738281 442.597656 63.78125 443.847656 65.878906 445.019531 C 68.535156 446.808594 71.308594 448.394531 74.199219 449.773438 C 77.085938 451.152344 80.0625 452.3125 83.125 453.25 C 86.1875 454.191406 89.300781 454.898438 92.46875 455.378906 C 95.632812 455.859375 98.816406 456.101562 102.019531 456.113281 L 458.433594 456.113281 C 459.5 456.109375 460.566406 456.082031 461.632812 456.027344 C 462.699219 455.972656 463.761719 455.894531 464.824219 455.785156 C 465.886719 455.679688 466.945312 455.546875 468 455.390625 C 469.054688 455.230469 470.105469 455.046875 471.152344 454.839844 C 472.199219 454.628906 473.238281 454.394531 474.273438 454.132812 C 475.308594 453.871094 476.335938 453.585938 477.359375 453.277344 C 478.378906 452.964844 479.390625 452.628906 480.398438 452.269531 C 481.402344 451.90625 482.398438 451.523438 483.382812 451.113281 C 484.367188 450.703125 485.34375 450.269531 486.308594 449.8125 C 487.273438 449.355469 488.222656 448.875 489.164062 448.371094 C 490.105469 447.867188 491.035156 447.34375 491.949219 446.792969 C 492.863281 446.242188 493.765625 445.671875 494.652344 445.078125 C 495.539062 444.484375 496.414062 443.871094 497.269531 443.234375 C 498.125 442.597656 498.96875 441.941406 499.792969 441.265625 C 500.617188 440.589844 501.425781 439.890625 502.214844 439.175781 C 503.007812 438.457031 503.777344 437.722656 504.535156 436.96875 C 505.289062 436.210938 506.023438 435.441406 506.742188 434.648438 C 507.457031 433.859375 508.15625 433.050781 508.832031 432.226562 C 509.507812 431.402344 510.164062 430.558594 510.800781 429.703125 C 511.4375 428.84375 512.050781 427.972656 512.644531 427.085938 C 513.238281 426.199219 513.8125 425.296875 514.359375 424.382812 C 514.910156 423.46875 515.433594 422.539062 515.9375 421.597656 C 516.441406 420.65625 516.921875 419.707031 517.378906 418.742188 C 517.835938 417.777344 518.269531 416.800781 518.679688 415.816406 C 519.089844 414.828125 519.472656 413.835938 519.835938 412.832031 C 520.195312 411.824219 520.53125 410.8125 520.84375 409.792969 C 521.152344 408.769531 521.4375 407.742188 521.699219 406.707031 C 521.960938 405.671875 522.195312 404.632812 522.40625 403.585938 C 522.613281 402.539062 522.796875 401.488281 522.957031 400.433594 C 523.113281 399.378906 523.246094 398.320312 523.355469 397.257812 C 523.460938 396.195312 523.539062 395.132812 523.59375 394.066406 C 523.648438 393 523.675781 391.933594 523.679688 390.867188 C 523.675781 389.796875 523.648438 388.730469 523.59375 387.664062 C 523.539062 386.597656 523.460938 385.535156 523.355469 384.472656 C 523.246094 383.410156 523.113281 382.351562 522.957031 381.296875 C 522.800781 380.242188 522.613281 379.191406 522.40625 378.144531 C 522.195312 377.097656 521.960938 376.058594 521.699219 375.023438 C 521.4375 373.988281 521.152344 372.960938 520.84375 371.9375 C 520.53125 370.917969 520.195312 369.90625 519.835938 368.898438 C 519.472656 367.894531 519.089844 366.902344 518.679688 365.914062 C 518.269531 364.929688 517.835938 363.953125 517.378906 362.988281 C 516.921875 362.023438 516.441406 361.074219 515.9375 360.132812 C 515.4375 359.191406 514.910156 358.261719 514.359375 357.347656 C 513.8125 356.433594 513.238281 355.53125 512.644531 354.644531 C 512.054688 353.757812 511.4375 352.886719 510.800781 352.027344 C 510.164062 351.171875 509.507812 350.328125 508.832031 349.503906 C 508.15625 348.679688 507.457031 347.871094 506.742188 347.082031 C 506.023438 346.292969 505.289062 345.519531 504.535156 344.765625 C 503.777344 344.007812 503.007812 343.273438 502.214844 342.554688 C 501.425781 341.839844 500.617188 341.140625 499.792969 340.464844 C 498.96875 339.789062 498.125 339.132812 497.269531 338.496094 C 496.414062 337.859375 495.539062 337.246094 494.652344 336.652344 C 493.765625 336.058594 492.863281 335.488281 491.949219 334.9375 C 491.035156 334.386719 490.105469 333.863281 489.164062 333.359375 C 488.222656 332.855469 487.273438 332.375 486.308594 331.917969 C 485.34375 331.460938 484.367188 331.027344 483.382812 330.617188 C 482.398438 330.207031 481.402344 329.824219 480.398438 329.460938 C 479.390625 329.101562 478.378906 328.765625 477.359375 328.453125 C 476.335938 328.144531 475.308594 327.859375 474.273438 327.597656 C 473.238281 327.335938 472.199219 327.101562 471.152344 326.890625 C 470.105469 326.683594 469.054688 326.5 468 326.339844 C 466.945312 326.183594 465.886719 326.050781 464.824219 325.945312 C 463.761719 325.835938 462.699219 325.757812 461.632812 325.703125 C 460.566406 325.648438 459.5 325.621094 458.433594 325.617188 Z M 458.433594 325.617188 " fill-opacity="1" fill-rule="nonzero"/></g><g clip-path="url(#910a2a9ba5)"><path fill="#26477a" d="M 541.746094 476.3125 L 539.675781 476.3125 C 542.148438 468.375 543.367188 460.25 543.332031 451.9375 C 543.332031 449.980469 543.265625 448.027344 543.128906 446.078125 C 542.992188 444.128906 542.785156 442.183594 542.511719 440.25 C 542.238281 438.3125 541.894531 436.390625 541.484375 434.476562 C 541.074219 432.566406 540.597656 430.671875 540.054688 428.792969 C 539.507812 426.914062 538.898438 425.058594 538.222656 423.222656 C 537.546875 421.390625 536.808594 419.582031 536.003906 417.796875 C 535.199219 416.015625 534.332031 414.265625 533.40625 412.542969 C 532.476562 410.824219 531.488281 409.136719 530.441406 407.484375 C 529.394531 405.832031 528.292969 404.222656 527.128906 402.648438 C 525.96875 401.074219 524.753906 399.546875 523.484375 398.058594 C 522.214844 396.570312 520.894531 395.132812 519.523438 393.738281 C 518.152344 392.34375 516.730469 391 515.265625 389.707031 C 513.796875 388.414062 512.289062 387.175781 510.734375 385.988281 C 509.179688 384.800781 507.585938 383.671875 505.953125 382.597656 C 504.316406 381.527344 502.648438 380.511719 500.941406 379.554688 C 499.234375 378.601562 497.496094 377.707031 495.726562 376.875 C 493.957031 376.042969 492.160156 375.273438 490.339844 374.570312 C 488.515625 373.863281 486.667969 373.222656 484.800781 372.648438 C 482.929688 372.074219 481.042969 371.566406 479.136719 371.128906 C 477.234375 370.6875 475.316406 370.3125 473.382812 370.007812 C 471.453125 369.703125 469.511719 369.464844 467.566406 369.296875 C 465.617188 369.128906 463.664062 369.03125 461.710938 369.003906 C 459.753906 368.972656 457.800781 369.011719 455.851562 369.121094 C 453.898438 369.230469 451.953125 369.40625 450.011719 369.652344 C 448.074219 369.898438 446.144531 370.214844 444.226562 370.59375 C 442.308594 370.976562 440.40625 371.429688 438.523438 371.945312 C 436.636719 372.464844 434.769531 373.046875 432.925781 373.695312 C 431.082031 374.34375 429.265625 375.058594 427.46875 375.835938 C 425.675781 376.613281 423.914062 377.453125 422.179688 378.359375 C 420.445312 379.261719 418.742188 380.222656 417.078125 381.246094 C 415.410156 382.269531 413.78125 383.351562 412.195312 384.488281 C 410.605469 385.628906 409.054688 386.820312 407.550781 388.070312 C 407.203125 386.46875 406.820312 384.875 406.398438 383.292969 C 405.980469 381.707031 405.523438 380.136719 405.03125 378.574219 C 404.539062 377.011719 404.011719 375.460938 403.449219 373.921875 C 402.882812 372.382812 402.285156 370.859375 401.652344 369.347656 C 401.019531 367.835938 400.351562 366.339844 399.652344 364.859375 C 398.949219 363.378906 398.214844 361.917969 397.445312 360.46875 C 396.675781 359.023438 395.875 357.59375 395.039062 356.1875 C 394.207031 354.777344 393.339844 353.386719 392.441406 352.015625 C 391.546875 350.644531 390.617188 349.296875 389.65625 347.96875 C 388.695312 346.640625 387.707031 345.335938 386.6875 344.054688 C 385.667969 342.769531 384.621094 341.511719 383.542969 340.277344 C 382.464844 339.042969 381.359375 337.835938 380.226562 336.652344 C 379.097656 335.46875 377.9375 334.308594 376.75 333.179688 C 375.566406 332.050781 374.355469 330.945312 373.117188 329.871094 C 371.882812 328.796875 370.621094 327.75 369.339844 326.734375 C 368.054688 325.714844 366.746094 324.726562 365.417969 323.769531 C 364.089844 322.8125 362.738281 321.886719 361.367188 320.992188 C 359.996094 320.09375 358.605469 319.230469 357.191406 318.398438 C 355.78125 317.566406 354.351562 316.769531 352.902344 316.003906 C 351.457031 315.234375 349.992188 314.503906 348.507812 313.804688 C 347.027344 313.105469 345.53125 312.441406 344.019531 311.808594 C 342.507812 311.179688 340.980469 310.582031 339.441406 310.023438 C 337.902344 309.460938 336.351562 308.9375 334.789062 308.445312 C 333.226562 307.957031 331.652344 307.503906 330.066406 307.085938 C 328.484375 306.667969 326.890625 306.285156 325.289062 305.941406 C 323.6875 305.597656 322.078125 305.289062 320.464844 305.019531 C 318.847656 304.746094 317.226562 304.515625 315.601562 304.316406 C 313.972656 304.121094 312.34375 303.960938 310.710938 303.839844 C 309.078125 303.71875 307.441406 303.632812 305.804688 303.585938 C 304.164062 303.539062 302.527344 303.53125 300.890625 303.558594 C 299.25 303.585938 297.617188 303.652344 295.980469 303.753906 C 294.34375 303.859375 292.714844 304 291.085938 304.175781 C 289.457031 304.355469 287.832031 304.570312 286.214844 304.820312 C 284.59375 305.074219 282.984375 305.363281 281.378906 305.6875 C 279.773438 306.015625 278.175781 306.378906 276.585938 306.777344 C 274.996094 307.175781 273.417969 307.613281 271.851562 308.082031 C 270.28125 308.554688 268.722656 309.0625 267.179688 309.605469 C 265.632812 310.148438 264.101562 310.726562 262.582031 311.339844 C 261.0625 311.953125 259.558594 312.601562 258.066406 313.28125 C 256.578125 313.964844 255.105469 314.679688 253.648438 315.429688 C 252.191406 316.179688 250.753906 316.960938 249.332031 317.777344 C 247.910156 318.59375 246.511719 319.441406 245.128906 320.320312 C 243.746094 321.199219 242.386719 322.109375 241.046875 323.054688 C 239.707031 323.996094 238.386719 324.96875 237.089844 325.96875 C 235.796875 326.972656 234.523438 328.003906 233.277344 329.066406 C 232.027344 330.125 230.804688 331.214844 229.605469 332.332031 C 228.40625 333.449219 227.234375 334.59375 226.089844 335.761719 C 224.941406 336.933594 223.824219 338.128906 222.730469 339.351562 C 221.640625 340.574219 220.578125 341.820312 219.542969 343.089844 C 218.507812 344.359375 217.503906 345.652344 216.53125 346.96875 C 215.554688 348.285156 214.609375 349.625 213.695312 350.984375 C 212.785156 352.34375 211.902344 353.722656 211.050781 355.125 C 210.199219 356.523438 209.382812 357.945312 208.597656 359.382812 C 207.8125 360.820312 207.058594 362.273438 206.339844 363.746094 C 205.621094 365.21875 204.9375 366.707031 204.289062 368.210938 C 203.636719 369.714844 203.019531 371.230469 202.441406 372.761719 C 201.859375 374.292969 201.3125 375.839844 200.804688 377.394531 C 200.292969 378.953125 199.820312 380.519531 199.378906 382.097656 C 198.941406 383.675781 198.539062 385.265625 198.175781 386.859375 C 197.808594 388.457031 197.480469 390.0625 197.1875 391.675781 C 196.894531 393.285156 196.640625 394.90625 196.421875 396.527344 C 196.203125 398.152344 196.023438 399.78125 195.878906 401.410156 C 195.738281 403.042969 195.628906 404.675781 195.5625 406.3125 C 195.492188 407.953125 195.460938 409.589844 195.46875 411.226562 C 195.429688 418.117188 196.082031 424.945312 197.417969 431.703125 C 192.972656 431.070312 188.503906 430.746094 184.011719 430.730469 C 181.558594 430.734375 179.109375 430.839844 176.667969 431.046875 C 174.222656 431.253906 171.789062 431.558594 169.371094 431.96875 C 166.953125 432.375 164.554688 432.878906 162.175781 433.484375 C 159.800781 434.085938 157.453125 434.789062 155.132812 435.585938 C 152.8125 436.382812 150.527344 437.273438 148.28125 438.257812 C 146.035156 439.242188 143.835938 440.316406 141.675781 441.484375 C 139.519531 442.648438 137.410156 443.902344 135.355469 445.242188 C 133.300781 446.582031 131.304688 448.003906 129.367188 449.507812 C 127.429688 451.011719 125.554688 452.589844 123.75 454.246094 C 121.941406 455.90625 120.203125 457.632812 118.539062 459.433594 C 116.871094 461.234375 115.28125 463.101562 113.769531 465.03125 C 112.257812 466.964844 110.828125 468.953125 109.480469 471.003906 C 108.128906 473.050781 106.867188 475.152344 105.691406 477.304688 C 104.515625 479.457031 103.429688 481.65625 102.433594 483.894531 C 101.441406 486.136719 100.539062 488.417969 99.730469 490.734375 C 98.921875 493.050781 98.210938 495.394531 97.597656 497.769531 C 96.984375 500.144531 96.464844 502.539062 96.046875 504.957031 C 95.628906 507.375 95.3125 509.804688 95.09375 512.246094 C 94.878906 514.691406 94.761719 517.136719 94.742188 519.589844 C 94.726562 522.042969 94.8125 524.492188 94.996094 526.9375 C 95.179688 529.382812 95.464844 531.820312 95.851562 534.242188 C 96.238281 536.664062 96.71875 539.066406 97.304688 541.449219 C 97.886719 543.832031 98.566406 546.1875 99.34375 548.511719 C 100.117188 550.839844 100.988281 553.128906 101.953125 555.386719 C 102.917969 557.640625 103.976562 559.851562 105.121094 562.019531 C 106.269531 564.1875 107.503906 566.304688 108.824219 568.375 C 110.144531 570.441406 111.546875 572.449219 113.035156 574.398438 C 114.519531 576.351562 116.085938 578.238281 117.726562 580.0625 C 119.367188 581.882812 121.082031 583.636719 122.867188 585.316406 C 124.652344 587 126.503906 588.605469 128.421875 590.136719 C 130.339844 591.664062 132.316406 593.113281 134.351562 594.480469 C 136.390625 595.847656 138.476562 597.128906 140.621094 598.320312 C 143.335938 600.152344 146.167969 601.769531 149.121094 603.179688 C 152.074219 604.589844 155.117188 605.773438 158.242188 606.734375 C 161.371094 607.695312 164.554688 608.417969 167.789062 608.910156 C 171.027344 609.398438 174.28125 609.648438 177.550781 609.65625 L 541.746094 609.65625 C 542.839844 609.65625 543.929688 609.625 545.015625 609.570312 C 546.105469 609.515625 547.195312 609.433594 548.277344 609.324219 C 549.363281 609.21875 550.445312 609.082031 551.523438 608.921875 C 552.601562 608.757812 553.675781 608.570312 554.746094 608.355469 C 555.816406 608.140625 556.878906 607.902344 557.9375 607.636719 C 558.996094 607.371094 560.042969 607.078125 561.085938 606.757812 C 562.132812 606.441406 563.164062 606.097656 564.191406 605.730469 C 565.21875 605.363281 566.234375 604.96875 567.242188 604.550781 C 568.25 604.132812 569.246094 603.6875 570.230469 603.222656 C 571.21875 602.753906 572.191406 602.265625 573.152344 601.75 C 574.113281 601.234375 575.0625 600.695312 575.996094 600.136719 C 576.933594 599.574219 577.851562 598.992188 578.761719 598.382812 C 579.667969 597.777344 580.558594 597.148438 581.433594 596.5 C 582.308594 595.851562 583.167969 595.179688 584.011719 594.488281 C 584.855469 593.792969 585.679688 593.082031 586.488281 592.351562 C 587.296875 591.617188 588.085938 590.867188 588.855469 590.09375 C 589.628906 589.324219 590.378906 588.535156 591.113281 587.726562 C 591.84375 586.917969 592.554688 586.09375 593.25 585.25 C 593.941406 584.40625 594.613281 583.546875 595.261719 582.671875 C 595.910156 581.796875 596.539062 580.90625 597.144531 579.996094 C 597.753906 579.089844 598.335938 578.171875 598.898438 577.234375 C 599.457031 576.300781 599.996094 575.351562 600.511719 574.390625 C 601.027344 573.429688 601.515625 572.457031 601.984375 571.46875 C 602.449219 570.484375 602.894531 569.488281 603.3125 568.480469 C 603.730469 567.472656 604.125 566.457031 604.492188 565.429688 C 604.859375 564.402344 605.203125 563.371094 605.519531 562.324219 C 605.839844 561.28125 606.132812 560.230469 606.398438 559.175781 C 606.664062 558.117188 606.902344 557.054688 607.117188 555.984375 C 607.332031 554.914062 607.519531 553.839844 607.683594 552.761719 C 607.84375 551.683594 607.980469 550.601562 608.085938 549.515625 C 608.195312 548.433594 608.277344 547.34375 608.332031 546.253906 C 608.390625 545.167969 608.417969 544.078125 608.417969 542.984375 C 608.417969 541.894531 608.390625 540.804688 608.332031 539.714844 C 608.277344 538.628906 608.195312 537.539062 608.085938 536.453125 C 607.980469 535.371094 607.84375 534.289062 607.683594 533.210938 C 607.519531 532.128906 607.332031 531.054688 607.117188 529.988281 C 606.902344 528.917969 606.664062 527.855469 606.398438 526.796875 C 606.132812 525.738281 605.839844 524.6875 605.519531 523.644531 C 605.203125 522.601562 604.859375 521.566406 604.492188 520.542969 C 604.125 519.515625 603.730469 518.496094 603.3125 517.492188 C 602.894531 516.484375 602.449219 515.488281 601.984375 514.5 C 601.515625 513.515625 601.027344 512.542969 600.511719 511.582031 C 599.996094 510.621094 599.457031 509.671875 598.898438 508.734375 C 598.335938 507.800781 597.753906 506.878906 597.144531 505.972656 C 596.539062 505.066406 595.910156 504.175781 595.261719 503.300781 C 594.613281 502.425781 593.941406 501.566406 593.25 500.722656 C 592.554688 499.878906 591.84375 499.054688 591.113281 498.246094 C 590.378906 497.4375 589.628906 496.648438 588.855469 495.878906 C 588.085938 495.105469 587.296875 494.355469 586.488281 493.621094 C 585.679688 492.890625 584.855469 492.175781 584.011719 491.484375 C 583.167969 490.792969 582.308594 490.121094 581.433594 489.472656 C 580.558594 488.820312 579.667969 488.195312 578.757812 487.585938 C 577.851562 486.980469 576.933594 486.398438 575.996094 485.835938 C 575.0625 485.273438 574.113281 484.738281 573.152344 484.222656 C 572.191406 483.707031 571.21875 483.214844 570.230469 482.75 C 569.246094 482.28125 568.25 481.839844 567.242188 481.421875 C 566.234375 481.003906 565.21875 480.609375 564.191406 480.242188 C 563.164062 479.875 562.132812 479.53125 561.085938 479.210938 C 560.042969 478.894531 558.996094 478.601562 557.9375 478.335938 C 556.878906 478.070312 555.816406 477.828125 554.746094 477.617188 C 553.675781 477.402344 552.601562 477.214844 551.523438 477.050781 C 550.445312 476.890625 549.363281 476.753906 548.277344 476.644531 C 547.195312 476.539062 546.105469 476.457031 545.015625 476.398438 C 543.929688 476.34375 542.839844 476.316406 541.746094 476.3125 Z M 541.746094 476.3125 " fill-opacity="1" fill-rule="nonzero"/></g></svg>