<svg xmlns="http://www.w3.org/2000/svg" xmlns:xlink="http://www.w3.org/1999/xlink" width="1024" zoomAndPan="magnify" viewBox="0 0 768 767.999994" height="1024" preserveAspectRatio="xMidYMid meet" version="1.0"><defs><clipPath id="0942dc9dd9"><path d="M 424 112.84375 L 465 112.84375 L 465 236 L 424 236 Z M 424 112.84375 " clip-rule="nonzero"/></clipPath><clipPath id="7e38391e92"><path d="M 197.328125 333 L 321 333 L 321 374 L 197.328125 374 Z M 197.328125 333 " clip-rule="nonzero"/></clipPath><clipPath id="c9882daeda"><path d="M 291 358 L 729.828125 358 L 729.828125 618.34375 L 291 618.34375 Z M 291 358 " clip-rule="nonzero"/></clipPath><clipPath id="b339b7da2f"><path d="M 38.289062 331.832031 L 579.039062 331.832031 L 579.039062 654 L 38.289062 654 Z M 38.289062 331.832031 " clip-rule="nonzero"/></clipPath></defs><path fill="#ffb544" d="M 561.113281 350.164062 C 561.109375 352.074219 561.058594 353.980469 560.960938 355.882812 C 560.863281 357.789062 560.71875 359.691406 560.527344 361.589844 C 560.335938 363.488281 560.097656 365.378906 559.816406 367.265625 C 559.53125 369.152344 559.203125 371.03125 558.824219 372.902344 C 558.449219 374.773438 558.027344 376.632812 557.558594 378.480469 C 557.09375 380.332031 556.582031 382.167969 556.023438 383.992188 C 555.464844 385.816406 554.863281 387.628906 554.214844 389.421875 C 553.570312 391.21875 552.878906 392.996094 552.144531 394.757812 C 551.414062 396.519531 550.636719 398.261719 549.816406 399.984375 C 548.996094 401.707031 548.136719 403.410156 547.234375 405.089844 C 546.332031 406.773438 545.386719 408.429688 544.402344 410.0625 C 543.417969 411.699219 542.394531 413.308594 541.332031 414.894531 C 540.269531 416.476562 539.167969 418.035156 538.027344 419.566406 C 536.886719 421.097656 535.710938 422.597656 534.496094 424.070312 C 533.285156 425.542969 532.035156 426.988281 530.75 428.398438 C 529.464844 429.808594 528.148438 431.191406 526.796875 432.535156 C 525.445312 433.882812 524.058594 435.195312 522.644531 436.476562 C 521.226562 437.753906 519.78125 439 518.300781 440.207031 C 516.824219 441.417969 515.320312 442.585938 513.785156 443.722656 C 512.25 444.855469 510.6875 445.953125 509.097656 447.011719 C 507.507812 448.070312 505.894531 449.085938 504.253906 450.066406 C 502.617188 451.046875 500.953125 451.984375 499.269531 452.878906 C 497.585938 453.777344 495.878906 454.632812 494.152344 455.449219 C 492.425781 456.261719 490.679688 457.03125 488.914062 457.761719 C 487.148438 458.488281 485.367188 459.171875 483.570312 459.816406 C 481.769531 460.457031 479.957031 461.050781 478.128906 461.605469 C 476.300781 462.15625 474.460938 462.664062 472.609375 463.125 C 470.757812 463.585938 468.894531 464.003906 467.019531 464.375 C 465.148438 464.742188 463.265625 465.070312 461.378906 465.347656 C 459.488281 465.625 457.59375 465.855469 455.695312 466.042969 C 453.792969 466.226562 451.890625 466.367188 449.984375 466.460938 C 448.074219 466.550781 446.167969 466.597656 444.257812 466.597656 C 442.347656 466.59375 440.441406 466.546875 438.535156 466.453125 C 436.625 466.355469 434.722656 466.214844 432.824219 466.027344 C 430.921875 465.839844 429.027344 465.605469 427.140625 465.324219 C 425.25 465.042969 423.371094 464.714844 421.496094 464.34375 C 419.625 463.96875 417.761719 463.550781 415.910156 463.085938 C 414.058594 462.621094 412.21875 462.113281 410.394531 461.558594 C 408.566406 461.003906 406.753906 460.402344 404.957031 459.761719 C 403.160156 459.117188 401.378906 458.429688 399.613281 457.699219 C 397.851562 456.96875 396.105469 456.195312 394.378906 455.378906 C 392.652344 454.5625 390.949219 453.703125 389.265625 452.804688 C 387.582031 451.90625 385.921875 450.964844 384.285156 449.984375 C 382.644531 449.003906 381.035156 447.980469 379.445312 446.921875 C 377.859375 445.863281 376.296875 444.761719 374.765625 443.625 C 373.230469 442.488281 371.726562 441.316406 370.25 440.105469 C 368.773438 438.894531 367.328125 437.648438 365.914062 436.367188 C 364.5 435.085938 363.117188 433.773438 361.765625 432.421875 C 360.417969 431.074219 359.101562 429.691406 357.820312 428.28125 C 356.535156 426.867188 355.289062 425.421875 354.078125 423.949219 C 352.867188 422.472656 351.691406 420.96875 350.554688 419.4375 C 349.417969 417.90625 348.316406 416.347656 347.257812 414.761719 C 346.195312 413.171875 345.171875 411.5625 344.191406 409.925781 C 343.210938 408.289062 342.269531 406.632812 341.367188 404.949219 C 340.46875 403.265625 339.609375 401.5625 338.792969 399.839844 C 337.976562 398.113281 337.199219 396.371094 336.46875 394.609375 C 335.738281 392.847656 335.050781 391.066406 334.40625 389.273438 C 333.761719 387.476562 333.164062 385.664062 332.609375 383.839844 C 332.054688 382.015625 331.542969 380.175781 331.078125 378.324219 C 330.613281 376.476562 330.195312 374.613281 329.820312 372.746094 C 329.445312 370.875 329.121094 368.996094 328.839844 367.109375 C 328.558594 365.21875 328.324219 363.328125 328.132812 361.429688 C 327.945312 359.53125 327.804688 357.628906 327.710938 355.722656 C 327.613281 353.816406 327.566406 351.910156 327.566406 350.003906 C 327.5625 348.097656 327.609375 346.1875 327.703125 344.285156 C 327.792969 342.378906 327.933594 340.476562 328.117188 338.578125 C 328.304688 336.679688 328.535156 334.785156 328.816406 332.898438 C 329.09375 331.011719 329.417969 329.132812 329.789062 327.261719 C 330.160156 325.390625 330.578125 323.527344 331.039062 321.675781 C 331.5 319.824219 332.007812 317.988281 332.5625 316.160156 C 333.113281 314.335938 333.710938 312.523438 334.351562 310.726562 C 334.992188 308.929688 335.679688 307.148438 336.40625 305.386719 C 337.136719 303.621094 337.910156 301.878906 338.722656 300.152344 C 339.539062 298.425781 340.394531 296.722656 341.292969 295.039062 C 342.191406 293.355469 343.128906 291.695312 344.109375 290.058594 C 345.089844 288.421875 346.109375 286.808594 347.167969 285.222656 C 348.226562 283.632812 349.324219 282.074219 350.457031 280.539062 C 351.59375 279.003906 352.765625 277.5 353.976562 276.023438 C 355.183594 274.546875 356.429688 273.101562 357.710938 271.6875 C 358.992188 270.269531 360.304688 268.886719 361.652344 267.539062 C 363 266.1875 364.382812 264.871094 365.796875 263.585938 C 367.207031 262.304688 368.652344 261.054688 370.125 259.84375 C 371.601562 258.628906 373.101562 257.453125 374.636719 256.316406 C 376.167969 255.175781 377.726562 254.078125 379.3125 253.015625 C 380.898438 251.953125 382.507812 250.929688 384.144531 249.945312 C 385.78125 248.960938 387.441406 248.019531 389.125 247.117188 C 390.804688 246.214844 392.507812 245.355469 394.234375 244.535156 C 395.957031 243.71875 397.703125 242.941406 399.464844 242.210938 C 401.226562 241.476562 403.007812 240.785156 404.804688 240.140625 C 406.601562 239.496094 408.414062 238.894531 410.238281 238.335938 C 412.066406 237.777344 413.902344 237.265625 415.753906 236.800781 C 417.605469 236.332031 419.46875 235.910156 421.339844 235.535156 C 423.210938 235.160156 425.09375 234.832031 426.980469 234.546875 C 428.867188 234.261719 430.761719 234.027344 432.664062 233.835938 C 434.5625 233.644531 436.464844 233.5 438.371094 233.402344 C 440.28125 233.304688 442.1875 233.253906 444.097656 233.25 C 446.015625 233.242188 447.933594 233.277344 449.847656 233.363281 C 451.761719 233.449219 453.675781 233.578125 455.585938 233.757812 C 457.496094 233.9375 459.398438 234.164062 461.296875 234.4375 C 463.195312 234.710938 465.085938 235.03125 466.96875 235.398438 C 468.851562 235.761719 470.722656 236.175781 472.585938 236.636719 C 474.445312 237.09375 476.296875 237.597656 478.132812 238.148438 C 479.96875 238.699219 481.792969 239.292969 483.597656 239.933594 C 485.40625 240.574219 487.199219 241.257812 488.972656 241.988281 C 490.746094 242.714844 492.5 243.488281 494.234375 244.304688 C 495.96875 245.121094 497.683594 245.976562 499.378906 246.875 C 501.070312 247.777344 502.742188 248.71875 504.386719 249.699219 C 506.035156 250.683594 507.65625 251.707031 509.25 252.769531 C 510.847656 253.832031 512.414062 254.929688 513.957031 256.070312 C 515.5 257.210938 517.011719 258.386719 518.496094 259.601562 C 519.976562 260.816406 521.429688 262.066406 522.851562 263.355469 C 524.273438 264.640625 525.660156 265.960938 527.015625 267.316406 C 528.375 268.671875 529.695312 270.058594 530.984375 271.480469 C 532.269531 272.898438 533.523438 274.351562 534.738281 275.832031 C 535.953125 277.3125 537.132812 278.824219 538.273438 280.367188 C 539.414062 281.90625 540.515625 283.472656 541.578125 285.066406 C 542.640625 286.660156 543.664062 288.28125 544.648438 289.925781 C 545.632812 291.570312 546.574219 293.242188 547.472656 294.933594 C 548.375 296.625 549.234375 298.335938 550.050781 300.070312 C 550.867188 301.804688 551.636719 303.558594 552.367188 305.328125 C 553.097656 307.101562 553.78125 308.890625 554.421875 310.695312 C 555.0625 312.503906 555.660156 314.324219 556.210938 316.160156 C 556.761719 317.996094 557.265625 319.84375 557.726562 321.703125 C 558.183594 323.5625 558.597656 325.433594 558.964844 327.3125 C 559.332031 329.195312 559.652344 331.082031 559.925781 332.980469 C 560.199219 334.875 560.425781 336.777344 560.605469 338.6875 C 560.78125 340.59375 560.914062 342.503906 561 344.417969 C 561.085938 346.332031 561.121094 348.25 561.113281 350.164062 Z M 561.113281 350.164062 " fill-opacity="1" fill-rule="nonzero"/><path fill="#ffae46" d="M 442.167969 113.445312 L 446.027344 113.445312 C 446.171875 113.445312 446.308594 113.472656 446.441406 113.527344 C 446.574219 113.582031 446.691406 113.660156 446.796875 113.761719 C 446.898438 113.863281 446.976562 113.980469 447.03125 114.113281 C 447.085938 114.246094 447.113281 114.386719 447.113281 114.53125 L 447.113281 217.269531 C 447.113281 217.414062 447.085938 217.550781 447.03125 217.683594 C 446.976562 217.816406 446.898438 217.933594 446.796875 218.035156 C 446.691406 218.136719 446.574219 218.214844 446.441406 218.269531 C 446.308594 218.328125 446.171875 218.355469 446.027344 218.355469 L 442.167969 218.355469 C 442.023438 218.355469 441.882812 218.328125 441.75 218.269531 C 441.617188 218.214844 441.5 218.136719 441.398438 218.035156 C 441.296875 217.933594 441.21875 217.816406 441.164062 217.683594 C 441.109375 217.550781 441.082031 217.414062 441.082031 217.269531 L 441.082031 114.53125 C 441.082031 114.386719 441.109375 114.246094 441.164062 114.113281 C 441.21875 113.980469 441.296875 113.863281 441.398438 113.761719 C 441.5 113.660156 441.617188 113.582031 441.75 113.527344 C 441.882812 113.472656 442.023438 113.445312 442.167969 113.445312 Z M 442.167969 113.445312 " fill-opacity="1" fill-rule="nonzero"/><g clip-path="url(#0942dc9dd9)"><path stroke-linecap="butt" transform="matrix(1.20634, 0, 0, 1.205293, 197.521311, 112.84248)" fill="none" stroke-linejoin="miter" d="M 202.800816 0.500154 L 206.00006 0.500154 C 206.11987 0.500154 206.233204 0.522841 206.343299 0.568213 C 206.453395 0.613586 206.550538 0.678404 206.637966 0.762668 C 206.722157 0.846932 206.786919 0.944159 206.832252 1.05435 C 206.877586 1.164541 206.900253 1.281214 206.900253 1.401128 L 206.900253 86.640375 C 206.900253 86.760288 206.877586 86.87372 206.832252 86.983911 C 206.786919 87.094102 206.722157 87.19133 206.637966 87.275593 C 206.550538 87.359857 206.453395 87.424675 206.343299 87.470048 C 206.233204 87.518662 206.11987 87.541348 206.00006 87.541348 L 202.800816 87.541348 C 202.681006 87.541348 202.564435 87.518662 202.454339 87.470048 C 202.344244 87.424675 202.247101 87.359857 202.16291 87.275593 C 202.07872 87.19133 202.013958 87.094102 201.968624 86.983911 C 201.923291 86.87372 201.900624 86.760288 201.900624 86.640375 L 201.900624 1.401128 C 201.900624 1.281214 201.923291 1.164541 201.968624 1.05435 C 202.013958 0.944159 202.07872 0.846932 202.16291 0.762668 C 202.247101 0.678404 202.344244 0.613586 202.454339 0.568213 C 202.564435 0.522841 202.681006 0.500154 202.800816 0.500154 Z M 202.800816 0.500154 " stroke="#ffae46" stroke-width="1" stroke-opacity="1" stroke-miterlimit="10"/></g><path stroke-linecap="butt" transform="matrix(1.085172, -0.526474, 0.526931, 1.084231, 126.106082, 164.067581)" fill-opacity="1" fill="#ffae46" fill-rule="nonzero" stroke-linejoin="miter" d="M 172.701071 91.499559 L 175.900742 91.500436 C 176.019517 91.500465 176.134208 91.523731 176.244815 91.570234 C 176.353925 91.612406 176.451709 91.677902 176.536672 91.762391 C 176.621634 91.84688 176.685036 91.946119 176.73262 92.055691 C 176.775877 92.166765 176.800322 92.279513 176.800212 92.398351 L 176.800522 138.989706 C 176.800412 139.108545 176.77708 139.223313 176.730527 139.334011 C 176.683974 139.444709 176.62136 139.544006 176.538274 139.626156 C 176.45086 139.709807 176.354544 139.774725 176.244997 139.82241 C 176.133953 139.865765 176.018336 139.888886 175.899562 139.888857 L 172.698475 139.890895 C 172.579701 139.890866 172.46501 139.8676 172.354403 139.821098 C 172.246709 139.77601 172.148924 139.710514 172.063961 139.626025 C 171.978999 139.541536 171.914182 139.445213 171.868013 139.332725 C 171.823341 139.224566 171.800311 139.108903 171.800422 138.990065 L 171.800111 92.398709 C 171.800222 92.279871 171.823553 92.165103 171.86869 92.05732 C 171.915243 91.946622 171.977857 91.847326 172.065272 91.763674 C 172.149773 91.678609 172.24609 91.613691 172.35422 91.568921 C 172.46668 91.522651 172.582297 91.49953 172.701071 91.499559 Z M 172.701071 91.499559 " stroke="#ffae46" stroke-width="1" stroke-opacity="1" stroke-miterlimit="10"/><path stroke-linecap="butt" transform="matrix(1.085172, -0.526474, 0.526931, 1.084231, 3.782845, 255.428328)" fill-opacity="1" fill="#ffae46" fill-rule="nonzero" stroke-linejoin="miter" d="M 287.101328 350.10099 L 290.298087 350.100452 C 290.419774 350.101896 290.53588 350.122246 290.643575 350.167334 C 290.754182 350.213836 290.851966 350.279332 290.936929 350.363821 C 291.021891 350.44831 291.086708 350.544634 291.129965 350.655707 C 291.17755 350.76528 291.200579 350.880943 291.200469 350.999782 L 291.200779 397.591137 C 291.200669 397.709975 291.177337 397.824743 291.130784 397.935442 C 291.085647 398.043224 291.02012 398.141106 290.935618 398.226172 C 290.851117 398.311238 290.754801 398.376155 290.643757 398.419511 C 290.534211 398.467196 290.418594 398.490316 290.299819 398.490287 L 287.100148 398.48941 C 286.981373 398.489381 286.866683 398.466115 286.75466 398.422528 C 286.644053 398.376026 286.546268 398.31053 286.464219 398.227456 C 286.379256 398.142967 286.315855 398.043728 286.26827 397.934155 C 286.223598 397.825997 286.200568 397.710333 286.200679 397.591495 L 286.200368 351.00014 C 286.200479 350.881301 286.22381 350.766533 286.26745 350.654421 C 286.314003 350.543722 286.378115 350.448756 286.462616 350.36369 C 286.547118 350.278625 286.646347 350.215121 286.755893 350.167436 C 286.866937 350.124081 286.979641 350.099546 287.101328 350.10099 Z M 287.101328 350.10099 " stroke="#ffae46" stroke-width="1" stroke-opacity="1" stroke-miterlimit="10"/><path stroke-linecap="butt" transform="matrix(1.139929, 0.394394, -0.394736, 1.138941, 229.247936, -44.568698)" fill-opacity="1" fill="#ffae46" fill-rule="nonzero" stroke-linejoin="miter" d="M 278.399104 88.898728 L 281.600592 88.901343 C 281.720412 88.901009 281.834356 88.923287 281.945483 88.967119 C 282.054611 89.015073 282.152681 89.080575 282.236635 89.164685 C 282.320588 89.248794 282.385244 89.346445 282.429541 89.454576 C 282.477958 89.56471 282.500837 89.680258 282.501236 89.80016 L 282.501131 136.389546 C 282.50153 136.509448 282.476268 136.624517 282.432525 136.735696 C 282.384662 136.844873 282.322317 136.941916 282.23525 137.026941 C 282.151243 137.110906 282.053693 137.175554 281.9426 137.220883 C 281.835627 137.268214 281.720171 137.291046 281.600351 137.291381 L 278.398863 137.288765 C 278.279042 137.2891 278.165099 137.266822 278.057031 137.22193 C 277.944844 137.175036 277.846773 137.109534 277.76282 137.025424 C 277.678866 136.941315 277.614211 136.843664 277.569914 136.735533 C 277.524556 136.62434 277.498618 136.509851 277.501279 136.38889 L 277.501384 89.799504 C 277.500985 89.679601 277.523187 89.565592 277.56693 89.454412 C 277.614793 89.345236 277.680197 89.247134 277.764204 89.163168 C 277.848211 89.079202 277.945761 89.014555 278.056854 88.969226 C 278.163827 88.921895 278.279284 88.899063 278.399104 88.898728 Z M 278.399104 88.898728 " stroke="#ffae46" stroke-width="1" stroke-opacity="1" stroke-miterlimit="10"/><path stroke-linecap="butt" transform="matrix(1.139929, 0.394394, -0.394736, 1.138941, 326.841023, 13.285215)" fill-opacity="1" fill="#ffae46" fill-rule="nonzero" stroke-linejoin="miter" d="M 176.402041 352.700992 L 179.599409 352.701605 C 179.719229 352.70127 179.833173 352.723548 179.9443 352.76738 C 180.053428 352.815335 180.151499 352.880837 180.235452 352.964946 C 180.322465 353.047996 180.387121 353.145647 180.432478 353.25684 C 180.476776 353.364971 180.499654 353.480519 180.500053 353.600421 L 180.499948 400.189807 C 180.500347 400.309709 180.478144 400.423719 180.431342 400.535958 C 180.386539 400.644075 180.321134 400.742177 180.237127 400.826143 C 180.15312 400.910108 180.05557 400.974755 179.944477 401.020084 C 179.834444 401.068476 179.718988 401.091307 179.599168 401.091642 L 176.4018 401.09103 C 176.280919 401.088302 176.166976 401.066023 176.055848 401.022191 C 175.943661 400.975297 175.849711 400.911798 175.764697 400.824626 C 175.677683 400.741576 175.613028 400.643925 175.568731 400.535794 C 175.523373 400.424601 175.500495 400.309053 175.500096 400.189151 L 175.500201 353.599765 C 175.499802 353.479863 175.522004 353.365853 175.569867 353.256677 C 175.61361 353.145497 175.679014 353.047395 175.763021 352.963429 C 175.847028 352.879464 175.944578 352.814816 176.055671 352.769488 C 176.166765 352.724159 176.281161 352.698264 176.402041 352.700992 Z M 176.402041 352.700992 " stroke="#ffae46" stroke-width="1" stroke-opacity="1" stroke-miterlimit="10"/><path stroke-linecap="butt" transform="matrix(0.526931, 1.084231, -1.085172, 0.526474, 612.502581, -206.921939)" fill-opacity="1" fill="#ffae46" fill-rule="nonzero" stroke-linejoin="miter" d="M 359.19843 161.10103 L 362.398319 161.09976 C 362.520073 161.101286 362.634841 161.124617 362.744038 161.166842 C 362.854736 161.213394 362.952618 161.278922 363.037684 161.363423 C 363.119834 161.446509 363.186253 161.547154 363.231022 161.655285 C 363.278707 161.764831 363.301828 161.880448 363.301799 161.999222 L 363.300831 208.58914 C 363.299388 208.710827 363.277536 208.822605 363.231034 208.933212 C 363.184532 209.04382 363.121951 209.14302 363.034547 209.226567 C 362.950058 209.311529 362.853734 209.376346 362.745576 209.421018 C 362.633088 209.467187 362.517425 209.490217 362.398586 209.490107 L 359.200112 209.488464 C 359.079859 209.491266 358.965091 209.467935 358.854392 209.421382 C 358.74661 209.376245 358.648728 209.310718 358.563662 209.226216 C 358.478596 209.141714 358.413679 209.045398 358.367408 208.932939 C 358.322638 208.824808 358.299518 208.709191 358.299547 208.590417 L 358.300515 162.000499 C 358.300544 161.881725 358.32381 161.767034 358.367397 161.655011 C 358.413899 161.544404 358.479395 161.446619 358.562469 161.36457 C 358.646958 161.279607 358.743282 161.21479 358.85577 161.168621 C 358.965343 161.121036 359.079591 161.10092 359.19843 161.10103 Z M 359.19843 161.10103 " stroke="#ffae46" stroke-width="1" stroke-opacity="1" stroke-miterlimit="10"/><path stroke-linecap="butt" transform="matrix(0.526931, 1.084231, -1.085172, 0.526474, 560.749775, 151.412079)" fill-opacity="1" fill="#ffae46" fill-rule="nonzero" stroke-linejoin="miter" d="M 100.600984 275.501541 L 103.800873 275.500271 C 103.919711 275.500381 104.03448 275.523713 104.145178 275.570266 C 104.254375 275.61249 104.352257 275.678017 104.437322 275.762519 C 104.522388 275.84702 104.585891 275.946249 104.630661 276.05438 C 104.676932 276.16684 104.700052 276.282456 104.700023 276.401231 L 104.699056 322.991149 C 104.699026 323.109923 104.67576 323.224614 104.633588 323.333724 C 104.587086 323.444331 104.52159 323.542116 104.437101 323.627078 C 104.352612 323.71204 104.253373 323.775442 104.145215 323.820114 C 104.035642 323.867699 103.919979 323.890728 103.80114 323.890618 L 100.598336 323.890472 C 100.479498 323.890362 100.364729 323.867031 100.256947 323.821893 C 100.146248 323.775341 100.048366 323.709813 99.963301 323.625312 C 99.878235 323.54081 99.813317 323.444494 99.769962 323.33345 C 99.722277 323.223904 99.699156 323.108287 99.699186 322.989512 L 99.700153 276.399595 C 99.700183 276.28082 99.723448 276.166129 99.769951 276.055522 C 99.813538 275.9435 99.877619 275.848628 99.962108 275.763665 C 100.046597 275.678703 100.145836 275.615301 100.255409 275.567717 C 100.366482 275.52446 100.47923 275.500015 100.600984 275.501541 Z M 100.600984 275.501541 " stroke="#ffae46" stroke-width="1" stroke-opacity="1" stroke-miterlimit="10"/><path stroke-linecap="butt" transform="matrix(-0.394736, 1.138941, -1.139929, -0.394393, 1085.266821, 118.507125)" fill-opacity="1" fill="#ffae46" fill-rule="nonzero" stroke-linejoin="miter" d="M 361.799779 271.801301 L 364.999328 271.800198 C 365.11923 271.799799 365.23324 271.822001 365.345479 271.868803 C 365.453596 271.913606 365.551698 271.979011 365.635663 272.063018 C 365.719629 272.147025 365.784276 272.244575 365.832668 272.354608 C 365.877997 272.465701 365.900828 272.581157 365.901163 272.700978 L 365.901019 319.291087 C 365.900294 319.407847 365.879075 319.524851 365.831121 319.633979 C 365.787289 319.745106 365.721787 319.843176 365.637677 319.92713 C 365.553568 320.011083 365.455917 320.075739 365.344723 320.121096 C 365.23353 320.166454 365.117982 320.189332 365.001143 320.18867 L 361.801594 320.189774 C 361.681692 320.190173 361.567682 320.167971 361.455443 320.121168 C 361.344264 320.077426 361.249224 320.010961 361.165258 319.926954 C 361.07823 319.844007 361.013583 319.746457 360.968254 319.635364 C 360.922925 319.524271 360.900093 319.408814 360.899759 319.288994 L 360.899903 272.698885 C 360.899568 272.579065 360.921847 272.465121 360.969801 272.355993 C 361.013633 272.244866 361.079135 272.146795 361.163244 272.062842 C 361.247354 271.978888 361.345005 271.914233 361.456198 271.868875 C 361.567392 271.823518 361.679877 271.8017 361.799779 271.801301 Z M 361.799779 271.801301 " stroke="#ffae46" stroke-width="1" stroke-opacity="1" stroke-miterlimit="10"/><path stroke-linecap="butt" transform="matrix(-0.398092, 1.132976, -1.133959, -0.397747, 546.539496, 255.585358)" fill-opacity="1" fill="#ffae46" fill-rule="nonzero" stroke-linejoin="miter" d="M 97.998785 169.800175 L 101.201318 169.798882 C 101.3186 169.799046 101.43421 169.823911 101.542925 169.86842 C 101.655787 169.914918 101.750392 169.978159 101.83611 170.06519 C 101.920751 170.149153 101.986059 170.246794 102.030957 170.355044 C 102.076932 170.466361 102.100344 170.582154 102.100116 170.699357 L 102.100177 217.290101 C 102.101026 217.410371 102.076082 217.525916 102.031484 217.634582 C 101.986886 217.743248 101.921557 217.841968 101.837491 217.926598 C 101.753424 218.011227 101.655682 218.076544 101.544265 218.122548 C 101.435917 218.167474 101.320032 218.190933 101.198604 218.18878 L 97.99914 218.188995 C 97.881858 218.188831 97.767325 218.167033 97.654463 218.120535 C 97.545748 218.076027 97.446996 218.010796 97.362355 217.926832 C 97.280784 217.841791 97.215476 217.744151 97.169501 217.632834 C 97.124603 217.524583 97.101191 217.40879 97.100342 217.28852 L 97.101358 170.700843 C 97.100509 170.580573 97.122384 170.466106 97.170051 170.356362 C 97.213573 170.244629 97.279978 170.148976 97.364044 170.064347 C 97.448111 169.979717 97.545853 169.914401 97.654201 169.869474 C 97.765618 169.82347 97.881502 169.800011 97.998785 169.800175 Z M 97.998785 169.800175 " stroke="#ffae46" stroke-width="1" stroke-opacity="1" stroke-miterlimit="10"/><path stroke-linecap="butt" transform="matrix(1.20634, 0, 0, 1.205293, 197.521311, 112.84248)" fill-opacity="1" fill="#ffae46" fill-rule="nonzero" stroke-linejoin="miter" d="M 205.30063 316.301176 L 208.499875 316.301176 C 208.619684 316.301176 208.733018 316.323862 208.843113 316.369235 C 208.953209 316.414608 209.050352 316.479426 209.137781 316.56369 C 209.221971 316.647953 209.286733 316.745181 209.332067 316.855372 C 209.3774 316.965563 209.400067 317.082236 209.400067 317.198909 L 209.400067 402.441396 C 209.400067 402.558069 209.3774 402.674742 209.332067 402.784933 C 209.286733 402.895124 209.221971 402.992351 209.137781 403.076615 C 209.050352 403.160879 208.953209 403.225697 208.843113 403.27107 C 208.733018 403.316443 208.619684 403.339129 208.499875 403.339129 L 205.30063 403.339129 C 205.180821 403.339129 205.064249 403.316443 204.954154 403.27107 C 204.844058 403.225697 204.746915 403.160879 204.662724 403.076615 C 204.578534 402.992351 204.513772 402.895124 204.468438 402.784933 C 204.423105 402.674742 204.400438 402.558069 204.400438 402.441396 L 204.400438 317.198909 C 204.400438 317.082236 204.423105 316.965563 204.468438 316.855372 C 204.513772 316.745181 204.578534 316.647953 204.662724 316.56369 C 204.746915 316.479426 204.844058 316.414608 204.954154 316.369235 C 205.064249 316.323862 205.180821 316.301176 205.30063 316.301176 Z M 205.30063 316.301176 " stroke="#ffae46" stroke-width="1" stroke-opacity="1" stroke-miterlimit="10"/><path stroke-linecap="butt" transform="matrix(0, 1.205293, -1.20634, 0, 923.617157, -115.078479)" fill-opacity="1" fill="#ffae46" fill-rule="nonzero" stroke-linejoin="miter" d="M 384.498943 198.49883 L 387.700965 198.49883 C 387.820879 198.49883 387.934311 198.521496 388.044502 198.570068 C 388.154693 198.615401 388.25192 198.680163 388.336184 198.764354 C 388.420448 198.848544 388.485266 198.945688 388.530639 199.055783 C 388.576011 199.165878 388.598698 199.279212 388.598698 199.399022 L 388.598698 284.638803 C 388.598698 284.758613 388.576011 284.875185 388.530639 284.98528 C 388.485266 285.095376 388.420448 285.192519 388.336184 285.276709 C 388.25192 285.3609 388.154693 285.425662 388.044502 285.470995 C 387.934311 285.516329 387.820879 285.538995 387.700965 285.538995 L 384.498943 285.538995 C 384.379029 285.538995 384.265597 285.516329 384.155406 285.470995 C 384.045215 285.425662 383.947988 285.3609 383.863724 285.276709 C 383.77946 285.192519 383.714642 285.095376 383.669269 284.98528 C 383.623897 284.875185 383.60121 284.758613 383.60121 284.638803 L 383.60121 199.399022 C 383.60121 199.279212 383.623897 199.165878 383.669269 199.055783 C 383.714642 198.945688 383.77946 198.848544 383.863724 198.764354 C 383.947988 198.680163 384.045215 198.615401 384.155406 198.570068 C 384.265597 198.521496 384.379029 198.49883 384.498943 198.49883 Z M 384.498943 198.49883 " stroke="#ffae46" stroke-width="1" stroke-opacity="1" stroke-miterlimit="10"/><path fill="#ffae46" d="M 303.074219 351.371094 L 303.074219 355.226562 C 303.074219 355.371094 303.046875 355.507812 302.992188 355.640625 C 302.9375 355.773438 302.859375 355.890625 302.757812 355.992188 C 302.65625 356.097656 302.539062 356.175781 302.40625 356.230469 C 302.273438 356.285156 302.132812 356.3125 301.992188 356.3125 L 199.160156 356.3125 C 199.019531 356.3125 198.878906 356.285156 198.746094 356.230469 C 198.613281 356.175781 198.496094 356.097656 198.394531 355.992188 C 198.292969 355.890625 198.214844 355.773438 198.160156 355.640625 C 198.105469 355.507812 198.078125 355.371094 198.078125 355.226562 L 198.078125 351.371094 C 198.078125 351.226562 198.105469 351.085938 198.160156 350.953125 C 198.214844 350.820312 198.292969 350.703125 198.394531 350.601562 C 198.496094 350.5 198.613281 350.421875 198.746094 350.367188 C 198.878906 350.3125 199.019531 350.285156 199.160156 350.285156 L 301.992188 350.285156 C 302.132812 350.285156 302.273438 350.3125 302.40625 350.367188 C 302.539062 350.421875 302.65625 350.5 302.757812 350.601562 C 302.859375 350.703125 302.9375 350.820312 302.992188 350.953125 C 303.046875 351.085938 303.074219 351.226562 303.074219 351.371094 Z M 303.074219 351.371094 " fill-opacity="1" fill-rule="nonzero"/><g clip-path="url(#7e38391e92)"><path stroke-linecap="butt" transform="matrix(0, 1.205293, -1.20634, 0, 545.550336, 268.566393)" fill="none" stroke-linejoin="miter" d="M 68.70088 201.001538 L 71.899661 201.001538 C 72.019574 201.001538 72.133006 201.024205 72.243197 201.069538 C 72.353388 201.114871 72.450616 201.179633 72.534879 201.263824 C 72.622384 201.348015 72.687202 201.445158 72.732575 201.555253 C 72.777948 201.665349 72.800634 201.78192 72.800634 201.898492 L 72.800634 287.141512 C 72.800634 287.258083 72.777948 287.374655 72.732575 287.48475 C 72.687202 287.594846 72.622384 287.691989 72.534879 287.776179 C 72.450616 287.86037 72.353388 287.925132 72.243197 287.970466 C 72.133006 288.015799 72.019574 288.038466 71.899661 288.038466 L 68.70088 288.038466 C 68.580966 288.038466 68.464293 288.015799 68.354102 287.970466 C 68.243911 287.925132 68.146684 287.86037 68.06242 287.776179 C 67.978156 287.691989 67.913338 287.594846 67.867965 287.48475 C 67.822592 287.374655 67.799906 287.258083 67.799906 287.141512 L 67.799906 201.898492 C 67.799906 201.78192 67.822592 201.665349 67.867965 201.555253 C 67.913338 201.445158 67.978156 201.348015 68.06242 201.263824 C 68.146684 201.179633 68.243911 201.114871 68.354102 201.069538 C 68.464293 201.024205 68.580966 201.001538 68.70088 201.001538 Z M 68.70088 201.001538 " stroke="#ffae46" stroke-width="1" stroke-opacity="1" stroke-miterlimit="10"/></g><path stroke-linecap="butt" transform="matrix(-0.853011, 0.852271, -0.853011, -0.852271, 1176.708689, 499.621459)" fill-opacity="1" fill="#ffae46" fill-rule="nonzero" stroke-linejoin="miter" d="M 341.599593 312.999964 L 344.799669 313.000866 C 344.918784 313.000814 345.033308 313.023671 345.14324 313.069437 C 345.255465 313.112911 345.353935 313.179298 345.436364 313.261727 C 345.521082 313.346445 345.587469 313.444916 345.630943 313.55714 C 345.676709 313.667072 345.699566 313.781596 345.699514 313.900712 L 345.699179 399.141384 C 345.699128 399.260499 345.676171 399.375043 345.63031 399.485015 C 345.584449 399.594988 345.520268 399.691224 345.435476 399.776016 C 345.350684 399.860808 345.254448 399.924988 345.144476 399.970849 C 345.034503 400.016711 344.919959 400.039667 344.800844 400.039719 L 341.600769 400.038817 C 341.481653 400.038868 341.364838 400.018303 341.254905 399.972537 C 341.144973 399.926771 341.046502 399.860384 340.964074 399.777956 C 340.879355 399.693238 340.812969 399.594767 340.767203 399.484835 C 340.721437 399.374902 340.700871 399.258086 340.700923 399.138971 L 340.698966 313.900591 C 340.699018 313.781475 340.721975 313.666932 340.767836 313.556959 C 340.813697 313.446987 340.880169 313.348459 340.964961 313.263667 C 341.049753 313.178875 341.145989 313.114695 341.255962 313.068833 C 341.365934 313.022972 341.480478 313.000016 341.599593 312.999964 Z M 341.599593 312.999964 " stroke="#ffae46" stroke-width="1" stroke-opacity="1" stroke-miterlimit="10"/><path stroke-linecap="butt" transform="matrix(-0.853011, 0.852271, -0.853011, -0.852271, 524.199481, 235.541932)" fill-opacity="1" fill="#ffae46" fill-rule="nonzero" stroke-linejoin="miter" d="M 116.499252 91.500484 L 119.699327 91.501386 C 119.818442 91.501334 119.935258 91.5219 120.045191 91.567665 C 120.155123 91.613431 120.253593 91.679818 120.336022 91.762247 C 120.42074 91.846965 120.487127 91.945435 120.532893 92.055368 C 120.578659 92.165301 120.599224 92.282116 120.599173 92.401232 L 120.601129 177.639612 C 120.601078 177.758727 120.578121 177.873271 120.53226 177.983243 C 120.486399 178.093216 120.419926 178.191744 120.335134 178.276536 C 120.250343 178.361327 120.154106 178.425508 120.044134 178.471369 C 119.934162 178.517231 119.819618 178.540187 119.700502 178.540239 L 116.500427 178.539337 C 116.381312 178.539388 116.266788 178.516531 116.156855 178.470765 C 116.044631 178.427291 115.946161 178.360904 115.863732 178.278476 C 115.779014 178.193757 115.712627 178.095287 115.669153 177.983063 C 115.623387 177.87313 115.60053 177.758606 115.600582 177.639491 L 115.600917 92.398819 C 115.600968 92.279704 115.623925 92.16516 115.669786 92.055187 C 115.715647 91.945215 115.779828 91.848979 115.86462 91.764187 C 115.949412 91.679395 116.045648 91.615214 116.15562 91.569353 C 116.265593 91.523492 116.380136 91.500535 116.499252 91.500484 Z M 116.499252 91.500484 " stroke="#ffae46" stroke-width="1" stroke-opacity="1" stroke-miterlimit="10"/><path stroke-linecap="butt" transform="matrix(-0.853011, -0.852271, 0.853011, -0.852271, 104.150674, 890.618112)" fill-opacity="1" fill="#ffae46" fill-rule="nonzero" stroke-linejoin="miter" d="M 115.800513 312.298528 L 118.998298 312.299916 C 119.117413 312.299967 119.234247 312.320634 119.344219 312.366495 C 119.454192 312.412357 119.55272 312.478829 119.637511 312.563621 C 119.722303 312.648413 119.786484 312.744649 119.832345 312.854621 C 119.878207 312.964594 119.898873 313.081427 119.898925 313.200543 L 119.89926 398.441215 C 119.899312 398.56033 119.876455 398.674854 119.830689 398.784786 C 119.784923 398.894719 119.720826 398.9909 119.636107 399.075618 C 119.551389 399.160336 119.455209 399.224434 119.345276 399.270199 C 119.233054 399.318255 119.11853 399.341112 118.999414 399.34106 L 115.801629 399.339673 C 115.682514 399.339621 115.56568 399.318954 115.455708 399.273093 C 115.345735 399.227232 115.247207 399.160759 115.162415 399.075968 C 115.079915 398.993467 115.013443 398.894939 114.967582 398.784967 C 114.92172 398.674995 114.901054 398.558161 114.901002 398.439046 L 114.900667 313.198374 C 114.900615 313.079259 114.923472 312.964735 114.969238 312.854802 C 115.015004 312.744869 115.079101 312.648689 115.163819 312.56397 C 115.248538 312.479252 115.344718 312.415155 115.454651 312.369389 C 115.564584 312.323623 115.681397 312.298477 115.800513 312.298528 Z M 115.800513 312.298528 " stroke="#ffae46" stroke-width="1" stroke-opacity="1" stroke-miterlimit="10"/><path stroke-linecap="butt" transform="matrix(-0.853011, -0.852271, 0.853011, -0.852271, 752.318222, 616.415486)" fill-opacity="1" fill="#ffae46" fill-rule="nonzero" stroke-linejoin="miter" d="M 337.399187 87.198764 L 340.601555 87.200154 C 340.72067 87.200206 340.835214 87.223162 340.945186 87.269023 C 341.055158 87.314885 341.151395 87.379065 341.236186 87.463857 C 341.320978 87.548649 341.385159 87.644885 341.43102 87.754858 C 341.476882 87.86483 341.499838 87.979374 341.49989 88.098489 L 341.500225 173.339161 C 341.500276 173.458276 341.477419 173.5728 341.431653 173.682733 C 341.385888 173.792666 341.319501 173.891136 341.234782 173.975854 C 341.150064 174.060572 341.053884 174.12467 340.943951 174.170436 C 340.834018 174.216201 340.719494 174.239058 340.600379 174.239007 L 337.400304 174.239909 C 337.281188 174.239857 337.166645 174.216901 337.056672 174.17104 C 336.9467 174.125178 336.848172 174.058706 336.765672 173.976206 C 336.68088 173.891414 336.614408 173.792886 336.568546 173.682914 C 336.522685 173.572941 336.499729 173.458397 336.499677 173.339282 L 336.499342 88.09861 C 336.49929 87.979495 336.522147 87.864971 336.567913 87.755038 C 336.613679 87.645106 336.680066 87.546635 336.762494 87.464207 C 336.847213 87.379488 336.945683 87.313101 337.055616 87.267336 C 337.165548 87.22157 337.280072 87.198713 337.399187 87.198764 Z M 337.399187 87.198764 " stroke="#ffae46" stroke-width="1" stroke-opacity="1" stroke-miterlimit="10"/><g clip-path="url(#c9882daeda)"><path fill="#6b99d2" d="M 348.3125 504.683594 L 350.125 504.683594 C 349.566406 502.878906 349.082031 501.058594 348.671875 499.21875 C 348.257812 497.375 347.921875 495.523438 347.660156 493.652344 C 347.398438 491.785156 347.210938 489.910156 347.097656 488.027344 C 346.988281 486.144531 346.949219 484.257812 346.988281 482.371094 C 347.027344 480.484375 347.144531 478.605469 347.332031 476.726562 C 347.523438 474.851562 347.789062 472.984375 348.128906 471.128906 C 348.46875 469.273438 348.882812 467.433594 349.367188 465.609375 C 349.855469 463.789062 350.414062 461.988281 351.046875 460.210938 C 351.679688 458.433594 352.378906 456.683594 353.152344 454.960938 C 353.925781 453.238281 354.765625 451.550781 355.671875 449.894531 C 356.578125 448.242188 357.550781 446.625 358.585938 445.050781 C 359.625 443.472656 360.722656 441.941406 361.882812 440.453125 C 363.042969 438.964844 364.261719 437.523438 365.535156 436.132812 C 366.8125 434.742188 368.140625 433.402344 369.523438 432.117188 C 370.90625 430.832031 372.335938 429.605469 373.816406 428.433594 C 375.300781 427.265625 376.824219 426.15625 378.394531 425.109375 C 379.964844 424.058594 381.574219 423.078125 383.222656 422.15625 C 384.871094 421.238281 386.554688 420.386719 388.273438 419.601562 C 389.988281 418.816406 391.734375 418.101562 393.511719 417.457031 C 395.285156 416.8125 397.082031 416.242188 398.902344 415.738281 C 400.722656 415.238281 402.5625 414.8125 404.414062 414.457031 C 406.269531 414.105469 408.136719 413.828125 410.011719 413.621094 C 411.890625 413.417969 413.773438 413.289062 415.660156 413.234375 C 417.546875 413.183594 419.433594 413.203125 421.320312 413.300781 C 423.207031 413.398438 425.085938 413.570312 426.957031 413.820312 C 428.828125 414.066406 430.6875 414.390625 432.53125 414.785156 C 434.378906 415.183594 436.207031 415.652344 438.015625 416.195312 C 439.824219 416.738281 441.605469 417.355469 443.363281 418.039062 C 445.125 418.726562 446.851562 419.480469 448.550781 420.304688 C 450.25 421.128906 451.914062 422.019531 453.539062 422.976562 C 455.167969 423.933594 456.753906 424.957031 458.296875 426.039062 C 459.84375 427.125 461.34375 428.269531 462.796875 429.472656 C 463.121094 428.027344 463.484375 426.59375 463.878906 425.164062 C 464.273438 423.738281 464.703125 422.320312 465.167969 420.914062 C 465.632812 419.507812 466.132812 418.113281 466.664062 416.730469 C 467.199219 415.347656 467.765625 413.980469 468.363281 412.625 C 468.960938 411.269531 469.59375 409.929688 470.257812 408.605469 C 470.921875 407.28125 471.617188 405.976562 472.347656 404.683594 C 473.074219 403.394531 473.832031 402.121094 474.621094 400.867188 C 475.410156 399.613281 476.230469 398.382812 477.082031 397.167969 C 477.929688 395.953125 478.808594 394.761719 479.71875 393.589844 C 480.625 392.417969 481.558594 391.269531 482.523438 390.144531 C 483.488281 389.019531 484.476562 387.917969 485.492188 386.839844 C 486.511719 385.761719 487.554688 384.710938 488.621094 383.683594 C 489.691406 382.65625 490.78125 381.65625 491.898438 380.679688 C 493.015625 379.707031 494.15625 378.757812 495.320312 377.839844 C 496.480469 376.921875 497.664062 376.03125 498.871094 375.171875 C 500.078125 374.308594 501.304688 373.476562 502.550781 372.675781 C 503.796875 371.875 505.0625 371.101562 506.347656 370.363281 C 507.628906 369.621094 508.929688 368.914062 510.25 368.238281 C 511.570312 367.558594 512.902344 366.914062 514.253906 366.300781 C 515.601562 365.6875 516.964844 365.109375 518.34375 364.5625 C 519.722656 364.015625 521.113281 363.503906 522.515625 363.027344 C 523.917969 362.546875 525.332031 362.101562 526.757812 361.691406 C 528.179688 361.28125 529.613281 360.90625 531.058594 360.566406 C 532.5 360.226562 533.949219 359.921875 535.40625 359.648438 C 536.863281 359.378906 538.328125 359.144531 539.796875 358.945312 C 541.265625 358.746094 542.738281 358.582031 544.214844 358.457031 C 545.691406 358.328125 547.171875 358.234375 548.652344 358.179688 C 550.136719 358.125 551.617188 358.101562 553.097656 358.121094 C 554.582031 358.136719 556.0625 358.1875 557.542969 358.273438 C 559.023438 358.363281 560.5 358.488281 561.972656 358.644531 C 563.449219 358.804688 564.917969 359 566.382812 359.230469 C 567.84375 359.460938 569.304688 359.726562 570.753906 360.03125 C 572.207031 360.332031 573.648438 360.667969 575.085938 361.039062 C 576.519531 361.410156 577.945312 361.816406 579.359375 362.257812 C 580.773438 362.699219 582.179688 363.175781 583.570312 363.683594 C 584.964844 364.191406 586.34375 364.734375 587.707031 365.308594 C 589.074219 365.886719 590.425781 366.496094 591.761719 367.136719 C 593.097656 367.777344 594.417969 368.449219 595.722656 369.15625 C 597.023438 369.859375 598.308594 370.597656 599.578125 371.367188 C 600.847656 372.132812 602.09375 372.929688 603.324219 373.761719 C 604.550781 374.589844 605.761719 375.445312 606.949219 376.332031 C 608.132812 377.21875 609.300781 378.136719 610.441406 379.078125 C 611.585938 380.023438 612.703125 380.992188 613.800781 381.992188 C 614.894531 382.988281 615.964844 384.011719 617.011719 385.0625 C 618.058594 386.113281 619.078125 387.1875 620.070312 388.285156 C 621.0625 389.386719 622.03125 390.507812 622.96875 391.65625 C 623.910156 392.800781 624.820312 393.96875 625.699219 395.160156 C 626.582031 396.351562 627.4375 397.5625 628.257812 398.792969 C 629.082031 400.023438 629.875 401.277344 630.636719 402.546875 C 631.398438 403.816406 632.132812 405.105469 632.832031 406.410156 C 633.53125 407.714844 634.199219 409.039062 634.835938 410.375 C 635.46875 411.714844 636.074219 413.066406 636.640625 414.433594 C 637.210938 415.800781 637.75 417.183594 638.25 418.574219 C 638.753906 419.96875 639.222656 421.375 639.65625 422.789062 C 640.089844 424.207031 640.492188 425.632812 640.855469 427.066406 C 641.21875 428.503906 641.550781 429.945312 641.84375 431.398438 C 642.140625 432.851562 642.398438 434.308594 642.625 435.773438 C 642.847656 437.238281 643.035156 438.707031 643.1875 440.179688 C 643.339844 441.652344 643.457031 443.128906 643.539062 444.605469 C 643.621094 446.085938 643.664062 447.566406 643.671875 449.046875 C 643.683594 450.527344 643.65625 452.007812 643.59375 453.488281 C 643.527344 454.96875 643.429688 456.445312 643.296875 457.921875 C 643.160156 459.394531 642.988281 460.867188 642.785156 462.332031 C 642.578125 463.800781 642.335938 465.261719 642.058594 466.714844 C 645.816406 466.128906 649.59375 465.847656 653.398438 465.871094 C 655.492188 465.871094 657.585938 465.953125 659.675781 466.121094 C 661.765625 466.289062 663.84375 466.542969 665.910156 466.886719 C 667.980469 467.226562 670.03125 467.652344 672.0625 468.160156 C 674.097656 468.667969 676.105469 469.261719 678.089844 469.9375 C 680.074219 470.609375 682.027344 471.367188 683.949219 472.203125 C 685.871094 473.039062 687.753906 473.953125 689.601562 474.941406 C 691.449219 475.933594 693.25 477 695.007812 478.136719 C 696.769531 479.277344 698.476562 480.488281 700.136719 481.769531 C 701.792969 483.050781 703.398438 484.394531 704.945312 485.808594 C 706.492188 487.222656 707.980469 488.695312 709.40625 490.230469 C 710.832031 491.765625 712.191406 493.355469 713.484375 495.003906 C 714.78125 496.648438 716.003906 498.347656 717.160156 500.097656 C 718.3125 501.84375 719.394531 503.636719 720.398438 505.472656 C 721.40625 507.3125 722.335938 509.1875 723.1875 511.101562 C 724.039062 513.015625 724.808594 514.960938 725.5 516.9375 C 726.191406 518.914062 726.800781 520.914062 727.324219 522.941406 C 727.851562 524.96875 728.292969 527.015625 728.648438 529.078125 C 729.007812 531.144531 729.277344 533.21875 729.464844 535.304688 C 729.648438 537.390625 729.75 539.480469 729.761719 541.574219 C 729.773438 543.667969 729.699219 545.761719 729.542969 547.847656 C 729.382812 549.9375 729.136719 552.015625 728.804688 554.082031 C 728.472656 556.152344 728.058594 558.203125 727.558594 560.234375 C 727.058594 562.269531 726.472656 564.277344 725.808594 566.265625 C 725.140625 568.25 724.394531 570.207031 723.566406 572.128906 C 722.738281 574.054688 721.832031 575.941406 720.847656 577.789062 C 719.867188 579.640625 718.808594 581.445312 717.675781 583.207031 C 716.542969 584.96875 715.339844 586.683594 714.066406 588.34375 C 712.789062 590.007812 711.449219 591.617188 710.042969 593.167969 C 708.636719 594.722656 707.167969 596.214844 705.640625 597.644531 C 704.109375 599.078125 702.523438 600.441406 700.878906 601.742188 C 699.238281 603.042969 697.542969 604.277344 695.800781 605.4375 C 694.054688 606.597656 692.265625 607.6875 690.433594 608.699219 C 685.773438 611.816406 680.765625 614.1875 675.398438 615.808594 C 670.035156 617.429688 664.550781 618.234375 658.945312 618.222656 L 348.3125 618.222656 C 346.453125 618.21875 344.597656 618.125 342.75 617.9375 C 340.898438 617.753906 339.0625 617.476562 337.238281 617.109375 C 335.414062 616.746094 333.613281 616.292969 331.832031 615.75 C 330.054688 615.207031 328.304688 614.582031 326.589844 613.867188 C 324.871094 613.15625 323.191406 612.359375 321.554688 611.484375 C 319.914062 610.605469 318.320312 609.652344 316.777344 608.617188 C 315.230469 607.585938 313.738281 606.476562 312.300781 605.300781 C 310.863281 604.121094 309.488281 602.875 308.171875 601.558594 C 306.855469 600.246094 305.609375 598.871094 304.429688 597.433594 C 303.25 596 302.140625 594.507812 301.109375 592.964844 C 300.074219 591.417969 299.117188 589.828125 298.238281 588.191406 C 297.363281 586.550781 296.566406 584.875 295.851562 583.160156 C 295.140625 581.441406 294.511719 579.695312 293.96875 577.917969 C 293.425781 576.140625 292.972656 574.339844 292.605469 572.519531 C 292.242188 570.699219 291.964844 568.863281 291.78125 567.011719 C 291.59375 565.164062 291.5 563.3125 291.496094 561.453125 C 291.5 559.59375 291.59375 557.742188 291.78125 555.890625 C 291.964844 554.042969 292.242188 552.207031 292.605469 550.386719 C 292.972656 548.5625 293.425781 546.765625 293.96875 544.988281 C 294.511719 543.210938 295.140625 541.460938 295.851562 539.746094 C 296.566406 538.03125 297.363281 536.355469 298.238281 534.714844 C 299.117188 533.078125 300.074219 531.484375 301.109375 529.941406 C 302.140625 528.398438 303.25 526.90625 304.429688 525.472656 C 305.609375 524.035156 306.855469 522.660156 308.171875 521.347656 C 309.488281 520.03125 310.863281 518.785156 312.300781 517.605469 C 313.738281 516.425781 315.230469 515.320312 316.777344 514.289062 C 318.320312 513.253906 319.914062 512.300781 321.554688 511.421875 C 323.191406 510.542969 324.871094 509.75 326.589844 509.035156 C 328.304688 508.324219 330.054688 507.695312 331.832031 507.15625 C 333.613281 506.613281 335.414062 506.160156 337.238281 505.792969 C 339.0625 505.429688 340.898438 505.152344 342.75 504.96875 C 344.597656 504.78125 346.453125 504.6875 348.3125 504.683594 Z M 348.3125 504.683594 " fill-opacity="1" fill-rule="nonzero"/></g><g clip-path="url(#b339b7da2f)"><path fill="#3571aa" d="M 508.964844 513.277344 L 506.78125 513.277344 C 509.386719 504.917969 510.667969 496.363281 510.632812 487.613281 C 510.632812 485.554688 510.5625 483.5 510.417969 481.445312 C 510.273438 479.390625 510.058594 477.34375 509.769531 475.308594 C 509.480469 473.269531 509.121094 471.242188 508.6875 469.230469 C 508.257812 467.21875 507.753906 465.222656 507.179688 463.246094 C 506.605469 461.269531 505.964844 459.316406 505.253906 457.382812 C 504.542969 455.453125 503.761719 453.546875 502.917969 451.671875 C 502.070312 449.796875 501.160156 447.953125 500.183594 446.140625 C 499.203125 444.328125 498.164062 442.550781 497.0625 440.8125 C 495.960938 439.074219 494.796875 437.378906 493.574219 435.722656 C 492.351562 434.066406 491.074219 432.457031 489.738281 430.890625 C 488.398438 429.324219 487.011719 427.808594 485.566406 426.339844 C 484.121094 424.875 482.628906 423.460938 481.085938 422.097656 C 479.539062 420.738281 477.949219 419.433594 476.3125 418.183594 C 474.675781 416.933594 473 415.746094 471.277344 414.613281 C 469.558594 413.484375 467.800781 412.417969 466.003906 411.410156 C 464.207031 410.40625 462.378906 409.464844 460.515625 408.589844 C 458.652344 407.710938 456.761719 406.902344 454.839844 406.160156 C 452.921875 405.417969 450.976562 404.746094 449.011719 404.140625 C 447.042969 403.535156 445.054688 403 443.050781 402.539062 C 441.046875 402.074219 439.027344 401.679688 436.992188 401.359375 C 434.960938 401.039062 432.917969 400.789062 430.867188 400.613281 C 428.816406 400.433594 426.761719 400.332031 424.703125 400.300781 C 422.644531 400.269531 420.589844 400.308594 418.53125 400.425781 C 416.476562 400.539062 414.429688 400.726562 412.386719 400.984375 C 410.34375 401.242188 408.3125 401.574219 406.296875 401.976562 C 404.277344 402.378906 402.273438 402.855469 400.289062 403.398438 C 398.304688 403.945312 396.339844 404.558594 394.398438 405.242188 C 392.457031 405.925781 390.542969 406.675781 388.65625 407.496094 C 386.765625 408.3125 384.910156 409.199219 383.082031 410.148438 C 381.257812 411.101562 379.46875 412.113281 377.714844 413.191406 C 375.960938 414.269531 374.246094 415.40625 372.570312 416.605469 C 370.898438 417.804688 369.269531 419.058594 367.683594 420.371094 C 367.320312 418.6875 366.914062 417.011719 366.472656 415.34375 C 366.03125 413.675781 365.550781 412.019531 365.03125 410.375 C 364.511719 408.730469 363.957031 407.097656 363.363281 405.480469 C 362.773438 403.859375 362.140625 402.253906 361.476562 400.664062 C 360.808594 399.074219 360.105469 397.5 359.367188 395.941406 C 358.628906 394.382812 357.855469 392.839844 357.046875 391.316406 C 356.234375 389.796875 355.390625 388.292969 354.515625 386.808594 C 353.636719 385.324219 352.722656 383.859375 351.777344 382.417969 C 350.832031 380.972656 349.855469 379.554688 348.84375 378.15625 C 347.835938 376.757812 346.792969 375.382812 345.71875 374.035156 C 344.648438 372.683594 343.542969 371.359375 342.410156 370.058594 C 341.273438 368.761719 340.113281 367.488281 338.917969 366.242188 C 337.726562 364.996094 336.507812 363.777344 335.257812 362.585938 C 334.011719 361.398438 332.734375 360.234375 331.433594 359.105469 C 330.132812 357.972656 328.808594 356.871094 327.453125 355.800781 C 326.101562 354.726562 324.726562 353.6875 323.328125 352.679688 C 321.929688 351.671875 320.507812 350.699219 319.0625 349.753906 C 317.617188 348.8125 316.152344 347.902344 314.667969 347.027344 C 313.183594 346.152344 311.675781 345.308594 310.152344 344.503906 C 308.628906 343.695312 307.085938 342.925781 305.527344 342.1875 C 303.96875 341.453125 302.390625 340.753906 300.800781 340.089844 C 299.207031 339.425781 297.601562 338.796875 295.980469 338.207031 C 294.359375 337.617188 292.726562 337.0625 291.082031 336.546875 C 289.433594 336.03125 287.777344 335.554688 286.109375 335.113281 C 284.441406 334.675781 282.765625 334.273438 281.082031 333.910156 C 279.394531 333.550781 277.699219 333.226562 276 332.941406 C 274.296875 332.65625 272.59375 332.410156 270.878906 332.203125 C 269.167969 331.996094 267.453125 331.828125 265.730469 331.699219 C 264.011719 331.570312 262.289062 331.480469 260.566406 331.433594 C 258.84375 331.382812 257.117188 331.371094 255.394531 331.402344 C 253.667969 331.429688 251.945312 331.5 250.226562 331.609375 C 248.503906 331.71875 246.785156 331.867188 245.070312 332.050781 C 243.355469 332.238281 241.648438 332.464844 239.941406 332.730469 C 238.238281 332.996094 236.542969 333.300781 234.851562 333.644531 C 233.160156 333.988281 231.480469 334.371094 229.808594 334.789062 C 228.132812 335.210938 226.472656 335.667969 224.820312 336.164062 C 223.167969 336.664062 221.53125 337.195312 219.902344 337.769531 C 218.273438 338.339844 216.660156 338.949219 215.0625 339.59375 C 213.464844 340.238281 211.878906 340.921875 210.3125 341.640625 C 208.742188 342.355469 207.191406 343.109375 205.660156 343.898438 C 204.125 344.6875 202.609375 345.511719 201.113281 346.371094 C 199.621094 347.230469 198.144531 348.121094 196.6875 349.050781 C 195.234375 349.976562 193.800781 350.933594 192.390625 351.925781 C 190.980469 352.917969 189.589844 353.941406 188.226562 354.996094 C 186.863281 356.050781 185.523438 357.136719 184.210938 358.253906 C 182.894531 359.371094 181.609375 360.519531 180.347656 361.695312 C 179.085938 362.871094 177.851562 364.074219 176.644531 365.304688 C 175.4375 366.539062 174.257812 367.796875 173.109375 369.085938 C 171.960938 370.371094 170.84375 371.683594 169.753906 373.019531 C 168.664062 374.355469 167.605469 375.71875 166.582031 377.105469 C 165.554688 378.492188 164.558594 379.898438 163.597656 381.332031 C 162.636719 382.761719 161.707031 384.214844 160.8125 385.691406 C 159.917969 387.164062 159.054688 388.65625 158.230469 390.171875 C 157.402344 391.683594 156.609375 393.21875 155.855469 394.765625 C 155.097656 396.316406 154.375 397.882812 153.691406 399.464844 C 153.007812 401.050781 152.359375 402.648438 151.746094 404.257812 C 151.136719 405.871094 150.5625 407.496094 150.023438 409.136719 C 149.488281 410.777344 148.988281 412.425781 148.527344 414.085938 C 148.0625 415.75 147.640625 417.421875 147.257812 419.101562 C 146.871094 420.78125 146.523438 422.472656 146.21875 424.167969 C 145.910156 425.867188 145.640625 427.570312 145.410156 429.277344 C 145.183594 430.988281 144.992188 432.703125 144.839844 434.421875 C 144.691406 436.136719 144.578125 437.859375 144.507812 439.582031 C 144.433594 441.304688 144.402344 443.027344 144.410156 444.753906 C 144.367188 452.007812 145.050781 459.195312 146.460938 466.3125 C 141.78125 465.644531 137.074219 465.300781 132.347656 465.285156 C 129.765625 465.289062 127.1875 465.402344 124.613281 465.621094 C 122.039062 465.835938 119.480469 466.160156 116.933594 466.589844 C 114.386719 467.015625 111.863281 467.546875 109.359375 468.183594 C 106.855469 468.820312 104.382812 469.558594 101.941406 470.398438 C 99.5 471.234375 97.097656 472.175781 94.730469 473.210938 C 92.367188 474.246094 90.046875 475.378906 87.777344 476.609375 C 85.503906 477.835938 83.285156 479.152344 81.121094 480.5625 C 78.960938 481.972656 76.859375 483.46875 74.816406 485.054688 C 72.777344 486.636719 70.804688 488.300781 68.902344 490.046875 C 67 491.789062 65.167969 493.609375 63.414062 495.507812 C 61.664062 497.402344 59.988281 499.367188 58.398438 501.398438 C 56.804688 503.433594 55.296875 505.527344 53.878906 507.683594 C 52.460938 509.839844 51.128906 512.054688 49.890625 514.320312 C 48.65625 516.585938 47.511719 518.898438 46.464844 521.257812 C 45.417969 523.617188 44.46875 526.019531 43.617188 528.457031 C 42.765625 530.894531 42.019531 533.363281 41.371094 535.863281 C 40.722656 538.363281 40.179688 540.886719 39.738281 543.429688 C 39.300781 545.976562 38.964844 548.535156 38.734375 551.105469 C 38.507812 553.679688 38.382812 556.253906 38.367188 558.835938 C 38.347656 561.417969 38.4375 564 38.632812 566.574219 C 38.828125 569.148438 39.125 571.710938 39.53125 574.261719 C 39.9375 576.8125 40.449219 579.339844 41.0625 581.847656 C 41.675781 584.355469 42.390625 586.835938 43.207031 589.285156 C 44.023438 591.734375 44.941406 594.148438 45.957031 596.519531 C 46.972656 598.894531 48.085938 601.222656 49.292969 603.507812 C 50.5 605.789062 51.796875 608.019531 53.1875 610.195312 C 54.578125 612.371094 56.058594 614.484375 57.621094 616.539062 C 59.1875 618.59375 60.832031 620.582031 62.5625 622.5 C 64.289062 624.417969 66.09375 626.261719 67.972656 628.035156 C 69.851562 629.804688 71.800781 631.496094 73.820312 633.105469 C 75.839844 634.714844 77.921875 636.238281 80.066406 637.679688 C 82.210938 639.117188 84.410156 640.464844 86.664062 641.722656 C 89.523438 643.648438 92.503906 645.355469 95.613281 646.835938 C 98.722656 648.320312 101.925781 649.570312 105.21875 650.578125 C 108.511719 651.589844 111.863281 652.355469 115.269531 652.871094 C 118.675781 653.386719 122.101562 653.648438 125.546875 653.65625 L 508.964844 653.65625 C 510.113281 653.65625 511.261719 653.625 512.40625 653.566406 C 513.554688 653.507812 514.699219 653.421875 515.839844 653.308594 C 516.984375 653.195312 518.121094 653.050781 519.257812 652.882812 C 520.390625 652.710938 521.523438 652.515625 522.648438 652.289062 C 523.773438 652.0625 524.894531 651.808594 526.007812 651.53125 C 527.121094 651.25 528.226562 650.941406 529.324219 650.605469 C 530.421875 650.273438 531.511719 649.910156 532.59375 649.523438 C 533.675781 649.136719 534.746094 648.722656 535.804688 648.28125 C 536.867188 647.839844 537.914062 647.375 538.953125 646.882812 C 539.988281 646.390625 541.015625 645.875 542.027344 645.332031 C 543.039062 644.789062 544.039062 644.222656 545.023438 643.632812 C 546.007812 643.042969 546.976562 642.425781 547.929688 641.789062 C 548.882812 641.152344 549.824219 640.488281 550.746094 639.804688 C 551.667969 639.121094 552.570312 638.414062 553.457031 637.6875 C 554.347656 636.957031 555.214844 636.207031 556.066406 635.4375 C 556.917969 634.664062 557.746094 633.875 558.558594 633.0625 C 559.371094 632.25 560.164062 631.417969 560.933594 630.570312 C 561.703125 629.71875 562.453125 628.847656 563.183594 627.960938 C 563.910156 627.074219 564.617188 626.167969 565.300781 625.246094 C 565.988281 624.324219 566.648438 623.386719 567.285156 622.433594 C 567.925781 621.480469 568.539062 620.507812 569.128906 619.523438 C 569.722656 618.539062 570.289062 617.542969 570.828125 616.53125 C 571.371094 615.515625 571.886719 614.492188 572.378906 613.453125 C 572.871094 612.417969 573.335938 611.367188 573.777344 610.308594 C 574.21875 609.246094 574.632812 608.175781 575.019531 607.097656 C 575.410156 606.015625 575.769531 604.925781 576.105469 603.828125 C 576.4375 602.730469 576.746094 601.625 577.027344 600.511719 C 577.308594 599.398438 577.558594 598.277344 577.785156 597.152344 C 578.011719 596.027344 578.207031 594.894531 578.378906 593.761719 C 578.550781 592.625 578.691406 591.484375 578.804688 590.34375 C 578.917969 589.199219 579.007812 588.054688 579.066406 586.910156 C 579.121094 585.761719 579.152344 584.617188 579.15625 583.46875 C 579.152344 582.320312 579.121094 581.171875 579.066406 580.023438 C 579.007812 578.878906 578.917969 577.734375 578.804688 576.589844 C 578.691406 575.449219 578.550781 574.308594 578.378906 573.175781 C 578.207031 572.039062 578.011719 570.910156 577.785156 569.78125 C 577.558594 568.65625 577.308594 567.539062 577.027344 566.421875 C 576.746094 565.308594 576.4375 564.203125 576.105469 563.105469 C 575.769531 562.007812 575.410156 560.917969 575.019531 559.835938 C 574.632812 558.757812 574.21875 557.6875 573.777344 556.625 C 573.335938 555.566406 572.871094 554.515625 572.378906 553.480469 C 571.886719 552.441406 571.371094 551.417969 570.828125 550.40625 C 570.289062 549.394531 569.722656 548.394531 569.128906 547.410156 C 568.539062 546.425781 567.925781 545.457031 567.285156 544.5 C 566.648438 543.546875 565.988281 542.609375 565.300781 541.6875 C 564.617188 540.765625 563.910156 539.859375 563.183594 538.972656 C 562.453125 538.085938 561.703125 537.214844 560.933594 536.367188 C 560.164062 535.515625 559.371094 534.683594 558.558594 533.871094 C 557.746094 533.058594 556.917969 532.269531 556.066406 531.496094 C 555.214844 530.726562 554.347656 529.976562 553.457031 529.25 C 552.570312 528.519531 551.667969 527.8125 550.746094 527.128906 C 549.824219 526.445312 548.882812 525.785156 547.929688 525.144531 C 546.976562 524.507812 546.007812 523.890625 545.023438 523.300781 C 544.039062 522.710938 543.039062 522.144531 542.027344 521.601562 C 541.015625 521.058594 539.988281 520.542969 538.953125 520.050781 C 537.914062 519.558594 536.867188 519.09375 535.804688 518.652344 C 534.746094 518.214844 533.675781 517.800781 532.59375 517.410156 C 531.511719 517.023438 530.421875 516.660156 529.324219 516.328125 C 528.226562 515.992188 527.121094 515.683594 526.007812 515.40625 C 524.894531 515.125 523.773438 514.871094 522.648438 514.644531 C 521.523438 514.421875 520.394531 514.222656 519.257812 514.054688 C 518.121094 513.882812 516.984375 513.742188 515.839844 513.625 C 514.699219 513.511719 513.554688 513.425781 512.40625 513.367188 C 511.261719 513.308594 510.113281 513.277344 508.964844 513.277344 Z M 508.964844 513.277344 " fill-opacity="1" fill-rule="nonzero"/></g></svg>