<svg xmlns="http://www.w3.org/2000/svg" xmlns:xlink="http://www.w3.org/1999/xlink" width="1024" zoomAndPan="magnify" viewBox="0 0 768 767.999994" height="1024" preserveAspectRatio="xMidYMid meet" version="1.0"><defs><clipPath id="854ec68565"><path d="M 362 76.800781 L 413 76.800781 L 413 232 L 362 232 Z M 362 76.800781 " clip-rule="nonzero"/></clipPath><clipPath id="ab6fdba0fb"><path d="M 366 536 L 417 536 L 417 691.050781 L 366 691.050781 Z M 366 536 " clip-rule="nonzero"/></clipPath><clipPath id="b33de8efcc"><path d="M 536 351 L 691.050781 351 L 691.050781 402 L 536 402 Z M 536 351 " clip-rule="nonzero"/></clipPath><clipPath id="e32334cd51"><path d="M 76.800781 354 L 232 354 L 232 406 L 76.800781 406 Z M 76.800781 354 " clip-rule="nonzero"/></clipPath></defs><path fill="#ffb544" d="M 535.167969 376.246094 C 535.164062 378.65625 535.105469 381.066406 534.984375 383.472656 C 534.863281 385.878906 534.683594 388.285156 534.445312 390.683594 C 534.207031 393.082031 533.910156 395.472656 533.550781 397.855469 C 533.195312 400.242188 532.78125 402.613281 532.308594 404.980469 C 531.835938 407.34375 531.308594 409.695312 530.71875 412.03125 C 530.132812 414.371094 529.484375 416.691406 528.785156 419 C 528.082031 421.304688 527.324219 423.59375 526.511719 425.859375 C 525.695312 428.128906 524.828125 430.378906 523.902344 432.605469 C 522.976562 434.832031 522 437.03125 520.96875 439.210938 C 519.933594 441.390625 518.847656 443.542969 517.710938 445.667969 C 516.574219 447.792969 515.382812 449.886719 514.140625 451.953125 C 512.902344 454.019531 511.609375 456.054688 510.269531 458.058594 C 508.929688 460.0625 507.539062 462.03125 506.101562 463.96875 C 504.664062 465.902344 503.179688 467.800781 501.648438 469.664062 C 500.117188 471.527344 498.542969 473.351562 496.921875 475.136719 C 495.304688 476.917969 493.640625 478.664062 491.933594 480.367188 C 490.230469 482.070312 488.480469 483.730469 486.695312 485.347656 C 484.90625 486.96875 483.082031 488.539062 481.21875 490.066406 C 479.351562 491.597656 477.453125 493.078125 475.515625 494.511719 C 473.578125 495.949219 471.605469 497.332031 469.601562 498.671875 C 467.597656 500.011719 465.558594 501.296875 463.492188 502.535156 C 461.421875 503.773438 459.324219 504.960938 457.199219 506.097656 C 455.070312 507.230469 452.917969 508.3125 450.738281 509.34375 C 448.558594 510.371094 446.355469 511.347656 444.128906 512.269531 C 441.898438 513.191406 439.652344 514.058594 437.378906 514.867188 C 435.109375 515.679688 432.820312 516.433594 430.515625 517.132812 C 428.207031 517.832031 425.882812 518.472656 423.546875 519.058594 C 421.207031 519.644531 418.855469 520.167969 416.492188 520.640625 C 414.125 521.109375 411.75 521.519531 409.367188 521.871094 C 406.980469 522.226562 404.589844 522.519531 402.191406 522.753906 C 399.792969 522.988281 397.386719 523.164062 394.980469 523.285156 C 392.574219 523.402344 390.164062 523.457031 387.753906 523.457031 C 385.339844 523.457031 382.933594 523.398438 380.523438 523.277344 C 378.117188 523.160156 375.714844 522.980469 373.316406 522.746094 C 370.914062 522.507812 368.523438 522.210938 366.140625 521.855469 C 363.753906 521.503906 361.378906 521.089844 359.015625 520.617188 C 356.652344 520.148438 354.300781 519.621094 351.960938 519.035156 C 349.625 518.445312 347.300781 517.804688 344.996094 517.101562 C 342.6875 516.402344 340.398438 515.648438 338.128906 514.835938 C 335.859375 514.023438 333.613281 513.152344 331.386719 512.230469 C 329.160156 511.308594 326.957031 510.332031 324.777344 509.300781 C 322.597656 508.269531 320.445312 507.183594 318.320312 506.046875 C 316.191406 504.910156 314.097656 503.722656 312.027344 502.484375 C 309.960938 501.246094 307.925781 499.953125 305.921875 498.617188 C 303.917969 497.277344 301.945312 495.886719 300.011719 494.453125 C 298.074219 493.015625 296.175781 491.53125 294.3125 490.003906 C 292.449219 488.472656 290.621094 486.898438 288.835938 485.28125 C 287.050781 483.664062 285.304688 482 283.601562 480.296875 C 281.894531 478.589844 280.234375 476.847656 278.613281 475.058594 C 276.996094 473.273438 275.421875 471.449219 273.890625 469.585938 C 272.363281 467.722656 270.878906 465.820312 269.445312 463.886719 C 268.007812 461.949219 266.621094 459.980469 265.28125 457.976562 C 263.941406 455.972656 262.652344 453.933594 261.410156 451.867188 C 260.171875 449.800781 258.984375 447.703125 257.847656 445.578125 C 256.710938 443.453125 255.628906 441.296875 254.597656 439.121094 C 253.566406 436.941406 252.589844 434.738281 251.664062 432.511719 C 250.742188 430.285156 249.875 428.035156 249.0625 425.765625 C 248.25 423.496094 247.492188 421.207031 246.792969 418.902344 C 246.09375 416.59375 245.449219 414.273438 244.863281 411.933594 C 244.277344 409.59375 243.746094 407.242188 243.277344 404.878906 C 242.804688 402.515625 242.394531 400.140625 242.039062 397.757812 C 241.683594 395.371094 241.390625 392.980469 241.152344 390.582031 C 240.914062 388.183594 240.738281 385.777344 240.617188 383.371094 C 240.5 380.964844 240.4375 378.554688 240.4375 376.144531 C 240.4375 373.734375 240.496094 371.324219 240.613281 368.914062 C 240.730469 366.507812 240.90625 364.105469 241.140625 361.707031 C 241.378906 359.304688 241.671875 356.914062 242.023438 354.53125 C 242.375 352.144531 242.789062 349.769531 243.257812 347.40625 C 243.726562 345.039062 244.253906 342.6875 244.839844 340.351562 C 245.421875 338.011719 246.066406 335.6875 246.761719 333.382812 C 247.460938 331.074219 248.214844 328.785156 249.027344 326.515625 C 249.839844 324.246094 250.703125 321.996094 251.625 319.769531 C 252.546875 317.542969 253.523438 315.335938 254.550781 313.15625 C 255.582031 310.976562 256.664062 308.824219 257.800781 306.699219 C 258.933594 304.570312 260.121094 302.472656 261.359375 300.40625 C 262.597656 298.335938 263.886719 296.300781 265.222656 294.292969 C 266.5625 292.289062 267.949219 290.320312 269.382812 288.382812 C 270.820312 286.445312 272.300781 284.542969 273.828125 282.679688 C 275.355469 280.8125 276.929688 278.988281 278.546875 277.203125 C 280.164062 275.414062 281.824219 273.667969 283.527344 271.960938 C 285.230469 270.253906 286.976562 268.59375 288.761719 266.972656 C 290.546875 265.351562 292.371094 263.777344 294.230469 262.246094 C 296.09375 260.714844 297.992188 259.230469 299.929688 257.792969 C 301.863281 256.355469 303.832031 254.96875 305.835938 253.625 C 307.839844 252.285156 309.875 250.996094 311.941406 249.753906 C 314.007812 248.511719 316.105469 247.324219 318.230469 246.183594 C 320.355469 245.046875 322.507812 243.960938 324.683594 242.929688 C 326.863281 241.898438 329.066406 240.917969 331.292969 239.992188 C 333.519531 239.070312 335.765625 238.199219 338.035156 237.386719 C 340.304688 236.570312 342.589844 235.8125 344.898438 235.113281 C 347.203125 234.410156 349.527344 233.765625 351.863281 233.175781 C 354.203125 232.589844 356.554688 232.058594 358.917969 231.585938 C 361.28125 231.113281 363.65625 230.699219 366.039062 230.34375 C 368.421875 229.988281 370.816406 229.691406 373.214844 229.453125 C 375.613281 229.214844 378.015625 229.035156 380.421875 228.914062 C 382.832031 228.792969 385.242188 228.730469 387.652344 228.726562 C 390.070312 228.710938 392.488281 228.753906 394.90625 228.855469 C 397.320312 228.957031 399.734375 229.117188 402.144531 229.339844 C 404.550781 229.5625 406.953125 229.84375 409.347656 230.183594 C 411.746094 230.523438 414.128906 230.925781 416.503906 231.382812 C 418.878906 231.84375 421.242188 232.359375 423.589844 232.9375 C 425.941406 233.511719 428.273438 234.144531 430.59375 234.835938 C 432.910156 235.527344 435.210938 236.277344 437.492188 237.082031 C 439.773438 237.890625 442.03125 238.75 444.269531 239.667969 C 446.507812 240.585938 448.722656 241.558594 450.914062 242.585938 C 453.101562 243.613281 455.265625 244.695312 457.402344 245.828125 C 459.539062 246.960938 461.648438 248.148438 463.726562 249.386719 C 465.800781 250.628906 467.847656 251.917969 469.863281 253.257812 C 471.875 254.597656 473.855469 255.988281 475.800781 257.425781 C 477.746094 258.863281 479.652344 260.347656 481.523438 261.882812 C 483.394531 263.414062 485.226562 264.992188 487.023438 266.617188 C 488.816406 268.242188 490.566406 269.910156 492.277344 271.617188 C 493.988281 273.328125 495.65625 275.082031 497.277344 276.875 C 498.902344 278.667969 500.480469 280.5 502.011719 282.371094 C 503.546875 284.242188 505.03125 286.152344 506.46875 288.097656 C 507.910156 290.039062 509.296875 292.019531 510.636719 294.035156 C 511.980469 296.046875 513.269531 298.09375 514.507812 300.171875 C 515.746094 302.25 516.933594 304.355469 518.066406 306.492188 C 519.203125 308.628906 520.28125 310.792969 521.308594 312.984375 C 522.335938 315.171875 523.308594 317.386719 524.226562 319.625 C 525.144531 321.863281 526.007812 324.125 526.8125 326.40625 C 527.617188 328.683594 528.367188 330.984375 529.058594 333.304688 C 529.75 335.621094 530.382812 337.953125 530.960938 340.304688 C 531.535156 342.652344 532.054688 345.015625 532.511719 347.390625 C 532.972656 349.765625 533.371094 352.152344 533.710938 354.546875 C 534.050781 356.941406 534.332031 359.34375 534.554688 361.753906 C 534.777344 364.160156 534.9375 366.574219 535.042969 368.992188 C 535.144531 371.40625 535.1875 373.824219 535.167969 376.246094 Z M 535.167969 376.246094 " fill-opacity="1" fill-rule="nonzero"/><path fill="#ffae46" d="M 385.21875 77.558594 L 390.085938 77.558594 C 390.265625 77.558594 390.441406 77.59375 390.609375 77.664062 C 390.777344 77.734375 390.921875 77.832031 391.050781 77.960938 C 391.179688 78.089844 391.277344 78.238281 391.347656 78.40625 C 391.417969 78.574219 391.453125 78.746094 391.453125 78.929688 L 391.453125 208.5625 C 391.453125 208.742188 391.417969 208.917969 391.347656 209.085938 C 391.277344 209.253906 391.179688 209.402344 391.050781 209.53125 C 390.921875 209.65625 390.777344 209.757812 390.609375 209.828125 C 390.441406 209.894531 390.265625 209.929688 390.085938 209.929688 L 385.21875 209.929688 C 385.035156 209.929688 384.863281 209.894531 384.695312 209.828125 C 384.527344 209.757812 384.378906 209.65625 384.25 209.53125 C 384.121094 209.402344 384.023438 209.253906 383.953125 209.085938 C 383.882812 208.917969 383.847656 208.742188 383.847656 208.5625 L 383.847656 78.929688 C 383.847656 78.746094 383.882812 78.574219 383.953125 78.40625 C 384.023438 78.238281 384.121094 78.089844 384.25 77.960938 C 384.378906 77.832031 384.527344 77.734375 384.695312 77.664062 C 384.863281 77.59375 385.035156 77.558594 385.21875 77.558594 Z M 385.21875 77.558594 " fill-opacity="1" fill-rule="nonzero"/><g clip-path="url(#854ec68565)"><path stroke-linecap="butt" transform="matrix(1.520797, 0, 0, 1.520797, 76.799999, 76.800016)" fill="none" stroke-linejoin="miter" d="M 202.8007 0.498803 L 206.001118 0.498803 C 206.119272 0.498803 206.234857 0.52192 206.345305 0.568154 C 206.455753 0.614387 206.550789 0.678601 206.635551 0.763364 C 206.720314 0.848126 206.784527 0.945731 206.830761 1.056179 C 206.876995 1.166627 206.900112 1.279643 206.900112 1.400365 L 206.900112 86.6404 C 206.900112 86.758554 206.876995 86.874138 206.830761 86.984586 C 206.784527 87.095034 206.720314 87.192639 206.635551 87.277401 C 206.550789 87.359595 206.455753 87.426378 206.345305 87.472612 C 206.234857 87.516277 206.119272 87.539394 206.001118 87.539394 L 202.8007 87.539394 C 202.679978 87.539394 202.566962 87.516277 202.456514 87.472612 C 202.346066 87.426378 202.248461 87.359595 202.163699 87.277401 C 202.078936 87.192639 202.014723 87.095034 201.968489 86.984586 C 201.922255 86.874138 201.899138 86.758554 201.899138 86.6404 L 201.899138 1.400365 C 201.899138 1.279643 201.922255 1.166627 201.968489 1.056179 C 202.014723 0.945731 202.078936 0.848126 202.163699 0.763364 C 202.248461 0.678601 202.346066 0.614387 202.456514 0.568154 C 202.566962 0.52192 202.679978 0.498803 202.8007 0.498803 Z M 202.8007 0.498803 " stroke="#ffae46" stroke-width="1" stroke-opacity="1" stroke-miterlimit="10"/></g><path stroke-linecap="butt" transform="matrix(1.368045, -0.664287, 0.664287, 1.368045, -61.440155, 126.834491)" fill-opacity="1" fill="#ffae46" fill-rule="nonzero" stroke-linejoin="miter" d="M 197.000124 113.999109 L 200.200605 113.999868 C 200.320088 114.000778 200.435216 114.022417 200.543746 114.069406 C 200.653397 114.114084 200.752952 114.179557 200.837787 114.263581 C 200.920312 114.346483 200.98693 114.444504 201.030709 114.554278 C 201.076798 114.665174 201.101103 114.779769 201.100193 114.899251 L 201.099939 161.489911 C 201.099028 161.609394 201.077389 161.724522 201.032712 161.834173 C 200.984601 161.945014 200.92025 162.042257 200.836226 162.127093 C 200.752202 162.211929 200.655303 162.276236 200.544407 162.322325 C 200.434633 162.366104 200.320038 162.390409 200.200556 162.389499 L 197.000074 162.38874 C 196.87947 162.39014 196.765463 162.36619 196.655812 162.321512 C 196.54616 162.276834 196.446606 162.211361 196.362892 162.125027 C 196.280367 162.042124 196.213749 161.944103 196.16766 161.833208 C 196.123881 161.723434 196.099576 161.608839 196.100486 161.489357 L 196.099618 114.901007 C 196.100529 114.781525 196.122168 114.666396 196.167968 114.554434 C 196.214956 114.445904 196.279307 114.348661 196.363332 114.263825 C 196.447356 114.17899 196.544255 114.114683 196.65515 114.068593 C 196.766046 114.022504 196.879519 114.000509 197.000124 113.999109 Z M 197.000124 113.999109 " stroke="#ffae46" stroke-width="1" stroke-opacity="1" stroke-miterlimit="10"/><path stroke-linecap="butt" transform="matrix(1.368045, -0.664287, 0.664287, 1.368045, -215.649332, 242.110995)" fill-opacity="1" fill="#ffae46" fill-rule="nonzero" stroke-linejoin="miter" d="M 311.401439 372.59983 L 314.59961 372.599467 C 314.719093 372.600378 314.834221 372.622017 314.945061 372.670127 C 315.054713 372.714805 315.151957 372.779156 315.236792 372.86318 C 315.321628 372.947205 315.385935 373.044103 315.432024 373.154999 C 315.478114 373.265895 315.500109 373.379368 315.499198 373.49885 L 315.498944 420.08951 C 315.500344 420.210115 315.476395 420.324121 315.431717 420.433773 C 315.385917 420.545735 315.321566 420.642979 315.235231 420.726692 C 315.151207 420.811528 315.054308 420.875835 314.943412 420.921924 C 314.833638 420.965703 314.719044 420.990008 314.599561 420.989098 L 311.40139 420.989461 C 311.280785 420.990861 311.166779 420.966911 311.054817 420.921112 C 310.945165 420.876434 310.847922 420.812083 310.764208 420.725748 C 310.679372 420.641724 310.615065 420.544825 310.568976 420.433929 C 310.522887 420.323033 310.500892 420.20956 310.499492 420.088956 L 310.498623 373.500606 C 310.499534 373.381124 310.523484 373.267118 310.569284 373.155155 C 310.613962 373.045504 310.678313 372.94826 310.762337 372.863424 C 310.848672 372.779711 310.945571 372.715404 311.056466 372.669314 C 311.165051 372.622103 311.280835 372.60123 311.401439 372.59983 Z M 311.401439 372.59983 " stroke="#ffae46" stroke-width="1" stroke-opacity="1" stroke-miterlimit="10"/><path stroke-linecap="butt" transform="matrix(1.437076, 0.497632, -0.497632, 1.437076, 93.072574, -166.375225)" fill-opacity="1" fill="#ffae46" fill-rule="nonzero" stroke-linejoin="miter" d="M 302.700791 111.399331 L 305.900464 111.400368 C 306.019866 111.399795 306.133856 111.422841 306.244861 111.468666 C 306.355866 111.514491 306.451657 111.579175 306.5355 111.664306 C 306.62177 111.748596 306.68545 111.846146 306.731393 111.955274 C 306.778177 112.066828 306.801436 112.181093 306.799582 112.301335 L 306.800206 158.89096 C 306.80078 159.010362 306.777734 159.124352 306.731909 159.235357 C 306.685244 159.343935 306.621399 159.442153 306.536269 159.525996 C 306.451138 159.609839 306.354429 159.675946 306.245301 159.721889 C 306.132906 159.766246 306.018641 159.789504 305.899239 159.790078 L 302.699566 159.789041 C 302.580164 159.789615 302.466174 159.766569 302.355169 159.720744 C 302.244164 159.674919 302.148374 159.610234 302.062104 159.525944 C 301.979101 159.44324 301.914581 159.343263 301.868638 159.234136 C 301.822694 159.125008 301.799436 159.010744 301.801289 158.890501 L 301.800665 112.300876 C 301.800091 112.181474 301.822297 112.065057 301.868962 111.956479 C 301.914787 111.845474 301.978631 111.747257 302.063762 111.663414 C 302.148893 111.579571 302.245602 111.513464 302.35473 111.46752 C 302.467125 111.423164 302.581389 111.399905 302.700791 111.399331 Z M 302.700791 111.399331 " stroke="#ffae46" stroke-width="1" stroke-opacity="1" stroke-miterlimit="10"/><path stroke-linecap="butt" transform="matrix(1.437076, 0.497632, -0.497632, 1.437076, 216.104846, -93.225268)" fill-opacity="1" fill="#ffae46" fill-rule="nonzero" stroke-linejoin="miter" d="M 200.698744 375.200145 L 203.900845 375.200342 C 204.020247 375.199768 204.134236 375.222814 204.245242 375.268639 C 204.35382 375.315304 204.452037 375.379149 204.53588 375.464279 C 204.62215 375.54857 204.68583 375.646119 204.731773 375.755247 C 204.777717 375.864374 204.799389 375.981907 204.799962 376.101309 L 204.800587 422.690934 C 204.80032 422.807908 204.778114 422.924325 204.732289 423.035331 C 204.685624 423.143909 204.62178 423.242126 204.536649 423.325969 C 204.451518 423.409812 204.354809 423.475919 204.245681 423.521862 C 204.133286 423.566219 204.019021 423.589478 203.89962 423.590051 L 200.699946 423.589014 C 200.580545 423.589588 200.466555 423.566542 200.35555 423.520717 C 200.244544 423.474892 200.148754 423.410208 200.062484 423.325917 C 199.979481 423.243213 199.914961 423.143237 199.869018 423.034109 C 199.823074 422.924982 199.799816 422.810717 199.799242 422.691315 L 199.801045 376.10085 C 199.800471 375.981448 199.822677 375.865031 199.869342 375.756453 C 199.915167 375.645448 199.979011 375.54723 200.064142 375.463387 C 200.149273 375.379544 200.245982 375.313437 200.35511 375.267494 C 200.465078 375.223978 200.58177 375.199878 200.698744 375.200145 Z M 200.698744 375.200145 " stroke="#ffae46" stroke-width="1" stroke-opacity="1" stroke-miterlimit="10"/><path stroke-linecap="butt" transform="matrix(0.664287, 1.368045, -1.368045, 0.664287, 614.553381, -374.877384)" fill-opacity="1" fill="#ffae46" fill-rule="nonzero" stroke-linejoin="miter" d="M 383.499281 183.600815 L 386.700884 183.599263 C 386.820367 183.600174 386.934373 183.624123 387.044024 183.668801 C 387.153676 183.713479 387.25323 183.778952 387.336944 183.865287 C 387.419469 183.948189 387.486087 184.04621 387.529865 184.155984 C 387.577077 184.264569 387.60026 184.381475 387.59935 184.500957 L 387.600216 231.089306 C 387.599305 231.208788 387.577666 231.323916 387.531866 231.435879 C 387.484878 231.544408 387.420527 231.641652 387.336502 231.726488 C 387.252478 231.811323 387.155579 231.87563 387.044684 231.92172 C 386.933788 231.967809 386.820315 231.989804 386.69971 231.991204 L 383.499229 231.990445 C 383.379746 231.989534 383.264618 231.967895 383.156088 231.920907 C 383.046437 231.876229 382.946883 231.810756 382.862047 231.726732 C 382.780644 231.641519 382.714026 231.543498 382.666815 231.434913 C 382.623036 231.325139 382.599853 231.208234 382.599641 231.091061 L 382.599897 184.500403 C 382.600808 184.38092 382.622447 184.265792 382.667125 184.15614 C 382.715235 184.0453 382.779586 183.948056 382.86361 183.863221 C 382.947635 183.778385 383.044534 183.714078 383.155429 183.667989 C 383.266325 183.621899 383.379798 183.599904 383.499281 183.600815 Z M 383.499281 183.600815 " stroke="#ffae46" stroke-width="1" stroke-opacity="1" stroke-miterlimit="10"/><path stroke-linecap="butt" transform="matrix(0.664287, 1.368045, -1.368045, 0.664287, 549.31152, 77.256923)" fill-opacity="1" fill="#ffae46" fill-rule="nonzero" stroke-linejoin="miter" d="M 124.899817 297.998543 L 128.100298 297.999302 C 128.219781 298.000212 128.334909 298.021851 128.443439 298.06884 C 128.555401 298.11464 128.652645 298.178991 128.73748 298.263015 C 128.821194 298.34935 128.885501 298.446249 128.932712 298.554834 C 128.976491 298.664607 128.999675 298.781513 128.999886 298.898685 L 128.99963 345.489344 C 129.00103 345.609948 128.977081 345.723955 128.932403 345.833606 C 128.886603 345.945569 128.819941 346.04169 128.735917 346.126526 C 128.651893 346.211361 128.554994 346.275669 128.444098 346.321758 C 128.333202 346.367847 128.219729 346.389842 128.100247 346.388931 L 124.898644 346.390483 C 124.781471 346.390695 124.665155 346.365623 124.555503 346.320945 C 124.445851 346.276267 124.348608 346.211916 124.263772 346.127892 C 124.180058 346.041557 124.113441 345.943536 124.069662 345.833762 C 124.022451 345.725177 123.999267 345.608272 124.000178 345.488789 L 123.999312 298.900441 C 124.000222 298.780958 124.021861 298.66583 124.069972 298.55499 C 124.11465 298.445338 124.179001 298.348094 124.263025 298.263259 C 124.347049 298.178423 124.443948 298.114116 124.554844 298.068027 C 124.665739 298.021938 124.781523 298.001065 124.899817 297.998543 Z M 124.899817 297.998543 " stroke="#ffae46" stroke-width="1" stroke-opacity="1" stroke-miterlimit="10"/><path stroke-linecap="butt" transform="matrix(-0.497632, 1.437076, -1.437076, -0.497632, 1240.361534, 60.223932)" fill-opacity="1" fill="#ffae46" fill-rule="nonzero" stroke-linejoin="miter" d="M 386.099866 294.301083 L 389.298699 294.299693 C 389.418101 294.29912 389.534518 294.321325 389.643096 294.36799 C 389.754101 294.413816 389.853159 294.480087 389.936162 294.562791 C 390.020005 294.647921 390.086111 294.74463 390.132895 294.856185 C 390.176412 294.966153 390.19967 295.080418 390.200244 295.19982 L 390.200867 341.789445 C 390.199013 341.909688 390.175967 342.023677 390.132569 342.133842 C 390.086744 342.244847 390.019633 342.341478 389.937769 342.426908 C 389.852638 342.510751 389.755089 342.574431 389.643534 342.621214 C 389.534407 342.667158 389.420142 342.690416 389.30074 342.69099 L 386.101067 342.689953 C 385.981665 342.690527 385.865248 342.668321 385.75667 342.621656 C 385.645665 342.575831 385.547447 342.511987 385.463604 342.426856 C 385.379761 342.341725 385.313654 342.245016 385.267711 342.135888 C 385.223354 342.023493 385.200096 341.909228 385.199522 341.789826 L 385.198899 295.200201 C 385.200753 295.079959 385.223799 294.965969 385.269624 294.854964 C 385.313022 294.744799 385.380133 294.648168 385.462837 294.565166 C 385.547127 294.478895 385.644677 294.415216 385.756232 294.368432 C 385.865359 294.322488 385.979624 294.29923 386.099866 294.301083 Z M 386.099866 294.301083 " stroke="#ffae46" stroke-width="1" stroke-opacity="1" stroke-miterlimit="10"/><path stroke-linecap="butt" transform="matrix(-0.497632, 1.437076, -1.437076, -0.497632, 561.172583, 233.137729)" fill-opacity="1" fill="#ffae46" fill-rule="nonzero" stroke-linejoin="miter" d="M 122.301449 192.300617 L 125.500282 192.299227 C 125.619684 192.298654 125.733674 192.321699 125.844679 192.367525 C 125.955684 192.41335 126.051474 192.478034 126.135317 192.563165 C 126.221588 192.647455 126.285267 192.745005 126.332051 192.85656 C 126.377995 192.965687 126.398826 193.080792 126.3994 193.200194 L 126.400023 239.78982 C 126.400596 239.909222 126.37755 240.023212 126.331725 240.134217 C 126.2859 240.245222 126.221216 240.341012 126.136925 240.427282 C 126.051794 240.511125 125.954245 240.574805 125.845117 240.620748 C 125.733563 240.667532 125.619298 240.690791 125.499896 240.691365 L 122.300223 240.690328 C 122.180821 240.690901 122.066831 240.667855 121.955826 240.62203 C 121.844821 240.576205 121.74903 240.511521 121.66276 240.42723 C 121.578917 240.342099 121.515237 240.24455 121.469294 240.135422 C 121.42251 240.023868 121.399252 239.909603 121.401105 239.78936 L 121.400482 193.199735 C 121.399909 193.080333 121.422955 192.966343 121.46878 192.855338 C 121.514605 192.744333 121.579289 192.648543 121.66358 192.562273 C 121.74871 192.478429 121.84626 192.41475 121.955388 192.368806 C 122.064515 192.322863 122.181207 192.298764 122.301449 192.300617 Z M 122.301449 192.300617 " stroke="#ffae46" stroke-width="1" stroke-opacity="1" stroke-miterlimit="10"/><path fill="#ffae46" d="M 389.019531 557.828125 L 393.886719 557.828125 C 394.066406 557.828125 394.242188 557.863281 394.410156 557.933594 C 394.578125 558 394.726562 558.101562 394.855469 558.230469 C 394.980469 558.355469 395.082031 558.503906 395.152344 558.671875 C 395.21875 558.839844 395.253906 559.015625 395.253906 559.195312 L 395.253906 688.828125 C 395.253906 689.011719 395.21875 689.1875 395.152344 689.351562 C 395.082031 689.519531 394.980469 689.667969 394.855469 689.796875 C 394.726562 689.925781 394.578125 690.023438 394.410156 690.09375 C 394.242188 690.164062 394.066406 690.199219 393.886719 690.199219 L 389.019531 690.199219 C 388.839844 690.199219 388.664062 690.164062 388.496094 690.09375 C 388.328125 690.023438 388.179688 689.925781 388.050781 689.796875 C 387.921875 689.667969 387.824219 689.519531 387.753906 689.351562 C 387.6875 689.1875 387.652344 689.011719 387.652344 688.828125 L 387.652344 559.195312 C 387.652344 559.015625 387.6875 558.839844 387.753906 558.671875 C 387.824219 558.503906 387.921875 558.355469 388.050781 558.230469 C 388.179688 558.101562 388.328125 558 388.496094 557.933594 C 388.664062 557.863281 388.839844 557.828125 389.019531 557.828125 Z M 389.019531 557.828125 " fill-opacity="1" fill-rule="nonzero"/><g clip-path="url(#ab6fdba0fb)"><path stroke-linecap="butt" transform="matrix(1.520797, 0, 0, 1.520797, 76.799999, 76.800016)" fill="none" stroke-linejoin="miter" d="M 205.299903 316.299956 L 208.500322 316.299956 C 208.618475 316.299956 208.73406 316.323073 208.844508 316.369307 C 208.954956 316.412972 209.052561 316.479755 209.137323 316.564517 C 209.219517 316.646711 209.286299 316.744316 209.332533 316.854763 C 209.376198 316.965211 209.399315 317.080796 209.399315 317.19895 L 209.399315 402.438985 C 209.399315 402.559707 209.376198 402.675292 209.332533 402.783171 C 209.286299 402.893619 209.219517 402.991224 209.137323 403.075986 C 209.052561 403.160748 208.954956 403.224962 208.844508 403.271196 C 208.73406 403.31743 208.618475 403.340547 208.500322 403.340547 L 205.299903 403.340547 C 205.18175 403.340547 205.066165 403.31743 204.955717 403.271196 C 204.845269 403.224962 204.747664 403.160748 204.662902 403.075986 C 204.57814 402.991224 204.513926 402.893619 204.467692 402.783171 C 204.424026 402.675292 204.400909 402.559707 204.400909 402.438985 L 204.400909 317.19895 C 204.400909 317.080796 204.424026 316.965211 204.467692 316.854763 C 204.513926 316.744316 204.57814 316.646711 204.662902 316.564517 C 204.747664 316.479755 204.845269 316.412972 204.955717 316.369307 C 205.066165 316.323073 205.18175 316.299956 205.299903 316.299956 Z M 205.299903 316.299956 " stroke="#ffae46" stroke-width="1" stroke-opacity="1" stroke-miterlimit="10"/></g><path fill="#ffae46" d="M 690.289062 373.964844 L 690.289062 378.832031 C 690.289062 379.011719 690.253906 379.1875 690.183594 379.355469 C 690.117188 379.523438 690.015625 379.667969 689.890625 379.796875 C 689.761719 379.925781 689.613281 380.023438 689.445312 380.09375 C 689.277344 380.164062 689.101562 380.199219 688.921875 380.199219 L 559.289062 380.199219 C 559.105469 380.199219 558.933594 380.164062 558.765625 380.09375 C 558.597656 380.023438 558.449219 379.925781 558.320312 379.796875 C 558.191406 379.667969 558.09375 379.523438 558.023438 379.355469 C 557.953125 379.1875 557.917969 379.011719 557.917969 378.832031 L 557.917969 373.964844 C 557.917969 373.78125 557.953125 373.609375 558.023438 373.441406 C 558.09375 373.273438 558.191406 373.125 558.320312 372.996094 C 558.449219 372.867188 558.597656 372.769531 558.765625 372.699219 C 558.933594 372.628906 559.105469 372.59375 559.289062 372.59375 L 688.921875 372.59375 C 689.101562 372.59375 689.277344 372.628906 689.445312 372.699219 C 689.613281 372.769531 689.761719 372.867188 689.890625 372.996094 C 690.015625 373.125 690.117188 373.273438 690.183594 373.441406 C 690.253906 373.609375 690.289062 373.78125 690.289062 373.964844 Z M 690.289062 373.964844 " fill-opacity="1" fill-rule="nonzero"/><g clip-path="url(#b33de8efcc)"><path stroke-linecap="butt" transform="matrix(0, 1.520797, -1.520797, 0, 1026.385728, -247.738093)" fill="none" stroke-linejoin="miter" d="M 408.800667 221.000309 L 412.001085 221.000309 C 412.119238 221.000309 412.234823 221.023426 412.345271 221.06966 C 412.455719 221.113325 412.550755 221.180107 412.635518 221.262301 C 412.72028 221.347063 412.784494 221.444668 412.830728 221.555116 C 412.876962 221.665564 412.900079 221.781149 412.900079 221.899303 L 412.900079 307.139338 C 412.900079 307.26006 412.876962 307.373076 412.830728 307.483524 C 412.784494 307.593972 412.72028 307.691577 412.635518 307.776339 C 412.550755 307.861101 412.455719 307.925315 412.345271 307.971549 C 412.234823 308.017783 412.119238 308.0409 412.001085 308.0409 L 408.800667 308.0409 C 408.679944 308.0409 408.566928 308.017783 408.45648 307.971549 C 408.346032 307.925315 408.248427 307.861101 408.163665 307.776339 C 408.078903 307.691577 408.014689 307.593972 407.968455 307.483524 C 407.922221 307.373076 407.899104 307.26006 407.899104 307.139338 L 407.899104 221.899303 C 407.899104 221.781149 407.922221 221.665564 407.968455 221.555116 C 408.014689 221.444668 408.078903 221.347063 408.163665 221.262301 C 408.248427 221.180107 408.346032 221.113325 408.45648 221.06966 C 408.566928 221.023426 408.679944 221.000309 408.800667 221.000309 Z M 408.800667 221.000309 " stroke="#ffae46" stroke-width="1" stroke-opacity="1" stroke-miterlimit="10"/></g><path fill="#ffae46" d="M 209.871094 377.765625 L 209.871094 382.632812 C 209.871094 382.8125 209.835938 382.988281 209.765625 383.15625 C 209.695312 383.324219 209.597656 383.472656 209.46875 383.601562 C 209.339844 383.726562 209.191406 383.828125 209.023438 383.898438 C 208.855469 383.964844 208.683594 384 208.5 384 L 78.867188 384 C 78.6875 384 78.511719 383.964844 78.34375 383.898438 C 78.175781 383.828125 78.027344 383.726562 77.902344 383.601562 C 77.773438 383.472656 77.671875 383.324219 77.605469 383.15625 C 77.535156 382.988281 77.5 382.8125 77.5 382.632812 L 77.5 377.765625 C 77.5 377.585938 77.535156 377.410156 77.605469 377.242188 C 77.671875 377.074219 77.773438 376.925781 77.902344 376.796875 C 78.027344 376.667969 78.175781 376.570312 78.34375 376.5 C 78.511719 376.433594 78.6875 376.398438 78.867188 376.398438 L 208.5 376.398438 C 208.683594 376.398438 208.855469 376.433594 209.023438 376.5 C 209.191406 376.570312 209.339844 376.667969 209.46875 376.796875 C 209.597656 376.925781 209.695312 377.074219 209.765625 377.242188 C 209.835938 377.410156 209.871094 377.585938 209.871094 377.765625 Z M 209.871094 377.765625 " fill-opacity="1" fill-rule="nonzero"/><g clip-path="url(#e32334cd51)"><path stroke-linecap="butt" transform="matrix(0, 1.520797, -1.520797, 0, 549.767904, 236.33163)" fill="none" stroke-linejoin="miter" d="M 92.999901 223.499093 L 96.200319 223.499093 C 96.318473 223.499093 96.434058 223.52221 96.544505 223.568444 C 96.654953 223.614678 96.752558 223.678892 96.837321 223.763654 C 96.919514 223.848416 96.986297 223.946021 97.032531 224.056469 C 97.076196 224.166917 97.099313 224.279933 97.099313 224.400655 L 97.099313 309.64069 C 97.099313 309.758844 97.076196 309.874429 97.032531 309.984877 C 96.986297 310.095324 96.919514 310.19293 96.837321 310.275123 C 96.752558 310.359886 96.654953 310.426668 96.544505 310.470333 C 96.434058 310.516567 96.318473 310.539684 96.200319 310.539684 L 92.999901 310.539684 C 92.881747 310.539684 92.766162 310.516567 92.655715 310.470333 C 92.545267 310.426668 92.447662 310.359886 92.362899 310.275123 C 92.278137 310.19293 92.213923 310.095324 92.167689 309.984877 C 92.124024 309.874429 92.100907 309.758844 92.100907 309.64069 L 92.100907 224.400655 C 92.100907 224.279933 92.124024 224.166917 92.167689 224.056469 C 92.213923 223.946021 92.278137 223.848416 92.362899 223.763654 C 92.447662 223.678892 92.545267 223.614678 92.655715 223.568444 C 92.766162 223.52221 92.881747 223.499093 92.999901 223.499093 Z M 92.999901 223.499093 " stroke="#ffae46" stroke-width="1" stroke-opacity="1" stroke-miterlimit="10"/></g><path stroke-linecap="butt" transform="matrix(-1.075366, 1.075366, -1.075366, -1.075366, 1361.570552, 562.846984)" fill-opacity="1" fill="#ffae46" fill-rule="nonzero" stroke-linejoin="miter" d="M 365.900556 335.499671 L 369.100774 335.499671 C 369.220646 335.499671 369.33507 335.523282 369.44586 335.568688 C 369.553019 335.614094 369.651096 335.679479 369.736459 335.764842 C 369.820006 335.848389 369.885391 335.946466 369.932613 336.055441 C 369.978019 336.166231 370.00163 336.280655 369.999814 336.39871 L 369.999814 421.638584 C 369.999814 421.758456 369.978019 421.874696 369.930797 421.98367 C 369.885391 422.094461 369.820006 422.192538 369.736459 422.276085 C 369.651096 422.361449 369.554835 422.425017 369.444044 422.470423 C 369.33507 422.517646 369.21883 422.53944 369.098958 422.53944 L 365.900556 422.541257 C 365.780684 422.541257 365.666261 422.517646 365.55547 422.47224 C 365.444679 422.426833 365.348418 422.359633 365.264871 422.276085 C 365.179508 422.190722 365.114123 422.096277 365.068717 421.985487 C 365.023311 421.874696 364.9997 421.760273 364.9997 421.640401 L 364.9997 336.400527 C 364.9997 336.280655 365.023311 336.166231 365.068717 336.055441 C 365.114123 335.94465 365.179508 335.846573 365.263055 335.763026 C 365.346602 335.679479 365.444679 335.614094 365.55547 335.568688 C 365.666261 335.523282 365.780684 335.499671 365.900556 335.499671 Z M 365.900556 335.499671 " stroke="#ffae46" stroke-width="1" stroke-opacity="1" stroke-miterlimit="10"/><path stroke-linecap="butt" transform="matrix(-1.075366, 1.075366, -1.075366, -1.075366, 538.97112, 229.640531)" fill-opacity="1" fill="#ffae46" fill-rule="nonzero" stroke-linejoin="miter" d="M 140.799865 113.99931 L 144.000084 113.99931 C 144.119956 113.99931 144.234379 114.022921 144.34517 114.068327 C 144.455961 114.113733 144.550405 114.179118 144.635769 114.264481 C 144.719316 114.348028 144.786517 114.444289 144.831923 114.55508 C 144.877329 114.66587 144.90094 114.780294 144.90094 114.900166 L 144.90094 200.14004 C 144.90094 200.259912 144.877329 200.374335 144.831923 200.485126 C 144.784701 200.5941 144.719316 200.692177 144.635769 200.775724 C 144.552222 200.859272 144.454144 200.924656 144.34517 200.971879 C 144.234379 201.017285 144.119956 201.040896 144.000084 201.040896 L 140.799865 201.040896 C 140.679993 201.040896 140.56557 201.017285 140.454779 200.971879 C 140.345805 200.924656 140.247728 200.859272 140.164181 200.775724 C 140.080633 200.692177 140.015249 200.5941 139.968026 200.485126 C 139.92262 200.374335 139.899009 200.259912 139.899009 200.14004 L 139.899009 114.900166 C 139.899009 114.780294 139.92262 114.66587 139.968026 114.55508 C 140.013433 114.444289 140.080633 114.348028 140.164181 114.264481 C 140.249544 114.179118 140.343989 114.113733 140.454779 114.068327 C 140.56557 114.022921 140.679993 113.99931 140.799865 113.99931 Z M 140.799865 113.99931 " stroke="#ffae46" stroke-width="1" stroke-opacity="1" stroke-miterlimit="10"/><path stroke-linecap="butt" transform="matrix(-1.075366, -1.075366, 1.075366, -1.075366, -38.9324, 1108.506421)" fill-opacity="1" fill="#ffae46" fill-rule="nonzero" stroke-linejoin="miter" d="M 140.099375 334.799417 L 143.299593 334.799417 C 143.419465 334.799417 143.533888 334.823028 143.644679 334.868434 C 143.75547 334.91384 143.853547 334.979225 143.937094 335.062772 C 144.020641 335.146319 144.086026 335.244396 144.131432 335.355187 C 144.176838 335.465978 144.200449 335.580401 144.200449 335.700273 L 144.200449 420.940147 C 144.200449 421.060019 144.176838 421.174442 144.131432 421.285233 C 144.086026 421.396023 144.020641 421.490468 143.935278 421.575831 C 143.851731 421.659379 143.75547 421.72658 143.644679 421.771986 C 143.533888 421.817392 143.419465 421.841003 143.299593 421.841003 L 140.099375 421.841003 C 139.981319 421.839187 139.865079 421.817392 139.756105 421.770169 C 139.645314 421.724763 139.549053 421.661195 139.46369 421.575831 C 139.380143 421.492284 139.314758 421.394207 139.269352 421.283416 C 139.22213 421.174442 139.200335 421.058202 139.198518 420.940147 L 139.198518 335.700273 C 139.198518 335.580401 139.22213 335.465978 139.267536 335.355187 C 139.314758 335.246212 139.380143 335.148135 139.46369 335.064588 C 139.549053 334.979225 139.645314 334.915656 139.754289 334.868434 C 139.865079 334.823028 139.979503 334.799417 140.099375 334.799417 Z M 140.099375 334.799417 " stroke="#ffae46" stroke-width="1" stroke-opacity="1" stroke-miterlimit="10"/><path stroke-linecap="butt" transform="matrix(-1.075366, -1.075366, 1.075366, -1.075366, 778.190892, 762.526086)" fill-opacity="1" fill="#ffae46" fill-rule="nonzero" stroke-linejoin="miter" d="M 361.700157 109.700677 L 364.900375 109.700677 C 365.020247 109.700677 365.132854 109.722472 365.243645 109.767878 C 365.354436 109.813284 365.452513 109.878668 365.53606 109.962215 C 365.621424 110.047579 365.686808 110.145656 365.732214 110.256447 C 365.775804 110.365421 365.799415 110.479844 365.799415 110.599716 L 365.799415 195.83959 C 365.799415 195.959462 365.775804 196.073886 365.730398 196.184676 C 365.684992 196.295467 365.621424 196.391728 365.53606 196.477091 C 365.452513 196.560639 365.354436 196.626023 365.243645 196.671429 C 365.132854 196.716835 365.018431 196.740446 364.900375 196.73863 L 361.700157 196.73863 C 361.580285 196.73863 361.465862 196.718652 361.356887 196.671429 C 361.246096 196.626023 361.148019 196.560639 361.064472 196.477091 C 360.979109 196.391728 360.913724 196.293651 360.868318 196.18286 C 360.822912 196.075702 360.801117 195.959462 360.801117 195.83959 L 360.801117 110.599716 C 360.799301 110.481661 360.822912 110.367237 360.868318 110.256447 C 360.913724 110.145656 360.979109 110.047579 361.062656 109.964032 C 361.148019 109.878668 361.246096 109.813284 361.355071 109.769694 C 361.465862 109.724288 361.580285 109.700677 361.700157 109.700677 Z M 361.700157 109.700677 " stroke="#ffae46" stroke-width="1" stroke-opacity="1" stroke-miterlimit="10"/></svg>