<svg xmlns="http://www.w3.org/2000/svg" xmlns:xlink="http://www.w3.org/1999/xlink" width="1024" zoomAndPan="magnify" viewBox="0 0 768 767.999994" height="1024" preserveAspectRatio="xMidYMid meet" version="1.0"><defs><clipPath id="83c9de81f6"><path d="M 349 61 L 697.53125 61 L 697.53125 267 L 349 267 Z M 349 61 " clip-rule="nonzero"/></clipPath><clipPath id="eb61a4a4a1"><path d="M 133.53125 80 L 667 80 L 667 399 L 133.53125 399 Z M 133.53125 80 " clip-rule="nonzero"/></clipPath><clipPath id="551f4b74b6"><path d="M 444 422 L 553 422 L 553 611.238281 L 444 611.238281 Z M 444 422 " clip-rule="nonzero"/></clipPath><clipPath id="4126ae7a58"><path d="M 174 478 L 234 478 L 234 565.269531 L 174 565.269531 Z M 174 478 " clip-rule="nonzero"/></clipPath><clipPath id="563ebafd01"><path d="M 330 509 L 390 509 L 390 595.519531 L 330 595.519531 Z M 330 509 " clip-rule="nonzero"/></clipPath><clipPath id="61e5b4b18d"><path d="M 520 509 L 580 509 L 580 595.519531 L 520 595.519531 Z M 520 509 " clip-rule="nonzero"/></clipPath></defs><path fill="#6b99d2" d="M 124.074219 541.367188 L 121.691406 543.238281 C 120.605469 544.199219 119.753906 545.332031 119.136719 546.640625 C 118.753906 547.367188 118.445312 548.125 118.210938 548.910156 C 117.976562 549.699219 117.820312 550.5 117.746094 551.316406 C 117.671875 552.136719 117.675781 552.953125 117.765625 553.769531 C 117.851562 554.585938 118.015625 555.382812 118.261719 556.167969 C 118.507812 556.953125 118.828125 557.703125 119.222656 558.421875 C 119.617188 559.144531 120.078125 559.816406 120.605469 560.445312 C 121.132812 561.074219 121.71875 561.644531 122.359375 562.160156 C 123 562.671875 123.6875 563.117188 124.414062 563.492188 C 125.148438 563.878906 125.910156 564.191406 126.703125 564.425781 C 127.496094 564.660156 128.304688 564.816406 129.128906 564.894531 C 129.953125 564.96875 130.777344 564.964844 131.597656 564.878906 C 132.421875 564.792969 133.230469 564.628906 134.019531 564.382812 C 134.808594 564.136719 135.570312 563.816406 136.296875 563.421875 C 137.023438 563.027344 137.707031 562.566406 138.339844 562.039062 C 138.976562 561.507812 139.554688 560.921875 140.078125 560.28125 C 140.597656 559.636719 141.050781 558.949219 141.4375 558.214844 C 142.070312 556.925781 142.46875 555.5625 142.628906 554.132812 L 142.628906 551.066406 L 143.140625 527.75 Z M 124.074219 541.367188 " fill-opacity="1" fill-rule="nonzero"/><path fill="#3571aa" d="M 363.445312 453.160156 L 359.144531 456.324219 L 359.019531 456.324219 C 357.148438 458.035156 355.628906 460.015625 354.464844 462.269531 C 354.125 462.925781 353.816406 463.59375 353.539062 464.28125 C 353.261719 464.964844 353.019531 465.660156 352.8125 466.371094 C 352.605469 467.078125 352.433594 467.796875 352.296875 468.523438 C 352.160156 469.246094 352.058594 469.976562 351.992188 470.714844 C 351.925781 471.449219 351.898438 472.1875 351.90625 472.925781 C 351.914062 473.664062 351.957031 474.398438 352.035156 475.132812 C 352.113281 475.867188 352.230469 476.597656 352.382812 477.320312 C 352.53125 478.042969 352.71875 478.753906 352.941406 479.460938 C 353.160156 480.164062 353.417969 480.855469 353.707031 481.535156 C 353.996094 482.214844 354.316406 482.878906 354.671875 483.527344 C 355.023438 484.175781 355.410156 484.804688 355.828125 485.414062 C 356.242188 486.023438 356.6875 486.613281 357.160156 487.179688 C 357.636719 487.746094 358.136719 488.285156 358.664062 488.804688 C 359.191406 489.320312 359.742188 489.8125 360.316406 490.273438 C 360.894531 490.738281 361.488281 491.171875 362.109375 491.574219 C 362.726562 491.980469 363.363281 492.351562 364.015625 492.695312 C 364.671875 493.035156 365.339844 493.34375 366.027344 493.621094 C 366.710938 493.898438 367.40625 494.136719 368.117188 494.347656 C 368.824219 494.554688 369.542969 494.726562 370.269531 494.863281 C 370.992188 495 371.722656 495.101562 372.460938 495.167969 C 373.195312 495.230469 373.933594 495.261719 374.671875 495.253906 C 375.410156 495.246094 376.144531 495.203125 376.878906 495.125 C 377.613281 495.042969 378.34375 494.929688 379.066406 494.777344 C 379.789062 494.628906 380.503906 494.441406 381.207031 494.21875 C 381.910156 494 382.601562 493.742188 383.28125 493.453125 C 383.960938 493.164062 384.625 492.84375 385.273438 492.488281 C 385.921875 492.132812 386.550781 491.75 387.160156 491.332031 C 387.769531 490.917969 388.359375 490.472656 388.925781 489.996094 C 389.492188 489.523438 390.035156 489.023438 390.550781 488.496094 C 391.066406 487.96875 391.558594 487.417969 392.019531 486.84375 C 392.484375 486.265625 392.917969 485.671875 393.320312 485.050781 C 393.726562 484.433594 394.097656 483.796875 394.441406 483.144531 C 395.703125 480.898438 396.460938 478.496094 396.71875 475.933594 L 396.84375 475.933594 L 396.84375 470.492188 L 397.601562 428.242188 Z M 363.445312 453.160156 " fill-opacity="1" fill-rule="nonzero"/><path fill="#3571aa" d="M 265.660156 585.230469 L 263.128906 587.003906 C 261.992188 588.015625 261.0625 589.199219 260.347656 590.542969 C 260.03125 591.3125 259.785156 592.101562 259.617188 592.910156 C 259.445312 593.722656 259.351562 594.542969 259.332031 595.371094 C 259.316406 596.203125 259.375 597.023438 259.507812 597.84375 C 259.644531 598.660156 259.851562 599.460938 260.136719 600.238281 C 260.417969 601.019531 260.769531 601.765625 261.191406 602.480469 C 261.613281 603.195312 262.097656 603.863281 262.640625 604.488281 C 263.1875 605.113281 263.785156 605.679688 264.4375 606.195312 C 265.089844 606.707031 265.78125 607.15625 266.515625 607.542969 C 267.25 607.925781 268.015625 608.242188 268.804688 608.484375 C 269.597656 608.726562 270.40625 608.894531 271.230469 608.988281 C 272.054688 609.082031 272.878906 609.097656 273.707031 609.039062 C 274.535156 608.980469 275.347656 608.84375 276.152344 608.632812 C 276.953125 608.421875 277.730469 608.140625 278.476562 607.785156 C 279.226562 607.429688 279.9375 607.007812 280.609375 606.523438 C 281.28125 606.035156 281.902344 605.492188 282.472656 604.890625 C 283.042969 604.289062 283.550781 603.640625 284.003906 602.941406 C 284.699219 601.582031 285.164062 600.148438 285.394531 598.640625 L 285.394531 595.351562 L 285.773438 570.429688 Z M 265.660156 585.230469 " fill-opacity="1" fill-rule="nonzero"/><path fill="#3571aa" d="M 393.933594 564.992188 L 391.40625 566.761719 L 391.277344 566.761719 C 390.21875 567.8125 389.335938 568.992188 388.621094 570.304688 C 388.21875 571.082031 387.894531 571.890625 387.648438 572.730469 C 387.40625 573.570312 387.246094 574.425781 387.171875 575.296875 C 387.097656 576.171875 387.105469 577.042969 387.203125 577.910156 C 387.300781 578.78125 387.480469 579.632812 387.742188 580.46875 C 388.007812 581.300781 388.351562 582.101562 388.773438 582.871094 C 389.195312 583.636719 389.6875 584.355469 390.25 585.023438 C 390.8125 585.695312 391.4375 586.300781 392.121094 586.847656 C 392.804688 587.394531 393.535156 587.871094 394.3125 588.273438 C 395.089844 588.675781 395.898438 589 396.738281 589.242188 C 397.578125 589.488281 398.433594 589.648438 399.304688 589.722656 C 400.179688 589.796875 401.050781 589.785156 401.917969 589.6875 C 402.789062 589.59375 403.640625 589.410156 404.476562 589.148438 C 405.308594 588.882812 406.109375 588.539062 406.875 588.117188 C 407.644531 587.695312 408.359375 587.199219 409.03125 586.636719 C 409.699219 586.074219 410.308594 585.449219 410.855469 584.765625 C 411.402344 584.082031 411.875 583.351562 412.277344 582.574219 C 412.988281 581.265625 413.453125 579.875 413.667969 578.402344 L 413.667969 575.113281 L 414.175781 550.191406 Z M 393.933594 564.992188 " fill-opacity="1" fill-rule="nonzero"/><path fill="#3571aa" d="M 586.347656 453.542969 L 583.691406 455.4375 C 582.589844 456.503906 581.703125 457.726562 581.035156 459.109375 C 580.628906 459.882812 580.308594 460.691406 580.0625 461.53125 C 579.820312 462.375 579.660156 463.230469 579.585938 464.101562 C 579.511719 464.972656 579.523438 465.84375 579.617188 466.710938 C 579.714844 467.582031 579.894531 468.433594 580.160156 469.269531 C 580.425781 470.101562 580.765625 470.902344 581.1875 471.667969 C 581.609375 472.433594 582.105469 473.152344 582.667969 473.824219 C 583.230469 474.492188 583.855469 475.101562 584.535156 475.648438 C 585.21875 476.195312 585.949219 476.667969 586.726562 477.070312 C 587.503906 477.472656 588.3125 477.796875 589.152344 478.039062 C 589.992188 478.285156 590.847656 478.445312 591.71875 478.519531 C 592.589844 478.59375 593.460938 478.582031 594.332031 478.484375 C 595.203125 478.390625 596.054688 478.210938 596.886719 477.945312 C 597.722656 477.679688 598.519531 477.335938 599.289062 476.914062 C 600.054688 476.492188 600.773438 476 601.441406 475.4375 C 602.109375 474.875 602.71875 474.25 603.265625 473.566406 C 603.8125 472.886719 604.285156 472.15625 604.691406 471.378906 C 605.34375 470.007812 605.808594 468.574219 606.082031 467.078125 L 606.082031 463.914062 L 606.585938 438.867188 Z M 586.347656 453.542969 " fill-opacity="1" fill-rule="nonzero"/><path fill="#3571aa" d="M 187.984375 433.300781 L 185.457031 435.199219 C 184.347656 436.210938 183.460938 437.390625 182.800781 438.742188 C 182.546875 439.128906 182.316406 439.53125 182.105469 439.945312 C 181.894531 440.363281 181.707031 440.785156 181.539062 441.21875 C 181.375 441.652344 181.230469 442.09375 181.109375 442.542969 C 180.992188 442.992188 180.894531 443.445312 180.820312 443.90625 C 180.746094 444.363281 180.699219 444.824219 180.671875 445.289062 C 180.648438 445.753906 180.644531 446.21875 180.667969 446.679688 C 180.691406 447.144531 180.738281 447.605469 180.808594 448.066406 C 180.882812 448.527344 180.976562 448.980469 181.09375 449.429688 C 181.210938 449.878906 181.351562 450.320312 181.515625 450.753906 C 181.679688 451.191406 181.867188 451.613281 182.078125 452.03125 C 182.285156 452.445312 182.515625 452.847656 182.765625 453.242188 C 183.015625 453.632812 183.285156 454.007812 183.574219 454.371094 C 183.863281 454.734375 184.171875 455.082031 184.496094 455.414062 C 184.820312 455.746094 185.164062 456.058594 185.523438 456.355469 C 185.878906 456.652344 186.253906 456.929688 186.640625 457.1875 C 187.027344 457.441406 187.425781 457.679688 187.835938 457.894531 C 188.25 458.109375 188.671875 458.304688 189.101562 458.476562 C 189.535156 458.648438 189.972656 458.796875 190.421875 458.921875 C 190.867188 459.050781 191.320312 459.152344 191.777344 459.230469 C 192.238281 459.3125 192.699219 459.367188 193.160156 459.398438 C 193.625 459.429688 194.089844 459.433594 194.554688 459.417969 C 195.015625 459.402344 195.480469 459.359375 195.9375 459.296875 C 196.398438 459.230469 196.855469 459.140625 197.304688 459.027344 C 197.757812 458.917969 198.199219 458.78125 198.636719 458.621094 C 199.074219 458.464844 199.5 458.285156 199.917969 458.082031 C 200.335938 457.878906 200.742188 457.652344 201.136719 457.410156 C 201.53125 457.164062 201.914062 456.898438 202.28125 456.613281 C 202.648438 456.328125 203 456.027344 203.335938 455.703125 C 203.671875 455.382812 203.988281 455.046875 204.289062 454.691406 C 204.589844 454.335938 204.871094 453.96875 205.132812 453.582031 C 205.394531 453.199219 205.636719 452.804688 205.859375 452.394531 C 206.078125 451.984375 206.277344 451.566406 206.457031 451.136719 C 207.128906 449.777344 207.550781 448.34375 207.722656 446.835938 L 207.847656 446.835938 L 207.847656 443.675781 L 208.226562 418.625 Z M 187.984375 433.300781 " fill-opacity="1" fill-rule="nonzero"/><g clip-path="url(#83c9de81f6)"><path fill="#6c88b5" d="M 394.695312 176.625 L 395.957031 176.625 C 394.375 171.214844 393.570312 165.691406 393.554688 160.050781 C 393.5625 157.402344 393.753906 154.769531 394.132812 152.148438 C 394.511719 149.527344 395.074219 146.945312 395.820312 144.40625 C 396.5625 141.863281 397.484375 139.386719 398.578125 136.976562 C 399.671875 134.5625 400.933594 132.242188 402.355469 130.007812 C 403.777344 127.777344 405.351562 125.652344 407.074219 123.644531 C 408.796875 121.632812 410.65625 119.753906 412.644531 118.003906 C 414.632812 116.257812 416.734375 114.65625 418.949219 113.207031 C 421.167969 111.753906 423.472656 110.46875 425.871094 109.34375 C 428.269531 108.21875 430.734375 107.265625 433.265625 106.492188 C 435.796875 105.714844 438.371094 105.121094 440.988281 104.710938 C 443.601562 104.296875 446.234375 104.070312 448.882812 104.03125 C 451.53125 103.992188 454.167969 104.140625 456.796875 104.472656 C 459.421875 104.808594 462.011719 105.324219 464.566406 106.023438 C 467.121094 106.722656 469.613281 107.601562 472.042969 108.652344 C 474.472656 109.703125 476.816406 110.921875 479.074219 112.308594 C 481.332031 113.691406 483.484375 115.226562 485.523438 116.914062 C 485.804688 115.789062 486.113281 114.671875 486.445312 113.5625 C 486.78125 112.453125 487.140625 111.351562 487.527344 110.261719 C 487.914062 109.167969 488.324219 108.085938 488.765625 107.015625 C 489.203125 105.941406 489.667969 104.878906 490.15625 103.828125 C 490.644531 102.777344 491.160156 101.742188 491.699219 100.714844 C 492.238281 99.691406 492.800781 98.675781 493.390625 97.679688 C 493.976562 96.679688 494.585938 95.695312 495.222656 94.726562 C 495.855469 93.757812 496.515625 92.804688 497.195312 91.863281 C 497.875 90.925781 498.578125 90.007812 499.300781 89.101562 C 500.027344 88.195312 500.773438 87.3125 501.539062 86.441406 C 502.304688 85.574219 503.09375 84.722656 503.902344 83.890625 C 504.707031 83.0625 505.535156 82.25 506.382812 81.457031 C 507.226562 80.667969 508.09375 79.898438 508.976562 79.148438 C 509.859375 78.398438 510.761719 77.667969 511.679688 76.960938 C 512.597656 76.253906 513.53125 75.570312 514.480469 74.90625 C 515.433594 74.246094 516.398438 73.605469 517.378906 72.992188 C 518.363281 72.375 519.355469 71.78125 520.367188 71.214844 C 521.378906 70.644531 522.398438 70.101562 523.4375 69.582031 C 524.472656 69.0625 525.519531 68.570312 526.578125 68.101562 C 527.636719 67.632812 528.707031 67.1875 529.789062 66.769531 C 530.871094 66.351562 531.960938 65.960938 533.058594 65.59375 C 534.160156 65.230469 535.265625 64.890625 536.382812 64.578125 C 537.5 64.265625 538.621094 63.980469 539.75 63.71875 C 540.878906 63.460938 542.015625 63.230469 543.15625 63.023438 C 544.296875 62.820312 545.441406 62.644531 546.589844 62.492188 C 547.738281 62.34375 548.890625 62.222656 550.046875 62.125 C 551.199219 62.03125 552.355469 61.964844 553.515625 61.925781 C 554.671875 61.886719 555.832031 61.875 556.992188 61.890625 C 558.148438 61.90625 559.304688 61.953125 560.464844 62.023438 C 561.621094 62.09375 562.773438 62.195312 563.925781 62.320312 C 565.078125 62.449219 566.226562 62.601562 567.371094 62.785156 C 568.515625 62.964844 569.652344 63.175781 570.789062 63.410156 C 571.921875 63.648438 573.050781 63.910156 574.171875 64.199219 C 575.292969 64.492188 576.410156 64.808594 577.515625 65.152344 C 578.621094 65.496094 579.71875 65.867188 580.808594 66.261719 C 581.898438 66.660156 582.976562 67.082031 584.042969 67.527344 C 585.113281 67.976562 586.171875 68.449219 587.214844 68.949219 C 588.261719 69.445312 589.296875 69.96875 590.316406 70.519531 C 591.335938 71.066406 592.34375 71.636719 593.339844 72.234375 C 594.332031 72.832031 595.3125 73.449219 596.273438 74.09375 C 597.238281 74.734375 598.1875 75.402344 599.117188 76.089844 C 600.050781 76.777344 600.964844 77.488281 601.863281 78.222656 C 602.761719 78.953125 603.640625 79.707031 604.503906 80.480469 C 605.367188 81.257812 606.207031 82.050781 607.03125 82.867188 C 607.855469 83.679688 608.660156 84.515625 609.445312 85.367188 C 610.230469 86.21875 610.992188 87.09375 611.734375 87.980469 C 612.476562 88.871094 613.195312 89.777344 613.894531 90.703125 C 614.59375 91.628906 615.269531 92.566406 615.925781 93.523438 C 616.578125 94.480469 617.210938 95.453125 617.816406 96.441406 C 618.425781 97.425781 619.007812 98.425781 619.566406 99.441406 C 620.125 100.457031 620.660156 101.484375 621.171875 102.523438 C 621.679688 103.566406 622.167969 104.617188 622.625 105.679688 C 623.085938 106.746094 623.519531 107.820312 623.929688 108.902344 C 624.335938 109.988281 624.71875 111.082031 625.074219 112.183594 C 625.429688 113.285156 625.761719 114.398438 626.0625 115.515625 C 626.367188 116.632812 626.644531 117.757812 626.890625 118.890625 C 627.140625 120.023438 627.363281 121.160156 627.558594 122.300781 C 627.753906 123.445312 627.917969 124.589844 628.058594 125.738281 C 628.199219 126.890625 628.3125 128.042969 628.394531 129.199219 C 628.480469 130.355469 628.535156 131.511719 628.566406 132.671875 C 628.59375 133.828125 628.597656 134.988281 628.570312 136.144531 C 628.542969 137.304688 628.488281 138.460938 628.40625 139.617188 C 628.328125 140.773438 628.21875 141.925781 628.082031 143.078125 C 627.945312 144.226562 627.777344 145.375 627.585938 146.515625 C 630.601562 146.007812 633.636719 145.753906 636.695312 145.757812 C 638.355469 145.765625 640.011719 145.839844 641.664062 145.980469 C 643.316406 146.125 644.960938 146.335938 646.597656 146.613281 C 648.234375 146.890625 649.855469 147.234375 651.464844 147.644531 C 653.070312 148.054688 654.660156 148.53125 656.226562 149.074219 C 657.796875 149.617188 659.339844 150.21875 660.859375 150.890625 C 662.378906 151.558594 663.867188 152.285156 665.324219 153.078125 C 666.785156 153.867188 668.207031 154.71875 669.597656 155.625 C 670.988281 156.53125 672.335938 157.496094 673.644531 158.515625 C 674.957031 159.53125 676.222656 160.601562 677.445312 161.726562 C 678.667969 162.847656 679.839844 164.019531 680.964844 165.238281 C 682.09375 166.457031 683.167969 167.71875 684.1875 169.027344 C 685.210938 170.332031 686.175781 171.679688 687.089844 173.066406 C 688 174.453125 688.855469 175.875 689.648438 177.332031 C 690.441406 178.789062 691.175781 180.277344 691.847656 181.792969 C 692.523438 183.308594 693.132812 184.851562 693.675781 186.417969 C 694.222656 187.984375 694.703125 189.574219 695.117188 191.179688 C 695.535156 192.785156 695.882812 194.40625 696.164062 196.042969 C 696.449219 197.675781 696.664062 199.320312 696.808594 200.972656 C 696.957031 202.625 697.035156 204.28125 697.046875 205.941406 C 697.058594 207.601562 697.003906 209.257812 696.878906 210.914062 C 696.753906 212.566406 696.558594 214.214844 696.300781 215.851562 C 696.039062 217.492188 695.710938 219.117188 695.320312 220.730469 C 694.925781 222.339844 694.464844 223.933594 693.941406 225.507812 C 693.417969 227.082031 692.828125 228.632812 692.175781 230.160156 C 691.523438 231.683594 690.8125 233.183594 690.035156 234.648438 C 689.261719 236.117188 688.429688 237.550781 687.535156 238.949219 C 686.640625 240.347656 685.695312 241.707031 684.691406 243.027344 C 683.683594 244.347656 682.628906 245.625 681.519531 246.859375 C 680.410156 248.09375 679.25 249.28125 678.046875 250.421875 C 676.839844 251.558594 675.585938 252.648438 674.289062 253.683594 C 672.996094 254.71875 671.660156 255.699219 670.28125 256.625 C 668.90625 257.554688 667.492188 258.421875 666.042969 259.230469 C 662.335938 261.707031 658.351562 263.59375 654.085938 264.886719 C 649.816406 266.179688 645.453125 266.824219 640.996094 266.820312 L 394.695312 266.820312 C 393.214844 266.816406 391.742188 266.742188 390.269531 266.59375 C 388.800781 266.445312 387.339844 266.222656 385.890625 265.933594 C 384.441406 265.640625 383.011719 265.28125 381.597656 264.847656 C 380.183594 264.417969 378.796875 263.917969 377.429688 263.351562 C 376.066406 262.78125 374.730469 262.148438 373.429688 261.453125 C 372.125 260.753906 370.859375 259.992188 369.632812 259.171875 C 368.40625 258.351562 367.21875 257.46875 366.078125 256.53125 C 364.933594 255.59375 363.839844 254.601562 362.796875 253.558594 C 361.75 252.511719 360.757812 251.417969 359.820312 250.277344 C 358.882812 249.132812 358.003906 247.949219 357.179688 246.71875 C 356.359375 245.492188 355.601562 244.226562 354.902344 242.925781 C 354.203125 241.621094 353.570312 240.289062 353.003906 238.921875 C 352.4375 237.558594 351.9375 236.167969 351.503906 234.753906 C 351.074219 233.34375 350.710938 231.910156 350.421875 230.460938 C 350.128906 229.011719 349.910156 227.554688 349.761719 226.082031 C 349.613281 224.613281 349.535156 223.136719 349.53125 221.660156 C 349.535156 220.183594 349.613281 218.710938 349.761719 217.242188 C 349.910156 215.773438 350.128906 214.316406 350.421875 212.867188 C 350.710938 211.417969 351.074219 209.988281 351.507812 208.578125 C 351.9375 207.167969 352.4375 205.777344 353.003906 204.414062 C 353.574219 203.054688 354.207031 201.722656 354.90625 200.421875 C 355.605469 199.121094 356.363281 197.855469 357.1875 196.628906 C 358.007812 195.402344 358.890625 194.222656 359.828125 193.082031 C 360.765625 191.941406 361.757812 190.851562 362.804688 189.808594 C 363.847656 188.765625 364.945312 187.777344 366.085938 186.839844 C 367.226562 185.90625 368.414062 185.027344 369.640625 184.210938 C 370.871094 183.390625 372.136719 182.632812 373.4375 181.9375 C 374.742188 181.242188 376.074219 180.613281 377.441406 180.050781 C 378.804688 179.484375 380.191406 178.988281 381.605469 178.5625 C 383.019531 178.132812 384.449219 177.777344 385.898438 177.488281 C 387.347656 177.203125 388.804688 176.984375 390.273438 176.839844 C 391.746094 176.695312 393.21875 176.625 394.695312 176.625 Z M 394.695312 176.625 " fill-opacity="1" fill-rule="nonzero"/></g><g clip-path="url(#eb61a4a4a1)"><path fill="#26477a" d="M 597.605469 259.992188 L 595.457031 259.992188 C 598.03125 251.753906 599.292969 243.320312 599.25 234.691406 C 599.25 232.660156 599.175781 230.636719 599.03125 228.613281 C 598.886719 226.589844 598.671875 224.574219 598.382812 222.566406 C 598.097656 220.558594 597.738281 218.566406 597.308594 216.582031 C 596.882812 214.601562 596.382812 212.636719 595.816406 210.6875 C 595.25 208.742188 594.613281 206.816406 593.910156 204.914062 C 593.207031 203.011719 592.4375 201.136719 591.601562 199.289062 C 590.765625 197.441406 589.863281 195.628906 588.902344 193.84375 C 587.9375 192.058594 586.910156 190.3125 585.820312 188.601562 C 584.734375 186.890625 583.585938 185.21875 582.378906 183.585938 C 581.175781 181.957031 579.910156 180.371094 578.59375 178.832031 C 577.273438 177.289062 575.902344 175.796875 574.480469 174.351562 C 573.054688 172.910156 571.582031 171.515625 570.0625 170.175781 C 568.539062 168.835938 566.96875 167.554688 565.359375 166.324219 C 563.746094 165.09375 562.089844 163.925781 560.394531 162.8125 C 558.699219 161.699219 556.964844 160.648438 555.195312 159.660156 C 553.425781 158.671875 551.621094 157.746094 549.785156 156.882812 C 547.949219 156.023438 546.085938 155.226562 544.195312 154.496094 C 542.300781 153.765625 540.386719 153.105469 538.445312 152.507812 C 536.507812 151.914062 534.550781 151.390625 532.574219 150.933594 C 530.597656 150.476562 528.609375 150.089844 526.605469 149.777344 C 524.601562 149.460938 522.589844 149.214844 520.570312 149.042969 C 518.550781 148.871094 516.523438 148.769531 514.496094 148.738281 C 512.46875 148.707031 510.441406 148.75 508.417969 148.863281 C 506.394531 148.976562 504.375 149.160156 502.363281 149.417969 C 500.351562 149.675781 498.351562 150 496.363281 150.398438 C 494.375 150.796875 492.402344 151.261719 490.445312 151.800781 C 488.492188 152.335938 486.558594 152.941406 484.644531 153.617188 C 482.730469 154.289062 480.84375 155.03125 478.984375 155.839844 C 477.125 156.644531 475.292969 157.519531 473.496094 158.453125 C 471.695312 159.390625 469.933594 160.390625 468.207031 161.453125 C 466.476562 162.511719 464.789062 163.632812 463.140625 164.816406 C 461.492188 165.996094 459.886719 167.234375 458.324219 168.527344 C 457.964844 166.867188 457.566406 165.214844 457.128906 163.570312 C 456.695312 161.925781 456.222656 160.292969 455.710938 158.671875 C 455.199219 157.050781 454.652344 155.441406 454.066406 153.84375 C 453.480469 152.25 452.859375 150.667969 452.203125 149.097656 C 451.546875 147.53125 450.855469 145.976562 450.125 144.441406 C 449.398438 142.90625 448.632812 141.386719 447.835938 139.882812 C 447.039062 138.382812 446.207031 136.902344 445.339844 135.4375 C 444.476562 133.972656 443.578125 132.53125 442.644531 131.109375 C 441.710938 129.6875 440.75 128.285156 439.753906 126.910156 C 438.757812 125.53125 437.730469 124.175781 436.671875 122.84375 C 435.613281 121.515625 434.523438 120.207031 433.40625 118.925781 C 432.289062 117.644531 431.144531 116.390625 429.96875 115.164062 C 428.792969 113.933594 427.589844 112.734375 426.359375 111.558594 C 425.128906 110.386719 423.871094 109.242188 422.589844 108.125 C 421.304688 107.011719 419.996094 105.925781 418.664062 104.867188 C 417.332031 103.8125 415.976562 102.789062 414.597656 101.792969 C 413.214844 100.800781 411.816406 99.839844 410.390625 98.910156 C 408.96875 97.980469 407.523438 97.082031 406.058594 96.21875 C 404.59375 95.355469 403.109375 94.527344 401.605469 93.730469 C 400.105469 92.9375 398.585938 92.175781 397.046875 91.449219 C 395.507812 90.722656 393.957031 90.035156 392.386719 89.378906 C 390.816406 88.726562 389.234375 88.105469 387.636719 87.523438 C 386.039062 86.941406 384.429688 86.398438 382.804688 85.890625 C 381.183594 85.382812 379.550781 84.910156 377.90625 84.476562 C 376.261719 84.042969 374.609375 83.648438 372.945312 83.289062 C 371.285156 82.933594 369.613281 82.613281 367.9375 82.332031 C 366.261719 82.050781 364.578125 81.808594 362.890625 81.605469 C 361.203125 81.398438 359.511719 81.234375 357.816406 81.109375 C 356.121094 80.980469 354.421875 80.894531 352.722656 80.84375 C 351.023438 80.796875 349.324219 80.785156 347.621094 80.816406 C 345.921875 80.84375 344.222656 80.914062 342.527344 81.019531 C 340.832031 81.128906 339.136719 81.273438 337.445312 81.457031 C 335.757812 81.640625 334.070312 81.867188 332.390625 82.128906 C 330.710938 82.390625 329.039062 82.6875 327.371094 83.027344 C 325.707031 83.367188 324.046875 83.742188 322.398438 84.15625 C 320.75 84.570312 319.109375 85.023438 317.484375 85.511719 C 315.855469 86.003906 314.238281 86.527344 312.632812 87.09375 C 311.03125 87.65625 309.441406 88.253906 307.863281 88.890625 C 306.285156 89.527344 304.726562 90.199219 303.179688 90.910156 C 301.632812 91.617188 300.105469 92.359375 298.59375 93.136719 C 297.082031 93.914062 295.585938 94.726562 294.113281 95.574219 C 292.636719 96.421875 291.183594 97.300781 289.75 98.214844 C 288.316406 99.125 286.902344 100.070312 285.511719 101.050781 C 284.121094 102.027344 282.753906 103.035156 281.40625 104.078125 C 280.0625 105.117188 278.742188 106.1875 277.445312 107.289062 C 276.152344 108.390625 274.882812 109.519531 273.636719 110.679688 C 272.394531 111.839844 271.175781 113.027344 269.988281 114.242188 C 268.796875 115.457031 267.636719 116.695312 266.503906 117.964844 C 265.371094 119.234375 264.269531 120.527344 263.195312 121.84375 C 262.121094 123.164062 261.078125 124.507812 260.066406 125.871094 C 259.054688 127.238281 258.074219 128.628906 257.125 130.039062 C 256.179688 131.449219 255.261719 132.882812 254.378906 134.335938 C 253.5 135.789062 252.648438 137.261719 251.835938 138.753906 C 251.019531 140.246094 250.238281 141.757812 249.492188 143.285156 C 248.746094 144.8125 248.035156 146.355469 247.359375 147.917969 C 246.6875 149.476562 246.046875 151.050781 245.445312 152.640625 C 244.839844 154.230469 244.273438 155.835938 243.746094 157.449219 C 243.214844 159.066406 242.722656 160.691406 242.269531 162.332031 C 241.8125 163.96875 241.394531 165.617188 241.015625 167.273438 C 240.636719 168.933594 240.296875 170.597656 239.992188 172.269531 C 239.6875 173.945312 239.425781 175.621094 239.199219 177.308594 C 238.972656 178.992188 238.785156 180.683594 238.636719 182.375 C 238.484375 184.070312 238.375 185.765625 238.304688 187.464844 C 238.234375 189.164062 238.203125 190.863281 238.207031 192.5625 C 238.171875 199.714844 238.847656 206.800781 240.230469 213.816406 C 235.617188 213.15625 230.980469 212.816406 226.316406 212.804688 C 223.769531 212.808594 221.230469 212.921875 218.691406 213.132812 C 216.15625 213.347656 213.632812 213.667969 211.121094 214.089844 C 208.613281 214.511719 206.121094 215.035156 203.65625 215.664062 C 201.1875 216.289062 198.75 217.015625 196.34375 217.84375 C 193.933594 218.671875 191.566406 219.597656 189.234375 220.617188 C 186.902344 221.640625 184.617188 222.757812 182.378906 223.96875 C 180.136719 225.175781 177.953125 226.476562 175.820312 227.867188 C 173.6875 229.257812 171.613281 230.734375 169.601562 232.292969 C 167.589844 233.855469 165.648438 235.496094 163.769531 237.214844 C 161.894531 238.933594 160.089844 240.730469 158.363281 242.597656 C 156.632812 244.46875 154.984375 246.402344 153.414062 248.40625 C 151.84375 250.410156 150.359375 252.476562 148.960938 254.605469 C 147.558594 256.730469 146.25 258.910156 145.03125 261.144531 C 143.808594 263.378906 142.683594 265.660156 141.648438 267.984375 C 140.617188 270.3125 139.679688 272.679688 138.84375 275.082031 C 138.003906 277.484375 137.265625 279.921875 136.628906 282.386719 C 135.992188 284.847656 135.453125 287.335938 135.019531 289.84375 C 134.585938 292.351562 134.257812 294.875 134.03125 297.410156 C 133.804688 299.945312 133.683594 302.488281 133.667969 305.03125 C 133.648438 307.578125 133.738281 310.121094 133.929688 312.660156 C 134.121094 315.199219 134.417969 317.722656 134.816406 320.238281 C 135.214844 322.753906 135.71875 325.246094 136.324219 327.71875 C 136.929688 330.191406 137.632812 332.636719 138.441406 335.050781 C 139.246094 337.464844 140.148438 339.84375 141.152344 342.183594 C 142.152344 344.523438 143.246094 346.820312 144.4375 349.070312 C 145.628906 351.320312 146.910156 353.519531 148.28125 355.664062 C 149.652344 357.808594 151.109375 359.894531 152.648438 361.917969 C 154.191406 363.945312 155.816406 365.902344 157.519531 367.792969 C 159.222656 369.6875 161 371.503906 162.855469 373.25 C 164.707031 374.996094 166.628906 376.664062 168.621094 378.25 C 170.609375 379.835938 172.660156 381.339844 174.777344 382.757812 C 176.890625 384.175781 179.058594 385.507812 181.28125 386.746094 C 184.101562 388.636719 187.042969 390.304688 190.109375 391.757812 C 193.175781 393.210938 196.335938 394.429688 199.582031 395.417969 C 202.828125 396.402344 206.128906 397.144531 209.488281 397.640625 C 212.84375 398.140625 216.21875 398.386719 219.613281 398.386719 L 597.605469 398.386719 C 598.738281 398.382812 599.867188 398.355469 601 398.296875 C 602.128906 398.238281 603.257812 398.152344 604.382812 398.039062 C 605.511719 397.929688 606.632812 397.789062 607.753906 397.621094 C 608.871094 397.453125 609.988281 397.257812 611.097656 397.035156 C 612.207031 396.8125 613.308594 396.5625 614.40625 396.285156 C 615.503906 396.011719 616.597656 395.707031 617.679688 395.378906 C 618.761719 395.046875 619.835938 394.691406 620.902344 394.308594 C 621.964844 393.925781 623.023438 393.519531 624.066406 393.085938 C 625.113281 392.652344 626.144531 392.191406 627.167969 391.707031 C 628.191406 391.222656 629.203125 390.710938 630.199219 390.175781 C 631.199219 389.644531 632.183594 389.085938 633.152344 388.503906 C 634.125 387.921875 635.078125 387.3125 636.019531 386.683594 C 636.960938 386.054688 637.886719 385.402344 638.792969 384.730469 C 639.703125 384.054688 640.59375 383.359375 641.46875 382.640625 C 642.34375 381.921875 643.203125 381.183594 644.039062 380.421875 C 644.878906 379.660156 645.699219 378.882812 646.5 378.082031 C 647.300781 377.28125 648.078125 376.460938 648.839844 375.621094 C 649.601562 374.785156 650.339844 373.925781 651.058594 373.050781 C 651.777344 372.179688 652.472656 371.285156 653.148438 370.378906 C 653.820312 369.46875 654.472656 368.542969 655.101562 367.601562 C 655.730469 366.660156 656.339844 365.707031 656.921875 364.734375 C 657.503906 363.765625 658.0625 362.78125 658.59375 361.78125 C 659.128906 360.785156 659.640625 359.773438 660.125 358.75 C 660.609375 357.730469 661.066406 356.695312 661.503906 355.648438 C 661.9375 354.605469 662.34375 353.546875 662.726562 352.484375 C 663.109375 351.417969 663.464844 350.34375 663.796875 349.261719 C 664.125 348.179688 664.429688 347.089844 664.703125 345.992188 C 664.980469 344.894531 665.230469 343.789062 665.453125 342.679688 C 665.675781 341.570312 665.871094 340.453125 666.039062 339.335938 C 666.207031 338.214844 666.347656 337.09375 666.457031 335.964844 C 666.570312 334.839844 666.65625 333.710938 666.714844 332.582031 C 666.773438 331.449219 666.800781 330.320312 666.804688 329.1875 C 666.800781 328.058594 666.765625 326.925781 666.707031 325.796875 C 666.648438 324.667969 666.5625 323.539062 666.449219 322.414062 C 666.332031 321.289062 666.191406 320.164062 666.023438 319.046875 C 665.851562 317.929688 665.65625 316.816406 665.433594 315.707031 C 665.207031 314.597656 664.957031 313.492188 664.679688 312.398438 C 664.402344 311.300781 664.097656 310.210938 663.765625 309.128906 C 663.4375 308.046875 663.078125 306.972656 662.695312 305.910156 C 662.3125 304.84375 661.902344 303.789062 661.46875 302.746094 C 661.035156 301.703125 660.574219 300.667969 660.089844 299.648438 C 659.601562 298.625 659.09375 297.617188 658.558594 296.617188 C 658.023438 295.621094 657.464844 294.636719 656.882812 293.667969 C 656.300781 292.699219 655.695312 291.742188 655.0625 290.804688 C 654.433594 289.863281 653.78125 288.9375 653.109375 288.03125 C 652.433594 287.121094 651.738281 286.230469 651.019531 285.355469 C 650.300781 284.484375 649.5625 283.625 648.800781 282.789062 C 648.042969 281.949219 647.261719 281.132812 646.460938 280.332031 C 645.664062 279.53125 644.84375 278.75 644.003906 277.992188 C 643.167969 277.230469 642.3125 276.492188 641.4375 275.773438 C 640.5625 275.054688 639.671875 274.359375 638.761719 273.683594 C 637.855469 273.011719 636.929688 272.359375 635.992188 271.730469 C 635.050781 271.101562 634.09375 270.492188 633.125 269.910156 C 632.15625 269.328125 631.171875 268.769531 630.175781 268.234375 C 629.179688 267.699219 628.167969 267.191406 627.148438 266.707031 C 626.125 266.21875 625.089844 265.761719 624.046875 265.324219 C 623.003906 264.890625 621.949219 264.480469 620.882812 264.097656 C 619.820312 263.714844 618.746094 263.355469 617.664062 263.027344 C 616.582031 262.695312 615.492188 262.390625 614.398438 262.113281 C 613.300781 261.835938 612.195312 261.585938 611.089844 261.363281 C 609.980469 261.136719 608.863281 260.941406 607.746094 260.773438 C 606.628906 260.601562 605.507812 260.460938 604.378906 260.347656 C 603.253906 260.230469 602.128906 260.144531 600.996094 260.085938 C 599.867188 260.027344 598.738281 259.996094 597.605469 259.992188 Z M 597.605469 259.992188 " fill-opacity="1" fill-rule="nonzero"/></g><path fill="#ffb544" d="M 285.519531 351.199219 L 339.410156 351.199219 L 285.519531 423.179688 L 330.429688 423.179688 L 231.503906 540.195312 L 267.429688 450.125 L 231.503906 450.125 Z M 285.519531 351.199219 " fill-opacity="1" fill-rule="nonzero"/><g clip-path="url(#551f4b74b6)"><path fill="#ffb544" d="M 498.046875 422.042969 L 552.0625 422.042969 L 498.046875 494.023438 L 543.082031 494.023438 L 444.03125 611.039062 L 480.082031 521.09375 L 444.03125 521.09375 Z M 498.046875 422.042969 " fill-opacity="1" fill-rule="nonzero"/></g><g clip-path="url(#4126ae7a58)"><path fill="#b4e3fb" d="M 224.945312 479.160156 L 232.203125 483.328125 C 232.496094 483.5 232.75 483.71875 232.957031 483.988281 C 233.164062 484.253906 233.3125 484.554688 233.398438 484.882812 C 233.488281 485.210938 233.511719 485.542969 233.46875 485.878906 C 233.421875 486.214844 233.316406 486.53125 233.148438 486.828125 L 186.695312 567.648438 C 186.527344 567.945312 186.308594 568.195312 186.039062 568.402344 C 185.769531 568.609375 185.46875 568.757812 185.140625 568.847656 C 184.8125 568.933594 184.480469 568.957031 184.144531 568.914062 C 183.808594 568.871094 183.492188 568.761719 183.195312 568.59375 L 175.941406 564.425781 C 175.644531 564.253906 175.394531 564.035156 175.1875 563.765625 C 174.980469 563.496094 174.832031 563.199219 174.742188 562.871094 C 174.65625 562.542969 174.632812 562.210938 174.675781 561.875 C 174.71875 561.535156 174.828125 561.21875 174.996094 560.925781 L 221.449219 480.105469 C 221.617188 479.808594 221.835938 479.558594 222.105469 479.351562 C 222.375 479.144531 222.675781 478.996094 223.003906 478.90625 C 223.332031 478.816406 223.664062 478.796875 224 478.839844 C 224.335938 478.882812 224.652344 478.988281 224.945312 479.160156 Z M 224.945312 479.160156 " fill-opacity="1" fill-rule="nonzero"/></g><path fill="#3571aa" d="M 154.714844 649.550781 L 151.480469 651.933594 L 151.308594 651.933594 C 149.886719 653.347656 148.695312 654.9375 147.734375 656.699219 C 147.414062 657.269531 147.128906 657.855469 146.875 658.457031 C 146.621094 659.054688 146.398438 659.667969 146.210938 660.296875 C 146.023438 660.921875 145.875 661.554688 145.757812 662.195312 C 145.640625 662.839844 145.558594 663.484375 145.515625 664.136719 C 145.46875 664.789062 145.460938 665.4375 145.488281 666.089844 C 145.515625 666.742188 145.578125 667.390625 145.675781 668.035156 C 145.773438 668.683594 145.910156 669.320312 146.078125 669.949219 C 146.246094 670.578125 146.449219 671.199219 146.6875 671.808594 C 146.925781 672.414062 147.195312 673.007812 147.5 673.585938 C 147.804688 674.164062 148.136719 674.722656 148.503906 675.261719 C 148.867188 675.804688 149.261719 676.324219 149.683594 676.820312 C 150.105469 677.316406 150.554688 677.789062 151.03125 678.238281 C 151.503906 678.6875 152.003906 679.105469 152.523438 679.5 C 153.046875 679.890625 153.589844 680.253906 154.148438 680.585938 C 154.710938 680.917969 155.289062 681.21875 155.882812 681.488281 C 156.480469 681.757812 157.085938 681.992188 157.707031 682.195312 C 158.328125 682.394531 158.957031 682.5625 159.597656 682.695312 C 160.238281 682.828125 160.882812 682.921875 161.53125 682.984375 C 162.179688 683.042969 162.832031 683.070312 163.484375 683.058594 C 164.136719 683.046875 164.785156 683 165.433594 682.914062 C 166.082031 682.832031 166.722656 682.714844 167.355469 682.558594 C 167.992188 682.40625 168.613281 682.214844 169.226562 681.992188 C 169.839844 681.769531 170.441406 681.515625 171.027344 681.222656 C 171.609375 680.933594 172.175781 680.613281 172.726562 680.261719 C 173.277344 679.910156 173.804688 679.527344 174.3125 679.117188 C 174.820312 678.707031 175.304688 678.269531 175.761719 677.804688 C 176.222656 677.34375 176.652344 676.855469 177.058594 676.34375 C 177.460938 675.832031 177.839844 675.296875 178.183594 674.746094 C 178.53125 674.191406 178.84375 673.621094 179.128906 673.03125 C 179.410156 672.445312 179.660156 671.84375 179.875 671.226562 C 180.09375 670.609375 180.273438 669.984375 180.421875 669.347656 C 180.570312 668.714844 180.679688 668.070312 180.757812 667.421875 L 180.757812 663.167969 L 181.265625 630.148438 Z M 154.714844 649.550781 " fill-opacity="1" fill-rule="nonzero"/><g clip-path="url(#563ebafd01)"><path fill="#b4e3fb" d="M 381.277344 509.410156 L 388.535156 513.578125 C 388.828125 513.75 389.082031 513.96875 389.289062 514.238281 C 389.496094 514.503906 389.644531 514.804688 389.730469 515.132812 C 389.820312 515.460938 389.84375 515.792969 389.800781 516.128906 C 389.757812 516.464844 389.648438 516.78125 389.480469 517.078125 L 343.027344 597.898438 C 342.859375 598.195312 342.640625 598.445312 342.371094 598.652344 C 342.101562 598.859375 341.800781 599.007812 341.472656 599.097656 C 341.144531 599.183594 340.8125 599.207031 340.476562 599.164062 C 340.140625 599.121094 339.824219 599.011719 339.53125 598.84375 L 332.273438 594.675781 C 331.976562 594.503906 331.726562 594.285156 331.519531 594.015625 C 331.3125 593.746094 331.164062 593.449219 331.078125 593.121094 C 330.988281 592.792969 330.964844 592.460938 331.007812 592.125 C 331.050781 591.785156 331.160156 591.472656 331.328125 591.175781 L 377.78125 510.355469 C 377.949219 510.058594 378.167969 509.808594 378.4375 509.601562 C 378.707031 509.394531 379.007812 509.246094 379.335938 509.15625 C 379.664062 509.070312 379.996094 509.046875 380.332031 509.089844 C 380.667969 509.132812 380.984375 509.238281 381.277344 509.410156 Z M 381.277344 509.410156 " fill-opacity="1" fill-rule="nonzero"/></g><g clip-path="url(#61e5b4b18d)"><path fill="#b4e3fb" d="M 571.132812 509.410156 L 578.390625 513.578125 C 578.683594 513.75 578.933594 513.96875 579.140625 514.238281 C 579.347656 514.503906 579.496094 514.804688 579.585938 515.132812 C 579.675781 515.460938 579.695312 515.792969 579.652344 516.128906 C 579.609375 516.464844 579.503906 516.78125 579.332031 517.078125 L 532.878906 597.898438 C 532.710938 598.195312 532.492188 598.445312 532.222656 598.652344 C 531.953125 598.859375 531.65625 599.007812 531.328125 599.097656 C 531 599.183594 530.667969 599.207031 530.332031 599.164062 C 529.992188 599.121094 529.675781 599.011719 529.382812 598.84375 L 522.125 594.675781 C 521.832031 594.503906 521.582031 594.285156 521.375 594.015625 C 521.167969 593.746094 521.019531 593.449219 520.929688 593.121094 C 520.839844 592.792969 520.820312 592.460938 520.863281 592.125 C 520.90625 591.785156 521.011719 591.472656 521.183594 591.175781 L 567.632812 510.355469 C 567.804688 510.058594 568.023438 509.808594 568.292969 509.601562 C 568.5625 509.394531 568.859375 509.246094 569.1875 509.15625 C 569.515625 509.070312 569.847656 509.046875 570.183594 509.089844 C 570.523438 509.132812 570.835938 509.238281 571.132812 509.410156 Z M 571.132812 509.410156 " fill-opacity="1" fill-rule="nonzero"/></g><path fill="#6b99d2" d="M 405.925781 658.199219 L 403.542969 660.074219 C 402.457031 661.03125 401.605469 662.167969 400.988281 663.476562 C 400.605469 664.203125 400.296875 664.960938 400.0625 665.746094 C 399.828125 666.53125 399.671875 667.335938 399.597656 668.152344 C 399.523438 668.96875 399.527344 669.785156 399.613281 670.601562 C 399.699219 671.417969 399.867188 672.21875 400.113281 673.003906 C 400.359375 673.785156 400.675781 674.539062 401.070312 675.257812 C 401.464844 675.976562 401.925781 676.652344 402.457031 677.28125 C 402.984375 677.910156 403.566406 678.480469 404.210938 678.992188 C 404.851562 679.507812 405.535156 679.949219 406.265625 680.328125 C 406.996094 680.714844 407.757812 681.023438 408.554688 681.261719 C 409.347656 681.496094 410.15625 681.652344 410.980469 681.726562 C 411.804688 681.804688 412.625 681.800781 413.449219 681.714844 C 414.273438 681.628906 415.078125 681.460938 415.871094 681.21875 C 416.660156 680.972656 417.417969 680.652344 418.144531 680.257812 C 418.875 679.863281 419.554688 679.402344 420.191406 678.871094 C 420.828125 678.34375 421.40625 677.757812 421.925781 677.113281 C 422.449219 676.472656 422.902344 675.785156 423.285156 675.050781 C 423.921875 673.757812 424.316406 672.398438 424.476562 670.964844 L 424.476562 667.902344 L 424.988281 644.585938 Z M 405.925781 658.199219 " fill-opacity="1" fill-rule="nonzero"/><path fill="#3571aa" d="M 478.410156 649.550781 L 475.175781 651.933594 L 475.007812 651.933594 C 473.582031 653.347656 472.390625 654.9375 471.433594 656.699219 C 471.113281 657.269531 470.828125 657.855469 470.570312 658.457031 C 470.316406 659.054688 470.097656 659.667969 469.910156 660.296875 C 469.722656 660.921875 469.570312 661.554688 469.457031 662.195312 C 469.339844 662.839844 469.257812 663.484375 469.210938 664.136719 C 469.167969 664.789062 469.160156 665.4375 469.183594 666.089844 C 469.210938 666.742188 469.273438 667.390625 469.375 668.035156 C 469.472656 668.683594 469.605469 669.320312 469.777344 669.949219 C 469.945312 670.578125 470.148438 671.199219 470.386719 671.808594 C 470.625 672.414062 470.894531 673.007812 471.199219 673.585938 C 471.5 674.164062 471.835938 674.722656 472.199219 675.261719 C 472.566406 675.804688 472.960938 676.324219 473.382812 676.820312 C 473.804688 677.316406 474.253906 677.789062 474.730469 678.238281 C 475.203125 678.6875 475.703125 679.105469 476.222656 679.5 C 476.746094 679.890625 477.285156 680.253906 477.847656 680.585938 C 478.410156 680.917969 478.988281 681.21875 479.582031 681.488281 C 480.175781 681.757812 480.785156 681.992188 481.40625 682.195312 C 482.027344 682.394531 482.65625 682.5625 483.296875 682.695312 C 483.933594 682.828125 484.578125 682.921875 485.230469 682.984375 C 485.878906 683.042969 486.53125 683.070312 487.183594 683.058594 C 487.835938 683.046875 488.484375 683 489.132812 682.914062 C 489.78125 682.832031 490.421875 682.714844 491.054688 682.558594 C 491.6875 682.40625 492.3125 682.214844 492.925781 681.992188 C 493.539062 681.769531 494.136719 681.515625 494.722656 681.222656 C 495.308594 680.933594 495.875 680.613281 496.425781 680.261719 C 496.976562 679.910156 497.503906 679.527344 498.011719 679.117188 C 498.519531 678.707031 499 678.269531 499.460938 677.804688 C 499.917969 677.34375 500.351562 676.855469 500.757812 676.34375 C 501.160156 675.832031 501.535156 675.296875 501.882812 674.746094 C 502.226562 674.191406 502.542969 673.621094 502.824219 673.03125 C 503.109375 672.445312 503.359375 671.84375 503.574219 671.226562 C 503.792969 670.609375 503.972656 669.984375 504.121094 669.347656 C 504.265625 668.714844 504.378906 668.070312 504.453125 667.421875 L 504.453125 663.167969 L 504.964844 630.148438 Z M 478.410156 649.550781 " fill-opacity="1" fill-rule="nonzero"/><path fill="#3571aa" d="M 295.398438 661.707031 L 292.164062 664.089844 L 291.996094 664.089844 C 290.570312 665.503906 289.378906 667.09375 288.417969 668.855469 C 288.101562 669.425781 287.8125 670.007812 287.558594 670.609375 C 287.304688 671.210938 287.085938 671.824219 286.898438 672.449219 C 286.710938 673.074219 286.558594 673.707031 286.441406 674.351562 C 286.324219 674.992188 286.246094 675.640625 286.199219 676.289062 C 286.15625 676.941406 286.144531 677.59375 286.171875 678.246094 C 286.199219 678.898438 286.261719 679.546875 286.363281 680.191406 C 286.460938 680.835938 286.59375 681.472656 286.761719 682.105469 C 286.933594 682.734375 287.136719 683.355469 287.375 683.960938 C 287.613281 684.570312 287.882812 685.160156 288.1875 685.738281 C 288.488281 686.316406 288.824219 686.878906 289.1875 687.417969 C 289.554688 687.957031 289.949219 688.476562 290.371094 688.976562 C 290.792969 689.472656 291.242188 689.945312 291.714844 690.394531 C 292.191406 690.839844 292.6875 691.261719 293.210938 691.652344 C 293.730469 692.046875 294.273438 692.410156 294.835938 692.742188 C 295.398438 693.074219 295.976562 693.375 296.570312 693.644531 C 297.164062 693.914062 297.773438 694.148438 298.394531 694.347656 C 299.011719 694.550781 299.644531 694.71875 300.28125 694.847656 C 300.921875 694.980469 301.566406 695.078125 302.214844 695.136719 C 302.867188 695.199219 303.515625 695.222656 304.167969 695.210938 C 304.824219 695.199219 305.472656 695.152344 306.121094 695.070312 C 306.765625 694.988281 307.40625 694.867188 308.042969 694.714844 C 308.675781 694.558594 309.300781 694.371094 309.914062 694.148438 C 310.527344 693.925781 311.125 693.667969 311.710938 693.378906 C 312.296875 693.089844 312.863281 692.769531 313.414062 692.417969 C 313.960938 692.066406 314.492188 691.683594 314.996094 691.273438 C 315.503906 690.863281 315.988281 690.425781 316.449219 689.960938 C 316.90625 689.496094 317.339844 689.007812 317.742188 688.496094 C 318.148438 687.984375 318.523438 687.453125 318.871094 686.898438 C 319.214844 686.347656 319.53125 685.773438 319.8125 685.1875 C 320.097656 684.597656 320.347656 683.996094 320.5625 683.382812 C 320.777344 682.765625 320.960938 682.140625 321.109375 681.503906 C 321.253906 680.867188 321.367188 680.226562 321.441406 679.578125 L 321.441406 675.324219 L 321.953125 642.300781 Z M 295.398438 661.707031 " fill-opacity="1" fill-rule="nonzero"/></svg>