<svg xmlns="http://www.w3.org/2000/svg" xmlns:xlink="http://www.w3.org/1999/xlink" width="1024" zoomAndPan="magnify" viewBox="0 0 768 767.999994" height="1024" preserveAspectRatio="xMidYMid meet" version="1.0"><defs><clipPath id="d32055eb91"><path d="M 302.570312 74.242188 L 702.167969 74.242188 L 702.167969 312 L 302.570312 312 Z M 302.570312 74.242188 " clip-rule="nonzero"/></clipPath><clipPath id="306e3928d6"><path d="M 140.179688 124.21875 L 613.429688 124.21875 L 613.429688 406 L 140.179688 406 Z M 140.179688 124.21875 " clip-rule="nonzero"/></clipPath><clipPath id="21e794228e"><path d="M 350 429.726562 L 400 429.726562 L 400 490 L 350 490 Z M 350 429.726562 " clip-rule="nonzero"/></clipPath><clipPath id="b79b4dc999"><path d="M 156 498 L 207 498 L 207 571.476562 L 156 571.476562 Z M 156 498 " clip-rule="nonzero"/></clipPath><clipPath id="67cd3a7fa3"><path d="M 511 496 L 561 496 L 561 571.476562 L 511 571.476562 Z M 511 496 " clip-rule="nonzero"/></clipPath><clipPath id="53a223d4a1"><path d="M 427 582 L 460 582 L 460 629.367188 L 427 629.367188 Z M 427 582 " clip-rule="nonzero"/></clipPath></defs><g clip-path="url(#d32055eb91)"><path fill="#6c88b5" d="M 354.46875 208.175781 L 356.078125 208.175781 C 354.148438 202.007812 353.203125 195.691406 353.234375 189.230469 C 353.234375 186.1875 353.445312 183.160156 353.871094 180.148438 C 354.300781 177.136719 354.9375 174.167969 355.785156 171.246094 C 356.632812 168.324219 357.679688 165.476562 358.929688 162.703125 C 360.183594 159.929688 361.621094 157.257812 363.253906 154.6875 C 364.882812 152.117188 366.683594 149.675781 368.660156 147.363281 C 370.636719 145.046875 372.765625 142.886719 375.046875 140.875 C 377.328125 138.859375 379.742188 137.019531 382.285156 135.347656 C 384.828125 133.679688 387.476562 132.195312 390.230469 130.902344 C 392.984375 129.605469 395.8125 128.511719 398.722656 127.617188 C 401.628906 126.722656 404.585938 126.039062 407.59375 125.5625 C 410.597656 125.089844 413.621094 124.828125 416.664062 124.78125 C 419.707031 124.734375 422.738281 124.90625 425.753906 125.289062 C 428.773438 125.671875 431.75 126.265625 434.683594 127.070312 C 437.617188 127.875 440.480469 128.882812 443.273438 130.09375 C 446.0625 131.304688 448.757812 132.707031 451.347656 134.296875 C 453.941406 135.890625 456.410156 137.65625 458.75 139.597656 C 459.292969 137.109375 459.945312 134.648438 460.710938 132.21875 C 461.476562 129.785156 462.351562 127.394531 463.335938 125.046875 C 464.320312 122.695312 465.414062 120.394531 466.609375 118.144531 C 467.804688 115.894531 469.101562 113.703125 470.5 111.570312 C 471.894531 109.441406 473.386719 107.378906 474.972656 105.382812 C 476.558594 103.386719 478.234375 101.46875 479.996094 99.628906 C 481.757812 97.789062 483.601562 96.03125 485.523438 94.359375 C 487.449219 92.6875 489.445312 91.105469 491.511719 89.617188 C 493.578125 88.128906 495.710938 86.738281 497.90625 85.445312 C 500.105469 84.152344 502.355469 82.960938 504.660156 81.875 C 506.964844 80.785156 509.3125 79.808594 511.710938 78.9375 C 514.105469 78.066406 516.535156 77.304688 519 76.65625 C 521.464844 76.007812 523.953125 75.472656 526.464844 75.054688 C 528.980469 74.632812 531.507812 74.328125 534.046875 74.140625 C 536.589844 73.953125 539.136719 73.878906 541.683594 73.925781 C 544.230469 73.96875 546.773438 74.132812 549.304688 74.410156 C 551.839844 74.6875 554.355469 75.082031 556.851562 75.589844 C 559.347656 76.097656 561.816406 76.71875 564.257812 77.457031 C 566.695312 78.191406 569.097656 79.035156 571.460938 79.992188 C 573.824219 80.949219 576.136719 82.007812 578.402344 83.175781 C 580.667969 84.34375 582.875 85.613281 585.023438 86.984375 C 587.171875 88.355469 589.253906 89.820312 591.269531 91.378906 C 593.28125 92.941406 595.222656 94.59375 597.085938 96.332031 C 598.949219 98.070312 600.726562 99.890625 602.421875 101.792969 C 604.121094 103.695312 605.726562 105.671875 607.238281 107.71875 C 608.753906 109.769531 610.171875 111.882812 611.492188 114.0625 C 612.8125 116.242188 614.03125 118.476562 615.148438 120.769531 C 616.265625 123.0625 617.273438 125.398438 618.175781 127.78125 C 619.074219 130.164062 619.867188 132.585938 620.546875 135.042969 C 621.222656 137.5 621.789062 139.980469 622.242188 142.488281 C 622.695312 144.996094 623.03125 147.519531 623.25 150.058594 C 623.46875 152.597656 623.574219 155.140625 623.5625 157.691406 C 623.582031 163.042969 623.078125 168.347656 622.046875 173.601562 C 625.496094 173.0625 628.96875 172.8125 632.464844 172.84375 C 634.375 172.839844 636.285156 172.914062 638.1875 173.0625 C 640.09375 173.214844 641.988281 173.445312 643.875 173.753906 C 645.761719 174.0625 647.632812 174.445312 649.488281 174.910156 C 651.339844 175.371094 653.171875 175.910156 654.984375 176.523438 C 656.792969 177.136719 658.574219 177.824219 660.328125 178.585938 C 662.082031 179.347656 663.800781 180.179688 665.484375 181.082031 C 667.167969 181.984375 668.8125 182.957031 670.417969 183.996094 C 672.019531 185.035156 673.578125 186.136719 675.09375 187.304688 C 676.605469 188.472656 678.066406 189.699219 679.480469 190.988281 C 680.890625 192.277344 682.246094 193.621094 683.546875 195.023438 C 684.847656 196.421875 686.089844 197.875 687.269531 199.375 C 688.453125 200.878906 689.566406 202.425781 690.621094 204.023438 C 691.675781 205.617188 692.660156 207.253906 693.578125 208.929688 C 694.496094 210.605469 695.34375 212.316406 696.117188 214.0625 C 696.894531 215.808594 697.597656 217.585938 698.226562 219.390625 C 698.859375 221.195312 699.414062 223.019531 699.890625 224.871094 C 700.371094 226.722656 700.773438 228.589844 701.097656 230.472656 C 701.421875 232.355469 701.667969 234.25 701.835938 236.152344 C 702.007812 238.054688 702.097656 239.964844 702.105469 241.875 C 702.117188 243.785156 702.050781 245.695312 701.902344 247.597656 C 701.757812 249.503906 701.53125 251.402344 701.230469 253.289062 C 700.925781 255.175781 700.546875 257.046875 700.085938 258.902344 C 699.628906 260.757812 699.097656 262.589844 698.488281 264.402344 C 697.878906 266.214844 697.195312 267.996094 696.4375 269.753906 C 695.683594 271.507812 694.855469 273.226562 693.957031 274.914062 C 693.058594 276.601562 692.089844 278.25 691.054688 279.855469 C 690.023438 281.460938 688.921875 283.023438 687.757812 284.539062 C 686.597656 286.054688 685.371094 287.523438 684.085938 288.9375 C 682.804688 290.351562 681.460938 291.710938 680.066406 293.015625 C 678.667969 294.320312 677.21875 295.566406 675.71875 296.75 C 674.222656 297.933594 672.675781 299.054688 671.082031 300.113281 C 669.492188 301.171875 667.859375 302.160156 666.183594 303.082031 C 661.9375 305.925781 657.371094 308.089844 652.480469 309.574219 C 647.59375 311.058594 642.59375 311.800781 637.484375 311.796875 L 354.46875 311.796875 C 352.769531 311.792969 351.078125 311.707031 349.390625 311.539062 C 347.703125 311.371094 346.027344 311.117188 344.367188 310.785156 C 342.703125 310.453125 341.058594 310.039062 339.4375 309.542969 C 337.816406 309.050781 336.222656 308.476562 334.65625 307.828125 C 333.089844 307.175781 331.558594 306.453125 330.0625 305.652344 C 328.566406 304.851562 327.113281 303.976562 325.707031 303.035156 C 324.296875 302.09375 322.933594 301.082031 321.625 300.007812 C 320.3125 298.929688 319.058594 297.792969 317.859375 296.59375 C 316.660156 295.394531 315.523438 294.140625 314.445312 292.828125 C 313.371094 291.519531 312.359375 290.15625 311.417969 288.746094 C 310.472656 287.339844 309.601562 285.886719 308.800781 284.390625 C 308 282.894531 307.277344 281.363281 306.625 279.796875 C 305.976562 278.230469 305.402344 276.636719 304.910156 275.015625 C 304.414062 273.390625 304 271.75 303.667969 270.085938 C 303.335938 268.425781 303.082031 266.75 302.914062 265.0625 C 302.746094 263.375 302.660156 261.683594 302.65625 259.984375 C 302.660156 258.289062 302.746094 256.597656 302.914062 254.910156 C 303.082031 253.222656 303.335938 251.546875 303.667969 249.882812 C 304 248.222656 304.414062 246.578125 304.910156 244.957031 C 305.402344 243.332031 305.976562 241.738281 306.625 240.171875 C 307.277344 238.605469 308 237.074219 308.800781 235.582031 C 309.601562 234.085938 310.472656 232.632812 311.417969 231.222656 C 312.359375 229.8125 313.371094 228.453125 314.445312 227.144531 C 315.523438 225.832031 316.660156 224.578125 317.859375 223.378906 C 319.058594 222.179688 320.3125 221.039062 321.625 219.964844 C 322.933594 218.886719 324.296875 217.878906 325.707031 216.9375 C 327.113281 215.992188 328.566406 215.121094 330.0625 214.320312 C 331.558594 213.519531 333.089844 212.792969 334.65625 212.144531 C 336.222656 211.492188 337.816406 210.921875 339.4375 210.425781 C 341.058594 209.933594 342.703125 209.519531 344.367188 209.1875 C 346.027344 208.851562 347.703125 208.601562 349.390625 208.433594 C 351.078125 208.265625 352.769531 208.179688 354.46875 208.175781 Z M 354.46875 208.175781 " fill-opacity="1" fill-rule="nonzero"/></g><g clip-path="url(#306e3928d6)"><path fill="#26477a" d="M 551.839844 282.722656 L 549.933594 282.722656 C 552.214844 275.421875 553.335938 267.949219 553.296875 260.300781 C 553.296875 258.503906 553.234375 256.707031 553.109375 254.914062 C 552.984375 253.121094 552.792969 251.332031 552.542969 249.554688 C 552.289062 247.773438 551.976562 246.003906 551.597656 244.246094 C 551.21875 242.488281 550.78125 240.746094 550.28125 239.015625 C 549.777344 237.289062 549.21875 235.582031 548.597656 233.894531 C 547.976562 232.207031 547.292969 230.546875 546.554688 228.90625 C 545.816406 227.265625 545.019531 225.65625 544.167969 224.074219 C 543.3125 222.492188 542.40625 220.941406 541.441406 219.421875 C 540.480469 217.902344 539.464844 216.417969 538.394531 214.972656 C 537.328125 213.527344 536.210938 212.121094 535.042969 210.75 C 533.875 209.382812 532.660156 208.058594 531.398438 206.777344 C 530.136719 205.496094 528.832031 204.261719 527.484375 203.070312 C 526.136719 201.882812 524.746094 200.742188 523.316406 199.652344 C 521.886719 198.558594 520.421875 197.519531 518.917969 196.535156 C 517.414062 195.546875 515.878906 194.613281 514.308594 193.734375 C 512.742188 192.855469 511.144531 192.035156 509.515625 191.269531 C 507.890625 190.503906 506.238281 189.796875 504.558594 189.148438 C 502.882812 188.5 501.183594 187.914062 499.464844 187.382812 C 497.746094 186.855469 496.011719 186.390625 494.257812 185.984375 C 492.507812 185.578125 490.742188 185.234375 488.96875 184.953125 C 487.191406 184.671875 485.40625 184.457031 483.617188 184.300781 C 481.824219 184.148438 480.03125 184.058594 478.230469 184.027344 C 476.433594 184 474.636719 184.039062 472.84375 184.136719 C 471.046875 184.238281 469.257812 184.402344 467.472656 184.628906 C 465.6875 184.855469 463.914062 185.144531 462.152344 185.496094 C 460.390625 185.847656 458.640625 186.261719 456.90625 186.738281 C 455.171875 187.210938 453.457031 187.75 451.761719 188.347656 C 450.066406 188.941406 448.390625 189.597656 446.742188 190.316406 C 445.09375 191.03125 443.46875 191.804688 441.875 192.632812 C 440.28125 193.464844 438.714844 194.347656 437.183594 195.289062 C 435.652344 196.230469 434.15625 197.226562 432.691406 198.273438 C 431.230469 199.320312 429.808594 200.417969 428.421875 201.5625 C 428.105469 200.089844 427.75 198.625 427.363281 197.167969 C 426.976562 195.710938 426.558594 194.265625 426.105469 192.828125 C 425.652344 191.390625 425.167969 189.964844 424.648438 188.546875 C 424.128906 187.132812 423.578125 185.730469 422.996094 184.339844 C 422.414062 182.949219 421.800781 181.574219 421.15625 180.210938 C 420.507812 178.851562 419.832031 177.503906 419.125 176.171875 C 418.417969 174.84375 417.679688 173.527344 416.914062 172.230469 C 416.144531 170.933594 415.347656 169.65625 414.523438 168.394531 C 413.695312 167.132812 412.839844 165.894531 411.957031 164.671875 C 411.074219 163.449219 410.164062 162.25 409.226562 161.070312 C 408.289062 159.890625 407.324219 158.734375 406.332031 157.597656 C 405.339844 156.460938 404.324219 155.347656 403.28125 154.261719 C 402.242188 153.171875 401.171875 152.109375 400.082031 151.066406 C 398.992188 150.027344 397.878906 149.011719 396.738281 148.023438 C 395.601562 147.035156 394.441406 146.074219 393.261719 145.136719 C 392.078125 144.203125 390.878906 143.292969 389.65625 142.414062 C 388.429688 141.53125 387.1875 140.679688 385.925781 139.855469 C 384.664062 139.03125 383.382812 138.238281 382.085938 137.472656 C 380.785156 136.707031 379.46875 135.972656 378.136719 135.269531 C 376.804688 134.566406 375.457031 133.890625 374.09375 133.246094 C 372.730469 132.605469 371.355469 131.992188 369.964844 131.414062 C 368.570312 130.835938 367.167969 130.285156 365.75 129.769531 C 364.335938 129.257812 362.90625 128.773438 361.46875 128.324219 C 360.03125 127.875 358.582031 127.457031 357.125 127.074219 C 355.667969 126.691406 354.203125 126.339844 352.726562 126.023438 C 351.253906 125.707031 349.773438 125.425781 348.289062 125.175781 C 346.800781 124.925781 345.308594 124.714844 343.8125 124.53125 C 342.316406 124.351562 340.816406 124.207031 339.3125 124.09375 C 337.8125 123.984375 336.304688 123.90625 334.800781 123.863281 C 333.292969 123.820312 331.785156 123.8125 330.28125 123.839844 C 328.773438 123.867188 327.265625 123.929688 325.761719 124.023438 C 324.257812 124.121094 322.757812 124.25 321.257812 124.414062 C 319.761719 124.578125 318.265625 124.777344 316.777344 125.011719 C 315.289062 125.242188 313.804688 125.511719 312.328125 125.8125 C 310.851562 126.113281 309.382812 126.445312 307.921875 126.816406 C 306.460938 127.183594 305.007812 127.585938 303.566406 128.019531 C 302.121094 128.453125 300.6875 128.921875 299.265625 129.421875 C 297.847656 129.921875 296.4375 130.457031 295.039062 131.019531 C 293.640625 131.585938 292.257812 132.183594 290.886719 132.8125 C 289.519531 133.441406 288.164062 134.101562 286.824219 134.789062 C 285.484375 135.480469 284.160156 136.203125 282.855469 136.953125 C 281.546875 137.703125 280.257812 138.484375 278.988281 139.296875 C 277.71875 140.105469 276.464844 140.945312 275.234375 141.8125 C 274 142.679688 272.789062 143.574219 271.597656 144.5 C 270.40625 145.421875 269.238281 146.371094 268.089844 147.347656 C 266.941406 148.328125 265.816406 149.328125 264.714844 150.359375 C 263.613281 151.386719 262.535156 152.4375 261.480469 153.515625 C 260.429688 154.59375 259.398438 155.695312 258.398438 156.820312 C 257.394531 157.945312 256.417969 159.09375 255.464844 160.261719 C 254.515625 161.433594 253.59375 162.625 252.695312 163.835938 C 251.800781 165.046875 250.933594 166.28125 250.09375 167.53125 C 249.253906 168.785156 248.445312 170.054688 247.664062 171.34375 C 246.882812 172.632812 246.132812 173.9375 245.410156 175.261719 C 244.6875 176.585938 243.996094 177.925781 243.339844 179.28125 C 242.679688 180.636719 242.050781 182.003906 241.453125 183.386719 C 240.855469 184.773438 240.289062 186.167969 239.757812 187.578125 C 239.222656 188.988281 238.722656 190.410156 238.253906 191.84375 C 237.789062 193.277344 237.351562 194.71875 236.949219 196.171875 C 236.550781 197.625 236.179688 199.085938 235.847656 200.554688 C 235.511719 202.023438 235.210938 203.5 234.941406 204.984375 C 234.675781 206.46875 234.441406 207.957031 234.242188 209.449219 C 234.042969 210.945312 233.878906 212.441406 233.75 213.941406 C 233.621094 215.445312 233.523438 216.949219 233.460938 218.453125 C 233.402344 219.960938 233.375 221.46875 233.382812 222.972656 C 233.355469 229.3125 233.953125 235.589844 235.175781 241.804688 C 231.089844 241.167969 226.980469 240.871094 222.84375 240.910156 C 220.582031 240.902344 218.324219 240.988281 216.070312 241.167969 C 213.816406 241.347656 211.574219 241.621094 209.339844 241.984375 C 207.109375 242.347656 204.894531 242.804688 202.699219 243.351562 C 200.507812 243.902344 198.339844 244.539062 196.195312 245.265625 C 194.054688 245.992188 191.945312 246.804688 189.871094 247.703125 C 187.796875 248.605469 185.761719 249.589844 183.769531 250.660156 C 181.777344 251.726562 179.828125 252.875 177.929688 254.105469 C 176.03125 255.335938 174.1875 256.640625 172.398438 258.023438 C 170.605469 259.40625 168.875 260.859375 167.207031 262.382812 C 165.535156 263.90625 163.929688 265.496094 162.390625 267.15625 C 160.851562 268.8125 159.382812 270.53125 157.984375 272.308594 C 156.589844 274.085938 155.265625 275.917969 154.019531 277.808594 C 152.773438 279.695312 151.609375 281.628906 150.523438 283.613281 C 149.433594 285.597656 148.433594 287.625 147.515625 289.691406 C 146.59375 291.757812 145.761719 293.859375 145.015625 295.992188 C 144.273438 298.128906 143.617188 300.292969 143.046875 302.480469 C 142.480469 304.671875 142.007812 306.878906 141.621094 309.109375 C 141.238281 311.335938 140.945312 313.578125 140.746094 315.832031 C 140.546875 318.085938 140.441406 320.339844 140.425781 322.601562 C 140.414062 324.863281 140.496094 327.125 140.667969 329.378906 C 140.839844 331.632812 141.109375 333.878906 141.464844 336.109375 C 141.824219 338.34375 142.277344 340.558594 142.816406 342.753906 C 143.359375 344.949219 143.992188 347.121094 144.710938 349.265625 C 145.433594 351.410156 146.242188 353.519531 147.136719 355.597656 C 148.03125 357.671875 149.011719 359.710938 150.074219 361.707031 C 151.136719 363.703125 152.28125 365.652344 153.503906 367.554688 C 154.730469 369.453125 156.03125 371.300781 157.40625 373.097656 C 158.785156 374.890625 160.230469 376.625 161.753906 378.300781 C 163.273438 379.976562 164.859375 381.585938 166.511719 383.128906 C 168.164062 384.671875 169.878906 386.144531 171.652344 387.546875 C 173.429688 388.949219 175.257812 390.277344 177.140625 391.527344 C 179.027344 392.777344 180.960938 393.949219 182.941406 395.039062 C 187.964844 398.40625 193.371094 400.964844 199.15625 402.722656 C 204.941406 404.480469 210.859375 405.355469 216.90625 405.351562 L 551.839844 405.351562 C 553.84375 405.351562 555.847656 405.246094 557.84375 405.046875 C 559.839844 404.847656 561.824219 404.550781 563.792969 404.15625 C 565.761719 403.761719 567.703125 403.273438 569.625 402.6875 C 571.542969 402.101562 573.429688 401.425781 575.285156 400.65625 C 577.136719 399.886719 578.949219 399.027344 580.71875 398.082031 C 582.488281 397.132812 584.207031 396.101562 585.875 394.984375 C 587.542969 393.871094 589.15625 392.675781 590.707031 391.402344 C 592.257812 390.128906 593.742188 388.78125 595.160156 387.363281 C 596.582031 385.941406 597.925781 384.457031 599.199219 382.90625 C 600.476562 381.355469 601.667969 379.746094 602.785156 378.078125 C 603.902344 376.40625 604.933594 374.6875 605.878906 372.917969 C 606.828125 371.148438 607.6875 369.339844 608.457031 367.484375 C 609.226562 365.632812 609.902344 363.742188 610.488281 361.824219 C 611.074219 359.902344 611.5625 357.960938 611.957031 355.992188 C 612.351562 354.023438 612.648438 352.042969 612.847656 350.042969 C 613.046875 348.046875 613.148438 346.042969 613.152344 344.039062 C 613.148438 342.03125 613.046875 340.027344 612.847656 338.03125 C 612.648438 336.035156 612.351562 334.050781 611.957031 332.082031 C 611.5625 330.113281 611.074219 328.171875 610.488281 326.25 C 609.902344 324.332031 609.226562 322.445312 608.457031 320.589844 C 607.6875 318.738281 606.828125 316.925781 605.878906 315.15625 C 604.933594 313.386719 603.902344 311.667969 602.785156 310 C 601.667969 308.328125 600.472656 306.71875 599.199219 305.167969 C 597.925781 303.617188 596.582031 302.132812 595.160156 300.714844 C 593.742188 299.292969 592.257812 297.945312 590.707031 296.671875 C 589.15625 295.398438 587.542969 294.207031 585.875 293.089844 C 584.207031 291.972656 582.488281 290.941406 580.71875 289.996094 C 578.949219 289.046875 577.136719 288.1875 575.285156 287.417969 C 573.429688 286.648438 571.542969 285.972656 569.625 285.386719 C 567.703125 284.800781 565.761719 284.3125 563.792969 283.917969 C 561.824219 283.523438 559.839844 283.226562 557.84375 283.027344 C 555.847656 282.828125 553.84375 282.726562 551.839844 282.722656 Z M 551.839844 282.722656 " fill-opacity="1" fill-rule="nonzero"/></g><path fill="#3571aa" d="M 258.199219 462.242188 L 255.484375 464.242188 L 255.339844 464.242188 C 254.144531 465.429688 253.144531 466.761719 252.339844 468.242188 C 252.070312 468.71875 251.832031 469.210938 251.617188 469.714844 C 251.402344 470.21875 251.21875 470.734375 251.0625 471.261719 C 250.90625 471.785156 250.777344 472.316406 250.679688 472.855469 C 250.582031 473.394531 250.515625 473.9375 250.476562 474.484375 C 250.4375 475.03125 250.429688 475.578125 250.453125 476.125 C 250.476562 476.671875 250.527344 477.214844 250.613281 477.757812 C 250.695312 478.300781 250.808594 478.835938 250.949219 479.363281 C 251.089844 479.894531 251.261719 480.414062 251.460938 480.921875 C 251.660156 481.433594 251.886719 481.929688 252.144531 482.414062 C 252.398438 482.902344 252.679688 483.371094 252.984375 483.824219 C 253.292969 484.277344 253.621094 484.714844 253.976562 485.132812 C 254.332031 485.546875 254.707031 485.945312 255.105469 486.320312 C 255.503906 486.695312 255.921875 487.050781 256.359375 487.378906 C 256.796875 487.707031 257.253906 488.011719 257.722656 488.292969 C 258.195312 488.570312 258.679688 488.824219 259.179688 489.050781 C 259.679688 489.273438 260.191406 489.472656 260.710938 489.640625 C 261.230469 489.8125 261.761719 489.949219 262.296875 490.0625 C 262.832031 490.171875 263.375 490.253906 263.921875 490.304688 C 264.464844 490.355469 265.011719 490.375 265.558594 490.367188 C 266.109375 490.355469 266.652344 490.316406 267.195312 490.246094 C 267.738281 490.175781 268.277344 490.078125 268.808594 489.949219 C 269.34375 489.816406 269.867188 489.660156 270.378906 489.472656 C 270.894531 489.285156 271.398438 489.070312 271.890625 488.828125 C 272.378906 488.585938 272.855469 488.316406 273.316406 488.019531 C 273.777344 487.722656 274.222656 487.402344 274.648438 487.058594 C 275.074219 486.714844 275.480469 486.347656 275.863281 485.957031 C 276.25 485.570312 276.613281 485.160156 276.953125 484.730469 C 277.292969 484.300781 277.609375 483.851562 277.898438 483.386719 C 278.1875 482.925781 278.453125 482.445312 278.691406 481.953125 C 278.929688 481.457031 279.136719 480.953125 279.320312 480.433594 C 279.5 479.917969 279.652344 479.394531 279.777344 478.859375 C 279.898438 478.324219 279.992188 477.789062 280.058594 477.242188 L 280.058594 473.671875 L 280.488281 445.957031 Z M 258.199219 462.242188 " fill-opacity="1" fill-rule="nonzero"/><path fill="#3571aa" d="M 359.355469 542.960938 L 356.496094 545.105469 C 355.210938 546.222656 354.210938 547.554688 353.496094 549.105469 C 353.050781 549.964844 352.695312 550.855469 352.425781 551.785156 C 352.15625 552.714844 351.976562 553.660156 351.894531 554.625 C 351.8125 555.585938 351.824219 556.550781 351.929688 557.511719 C 352.035156 558.472656 352.234375 559.414062 352.527344 560.335938 C 352.820312 561.257812 353.199219 562.140625 353.664062 562.988281 C 354.128906 563.835938 354.675781 564.628906 355.296875 565.371094 C 355.917969 566.109375 356.609375 566.785156 357.363281 567.386719 C 358.117188 567.992188 358.925781 568.515625 359.785156 568.964844 C 360.640625 569.410156 361.535156 569.765625 362.464844 570.035156 C 363.394531 570.304688 364.339844 570.480469 365.304688 570.566406 C 366.265625 570.648438 367.230469 570.636719 368.191406 570.53125 C 369.152344 570.421875 370.09375 570.222656 371.015625 569.933594 C 371.9375 569.640625 372.824219 569.261719 373.667969 568.796875 C 374.515625 568.328125 375.3125 567.785156 376.050781 567.164062 C 376.792969 566.539062 377.464844 565.851562 378.070312 565.097656 C 378.671875 564.34375 379.199219 563.535156 379.644531 562.675781 C 380.449219 561.199219 380.972656 559.628906 381.214844 557.960938 L 381.214844 554.390625 L 381.785156 526.816406 Z M 359.355469 542.960938 " fill-opacity="1" fill-rule="nonzero"/><path fill="#3571aa" d="M 507.089844 462.242188 L 504.375 464.242188 L 504.234375 464.242188 C 503.039062 465.429688 502.039062 466.761719 501.234375 468.242188 C 500.96875 468.675781 500.726562 469.121094 500.507812 469.578125 C 500.289062 470.035156 500.09375 470.503906 499.925781 470.984375 C 499.753906 471.460938 499.609375 471.945312 499.488281 472.4375 C 499.367188 472.929688 499.273438 473.429688 499.203125 473.929688 C 499.132812 474.433594 499.085938 474.9375 499.070312 475.445312 C 499.050781 475.953125 499.058594 476.457031 499.09375 476.964844 C 499.125 477.472656 499.1875 477.972656 499.269531 478.472656 C 499.355469 478.972656 499.46875 479.46875 499.601562 479.957031 C 499.738281 480.445312 499.898438 480.925781 500.085938 481.398438 C 500.269531 481.871094 500.480469 482.332031 500.710938 482.785156 C 500.945312 483.234375 501.199219 483.671875 501.476562 484.097656 C 501.753906 484.523438 502.050781 484.933594 502.371094 485.328125 C 502.691406 485.722656 503.027344 486.097656 503.386719 486.457031 C 503.742188 486.816406 504.117188 487.15625 504.511719 487.480469 C 504.90625 487.800781 505.3125 488.101562 505.734375 488.378906 C 506.160156 488.660156 506.597656 488.917969 507.046875 489.152344 C 507.496094 489.386719 507.957031 489.597656 508.429688 489.785156 C 508.898438 489.972656 509.378906 490.132812 509.867188 490.273438 C 510.355469 490.410156 510.847656 490.523438 511.347656 490.613281 C 511.847656 490.699219 512.351562 490.761719 512.859375 490.796875 C 513.363281 490.835938 513.871094 490.84375 514.378906 490.828125 C 514.882812 490.8125 515.390625 490.773438 515.890625 490.703125 C 516.394531 490.636719 516.894531 490.542969 517.386719 490.425781 C 517.878906 490.308594 518.367188 490.164062 518.84375 489.996094 C 519.324219 489.828125 519.792969 489.636719 520.25 489.417969 C 520.710938 489.203125 521.15625 488.964844 521.589844 488.703125 C 522.027344 488.441406 522.445312 488.15625 522.851562 487.851562 C 523.257812 487.546875 523.644531 487.222656 524.019531 486.878906 C 524.390625 486.53125 524.742188 486.167969 525.078125 485.789062 C 525.414062 485.40625 525.726562 485.011719 526.023438 484.597656 C 526.316406 484.183594 526.589844 483.757812 526.839844 483.316406 C 527.089844 482.875 527.316406 482.421875 527.523438 481.957031 C 528.238281 480.449219 528.765625 478.878906 529.09375 477.242188 L 529.09375 473.671875 L 529.523438 445.957031 Z M 507.089844 462.242188 " fill-opacity="1" fill-rule="nonzero"/><path fill="#6b99d2" d="M 260.339844 545.820312 L 258.339844 547.246094 C 257.464844 548.078125 256.75 549.03125 256.199219 550.105469 C 255.875 550.714844 255.617188 551.347656 255.417969 552.007812 C 255.222656 552.667969 255.09375 553.34375 255.03125 554.027344 C 254.964844 554.714844 254.972656 555.402344 255.042969 556.085938 C 255.117188 556.769531 255.257812 557.441406 255.460938 558.101562 C 255.667969 558.757812 255.9375 559.386719 256.269531 559.992188 C 256.597656 560.597656 256.984375 561.164062 257.429688 561.691406 C 257.871094 562.21875 258.363281 562.699219 258.902344 563.128906 C 259.4375 563.558594 260.015625 563.933594 260.625 564.25 C 260.992188 564.457031 261.371094 564.640625 261.761719 564.804688 C 262.152344 564.964844 262.550781 565.101562 262.957031 565.214844 C 263.363281 565.328125 263.777344 565.414062 264.191406 565.476562 C 264.609375 565.539062 265.03125 565.574219 265.453125 565.585938 C 265.875 565.59375 266.292969 565.578125 266.714844 565.539062 C 267.132812 565.496094 267.550781 565.429688 267.960938 565.335938 C 268.375 565.242188 268.777344 565.125 269.175781 564.984375 C 269.574219 564.839844 269.960938 564.675781 270.335938 564.484375 C 270.714844 564.292969 271.078125 564.082031 271.425781 563.847656 C 271.777344 563.613281 272.113281 563.355469 272.433594 563.078125 C 272.75 562.804688 273.050781 562.507812 273.335938 562.195312 C 273.617188 561.882812 273.878906 561.554688 274.121094 561.207031 C 274.363281 560.863281 274.585938 560.503906 274.785156 560.132812 C 274.980469 559.757812 275.15625 559.375 275.308594 558.980469 C 275.457031 558.585938 275.585938 558.1875 275.6875 557.777344 C 275.789062 557.367188 275.863281 556.953125 275.914062 556.535156 L 275.914062 553.960938 L 276.199219 534.246094 Z M 260.339844 545.820312 " fill-opacity="1" fill-rule="nonzero"/><path fill="#6b99d2" d="M 171.328125 449.097656 L 169.328125 450.671875 C 168.417969 451.476562 167.703125 452.429688 167.183594 453.527344 C 166.863281 454.136719 166.601562 454.769531 166.40625 455.433594 C 166.210938 456.09375 166.078125 456.765625 166.015625 457.453125 C 165.953125 458.136719 165.957031 458.824219 166.03125 459.507812 C 166.105469 460.195312 166.242188 460.867188 166.449219 461.523438 C 166.65625 462.179688 166.925781 462.8125 167.253906 463.414062 C 167.585938 464.019531 167.972656 464.585938 168.417969 465.113281 C 168.859375 465.640625 169.351562 466.121094 169.886719 466.550781 C 170.425781 466.980469 171 467.355469 171.613281 467.671875 C 172.226562 467.996094 172.867188 468.257812 173.535156 468.453125 C 174.199219 468.652344 174.878906 468.78125 175.570312 468.847656 C 176.261719 468.910156 176.953125 468.90625 177.644531 468.835938 C 178.335938 468.761719 179.011719 468.621094 179.675781 468.417969 C 180.339844 468.210938 180.976562 467.941406 181.585938 467.613281 C 182.195312 467.28125 182.769531 466.894531 183.304688 466.449219 C 183.835938 466.003906 184.324219 465.511719 184.761719 464.972656 C 185.199219 464.433594 185.578125 463.855469 185.902344 463.242188 C 186.433594 462.15625 186.765625 461.015625 186.902344 459.8125 L 186.902344 457.242188 L 187.332031 437.667969 Z M 171.328125 449.097656 " fill-opacity="1" fill-rule="nonzero"/><path fill="#6b99d2" d="M 454.226562 544.675781 L 452.226562 546.105469 C 451.351562 546.9375 450.636719 547.886719 450.082031 548.960938 C 449.761719 549.570312 449.5 550.207031 449.304688 550.867188 C 449.109375 551.527344 448.976562 552.199219 448.914062 552.886719 C 448.851562 553.570312 448.855469 554.257812 448.929688 554.941406 C 449.003906 555.628906 449.140625 556.300781 449.347656 556.957031 C 449.554688 557.613281 449.820312 558.246094 450.152344 558.851562 C 450.484375 559.453125 450.871094 560.019531 451.3125 560.546875 C 451.757812 561.074219 452.246094 561.554688 452.785156 561.984375 C 453.324219 562.414062 453.898438 562.789062 454.511719 563.105469 C 455.125 563.429688 455.765625 563.691406 456.433594 563.886719 C 457.097656 564.085938 457.777344 564.214844 458.46875 564.28125 C 459.160156 564.34375 459.851562 564.339844 460.542969 564.269531 C 461.234375 564.195312 461.910156 564.058594 462.574219 563.851562 C 463.238281 563.644531 463.875 563.378906 464.484375 563.046875 C 465.09375 562.714844 465.667969 562.328125 466.203125 561.882812 C 466.734375 561.441406 467.222656 560.949219 467.660156 560.40625 C 468.09375 559.867188 468.476562 559.292969 468.800781 558.675781 C 469.242188 557.613281 469.578125 556.519531 469.800781 555.390625 L 469.800781 552.820312 L 470.226562 533.105469 Z M 454.226562 544.675781 " fill-opacity="1" fill-rule="nonzero"/><path fill="#6b99d2" d="M 420.507812 454.8125 L 418.507812 456.382812 C 417.597656 457.191406 416.882812 458.144531 416.363281 459.242188 C 416.042969 459.851562 415.789062 460.488281 415.59375 461.148438 C 415.398438 461.808594 415.273438 462.480469 415.210938 463.164062 C 415.148438 463.851562 415.15625 464.535156 415.230469 465.21875 C 415.304688 465.902344 415.441406 466.574219 415.648438 467.230469 C 415.855469 467.886719 416.121094 468.519531 416.453125 469.121094 C 416.78125 469.726562 417.167969 470.292969 417.609375 470.820312 C 418.050781 471.347656 418.539062 471.828125 419.074219 472.257812 C 419.609375 472.691406 420.183594 473.066406 420.792969 473.386719 C 421.402344 473.703125 422.039062 473.960938 422.699219 474.15625 C 423.359375 474.347656 424.03125 474.476562 424.714844 474.539062 C 425.402344 474.597656 426.085938 474.59375 426.769531 474.519531 C 427.453125 474.445312 428.125 474.304688 428.78125 474.101562 C 429.4375 473.894531 430.070312 473.628906 430.671875 473.296875 C 431.277344 472.96875 431.84375 472.582031 432.371094 472.140625 C 432.898438 471.699219 433.378906 471.210938 433.8125 470.675781 C 434.242188 470.140625 434.617188 469.566406 434.9375 468.957031 C 435.515625 467.878906 435.894531 466.734375 436.082031 465.527344 L 436.082031 462.957031 L 436.507812 443.382812 Z M 420.507812 454.8125 " fill-opacity="1" fill-rule="nonzero"/><g clip-path="url(#21e794228e)"><path fill="#b4e3fb" d="M 392.757812 414.667969 L 398.820312 418.167969 C 399.066406 418.308594 399.273438 418.492188 399.449219 418.71875 C 399.621094 418.945312 399.742188 419.195312 399.816406 419.46875 C 399.890625 419.742188 399.910156 420.023438 399.871094 420.304688 C 399.835938 420.585938 399.746094 420.847656 399.605469 421.09375 L 360.613281 488.625 C 360.46875 488.871094 360.285156 489.082031 360.0625 489.253906 C 359.835938 489.425781 359.585938 489.550781 359.3125 489.625 C 359.035156 489.695312 358.757812 489.714844 358.476562 489.675781 C 358.195312 489.640625 357.929688 489.550781 357.683594 489.410156 L 351.621094 485.910156 C 351.375 485.765625 351.164062 485.582031 350.992188 485.355469 C 350.820312 485.132812 350.695312 484.882812 350.625 484.609375 C 350.550781 484.332031 350.53125 484.054688 350.570312 483.773438 C 350.605469 483.492188 350.695312 483.226562 350.835938 482.980469 L 389.828125 415.453125 C 389.96875 415.207031 390.15625 414.996094 390.378906 414.824219 C 390.605469 414.652344 390.855469 414.527344 391.128906 414.453125 C 391.40625 414.378906 391.683594 414.363281 391.964844 414.398438 C 392.246094 414.4375 392.511719 414.527344 392.757812 414.667969 Z M 392.757812 414.667969 " fill-opacity="1" fill-rule="nonzero"/></g><g clip-path="url(#b79b4dc999)"><path fill="#b4e3fb" d="M 199.113281 499.257812 L 205.203125 502.757812 C 205.449219 502.898438 205.660156 503.082031 205.835938 503.308594 C 206.007812 503.535156 206.132812 503.785156 206.207031 504.0625 C 206.28125 504.335938 206.300781 504.617188 206.265625 504.898438 C 206.226562 505.179688 206.136719 505.445312 205.996094 505.695312 L 167.003906 573.53125 C 166.863281 573.78125 166.679688 573.992188 166.453125 574.164062 C 166.226562 574.339844 165.976562 574.460938 165.699219 574.539062 C 165.425781 574.613281 165.144531 574.628906 164.863281 574.59375 C 164.582031 574.558594 164.316406 574.46875 164.070312 574.324219 L 157.976562 570.824219 C 157.730469 570.683594 157.519531 570.5 157.34375 570.273438 C 157.171875 570.046875 157.046875 569.796875 156.972656 569.523438 C 156.898438 569.246094 156.878906 568.96875 156.917969 568.683594 C 156.953125 568.402344 157.042969 568.136719 157.183594 567.890625 L 196.175781 500.050781 C 196.316406 499.804688 196.503906 499.59375 196.726562 499.417969 C 196.953125 499.246094 197.203125 499.121094 197.480469 499.046875 C 197.753906 498.972656 198.035156 498.953125 198.316406 498.988281 C 198.601562 499.027344 198.863281 499.117188 199.113281 499.257812 Z M 199.113281 499.257812 " fill-opacity="1" fill-rule="nonzero"/></g><g clip-path="url(#67cd3a7fa3)"><path fill="#b4e3fb" d="M 553.65625 496.933594 L 559.71875 500.433594 C 559.964844 500.574219 560.175781 500.757812 560.347656 500.984375 C 560.523438 501.210938 560.644531 501.460938 560.71875 501.734375 C 560.792969 502.007812 560.808594 502.289062 560.773438 502.570312 C 560.734375 502.851562 560.644531 503.113281 560.503906 503.359375 L 521.511719 570.890625 C 521.371094 571.136719 521.1875 571.347656 520.960938 571.519531 C 520.734375 571.691406 520.484375 571.816406 520.210938 571.886719 C 519.9375 571.960938 519.660156 571.980469 519.378906 571.941406 C 519.09375 571.90625 518.832031 571.816406 518.585938 571.675781 L 512.523438 568.175781 C 512.277344 568.03125 512.066406 567.847656 511.894531 567.621094 C 511.722656 567.398438 511.597656 567.148438 511.523438 566.875 C 511.449219 566.597656 511.433594 566.320312 511.46875 566.039062 C 511.507812 565.757812 511.597656 565.492188 511.738281 565.246094 L 550.730469 497.71875 C 550.871094 497.472656 551.054688 497.261719 551.28125 497.089844 C 551.507812 496.914062 551.757812 496.792969 552.03125 496.71875 C 552.304688 496.644531 552.582031 496.628906 552.863281 496.664062 C 553.148438 496.703125 553.410156 496.792969 553.65625 496.933594 Z M 553.65625 496.933594 " fill-opacity="1" fill-rule="nonzero"/></g><path fill="#6b99d2" d="M 110.429688 539.957031 L 108.429688 541.53125 C 107.519531 542.335938 106.804688 543.289062 106.285156 544.386719 C 105.964844 544.996094 105.703125 545.628906 105.507812 546.289062 C 105.3125 546.953125 105.179688 547.625 105.117188 548.3125 C 105.054688 548.996094 105.058594 549.683594 105.132812 550.367188 C 105.207031 551.054688 105.34375 551.722656 105.550781 552.382812 C 105.757812 553.039062 106.023438 553.671875 106.355469 554.273438 C 106.6875 554.878906 107.074219 555.445312 107.515625 555.972656 C 107.960938 556.5 108.453125 556.980469 108.988281 557.410156 C 109.527344 557.839844 110.101562 558.214844 110.714844 558.53125 C 111.328125 558.855469 111.96875 559.113281 112.636719 559.3125 C 113.300781 559.511719 113.980469 559.640625 114.671875 559.707031 C 115.363281 559.769531 116.054688 559.765625 116.746094 559.691406 C 117.4375 559.621094 118.113281 559.480469 118.777344 559.277344 C 119.441406 559.070312 120.078125 558.800781 120.6875 558.472656 C 121.296875 558.140625 121.871094 557.753906 122.40625 557.308594 C 122.9375 556.863281 123.425781 556.371094 123.863281 555.832031 C 124.300781 555.292969 124.679688 554.714844 125.003906 554.101562 C 125.535156 553.015625 125.867188 551.875 126.003906 550.671875 L 126.003906 548.101562 L 126.429688 528.527344 Z M 110.429688 539.957031 " fill-opacity="1" fill-rule="nonzero"/><path fill="#3571aa" d="M 157.339844 637.1875 L 154.625 639.1875 L 154.484375 639.1875 C 153.289062 640.375 152.289062 641.707031 151.484375 643.1875 C 151.214844 643.664062 150.972656 644.15625 150.761719 644.660156 C 150.546875 645.164062 150.363281 645.679688 150.207031 646.203125 C 150.046875 646.730469 149.921875 647.261719 149.824219 647.800781 C 149.726562 648.339844 149.65625 648.882812 149.621094 649.429688 C 149.582031 649.976562 149.574219 650.523438 149.597656 651.070312 C 149.621094 651.617188 149.671875 652.160156 149.753906 652.703125 C 149.839844 653.242188 149.949219 653.777344 150.09375 654.308594 C 150.234375 654.835938 150.40625 655.355469 150.605469 655.867188 C 150.804688 656.378906 151.03125 656.875 151.285156 657.359375 C 151.542969 657.84375 151.820312 658.3125 152.128906 658.769531 C 152.433594 659.222656 152.765625 659.65625 153.121094 660.074219 C 153.476562 660.492188 153.851562 660.890625 154.25 661.265625 C 154.648438 661.640625 155.066406 661.992188 155.503906 662.324219 C 155.941406 662.652344 156.398438 662.957031 156.867188 663.238281 C 157.339844 663.515625 157.824219 663.769531 158.324219 663.992188 C 158.824219 664.21875 159.332031 664.417969 159.855469 664.585938 C 160.375 664.753906 160.902344 664.894531 161.441406 665.007812 C 161.976562 665.117188 162.519531 665.199219 163.0625 665.25 C 163.609375 665.300781 164.15625 665.320312 164.703125 665.308594 C 165.25 665.300781 165.796875 665.261719 166.339844 665.191406 C 166.882812 665.121094 167.421875 665.019531 167.953125 664.890625 C 168.484375 664.761719 169.007812 664.605469 169.523438 664.417969 C 170.039062 664.230469 170.542969 664.015625 171.03125 663.773438 C 171.523438 663.527344 172 663.257812 172.460938 662.964844 C 172.921875 662.667969 173.367188 662.347656 173.792969 662.003906 C 174.21875 661.660156 174.625 661.292969 175.007812 660.902344 C 175.394531 660.511719 175.757812 660.101562 176.097656 659.671875 C 176.4375 659.246094 176.75 658.796875 177.042969 658.332031 C 177.332031 657.867188 177.597656 657.390625 177.835938 656.894531 C 178.070312 656.402344 178.28125 655.898438 178.460938 655.378906 C 178.644531 654.863281 178.796875 654.335938 178.921875 653.804688 C 179.042969 653.269531 179.136719 652.730469 179.203125 652.1875 L 179.203125 648.617188 L 179.628906 620.898438 Z M 157.339844 637.1875 " fill-opacity="1" fill-rule="nonzero"/><g clip-path="url(#53a223d4a1)"><path fill="#b4e3fb" d="M 454.546875 582.648438 L 458.464844 584.898438 C 458.621094 584.988281 458.757812 585.105469 458.871094 585.25 C 458.980469 585.398438 459.0625 585.558594 459.109375 585.734375 C 459.15625 585.910156 459.167969 586.089844 459.144531 586.273438 C 459.121094 586.453125 459.066406 586.625 458.972656 586.785156 L 433.910156 630.375 C 433.820312 630.535156 433.703125 630.671875 433.558594 630.78125 C 433.410156 630.894531 433.25 630.972656 433.074219 631.019531 C 432.898438 631.070312 432.71875 631.082031 432.535156 631.058594 C 432.355469 631.035156 432.183594 630.976562 432.023438 630.886719 L 428.109375 628.636719 C 427.949219 628.542969 427.816406 628.425781 427.703125 628.28125 C 427.589844 628.136719 427.511719 627.976562 427.464844 627.796875 C 427.414062 627.621094 427.402344 627.441406 427.425781 627.261719 C 427.449219 627.078125 427.507812 626.910156 427.601562 626.75 L 452.660156 583.15625 C 452.753906 583 452.871094 582.863281 453.015625 582.75 C 453.160156 582.640625 453.324219 582.558594 453.5 582.511719 C 453.675781 582.464844 453.855469 582.453125 454.039062 582.476562 C 454.21875 582.5 454.390625 582.554688 454.546875 582.648438 Z M 454.546875 582.648438 " fill-opacity="1" fill-rule="nonzero"/></g><path fill="#6b99d2" d="M 300.675781 598.65625 L 298.671875 600.230469 C 297.761719 601.035156 297.046875 601.988281 296.53125 603.085938 C 296.207031 603.695312 295.949219 604.332031 295.753906 604.992188 C 295.554688 605.652344 295.425781 606.324219 295.363281 607.011719 C 295.300781 607.695312 295.304688 608.382812 295.378906 609.066406 C 295.449219 609.753906 295.589844 610.425781 295.796875 611.082031 C 296 611.738281 296.269531 612.371094 296.601562 612.976562 C 296.933594 613.578125 297.320312 614.144531 297.761719 614.671875 C 298.207031 615.199219 298.695312 615.679688 299.234375 616.109375 C 299.773438 616.539062 300.347656 616.914062 300.960938 617.230469 C 301.574219 617.554688 302.214844 617.816406 302.878906 618.011719 C 303.546875 618.210938 304.222656 618.339844 304.917969 618.40625 C 305.609375 618.46875 306.300781 618.464844 306.988281 618.394531 C 307.679688 618.320312 308.359375 618.183594 309.019531 617.976562 C 309.683594 617.769531 310.320312 617.503906 310.933594 617.171875 C 311.542969 616.839844 312.113281 616.453125 312.648438 616.007812 C 313.183594 615.5625 313.667969 615.074219 314.105469 614.53125 C 314.542969 613.992188 314.925781 613.417969 315.246094 612.800781 C 315.78125 611.714844 316.113281 610.574219 316.246094 609.371094 L 316.246094 606.800781 L 316.675781 587.226562 Z M 300.675781 598.65625 " fill-opacity="1" fill-rule="nonzero"/><path fill="#3571aa" d="M 503.605469 619.519531 L 500.890625 621.519531 L 500.746094 621.519531 C 499.550781 622.707031 498.550781 624.039062 497.746094 625.519531 C 497.480469 625.996094 497.238281 626.488281 497.023438 626.992188 C 496.8125 627.496094 496.625 628.011719 496.46875 628.535156 C 496.3125 629.0625 496.183594 629.59375 496.085938 630.132812 C 495.988281 630.671875 495.921875 631.214844 495.882812 631.761719 C 495.84375 632.304688 495.839844 632.851562 495.859375 633.402344 C 495.882812 633.949219 495.9375 634.492188 496.019531 635.035156 C 496.101562 635.574219 496.214844 636.109375 496.355469 636.640625 C 496.5 637.167969 496.667969 637.6875 496.867188 638.199219 C 497.070312 638.707031 497.296875 639.207031 497.550781 639.691406 C 497.804688 640.175781 498.085938 640.644531 498.390625 641.101562 C 498.699219 641.554688 499.027344 641.988281 499.382812 642.40625 C 499.738281 642.824219 500.113281 643.222656 500.515625 643.597656 C 500.914062 643.972656 501.332031 644.324219 501.769531 644.65625 C 502.207031 644.984375 502.660156 645.289062 503.132812 645.570312 C 503.601562 645.847656 504.089844 646.101562 504.585938 646.324219 C 505.085938 646.550781 505.597656 646.75 506.117188 646.917969 C 506.640625 647.085938 507.167969 647.226562 507.703125 647.335938 C 508.242188 647.449219 508.78125 647.527344 509.328125 647.582031 C 509.871094 647.632812 510.417969 647.652344 510.96875 647.640625 C 511.515625 647.632812 512.058594 647.59375 512.605469 647.523438 C 513.148438 647.453125 513.683594 647.351562 514.21875 647.222656 C 514.75 647.09375 515.273438 646.9375 515.789062 646.75 C 516.304688 646.5625 516.804688 646.347656 517.296875 646.101562 C 517.789062 645.859375 518.265625 645.589844 518.726562 645.296875 C 519.1875 645 519.628906 644.679688 520.054688 644.335938 C 520.480469 643.992188 520.886719 643.625 521.273438 643.234375 C 521.65625 642.84375 522.019531 642.433594 522.359375 642.003906 C 522.699219 641.574219 523.015625 641.128906 523.304688 640.664062 C 523.597656 640.199219 523.859375 639.722656 524.097656 639.226562 C 524.335938 638.734375 524.542969 638.226562 524.726562 637.710938 C 524.90625 637.195312 525.058594 636.667969 525.183594 636.136719 C 525.308594 635.601562 525.402344 635.0625 525.464844 634.519531 L 525.464844 630.949219 L 525.894531 603.230469 Z M 503.605469 619.519531 " fill-opacity="1" fill-rule="nonzero"/><path fill="#3571aa" d="M 352.757812 655.101562 L 350.042969 657.101562 L 349.902344 657.101562 C 348.707031 658.289062 347.707031 659.625 346.902344 661.105469 C 346.632812 661.582031 346.390625 662.074219 346.179688 662.578125 C 345.964844 663.082031 345.78125 663.597656 345.621094 664.121094 C 345.464844 664.644531 345.339844 665.179688 345.242188 665.71875 C 345.144531 666.253906 345.074219 666.796875 345.039062 667.34375 C 345 667.890625 344.992188 668.4375 345.015625 668.984375 C 345.039062 669.53125 345.089844 670.078125 345.171875 670.617188 C 345.253906 671.160156 345.367188 671.695312 345.511719 672.226562 C 345.652344 672.753906 345.824219 673.273438 346.023438 673.785156 C 346.222656 674.292969 346.449219 674.792969 346.703125 675.277344 C 346.957031 675.761719 347.238281 676.230469 347.546875 676.683594 C 347.851562 677.140625 348.183594 677.574219 348.539062 677.992188 C 348.890625 678.410156 349.269531 678.804688 349.667969 679.183594 C 350.066406 679.558594 350.484375 679.910156 350.921875 680.238281 C 351.359375 680.570312 351.8125 680.875 352.285156 681.152344 C 352.757812 681.433594 353.242188 681.683594 353.742188 681.910156 C 354.242188 682.136719 354.75 682.332031 355.273438 682.503906 C 355.792969 682.671875 356.320312 682.8125 356.859375 682.921875 C 357.394531 683.035156 357.9375 683.113281 358.480469 683.164062 C 359.027344 683.214844 359.574219 683.238281 360.121094 683.226562 C 360.667969 683.21875 361.214844 683.175781 361.757812 683.109375 C 362.300781 683.039062 362.839844 682.9375 363.371094 682.808594 C 363.902344 682.679688 364.425781 682.519531 364.941406 682.332031 C 365.457031 682.144531 365.960938 681.929688 366.449219 681.6875 C 366.941406 681.445312 367.417969 681.175781 367.878906 680.878906 C 368.339844 680.585938 368.785156 680.265625 369.210938 679.921875 C 369.636719 679.574219 370.042969 679.207031 370.425781 678.820312 C 370.8125 678.429688 371.175781 678.019531 371.515625 677.589844 C 371.855469 677.160156 372.167969 676.714844 372.460938 676.25 C 372.75 675.785156 373.015625 675.304688 373.25 674.8125 C 373.488281 674.320312 373.699219 673.8125 373.878906 673.296875 C 374.0625 672.78125 374.214844 672.253906 374.339844 671.722656 C 374.460938 671.1875 374.554688 670.648438 374.617188 670.105469 L 374.617188 666.53125 L 375.046875 638.816406 Z M 352.757812 655.101562 " fill-opacity="1" fill-rule="nonzero"/></svg>