<svg xmlns="http://www.w3.org/2000/svg" xmlns:xlink="http://www.w3.org/1999/xlink" width="1024" zoomAndPan="magnify" viewBox="0 0 768 767.999994" height="1024" preserveAspectRatio="xMidYMid meet" version="1.0"><defs><clipPath id="0cefc57c07"><path d="M 420 655 L 453 655 L 453 701.898438 L 420 701.898438 Z M 420 655 " clip-rule="nonzero"/></clipPath><clipPath id="888aad14ce"><path d="M 245 655 L 278 655 L 278 701.898438 L 245 701.898438 Z M 245 655 " clip-rule="nonzero"/></clipPath><clipPath id="73ceab5066"><path d="M 69 65.898438 L 698.886719 65.898438 L 698.886719 441 L 69 441 Z M 69 65.898438 " clip-rule="nonzero"/></clipPath></defs><path fill="#b4e3fb" d="M 173.449219 557.15625 L 168.375 560.886719 L 168.222656 560.886719 C 166.097656 563.023438 164.304688 565.410156 162.851562 568.050781 C 162.445312 568.824219 162.082031 569.613281 161.757812 570.421875 C 161.429688 571.230469 161.144531 572.054688 160.898438 572.890625 C 160.652344 573.726562 160.449219 574.574219 160.289062 575.429688 C 160.125 576.285156 160.007812 577.148438 159.929688 578.015625 C 159.851562 578.882812 159.816406 579.753906 159.824219 580.625 C 159.835938 581.496094 159.886719 582.367188 159.980469 583.234375 C 160.070312 584.097656 160.207031 584.960938 160.386719 585.8125 C 160.5625 586.664062 160.785156 587.507812 161.042969 588.339844 C 161.304688 589.171875 161.605469 589.988281 161.949219 590.789062 C 162.289062 591.59375 162.667969 592.375 163.085938 593.140625 C 163.503906 593.90625 163.960938 594.648438 164.449219 595.367188 C 164.941406 596.085938 165.46875 596.78125 166.027344 597.449219 C 166.585938 598.117188 167.175781 598.757812 167.800781 599.367188 C 168.421875 599.980469 169.070312 600.558594 169.75 601.105469 C 170.429688 601.648438 171.132812 602.160156 171.863281 602.640625 C 172.59375 603.117188 173.34375 603.558594 174.117188 603.960938 C 174.890625 604.363281 175.679688 604.726562 176.488281 605.054688 C 177.296875 605.378906 178.117188 605.664062 178.957031 605.910156 C 179.792969 606.15625 180.636719 606.359375 181.496094 606.519531 C 182.351562 606.679688 183.214844 606.800781 184.082031 606.878906 C 184.949219 606.953125 185.820312 606.988281 186.691406 606.980469 C 187.5625 606.972656 188.433594 606.921875 189.296875 606.828125 C 190.164062 606.734375 191.023438 606.597656 191.878906 606.417969 C 192.730469 606.238281 193.574219 606.019531 194.40625 605.757812 C 195.238281 605.496094 196.054688 605.195312 196.855469 604.855469 C 197.65625 604.511719 198.441406 604.132812 199.203125 603.714844 C 199.96875 603.296875 200.710938 602.839844 201.429688 602.351562 C 202.152344 601.859375 202.84375 601.332031 203.511719 600.773438 C 204.183594 600.214844 204.820312 599.625 205.429688 599 C 206.042969 598.378906 206.621094 597.726562 207.164062 597.046875 C 207.710938 596.367188 208.222656 595.664062 208.699219 594.933594 C 209.175781 594.207031 209.617188 593.453125 210.019531 592.683594 C 211.464844 590.011719 212.410156 587.175781 212.855469 584.171875 L 212.855469 577.753906 L 213.753906 527.898438 Z M 173.449219 557.15625 " fill-opacity="1" fill-rule="nonzero"/><path fill="#b4e3fb" d="M 507.96875 565.066406 L 502.894531 568.796875 L 502.742188 568.796875 C 500.582031 570.851562 498.789062 573.191406 497.371094 575.8125 C 496.964844 576.585938 496.597656 577.378906 496.269531 578.1875 C 495.941406 578.992188 495.652344 579.816406 495.40625 580.652344 C 495.160156 581.488281 494.953125 582.335938 494.789062 583.195312 C 494.625 584.050781 494.503906 584.914062 494.425781 585.78125 C 494.34375 586.652344 494.308594 587.523438 494.316406 588.394531 C 494.320312 589.265625 494.371094 590.136719 494.460938 591.003906 C 494.554688 591.871094 494.6875 592.734375 494.863281 593.589844 C 495.039062 594.441406 495.257812 595.285156 495.515625 596.121094 C 495.777344 596.953125 496.074219 597.773438 496.414062 598.574219 C 496.753906 599.378906 497.132812 600.164062 497.550781 600.929688 C 497.96875 601.695312 498.421875 602.441406 498.910156 603.164062 C 499.402344 603.886719 499.925781 604.582031 500.484375 605.253906 C 501.042969 605.921875 501.632812 606.5625 502.253906 607.175781 C 502.875 607.789062 503.523438 608.371094 504.203125 608.917969 C 504.878906 609.46875 505.585938 609.980469 506.3125 610.460938 C 507.042969 610.941406 507.792969 611.382812 508.566406 611.789062 C 509.339844 612.195312 510.128906 612.5625 510.9375 612.890625 C 511.746094 613.21875 512.566406 613.503906 513.40625 613.753906 C 514.242188 614 515.089844 614.207031 515.945312 614.371094 C 516.800781 614.535156 517.664062 614.65625 518.535156 614.734375 C 519.402344 614.8125 520.273438 614.851562 521.144531 614.84375 C 522.019531 614.839844 522.890625 614.789062 523.757812 614.695312 C 524.625 614.605469 525.484375 614.472656 526.339844 614.296875 C 527.195312 614.117188 528.039062 613.902344 528.871094 613.640625 C 529.703125 613.382812 530.523438 613.082031 531.328125 612.742188 C 532.128906 612.402344 532.914062 612.023438 533.683594 611.609375 C 534.449219 611.191406 535.191406 610.738281 535.914062 610.25 C 536.636719 609.757812 537.332031 609.234375 538.003906 608.675781 C 538.675781 608.117188 539.316406 607.527344 539.929688 606.90625 C 540.539062 606.285156 541.121094 605.636719 541.667969 604.957031 C 542.21875 604.277344 542.734375 603.574219 543.210938 602.84375 C 543.691406 602.117188 544.132812 601.367188 544.539062 600.59375 C 546.003906 597.929688 546.949219 595.09375 547.375 592.085938 L 547.375 585.667969 L 548.273438 535.808594 Z M 507.96875 565.066406 " fill-opacity="1" fill-rule="nonzero"/><path fill="#3571aa" d="M 336.753906 608.503906 L 331.675781 612.085938 L 331.527344 612.085938 C 329.277344 614.132812 327.488281 616.519531 326.15625 619.253906 C 325.75 620.023438 325.386719 620.816406 325.0625 621.625 C 324.738281 622.429688 324.453125 623.253906 324.210938 624.089844 C 323.964844 624.925781 323.761719 625.773438 323.601562 626.628906 C 323.441406 627.484375 323.320312 628.34375 323.246094 629.214844 C 323.167969 630.082031 323.132812 630.949219 323.144531 631.820312 C 323.152344 632.691406 323.203125 633.558594 323.296875 634.425781 C 323.390625 635.292969 323.527344 636.152344 323.707031 637.003906 C 323.882812 637.855469 324.105469 638.699219 324.367188 639.527344 C 324.625 640.359375 324.929688 641.175781 325.269531 641.976562 C 325.609375 642.777344 325.992188 643.5625 326.410156 644.324219 C 326.828125 645.089844 327.28125 645.832031 327.773438 646.550781 C 328.261719 647.269531 328.789062 647.964844 329.347656 648.632812 C 329.90625 649.300781 330.496094 649.9375 331.121094 650.546875 C 331.742188 651.15625 332.390625 651.734375 333.070312 652.28125 C 333.75 652.828125 334.453125 653.339844 335.179688 653.816406 C 335.910156 654.292969 336.660156 654.734375 337.433594 655.136719 C 338.207031 655.539062 338.996094 655.902344 339.804688 656.230469 C 340.609375 656.554688 341.433594 656.839844 342.269531 657.085938 C 343.105469 657.328125 343.949219 657.53125 344.804688 657.695312 C 345.664062 657.855469 346.523438 657.976562 347.390625 658.054688 C 348.257812 658.128906 349.128906 658.164062 350 658.15625 C 350.871094 658.148438 351.738281 658.097656 352.605469 658.003906 C 353.472656 657.910156 354.332031 657.773438 355.183594 657.597656 C 356.035156 657.417969 356.878906 657.199219 357.707031 656.9375 C 358.539062 656.679688 359.355469 656.378906 360.15625 656.035156 C 360.960938 655.695312 361.742188 655.316406 362.507812 654.898438 C 363.269531 654.480469 364.011719 654.027344 364.734375 653.535156 C 365.453125 653.046875 366.144531 652.523438 366.816406 651.964844 C 367.484375 651.40625 368.121094 650.8125 368.730469 650.191406 C 369.34375 649.570312 369.921875 648.921875 370.46875 648.242188 C 371.015625 647.566406 371.527344 646.863281 372.003906 646.132812 C 372.480469 645.40625 372.921875 644.652344 373.324219 643.882812 C 374.746094 641.203125 375.691406 638.367188 376.160156 635.375 L 376.160156 628.957031 L 377.054688 579.097656 Z M 336.753906 608.503906 " fill-opacity="1" fill-rule="nonzero"/><path fill="#3571aa" d="M 288.984375 497.445312 L 283.910156 501.027344 L 283.761719 501.027344 C 281.511719 503.074219 279.71875 505.460938 278.386719 508.195312 C 277.984375 508.964844 277.621094 509.757812 277.292969 510.566406 C 276.96875 511.371094 276.683594 512.195312 276.4375 513.03125 C 276.191406 513.867188 275.988281 514.714844 275.828125 515.570312 C 275.667969 516.425781 275.546875 517.289062 275.46875 518.15625 C 275.394531 519.023438 275.359375 519.894531 275.367188 520.765625 C 275.375 521.636719 275.425781 522.507812 275.519531 523.371094 C 275.613281 524.238281 275.75 525.097656 275.929688 525.953125 C 276.105469 526.804688 276.328125 527.644531 276.585938 528.476562 C 276.847656 529.308594 277.148438 530.125 277.492188 530.925781 C 277.832031 531.730469 278.210938 532.511719 278.628906 533.277344 C 279.046875 534.042969 279.503906 534.785156 279.992188 535.503906 C 280.484375 536.222656 281.011719 536.917969 281.570312 537.585938 C 282.128906 538.253906 282.71875 538.894531 283.339844 539.503906 C 283.964844 540.113281 284.613281 540.691406 285.292969 541.238281 C 285.972656 541.785156 286.675781 542.296875 287.40625 542.773438 C 288.132812 543.25 288.886719 543.691406 289.65625 544.09375 C 290.429688 544.496094 291.21875 544.863281 292.027344 545.1875 C 292.835938 545.511719 293.660156 545.796875 294.496094 546.042969 C 295.332031 546.289062 296.179688 546.492188 297.035156 546.652344 C 297.890625 546.816406 298.753906 546.933594 299.621094 547.011719 C 300.488281 547.089844 301.359375 547.121094 302.230469 547.113281 C 303.101562 547.105469 303.96875 547.054688 304.835938 546.960938 C 305.703125 546.867188 306.5625 546.730469 307.414062 546.554688 C 308.269531 546.375 309.109375 546.15625 309.941406 545.894531 C 310.773438 545.632812 311.589844 545.332031 312.390625 544.992188 C 313.191406 544.648438 313.976562 544.269531 314.742188 543.851562 C 315.503906 543.433594 316.246094 542.980469 316.96875 542.488281 C 317.6875 541.996094 318.382812 541.472656 319.050781 540.910156 C 319.71875 540.351562 320.355469 539.761719 320.96875 539.140625 C 321.578125 538.519531 322.15625 537.867188 322.703125 537.1875 C 323.246094 536.507812 323.757812 535.804688 324.238281 535.074219 C 324.714844 534.347656 325.152344 533.597656 325.558594 532.824219 C 326.976562 530.144531 327.921875 527.308594 328.394531 524.316406 L 328.394531 517.894531 L 329.289062 468.039062 Z M 288.984375 497.445312 " fill-opacity="1" fill-rule="nonzero"/><path fill="#3571aa" d="M 587.828125 493.414062 L 584.84375 495.65625 L 584.695312 495.65625 C 583.398438 496.859375 582.351562 498.25 581.558594 499.835938 C 581.1875 500.738281 580.898438 501.667969 580.699219 502.628906 C 580.496094 503.585938 580.386719 504.550781 580.363281 505.53125 C 580.34375 506.507812 580.414062 507.480469 580.570312 508.445312 C 580.730469 509.410156 580.976562 510.355469 581.3125 511.273438 C 581.644531 512.195312 582.058594 513.074219 582.558594 513.917969 C 583.054688 514.761719 583.625 515.550781 584.269531 516.285156 C 584.914062 517.023438 585.617188 517.695312 586.386719 518.300781 C 587.15625 518.90625 587.972656 519.4375 588.839844 519.890625 C 589.707031 520.34375 590.605469 520.714844 591.542969 521.003906 C 592.476562 521.289062 593.429688 521.488281 594.402344 521.597656 C 595.375 521.707031 596.351562 521.726562 597.324219 521.65625 C 598.300781 521.585938 599.261719 521.425781 600.207031 521.179688 C 601.15625 520.929688 602.070312 520.59375 602.953125 520.175781 C 603.839844 519.757812 604.675781 519.261719 605.46875 518.6875 C 606.261719 518.113281 606.996094 517.472656 607.667969 516.761719 C 608.339844 516.050781 608.941406 515.285156 609.472656 514.464844 C 610.292969 512.859375 610.84375 511.167969 611.117188 509.386719 L 611.117188 505.65625 L 611.710938 476.101562 Z M 587.828125 493.414062 " fill-opacity="1" fill-rule="nonzero"/><path fill="#3571aa" d="M 137.773438 489.386719 L 134.789062 491.625 L 134.636719 491.625 C 133.425781 492.890625 132.378906 494.285156 131.503906 495.804688 C 131.207031 496.265625 130.933594 496.738281 130.683594 497.226562 C 130.4375 497.71875 130.214844 498.21875 130.019531 498.730469 C 129.820312 499.242188 129.652344 499.761719 129.511719 500.292969 C 129.367188 500.820312 129.253906 501.355469 129.167969 501.898438 C 129.082031 502.441406 129.023438 502.984375 128.992188 503.53125 C 128.964844 504.078125 128.960938 504.625 128.988281 505.175781 C 129.015625 505.722656 129.070312 506.265625 129.15625 506.808594 C 129.238281 507.351562 129.351562 507.886719 129.492188 508.417969 C 129.628906 508.945312 129.796875 509.46875 129.988281 509.980469 C 130.183594 510.496094 130.402344 510.996094 130.648438 511.484375 C 130.894531 511.976562 131.164062 512.453125 131.460938 512.914062 C 131.757812 513.375 132.074219 513.820312 132.417969 514.25 C 132.757812 514.679688 133.121094 515.089844 133.503906 515.480469 C 133.890625 515.871094 134.292969 516.242188 134.714844 516.589844 C 135.136719 516.941406 135.578125 517.265625 136.035156 517.570312 C 136.492188 517.875 136.960938 518.152344 137.449219 518.40625 C 137.933594 518.660156 138.429688 518.890625 138.941406 519.09375 C 139.449219 519.296875 139.96875 519.472656 140.496094 519.621094 C 141.023438 519.769531 141.558594 519.890625 142.097656 519.984375 C 142.636719 520.078125 143.183594 520.140625 143.730469 520.179688 C 144.277344 520.214844 144.824219 520.222656 145.371094 520.203125 C 145.917969 520.183594 146.464844 520.136719 147.007812 520.058594 C 147.550781 519.980469 148.089844 519.878906 148.621094 519.746094 C 149.152344 519.613281 149.675781 519.453125 150.191406 519.265625 C 150.707031 519.078125 151.210938 518.863281 151.703125 518.625 C 152.199219 518.386719 152.675781 518.121094 153.144531 517.832031 C 153.609375 517.542969 154.058594 517.230469 154.492188 516.894531 C 154.925781 516.558594 155.339844 516.199219 155.734375 515.820312 C 156.132812 515.441406 156.507812 515.042969 156.859375 514.625 C 157.214844 514.207031 157.546875 513.773438 157.855469 513.320312 C 158.167969 512.867188 158.453125 512.398438 158.710938 511.917969 C 158.972656 511.433594 159.207031 510.941406 159.417969 510.433594 C 160.257812 508.835938 160.808594 507.144531 161.058594 505.359375 L 161.058594 501.625 L 161.507812 472.070312 Z M 137.773438 489.386719 " fill-opacity="1" fill-rule="nonzero"/><g clip-path="url(#0cefc57c07)"><path fill="#3571aa" d="M 428.554688 672.691406 L 425.421875 674.78125 C 424.121094 676.039062 423.078125 677.484375 422.285156 679.109375 C 421.808594 680.027344 421.429688 680.980469 421.140625 681.972656 C 420.851562 682.964844 420.664062 683.976562 420.574219 685.003906 C 420.484375 686.03125 420.5 687.058594 420.613281 688.085938 C 420.726562 689.113281 420.9375 690.117188 421.25 691.101562 C 421.5625 692.085938 421.964844 693.03125 422.464844 693.9375 C 422.960938 694.84375 423.542969 695.691406 424.207031 696.480469 C 424.875 697.269531 425.609375 697.988281 426.414062 698.632812 C 427.222656 699.277344 428.082031 699.839844 429 700.3125 C 429.917969 700.789062 430.871094 701.171875 431.863281 701.457031 C 432.855469 701.746094 433.863281 701.933594 434.894531 702.023438 C 435.921875 702.109375 436.949219 702.097656 437.976562 701.984375 C 439.003906 701.871094 440.007812 701.65625 440.992188 701.34375 C 441.976562 701.03125 442.921875 700.625 443.828125 700.128906 C 444.730469 699.628906 445.578125 699.046875 446.367188 698.382812 C 447.15625 697.71875 447.875 696.980469 448.519531 696.175781 C 449.164062 695.367188 449.726562 694.507812 450.199219 693.589844 C 450.949219 692.015625 451.496094 690.375 451.84375 688.664062 L 451.84375 684.78125 L 452.4375 655.375 Z M 428.554688 672.691406 " fill-opacity="1" fill-rule="nonzero"/></g><g clip-path="url(#888aad14ce)"><path fill="#3571aa" d="M 253.308594 672.691406 L 250.324219 674.78125 L 250.175781 674.78125 C 248.875 676.039062 247.832031 677.484375 247.039062 679.109375 C 246.566406 680.027344 246.183594 680.980469 245.894531 681.972656 C 245.609375 682.964844 245.421875 683.972656 245.332031 685.003906 C 245.242188 686.03125 245.257812 687.058594 245.371094 688.085938 C 245.484375 689.109375 245.695312 690.117188 246.007812 691.101562 C 246.320312 692.085938 246.726562 693.027344 247.222656 693.933594 C 247.722656 694.835938 248.300781 695.683594 248.96875 696.472656 C 249.632812 697.265625 250.367188 697.980469 251.171875 698.625 C 251.980469 699.273438 252.839844 699.832031 253.757812 700.308594 C 254.671875 700.78125 255.628906 701.164062 256.621094 701.453125 C 257.609375 701.738281 258.621094 701.925781 259.648438 702.015625 C 260.679688 702.105469 261.707031 702.089844 262.730469 701.976562 C 263.757812 701.863281 264.761719 701.652344 265.746094 701.339844 C 266.730469 701.027344 267.675781 700.621094 268.578125 700.125 C 269.484375 699.625 270.332031 699.042969 271.121094 698.378906 C 271.910156 697.714844 272.628906 696.980469 273.273438 696.175781 C 273.917969 695.367188 274.480469 694.507812 274.953125 693.589844 C 275.773438 692.039062 276.320312 690.394531 276.597656 688.664062 L 276.597656 684.78125 L 277.191406 655.375 Z M 253.308594 672.691406 " fill-opacity="1" fill-rule="nonzero"/></g><path fill="#b4e3fb" d="M 420.34375 497.445312 L 415.269531 501.027344 L 415.121094 501.027344 C 414.410156 501.691406 413.734375 502.386719 413.097656 503.125 C 412.460938 503.859375 411.867188 504.625 411.316406 505.425781 C 410.761719 506.226562 410.253906 507.054688 409.792969 507.910156 C 409.332031 508.765625 408.917969 509.640625 408.550781 510.542969 C 408.183594 511.441406 407.867188 512.359375 407.601562 513.296875 C 407.335938 514.230469 407.121094 515.175781 406.960938 516.136719 C 406.796875 517.09375 406.6875 518.058594 406.628906 519.027344 C 406.570312 520 406.566406 520.96875 406.617188 521.941406 C 406.664062 522.914062 406.765625 523.878906 406.917969 524.835938 C 407.074219 525.796875 407.277344 526.746094 407.535156 527.683594 C 407.792969 528.621094 408.101562 529.542969 408.457031 530.445312 C 408.816406 531.347656 409.222656 532.230469 409.675781 533.089844 C 410.128906 533.949219 410.628906 534.78125 411.175781 535.585938 C 411.71875 536.390625 412.308594 537.164062 412.9375 537.90625 C 413.566406 538.648438 414.234375 539.351562 414.941406 540.019531 C 415.644531 540.6875 416.386719 541.316406 417.160156 541.902344 C 417.9375 542.488281 418.742188 543.035156 419.574219 543.53125 C 420.410156 544.03125 421.265625 544.484375 422.152344 544.890625 C 423.035156 545.296875 423.9375 545.652344 424.859375 545.960938 C 425.78125 546.265625 426.71875 546.523438 427.667969 546.726562 C 428.617188 546.933594 429.578125 547.085938 430.542969 547.1875 C 431.511719 547.285156 432.480469 547.332031 433.453125 547.328125 C 434.425781 547.324219 435.394531 547.265625 436.359375 547.152344 C 437.324219 547.042969 438.28125 546.878906 439.230469 546.664062 C 440.175781 546.449219 441.109375 546.179688 442.03125 545.863281 C 442.949219 545.546875 443.847656 545.179688 444.726562 544.761719 C 445.605469 544.347656 446.457031 543.886719 447.285156 543.375 C 448.113281 542.867188 448.914062 542.316406 449.679688 541.71875 C 450.449219 541.125 451.183594 540.488281 451.882812 539.8125 C 452.582031 539.136719 453.238281 538.425781 453.859375 537.675781 C 454.480469 536.929688 455.058594 536.148438 455.597656 535.335938 C 456.132812 534.527344 456.621094 533.6875 457.066406 532.824219 C 458.371094 530.117188 459.265625 527.28125 459.753906 524.316406 L 459.753906 517.894531 L 460.648438 468.039062 Z M 420.34375 497.445312 " fill-opacity="1" fill-rule="nonzero"/><g clip-path="url(#73ceab5066)"><path fill="#b4e3fb" d="M 617.085938 276.972656 L 614.550781 276.972656 C 617.585938 267.25 619.078125 257.300781 619.027344 247.117188 C 619.027344 244.722656 618.945312 242.328125 618.777344 239.941406 C 618.609375 237.550781 618.359375 235.171875 618.023438 232.800781 C 617.6875 230.429688 617.269531 228.074219 616.765625 225.734375 C 616.261719 223.390625 615.679688 221.070312 615.011719 218.773438 C 614.34375 216.472656 613.597656 214.199219 612.769531 211.953125 C 611.941406 209.707031 611.035156 207.488281 610.050781 205.308594 C 609.066406 203.125 608.007812 200.980469 606.871094 198.871094 C 605.734375 196.765625 604.523438 194.699219 603.242188 192.675781 C 601.960938 190.65625 600.605469 188.679688 599.183594 186.753906 C 597.761719 184.828125 596.273438 182.953125 594.71875 181.132812 C 593.164062 179.3125 591.546875 177.546875 589.867188 175.839844 C 588.1875 174.132812 586.449219 172.488281 584.652344 170.90625 C 582.859375 169.320312 581.007812 167.804688 579.105469 166.351562 C 577.199219 164.898438 575.25 163.515625 573.246094 162.199219 C 571.246094 160.882812 569.199219 159.640625 567.109375 158.472656 C 565.023438 157.304688 562.894531 156.207031 560.726562 155.1875 C 558.558594 154.167969 556.359375 153.226562 554.125 152.363281 C 551.894531 151.5 549.632812 150.71875 547.34375 150.015625 C 545.054688 149.3125 542.742188 148.6875 540.410156 148.148438 C 538.078125 147.609375 535.726562 147.152344 533.363281 146.777344 C 530.996094 146.40625 528.621094 146.117188 526.238281 145.910156 C 523.851562 145.703125 521.460938 145.582031 519.066406 145.546875 C 516.671875 145.511719 514.28125 145.558594 511.886719 145.691406 C 509.496094 145.824219 507.113281 146.042969 504.738281 146.34375 C 502.363281 146.644531 500 147.03125 497.652344 147.5 C 495.304688 147.96875 492.976562 148.519531 490.667969 149.152344 C 488.359375 149.785156 486.074219 150.5 483.816406 151.296875 C 481.554688 152.089844 479.328125 152.964844 477.132812 153.917969 C 474.933594 154.871094 472.773438 155.898438 470.652344 157.003906 C 468.527344 158.109375 466.445312 159.289062 464.402344 160.542969 C 462.363281 161.796875 460.371094 163.121094 458.421875 164.515625 C 456.476562 165.90625 454.582031 167.371094 452.738281 168.898438 C 452.3125 166.9375 451.84375 164.984375 451.328125 163.046875 C 450.8125 161.105469 450.253906 159.179688 449.652344 157.261719 C 449.046875 155.347656 448.402344 153.449219 447.710938 151.566406 C 447.019531 149.679688 446.289062 147.8125 445.511719 145.960938 C 444.734375 144.109375 443.917969 142.277344 443.058594 140.464844 C 442.199219 138.652344 441.296875 136.859375 440.355469 135.085938 C 439.414062 133.3125 438.429688 131.5625 437.410156 129.835938 C 436.386719 128.109375 435.324219 126.40625 434.226562 124.726562 C 433.125 123.046875 431.988281 121.394531 430.8125 119.769531 C 429.636719 118.140625 428.421875 116.542969 427.171875 114.972656 C 425.921875 113.402344 424.640625 111.859375 423.320312 110.347656 C 422 108.835938 420.644531 107.355469 419.257812 105.90625 C 417.871094 104.457031 416.449219 103.039062 414.996094 101.652344 C 413.542969 100.269531 412.058594 98.917969 410.542969 97.601562 C 409.03125 96.285156 407.484375 95.003906 405.914062 93.757812 C 404.339844 92.511719 402.738281 91.300781 401.109375 90.128906 C 399.480469 88.957031 397.824219 87.820312 396.144531 86.722656 C 394.464844 85.628906 392.757812 84.570312 391.027344 83.550781 C 389.300781 82.53125 387.546875 81.554688 385.773438 80.617188 C 384 79.675781 382.203125 78.78125 380.386719 77.921875 C 378.574219 77.066406 376.738281 76.253906 374.886719 75.480469 C 373.035156 74.710938 371.164062 73.980469 369.277344 73.292969 C 367.390625 72.609375 365.492188 71.964844 363.574219 71.367188 C 361.660156 70.765625 359.730469 70.210938 357.789062 69.699219 C 355.847656 69.191406 353.898438 68.722656 351.933594 68.304688 C 349.972656 67.882812 348 67.503906 346.023438 67.175781 C 344.042969 66.84375 342.054688 66.558594 340.0625 66.316406 C 338.070312 66.078125 336.074219 65.882812 334.070312 65.734375 C 332.070312 65.585938 330.066406 65.484375 328.058594 65.429688 C 326.054688 65.371094 324.046875 65.359375 322.039062 65.398438 C 320.035156 65.433594 318.027344 65.511719 316.027344 65.640625 C 314.023438 65.769531 312.023438 65.941406 310.027344 66.160156 C 308.03125 66.378906 306.042969 66.644531 304.0625 66.953125 C 302.078125 67.265625 300.101562 67.621094 298.136719 68.019531 C 296.167969 68.421875 294.214844 68.867188 292.265625 69.355469 C 290.320312 69.847656 288.386719 70.382812 286.464844 70.960938 C 284.542969 71.539062 282.636719 72.164062 280.742188 72.828125 C 278.847656 73.496094 276.972656 74.207031 275.113281 74.957031 C 273.25 75.710938 271.40625 76.503906 269.582031 77.34375 C 267.757812 78.179688 265.957031 79.058594 264.171875 79.976562 C 262.386719 80.898438 260.625 81.855469 258.886719 82.859375 C 257.144531 83.859375 255.429688 84.898438 253.738281 85.976562 C 252.042969 87.054688 250.378906 88.171875 248.738281 89.328125 C 247.09375 90.484375 245.480469 91.675781 243.894531 92.90625 C 242.308594 94.136719 240.75 95.402344 239.222656 96.703125 C 237.695312 98.003906 236.195312 99.339844 234.730469 100.707031 C 233.261719 102.078125 231.828125 103.480469 230.421875 104.914062 C 229.019531 106.351562 227.652344 107.816406 226.316406 109.316406 C 224.980469 110.8125 223.679688 112.339844 222.414062 113.898438 C 221.148438 115.457031 219.917969 117.042969 218.726562 118.65625 C 217.53125 120.269531 216.375 121.910156 215.257812 123.578125 C 214.140625 125.246094 213.0625 126.9375 212.023438 128.652344 C 210.980469 130.371094 209.980469 132.109375 209.019531 133.871094 C 208.058594 135.632812 207.140625 137.417969 206.261719 139.222656 C 205.382812 141.027344 204.546875 142.851562 203.75 144.691406 C 202.957031 146.535156 202.203125 148.394531 201.492188 150.273438 C 200.78125 152.152344 200.117188 154.042969 199.492188 155.953125 C 198.871094 157.859375 198.292969 159.78125 197.757812 161.714844 C 197.222656 163.648438 196.730469 165.59375 196.285156 167.550781 C 195.839844 169.507812 195.4375 171.476562 195.082031 173.449219 C 194.726562 175.425781 194.414062 177.410156 194.152344 179.398438 C 193.886719 181.386719 193.667969 183.382812 193.492188 185.382812 C 193.320312 187.382812 193.191406 189.382812 193.109375 191.390625 C 193.027344 193.394531 192.992188 195.402344 193.003906 197.410156 C 192.96875 205.847656 193.765625 214.207031 195.390625 222.484375 C 189.953125 221.636719 184.476562 221.238281 178.972656 221.292969 C 175.960938 221.28125 172.953125 221.398438 169.949219 221.636719 C 166.949219 221.875 163.960938 222.238281 160.988281 222.722656 C 158.015625 223.210938 155.066406 223.816406 152.144531 224.546875 C 149.222656 225.273438 146.335938 226.125 143.484375 227.089844 C 140.632812 228.058594 137.824219 229.140625 135.0625 230.339844 C 132.296875 231.539062 129.589844 232.851562 126.933594 234.273438 C 124.28125 235.699219 121.6875 237.226562 119.160156 238.863281 C 116.632812 240.503906 114.175781 242.242188 111.792969 244.082031 C 109.40625 245.921875 107.101562 247.855469 104.878906 249.886719 C 102.652344 251.917969 100.515625 254.035156 98.464844 256.242188 C 96.414062 258.449219 94.460938 260.734375 92.597656 263.105469 C 90.738281 265.472656 88.976562 267.914062 87.320312 270.425781 C 85.660156 272.941406 84.105469 275.519531 82.660156 278.160156 C 81.214844 280.800781 79.878906 283.5 78.65625 286.25 C 77.429688 289.003906 76.324219 291.800781 75.328125 294.644531 C 74.335938 297.488281 73.464844 300.367188 72.707031 303.285156 C 71.953125 306.199219 71.320312 309.140625 70.808594 312.109375 C 70.296875 315.078125 69.90625 318.0625 69.640625 321.0625 C 69.375 324.0625 69.234375 327.066406 69.21875 330.078125 C 69.199219 333.09375 69.308594 336.097656 69.539062 339.101562 C 69.769531 342.105469 70.125 345.09375 70.601562 348.066406 C 71.078125 351.042969 71.679688 353.992188 72.398438 356.914062 C 73.121094 359.839844 73.960938 362.730469 74.921875 365.582031 C 75.882812 368.4375 76.957031 371.25 78.152344 374.015625 C 79.34375 376.78125 80.648438 379.492188 82.0625 382.152344 C 83.480469 384.808594 85.003906 387.40625 86.632812 389.9375 C 88.261719 392.46875 89.996094 394.929688 91.828125 397.320312 C 93.664062 399.710938 95.589844 402.019531 97.617188 404.25 C 99.640625 406.480469 101.753906 408.621094 103.953125 410.679688 C 106.15625 412.734375 108.4375 414.695312 110.800781 416.5625 C 113.164062 418.429688 115.601562 420.195312 118.109375 421.863281 C 120.621094 423.527344 123.191406 425.089844 125.832031 426.542969 C 129.15625 428.769531 132.628906 430.742188 136.25 432.457031 C 139.867188 434.167969 143.59375 435.609375 147.425781 436.773438 C 151.253906 437.933594 155.152344 438.808594 159.113281 439.398438 C 163.074219 439.984375 167.054688 440.277344 171.058594 440.273438 L 617.085938 440.273438 C 618.421875 440.273438 619.757812 440.238281 621.089844 440.167969 C 622.425781 440.101562 623.757812 440 625.085938 439.867188 C 626.414062 439.734375 627.738281 439.570312 629.058594 439.371094 C 630.382812 439.171875 631.695312 438.945312 633.003906 438.679688 C 634.316406 438.417969 635.617188 438.125 636.914062 437.796875 C 638.207031 437.472656 639.496094 437.113281 640.773438 436.726562 C 642.050781 436.335938 643.316406 435.917969 644.574219 435.464844 C 645.832031 435.011719 647.078125 434.53125 648.308594 434.019531 C 649.542969 433.507812 650.765625 432.964844 651.972656 432.394531 C 653.179688 431.820312 654.371094 431.21875 655.546875 430.589844 C 656.726562 429.960938 657.886719 429.300781 659.03125 428.613281 C 660.175781 427.925781 661.304688 427.210938 662.414062 426.46875 C 663.523438 425.726562 664.617188 424.957031 665.6875 424.160156 C 666.761719 423.363281 667.8125 422.542969 668.847656 421.695312 C 669.878906 420.847656 670.890625 419.976562 671.878906 419.078125 C 672.867188 418.179688 673.835938 417.261719 674.78125 416.316406 C 675.722656 415.371094 676.644531 414.40625 677.542969 413.414062 C 678.4375 412.425781 679.3125 411.414062 680.160156 410.382812 C 681.007812 409.351562 681.828125 408.296875 682.625 407.226562 C 683.421875 406.152344 684.191406 405.0625 684.933594 403.949219 C 685.675781 402.839844 686.390625 401.714844 687.078125 400.566406 C 687.765625 399.421875 688.421875 398.261719 689.054688 397.082031 C 689.683594 395.90625 690.285156 394.714844 690.855469 393.507812 C 691.429688 392.300781 691.972656 391.078125 692.484375 389.847656 C 692.996094 388.613281 693.476562 387.367188 693.929688 386.109375 C 694.378906 384.855469 694.800781 383.585938 695.1875 382.308594 C 695.578125 381.03125 695.9375 379.746094 696.261719 378.449219 C 696.589844 377.152344 696.882812 375.851562 697.144531 374.542969 C 697.40625 373.230469 697.636719 371.917969 697.835938 370.597656 C 698.035156 369.273438 698.199219 367.949219 698.332031 366.621094 C 698.464844 365.292969 698.566406 363.960938 698.632812 362.628906 C 698.699219 361.292969 698.734375 359.957031 698.738281 358.621094 C 698.734375 357.289062 698.699219 355.953125 698.632812 354.617188 C 698.566406 353.285156 698.464844 351.953125 698.332031 350.625 C 698.199219 349.296875 698.035156 347.96875 697.835938 346.648438 C 697.636719 345.328125 697.40625 344.011719 697.144531 342.703125 C 696.882812 341.394531 696.589844 340.089844 696.261719 338.796875 C 695.9375 337.5 695.578125 336.214844 695.1875 334.9375 C 694.800781 333.660156 694.378906 332.390625 693.929688 331.136719 C 693.476562 329.878906 692.996094 328.632812 692.484375 327.398438 C 691.972656 326.164062 691.429688 324.945312 690.855469 323.738281 C 690.285156 322.53125 689.683594 321.339844 689.054688 320.160156 C 688.421875 318.984375 687.765625 317.824219 687.078125 316.675781 C 686.390625 315.53125 685.675781 314.40625 684.933594 313.292969 C 684.191406 312.183594 683.421875 311.09375 682.625 310.019531 C 681.828125 308.949219 681.007812 307.894531 680.160156 306.863281 C 679.3125 305.832031 678.4375 304.820312 677.542969 303.832031 C 676.644531 302.839844 675.722656 301.875 674.78125 300.929688 C 673.835938 299.984375 672.867188 299.0625 671.878906 298.167969 C 670.890625 297.269531 669.878906 296.398438 668.847656 295.550781 C 667.8125 294.703125 666.761719 293.882812 665.6875 293.085938 C 664.617188 292.289062 663.523438 291.519531 662.414062 290.777344 C 661.304688 290.035156 660.175781 289.320312 659.03125 288.632812 C 657.886719 287.945312 656.726562 287.285156 655.546875 286.65625 C 654.371094 286.027344 653.179688 285.425781 651.972656 284.851562 C 650.765625 284.28125 649.542969 283.738281 648.308594 283.226562 C 647.078125 282.714844 645.832031 282.230469 644.574219 281.78125 C 643.316406 281.328125 642.050781 280.910156 640.773438 280.519531 C 639.496094 280.128906 638.207031 279.773438 636.914062 279.445312 C 635.617188 279.121094 634.316406 278.828125 633.003906 278.5625 C 631.695312 278.300781 630.382812 278.070312 629.058594 277.875 C 627.738281 277.675781 626.414062 277.511719 625.085938 277.378906 C 623.757812 277.246094 622.425781 277.144531 621.089844 277.074219 C 619.757812 277.007812 618.421875 276.972656 617.085938 276.972656 Z M 617.085938 276.972656 " fill-opacity="1" fill-rule="nonzero"/></g></svg>